<svg width="46" height="46" viewBox="0 0 46 46" fill="none" xmlns="http://www.w3.org/2000/svg">
<rect width="46" height="46" rx="23" fill="#EAF1FF"/>
<path d="M30.875 33.5H25.4653C26.374 32.6885 27.231 31.8209 28.0312 30.9023C31.0336 27.4494 32.625 23.8094 32.625 20.375C32.625 17.8223 31.6109 15.3741 29.8059 13.5691C28.0009 11.7641 25.5527 10.75 23 10.75C20.4473 10.75 17.9991 11.7641 16.1941 13.5691C14.3891 15.3741 13.375 17.8223 13.375 20.375C13.375 23.8094 14.962 27.4494 17.9688 30.9023C18.769 31.8209 19.626 32.6885 20.5347 33.5H15.125C14.8929 33.5 14.6704 33.5922 14.5063 33.7563C14.3422 33.9204 14.25 34.1429 14.25 34.375C14.25 34.6071 14.3422 34.8296 14.5063 34.9937C14.6704 35.1578 14.8929 35.25 15.125 35.25H30.875C31.1071 35.25 31.3296 35.1578 31.4937 34.9937C31.6578 34.8296 31.75 34.6071 31.75 34.375C31.75 34.1429 31.6578 33.9204 31.4937 33.7563C31.3296 33.5922 31.1071 33.5 30.875 33.5ZM15.125 20.375C15.125 18.2864 15.9547 16.2834 17.4315 14.8065C18.9084 13.3297 20.9114 12.5 23 12.5C25.0886 12.5 27.0916 13.3297 28.5685 14.8065C30.0453 16.2834 30.875 18.2864 30.875 20.375C30.875 26.6345 24.808 31.8594 23 33.2812C21.192 31.8594 15.125 26.6345 15.125 20.375ZM27.375 20.375C27.375 19.5097 27.1184 18.6638 26.6377 17.9444C26.1569 17.2249 25.4737 16.6642 24.6742 16.333C23.8748 16.0019 22.9951 15.9153 22.1465 16.0841C21.2978 16.2529 20.5183 16.6696 19.9064 17.2814C19.2946 17.8933 18.8779 18.6728 18.7091 19.5215C18.5403 20.3701 18.6269 21.2498 18.958 22.0492C19.2892 22.8487 19.8499 23.5319 20.5694 24.0127C21.2888 24.4934 22.1347 24.75 23 24.75C24.1603 24.75 25.2731 24.2891 26.0936 23.4686C26.9141 22.6481 27.375 21.5353 27.375 20.375ZM20.375 20.375C20.375 19.8558 20.529 19.3483 20.8174 18.9166C21.1058 18.4849 21.5158 18.1485 21.9955 17.9498C22.4751 17.7511 23.0029 17.6992 23.5121 17.8004C24.0213 17.9017 24.489 18.1517 24.8562 18.5188C25.2233 18.886 25.4733 19.3537 25.5746 19.8629C25.6758 20.3721 25.6239 20.8999 25.4252 21.3795C25.2265 21.8592 24.89 22.2692 24.4584 22.5576C24.0267 22.846 23.5192 23 23 23C22.3038 23 21.6361 22.7234 21.1438 22.2312C20.6516 21.7389 20.375 21.0712 20.375 20.375Z" fill="#002873"/>
</svg>
