<svg width="73" height="71" viewBox="0 0 73 71" fill="none" xmlns="http://www.w3.org/2000/svg">
<ellipse cx="36.4932" cy="35.105" rx="35.9932" ry="35" fill="white"/>
<path d="M52.9212 52.2662C52.9212 47.5246 52.5207 45.1115 47.5079 43.1735C42.5117 41.2439 40.9161 39.6183 40.9161 36.135C40.9161 34.047 42.4411 34.7268 43.1094 30.8972C43.3918 29.3096 44.738 30.8719 44.9969 27.2471C44.9969 25.803 44.2602 25.4441 44.2602 25.4441C44.2602 25.4441 44.6344 23.3056 44.7803 21.6589C44.931 19.9341 43.8437 16.2544 39.3652 15.1249C38.5838 14.405 38.0543 13.2629 40.4642 12.1186C35.1926 11.8991 33.9665 14.3733 31.1589 16.1931C28.7702 17.7892 28.1253 20.3162 28.2407 21.661C28.3936 23.3077 28.7655 25.4463 28.7655 25.4463C28.7655 25.4463 28.0265 25.8052 28.0265 27.2492C28.2854 30.8761 29.6362 29.3118 29.9163 30.8993C30.5846 34.7289 32.112 34.0492 32.112 36.1371C32.112 39.6205 31.6131 40.8027 26.6145 42.7323C21.5994 44.6682 20.0391 47.7716 20.0649 52.2662C20.072 53.611 20.0391 54.105 20.0391 54.105H52.9471C52.9471 54.105 52.9212 53.611 52.9212 52.2662Z" fill="#002873"/>
</svg>
