<svg width="22" height="23" viewBox="0 0 22 23" fill="none" xmlns="http://www.w3.org/2000/svg">
<path d="M1.97656 2.47656H3.54665C4.52118 2.47656 5.28816 3.31574 5.20695 4.28125L4.45801 13.2686C4.33168 14.7394 5.49569 16.0027 6.97554 16.0027H16.5855C17.8849 16.0027 19.0218 14.9379 19.1211 13.6476L19.6084 6.88C19.7166 5.38211 18.5797 4.16395 17.0728 4.16395H5.42352" stroke="white" stroke-width="1.35352" stroke-miterlimit="10" stroke-linecap="round" stroke-linejoin="round"/>
<path d="M14.835 20.5234C15.4579 20.5234 15.9629 20.0185 15.9629 19.3955C15.9629 18.7725 15.4579 18.2676 14.835 18.2676C14.212 18.2676 13.707 18.7725 13.707 19.3955C13.707 20.0185 14.212 20.5234 14.835 20.5234Z" stroke="white" stroke-width="1.35352" stroke-miterlimit="10" stroke-linecap="round" stroke-linejoin="round"/>
<path d="M7.61621 20.5234C8.23915 20.5234 8.74414 20.0185 8.74414 19.3955C8.74414 18.7725 8.23915 18.2676 7.61621 18.2676C6.99327 18.2676 6.48828 18.7725 6.48828 19.3955C6.48828 20.0185 6.99327 20.5234 7.61621 20.5234Z" stroke="white" stroke-width="1.35352" stroke-miterlimit="10" stroke-linecap="round" stroke-linejoin="round"/>
<path d="M9.21289 10.1599H14.627" stroke="white" stroke-width="1.35352" stroke-miterlimit="10" stroke-linecap="round" stroke-linejoin="round"/>
<path d="M11.9199 7.45288L11.9199 12.8669" stroke="white" stroke-width="1.35352" stroke-miterlimit="10" stroke-linecap="round" stroke-linejoin="round"/>
</svg>
