<svg width="31" height="30" viewBox="0 0 31 30" fill="none" xmlns="http://www.w3.org/2000/svg">
<path d="M25.0833 0C26.5199 0 27.8977 0.570683 28.9135 1.5865C29.9293 2.60233 30.5 3.98008 30.5 5.41667V24.5833C30.5 26.0199 29.9293 27.3977 28.9135 28.4135C27.8977 29.4293 26.5199 30 25.0833 30H5.91667C4.48008 30 3.10233 29.4293 2.0865 28.4135C1.07068 27.3977 0.5 26.0199 0.5 24.5833V5.41667C0.5 3.98008 1.07068 2.60233 2.0865 1.5865C3.10233 0.570683 4.48008 0 5.91667 0H25.0833ZM28 9.16667H3V24.5833C3 26.1933 4.30667 27.5 5.91667 27.5H25.0833C25.8569 27.5 26.5987 27.1927 27.1457 26.6457C27.6927 26.0987 28 25.3569 28 24.5833V9.16667ZM8.41667 19.1667C8.9692 19.1667 9.4991 19.3862 9.88981 19.7769C10.2805 20.1676 10.5 20.6975 10.5 21.25C10.5 21.8025 10.2805 22.3324 9.88981 22.7231C9.4991 23.1138 8.9692 23.3333 8.41667 23.3333C7.86413 23.3333 7.33423 23.1138 6.94353 22.7231C6.55283 22.3324 6.33333 21.8025 6.33333 21.25C6.33333 20.6975 6.55283 20.1676 6.94353 19.7769C7.33423 19.3862 7.86413 19.1667 8.41667 19.1667ZM15.5 19.1667C16.0525 19.1667 16.5824 19.3862 16.9731 19.7769C17.3638 20.1676 17.5833 20.6975 17.5833 21.25C17.5833 21.8025 17.3638 22.3324 16.9731 22.7231C16.5824 23.1138 16.0525 23.3333 15.5 23.3333C14.9475 23.3333 14.4176 23.1138 14.0269 22.7231C13.6362 22.3324 13.4167 21.8025 13.4167 21.25C13.4167 20.6975 13.6362 20.1676 14.0269 19.7769C14.4176 19.3862 14.9475 19.1667 15.5 19.1667ZM8.41667 12.5C8.9692 12.5 9.4991 12.7195 9.88981 13.1102C10.2805 13.5009 10.5 14.0308 10.5 14.5833C10.5 15.1359 10.2805 15.6658 9.88981 16.0565C9.4991 16.4472 8.9692 16.6667 8.41667 16.6667C7.86413 16.6667 7.33423 16.4472 6.94353 16.0565C6.55283 15.6658 6.33333 15.1359 6.33333 14.5833C6.33333 14.0308 6.55283 13.5009 6.94353 13.1102C7.33423 12.7195 7.86413 12.5 8.41667 12.5ZM15.5 12.5C16.0525 12.5 16.5824 12.7195 16.9731 13.1102C17.3638 13.5009 17.5833 14.0308 17.5833 14.5833C17.5833 15.1359 17.3638 15.6658 16.9731 16.0565C16.5824 16.4472 16.0525 16.6667 15.5 16.6667C14.9475 16.6667 14.4176 16.4472 14.0269 16.0565C13.6362 15.6658 13.4167 15.1359 13.4167 14.5833C13.4167 14.0308 13.6362 13.5009 14.0269 13.1102C14.4176 12.7195 14.9475 12.5 15.5 12.5ZM22.5833 12.5C23.1359 12.5 23.6658 12.7195 24.0565 13.1102C24.4472 13.5009 24.6667 14.0308 24.6667 14.5833C24.6667 15.1359 24.4472 15.6658 24.0565 16.0565C23.6658 16.4472 23.1359 16.6667 22.5833 16.6667C22.0308 16.6667 21.5009 16.4472 21.1102 16.0565C20.7195 15.6658 20.5 15.1359 20.5 14.5833C20.5 14.0308 20.7195 13.5009 21.1102 13.1102C21.5009 12.7195 22.0308 12.5 22.5833 12.5ZM25.0833 2.5H5.91667C5.14312 2.5 4.40125 2.80729 3.85427 3.35427C3.30729 3.90125 3 4.64312 3 5.41667V6.66667H28V5.41667C28 4.64312 27.6927 3.90125 27.1457 3.35427C26.5987 2.80729 25.8569 2.5 25.0833 2.5Z" fill="#002873"/>
</svg>
