<svg width="17" height="16" viewBox="0 0 17 16" fill="none" xmlns="http://www.w3.org/2000/svg">
<path d="M8.68009 12.5421C9.68844 12.5421 10.5457 12.1893 11.2518 11.4837C11.9579 10.7781 12.3107 9.92092 12.3102 8.91203C12.3096 7.90314 11.9568 7.04617 11.2518 6.34113C10.5468 5.63609 9.68952 5.28304 8.68009 5.28196C7.67067 5.28089 6.8137 5.63394 6.1092 6.34113C5.4047 7.04832 5.05164 7.90529 5.05003 8.91203C5.04841 9.91876 5.40147 10.776 6.1092 11.4837C6.81693 12.1915 7.67389 12.5442 8.68009 12.5421ZM8.68009 10.9287C8.11542 10.9287 7.63813 10.7338 7.24823 10.3439C6.85834 9.95399 6.66339 9.4767 6.66339 8.91203C6.66339 8.34735 6.85834 7.87006 7.24823 7.48017C7.63813 7.09027 8.11542 6.89532 8.68009 6.89532C9.24477 6.89532 9.72206 7.09027 10.112 7.48017C10.5018 7.87006 10.6968 8.34735 10.6968 8.91203C10.6968 9.4767 10.5018 9.95399 10.112 10.3439C9.72206 10.7338 9.24477 10.9287 8.68009 10.9287ZM2.22664 15.3655C1.78297 15.3655 1.40329 15.2076 1.08761 14.892C0.771929 14.5763 0.613819 14.1963 0.613281 13.7521V4.07194C0.613281 3.62826 0.771391 3.24859 1.08761 2.93291C1.40383 2.61722 1.78351 2.45911 2.22664 2.45858H4.76769L6.26005 0.845215H11.1001L12.5925 2.45858H15.1335C15.5772 2.45858 15.9572 2.61669 16.2734 2.93291C16.5896 3.24912 16.7474 3.6288 16.7469 4.07194V13.7521C16.7469 14.1958 16.5891 14.5757 16.2734 14.892C15.9577 15.2082 15.5778 15.366 15.1335 15.3655H2.22664ZM2.22664 13.7521H15.1335V4.07194H11.8665L10.3943 2.45858H6.9659L5.4937 4.07194H2.22664V13.7521Z" fill="#002873"/>
</svg>
