<svg width="23" height="23" viewBox="0 0 23 23" fill="none" xmlns="http://www.w3.org/2000/svg">
<path d="M2.5625 2.47656H4.13259C5.10712 2.47656 5.8741 3.31574 5.79289 4.28125L5.04395 13.2686C4.91762 14.7394 6.08163 16.0027 7.56148 16.0027H17.1714C18.4708 16.0027 19.6078 14.9379 19.707 13.6476L20.1943 6.88C20.3026 5.38211 19.1656 4.16395 17.6587 4.16395H6.00946" stroke="white" stroke-width="1.35352" stroke-miterlimit="10" stroke-linecap="round" stroke-linejoin="round"/>
<path d="M15.4209 20.5234C16.0439 20.5234 16.5488 20.0185 16.5488 19.3955C16.5488 18.7725 16.0439 18.2676 15.4209 18.2676C14.7979 18.2676 14.293 18.7725 14.293 19.3955C14.293 20.0185 14.7979 20.5234 15.4209 20.5234Z" stroke="white" stroke-width="1.35352" stroke-miterlimit="10" stroke-linecap="round" stroke-linejoin="round"/>
<path d="M8.20215 20.5234C8.82509 20.5234 9.33008 20.0185 9.33008 19.3955C9.33008 18.7725 8.82509 18.2676 8.20215 18.2676C7.57921 18.2676 7.07422 18.7725 7.07422 19.3955C7.07422 20.0185 7.57921 20.5234 8.20215 20.5234Z" stroke="white" stroke-width="1.35352" stroke-miterlimit="10" stroke-linecap="round" stroke-linejoin="round"/>
<path d="M9.79883 10.1599H15.2129" stroke="white" stroke-width="1.35352" stroke-miterlimit="10" stroke-linecap="round" stroke-linejoin="round"/>
<path d="M12.5059 7.45288L12.5059 12.8669" stroke="white" stroke-width="1.35352" stroke-miterlimit="10" stroke-linecap="round" stroke-linejoin="round"/>
</svg>
