<svg width="58" height="56" viewBox="0 0 58 56" fill="none" xmlns="http://www.w3.org/2000/svg">
<path fill-rule="evenodd" clip-rule="evenodd" d="M45.5993 17.5858C45.2935 17.5858 45.0556 17.4498 44.8858 17.212C44.6479 16.8382 44.7498 16.3286 45.1236 16.0907C46.4827 15.2413 47.2302 14.3239 47.2642 13.5764C47.3322 13.0667 46.9584 12.693 46.9584 12.693C46.6186 12.4211 46.5846 11.8435 46.8904 11.5037C47.1962 11.1979 47.7399 11.13 48.0797 11.4698C48.1816 11.5717 49.065 12.3532 48.9291 13.7123C48.8272 15.0374 47.8418 16.3286 46.007 17.4838C45.8711 17.5518 45.7352 17.5858 45.5993 17.5858Z" fill="#002873"/>
<path fill-rule="evenodd" clip-rule="evenodd" d="M38.9408 22.9883C38.9069 22.9883 38.8389 22.9883 38.8049 22.9883C38.3292 22.9883 38.0234 22.6145 38.0234 22.1388C38.0234 21.6971 38.3972 21.2894 38.8389 21.3573C42.8483 21.4593 44.785 16.4985 44.785 16.4645C44.9209 16.0228 45.4306 15.785 45.8723 15.9888C46.28 16.1248 46.5179 16.6344 46.348 17.0761C46.2461 17.314 44.0375 22.9883 38.9408 22.9883Z" fill="#002873"/>
<path fill-rule="evenodd" clip-rule="evenodd" d="M38.1931 23.0561C36.3583 23.0561 34.7953 22.4445 33.5721 21.2213C30.2423 17.9255 30.3443 11.2659 30.4802 9.29516C30.4802 9.26118 30.4802 9.19323 30.4802 9.15925C30.5141 8.98936 30.5821 8.81947 30.6161 8.75152C31.5675 5.48965 34.4216 0.0871914 39.3144 0.223102C39.926 0.155147 43.7655 -0.150653 46.3478 2.46563C48.3525 4.53828 49.066 7.83412 48.3525 12.2172C48.2845 12.6929 47.8768 12.9648 47.4351 12.9308C46.9594 12.8288 46.6536 12.4551 46.7215 11.9794C47.3331 8.07196 46.8235 5.28579 45.1586 3.62088C42.984 1.41232 39.5183 1.82006 39.4503 1.82006C39.4163 1.82006 39.3823 1.82006 39.3144 1.82006C35.9506 1.68415 33.2663 5.52363 32.1791 9.19323C32.1111 9.29516 32.1111 9.39709 32.0771 9.49903C31.8733 13.1686 32.4509 17.8236 34.7274 20.0321C35.7467 21.0854 37.0719 21.4932 38.7028 21.3573C39.1785 21.2893 39.5522 21.6291 39.6202 22.1048C39.6542 22.5805 39.3144 22.9542 38.8387 22.9882C38.6688 22.9882 38.431 23.0561 38.1931 23.0561Z" fill="#002873"/>
<path fill-rule="evenodd" clip-rule="evenodd" d="M47.5016 12.8967L42.4729 12.7948C41.9972 12.7948 41.6914 12.421 41.6914 11.9453C41.6914 11.4697 42.0652 11.1299 42.5408 11.1299L47.5696 11.2318C48.0452 11.2318 48.351 11.6056 48.351 12.0813C48.351 12.489 47.9773 12.8967 47.5016 12.8967Z" fill="#002873"/>
<path fill-rule="evenodd" clip-rule="evenodd" d="M43.1885 12.7947C42.8488 12.7947 42.5769 12.5909 42.441 12.3191C42.3051 12.0812 39.3151 6.13511 31.738 9.66879C31.3303 9.87266 30.8546 9.66879 30.6507 9.26106C30.4809 8.81935 30.6507 8.37764 31.0925 8.17377C40.1645 3.92656 43.936 11.5036 43.97 11.5715C44.1739 11.9793 43.97 12.455 43.5963 12.6588C43.4264 12.7947 43.3244 12.7947 43.1885 12.7947Z" fill="#002873"/>
<path fill-rule="evenodd" clip-rule="evenodd" d="M42.472 12.7947H37.0016C36.7977 12.7947 36.5939 12.6928 36.458 12.5569C35.6425 11.7414 33.1621 9.77073 31.2594 10.1445C30.4439 10.3483 29.7644 10.9939 29.2547 12.1831C29.0508 12.5909 28.5751 12.7947 28.1674 12.5909C27.7597 12.421 27.5558 11.9453 27.7597 11.5036C28.4392 9.77073 29.5265 8.78537 30.9536 8.51355C33.5699 7.96991 36.458 10.3483 37.3414 11.1298H42.472C42.9477 11.1298 43.3215 11.5036 43.3215 11.9793C43.3215 12.455 42.9477 12.7947 42.472 12.7947Z" fill="#002873"/>
<path fill-rule="evenodd" clip-rule="evenodd" d="M54.2285 48.7433C50.9327 48.7433 44.0692 44.1223 43.2877 43.5786C42.9139 43.3408 42.812 42.8311 43.0498 42.4234C43.2877 42.0497 43.7973 41.9817 44.1711 42.2195C46.1078 43.5107 51.5103 46.8745 53.9567 47.0444C54.2965 46.5347 55.2478 44.4281 56.0633 35.5259C56.3691 32.7058 56.3691 32.7058 54.0246 31.1088C53.7188 30.905 53.413 30.6671 53.0053 30.4293C49.2677 27.9489 43.7973 25.0608 43.7634 25.0268C43.3216 24.8229 43.1857 24.3133 43.4236 23.9055C43.5935 23.4638 44.1371 23.3279 44.5448 23.5658C44.5788 23.5997 50.1512 26.4878 54.0586 29.1041C54.4324 29.342 54.7721 29.5798 55.044 29.7837C57.8301 31.6525 58.2039 32.0262 57.8641 35.6958C56.7768 47.3842 55.4517 48.2336 54.9081 48.6074C54.7721 48.7093 54.6362 48.7433 54.4663 48.7433C54.3304 48.7433 54.2965 48.7433 54.2285 48.7433Z" fill="#002873"/>
<path fill-rule="evenodd" clip-rule="evenodd" d="M41.079 55.8107C40.2975 55.8107 39.516 55.6748 38.8025 55.335C34.2834 53.874 27.0801 51.6994 25.2453 51.6994C25.2114 51.6994 25.2114 51.6994 25.1434 51.6994C20.2506 52.1751 16.9548 51.5635 15.3238 49.9325C14.2365 48.8453 14.3385 47.656 14.3385 47.5541C14.3725 47.1464 14.7122 46.8066 15.12 46.8066H24.226C24.6677 46.8066 25.0754 47.1803 25.0754 47.656C25.0754 48.1317 24.6677 48.5055 24.226 48.5055H16.2073C16.3092 48.6074 16.4111 48.7433 16.4791 48.8792C17.2606 49.5928 19.3332 50.6801 24.9735 50.1704H25.0075C27.4539 50.0345 38.0889 53.4662 39.3121 53.874C39.3801 53.874 39.3801 53.874 39.414 53.9079C40.7732 54.5195 42.3701 54.3497 43.3555 53.3983C43.4234 53.3643 50.0491 47.1124 50.8985 46.5688C51.2723 46.3309 51.7819 46.5008 52.0198 46.8746C52.2576 47.2483 52.1217 47.758 51.748 47.9958C51.2383 48.3356 47.093 52.1751 44.5107 54.5875C43.5933 55.369 42.3701 55.8107 41.079 55.8107Z" fill="#002873"/>
<path fill-rule="evenodd" clip-rule="evenodd" d="M36.2541 36.2396C36.2201 36.2396 36.2201 36.2396 36.1862 36.2396C35.8464 36.1716 35.5746 35.9338 35.4726 35.628L33.7737 29.3421C33.7737 29.3081 33.7737 29.2741 33.7737 29.2062L33.332 25.4007C33.332 25.2647 33.332 25.1288 33.4 25.0269L34.7931 21.2893C34.929 20.8816 35.4726 20.6438 35.8804 20.8476C36.3221 20.9835 36.5599 21.4932 36.3561 21.9009L34.9969 25.4346L35.4047 28.9683L36.5939 33.2495L38.7685 29.444C38.7685 29.444 38.7685 29.444 38.7685 29.41C38.8024 29.3421 38.8024 29.3081 38.8364 29.2741L43.3215 24.3134L42.3022 20.7457C42.1323 20.304 42.4381 19.8623 42.8458 19.6924C43.2875 19.5565 43.7632 19.8623 43.8991 20.27L45.0544 24.2794C45.1563 24.5512 45.0544 24.823 44.8845 25.0609L40.8411 29.5459L44.137 31.2448L47.4328 26.0123C47.6706 25.6385 48.1803 25.5026 48.5541 25.7744C48.9278 26.0123 49.0637 26.5219 48.7919 26.8957L45.0204 32.7398C44.7825 33.1136 44.3068 33.2155 43.9331 33.0117L39.7538 30.8711L36.9676 35.7639C36.8317 36.0357 36.5599 36.2396 36.2541 36.2396Z" fill="#002873"/>
<path fill-rule="evenodd" clip-rule="evenodd" d="M31.1241 32.9775C31.0561 32.9775 30.9542 32.9775 30.8523 32.9436C30.5805 32.8416 30.3766 32.6038 30.2747 32.332L29.2893 26.9975C29.1874 26.6237 29.4252 26.216 29.799 26.0461L33.8763 24.5511C34.284 24.4151 34.7597 24.585 34.9296 25.0267C35.1335 25.4345 34.8956 25.9102 34.4879 26.114L31.0901 27.3712L31.7357 30.5651L34.1141 28.4925C34.4199 28.2207 34.9296 28.2207 35.2694 28.5944C35.5752 28.9342 35.5752 29.4438 35.1674 29.7836L31.7357 32.7737C31.4979 32.8756 31.328 32.9775 31.1241 32.9775Z" fill="#002873"/>
<path fill-rule="evenodd" clip-rule="evenodd" d="M24.297 48.4715H21.171C19.8799 48.4715 18.8945 47.4182 18.8945 46.195C18.8945 44.9718 19.9478 43.9524 21.171 43.9524L25.4862 44.1223H25.5881L39.9268 46.5347C40.5044 46.6367 42.2033 45.8892 45.2952 36.6132L45.4991 36.0356C45.635 35.6279 46.1107 35.39 46.5184 35.5259C46.9601 35.6619 47.198 36.1375 47.0621 36.5453L46.8582 37.1229C44.8195 43.137 42.577 48.6413 39.6549 48.1657L25.3843 45.7872L21.171 45.5834C20.8313 45.5834 20.5594 45.8892 20.5594 46.195C20.5594 46.5687 20.8313 46.8066 21.171 46.8066H24.297C24.7727 46.8066 25.1464 47.1803 25.1464 47.656C25.1464 48.1317 24.7727 48.4715 24.297 48.4715Z" fill="#002873"/>
<path fill-rule="evenodd" clip-rule="evenodd" d="M15.1892 48.4716H2.27769C1.02051 48.4716 0.0351562 47.4862 0.0351562 46.1951V28.9684C0.0351562 27.7452 1.05449 26.7258 2.27769 26.7258H23.2759C24.5331 26.7258 25.5185 27.7112 25.5185 28.9684V44.9039C25.5185 45.3456 25.1447 45.7194 24.703 45.7194C24.2273 45.7194 23.8536 45.3456 23.8536 44.9039V28.9684C23.8536 28.6626 23.5478 28.3568 23.242 28.3568H2.24371C1.90393 28.3568 1.63211 28.6626 1.63211 28.9684V46.1951C1.63211 46.5349 1.90393 46.8067 2.24371 46.8067H15.1213C15.597 46.8067 15.9707 47.1804 15.9707 47.6561C15.9707 48.1318 15.6649 48.4716 15.1892 48.4716Z" fill="#002873"/>
<path fill-rule="evenodd" clip-rule="evenodd" d="M15.1887 48.4716C14.713 48.4716 14.3393 48.0978 14.3393 47.6221V27.5753C14.3393 27.0996 14.713 26.7258 15.1887 26.7258C15.6644 26.7258 16.0382 27.0996 16.0382 27.5753V47.6561C15.9702 48.1318 15.6644 48.4716 15.1887 48.4716ZM10.3299 48.4716C9.85422 48.4716 9.48047 48.0978 9.48047 47.6221V27.5753C9.48047 27.0996 9.85422 26.7258 10.3299 26.7258C10.8056 26.7258 11.1794 27.0996 11.1794 27.5753V47.6561C11.1794 48.1318 10.8056 48.4716 10.3299 48.4716Z" fill="#002873"/>
<path fill-rule="evenodd" clip-rule="evenodd" d="M24.7048 31.0068C24.399 31.0068 24.1611 30.8709 23.9912 30.6331C23.7534 30.2593 23.8553 29.7157 24.2291 29.5118C26.7094 27.8129 29.6315 26.148 29.6655 26.148C30.0393 25.9102 30.5829 26.0461 30.8208 26.4878C31.0586 26.8616 30.8887 27.3712 30.481 27.6091C30.447 27.6091 27.5929 29.274 25.1465 30.9049C25.0106 30.9389 24.8746 31.0068 24.7048 31.0068Z" fill="#002873"/>
<path fill-rule="evenodd" clip-rule="evenodd" d="M35.7121 39.5353C35.2365 39.5353 34.8627 39.0936 34.8967 38.6859L34.9307 37.8365C34.9307 37.3608 35.3724 37.021 35.7801 37.021C36.2558 37.021 36.5956 37.4627 36.5956 37.8704L36.5616 38.7199C36.4936 39.1956 36.1878 39.5353 35.7121 39.5353Z" fill="#002873"/>
<path fill-rule="evenodd" clip-rule="evenodd" d="M35.3376 43.001H35.2696C34.7939 42.967 34.4881 42.5933 34.5221 42.1176L34.5561 41.2681C34.624 40.7924 34.9978 40.4527 35.4735 40.5206C35.9492 40.5546 36.255 40.9284 36.221 41.404L36.187 42.2535C36.0851 42.6612 35.7453 43.001 35.3376 43.001Z" fill="#002873"/>
</svg>
