<svg width="46" height="46" viewBox="0 0 46 46" fill="none" xmlns="http://www.w3.org/2000/svg">
<path d="M37.8929 25.6866V18.1911C40.0953 17.8632 41.9195 15.9796 41.9195 13.4609C41.9195 13.3383 42.1467 14.0844 37.8542 0.787262C37.7496 0.464515 37.4501 0.246338 37.1105 0.246338H5.69175C5.35222 0.246338 5.05271 0.464515 4.94814 0.787262C4.5518 2.01757 0.938325 13.2143 0.91896 13.275V13.2763C0.894431 13.3537 0.882812 13.4364 0.882812 13.5164C0.882812 15.8854 2.63468 17.8541 4.9107 18.1937V36.5012H1.66386C1.23267 36.5012 0.882812 36.851 0.882812 37.2822V40.9783C0.882812 41.4095 1.23267 41.7594 1.66386 41.7594H35.693C36.833 43.8069 37.7999 45.3664 37.8115 45.3845C38.1149 45.8763 38.8353 45.8763 39.1387 45.3845C40.7421 42.7612 45.1185 35.347 45.1185 32.3042C45.116 28.4958 41.9014 25.3638 37.8929 25.6866ZM37.1919 16.6806H37.188C35.7137 16.6793 34.4718 15.6633 34.1232 14.2949H40.2606C39.912 15.6659 38.6688 16.6806 37.1919 16.6806ZM14.1193 12.7328H9.20969L10.8208 5.24505H14.9249C14.8771 5.68527 14.1671 12.2913 14.1193 12.7328ZM20.6207 12.7328H17.4539H15.6917L16.4973 5.24505H20.6207V12.7328ZM27.1118 12.7328H22.1841V5.24505H26.3063C26.354 5.68527 27.0641 12.2913 27.1118 12.7328ZM33.5926 12.7328H28.6817L27.8761 5.24505H31.9827C32.077 5.68527 33.4971 12.2913 33.5926 12.7328ZM16.5748 14.2962C16.2262 15.6659 14.983 16.6819 13.5061 16.6819C12.0292 16.6819 10.786 15.6659 10.4374 14.2962H16.5748ZM24.4705 14.2962C24.1219 15.6659 22.8787 16.6819 21.4018 16.6819C19.9249 16.6819 18.6817 15.6659 18.3331 14.2962H24.4705ZM27.9768 14.2962H27.9794H27.982H32.3662C32.0176 15.6659 30.7744 16.6819 29.2975 16.6819C27.8206 16.6819 26.5774 15.6659 26.2288 14.2962H27.9768ZM35.1908 12.7341L33.581 5.24634H37.6515L40.0669 12.7341H35.1908ZM6.25978 1.80843H36.5425L37.1467 3.68295C36.3734 3.68295 8.94116 3.68295 5.6556 3.68295L6.25978 1.80843ZM5.15211 5.24505H9.2226L7.61145 12.7328H2.73667L5.15211 5.24505ZM2.54173 14.2962H8.67909C8.34086 15.622 7.13378 16.6806 5.61041 16.6806C4.13481 16.6806 2.89159 15.6659 2.54173 14.2962ZM6.47279 18.1653C7.75862 17.9277 8.86241 17.1686 9.55826 16.1165C11.4354 18.9553 15.5807 18.9476 17.4539 16.1165C19.331 18.9553 23.4764 18.9476 25.3496 16.1165C27.2267 18.9541 31.3682 18.9489 33.244 16.119C33.9244 17.1467 35.0153 17.9251 36.3321 18.1666V26.0158C35.7434 26.2159 35.1857 26.4986 34.6719 26.8588V22.7806C34.6719 22.3494 34.322 21.9995 33.8908 21.9995H21.0003C20.5691 21.9995 20.2192 22.3494 20.2192 22.7806V32.046C20.2192 32.4772 20.5691 32.827 21.0003 32.827H31.8691C32.0137 33.9967 32.5805 35.4232 33.0426 36.5012H18.5577V21.1681C18.5577 20.7369 18.2079 20.3871 17.7767 20.3871H8.91405C8.48286 20.3871 8.13301 20.7369 8.13301 21.1681V36.4999H6.47279V18.1653ZM21.78 31.2636V23.5616H33.1085V28.3899C32.4849 29.2407 32.077 30.2218 31.9143 31.2636H21.78ZM9.6951 25.1728H16.9944V30.0553H16.1642C15.7331 30.0553 15.3832 30.4051 15.3832 30.8363C15.3832 31.2675 15.7331 31.6174 16.1642 31.6174H16.9944V36.4999H9.6951V25.1728ZM16.9944 23.6094H9.6951V21.9492H16.9944V23.6094ZM2.44491 38.062H33.7591C34.0819 38.7294 34.4434 39.4433 34.8436 40.196H2.44491V38.062ZM38.4751 43.4609C37.2332 41.3682 33.3951 34.7222 33.3951 32.3042C33.3951 29.5027 35.6737 27.2241 38.4751 27.2241C41.2766 27.2241 43.5552 29.5027 43.5552 32.3042C43.5552 34.7157 39.7054 41.3902 38.4751 43.4609Z" fill="#002873"/>
<path d="M38.4736 28.6274C36.5281 28.6274 34.9453 30.2102 34.9453 32.1557C34.9453 34.1012 36.5281 35.684 38.4736 35.684C40.4191 35.684 42.0019 34.1012 42.0019 32.1557C42.0019 30.2102 40.4191 28.6274 38.4736 28.6274ZM38.4736 34.1206C37.3904 34.1206 36.5087 33.2389 36.5087 32.1557C36.5087 31.0726 37.3904 30.1908 38.4736 30.1908C39.5567 30.1908 40.4385 31.0726 40.4385 32.1557C40.4398 33.2389 39.558 34.1206 38.4736 34.1206Z" fill="#002873"/>
</svg>
