<svg width="18" height="18" viewBox="0 0 18 18" fill="none" xmlns="http://www.w3.org/2000/svg">
<path d="M7.33464 3.16667H10.668C10.668 2.72464 10.4924 2.30072 10.1798 1.98816C9.86725 1.67559 9.44333 1.5 9.0013 1.5C8.55928 1.5 8.13535 1.67559 7.82279 1.98816C7.51023 2.30072 7.33464 2.72464 7.33464 3.16667ZM6.08464 3.16667C6.08464 2.78364 6.16008 2.40437 6.30665 2.05051C6.45323 1.69664 6.66807 1.37511 6.93891 1.10427C7.20975 0.833434 7.53128 0.618594 7.88514 0.472018C8.23901 0.325442 8.61828 0.25 9.0013 0.25C9.38433 0.25 9.7636 0.325442 10.1175 0.472018C10.4713 0.618594 10.7929 0.833434 11.0637 1.10427C11.3345 1.37511 11.5494 1.69664 11.696 2.05051C11.8425 2.40437 11.918 2.78364 11.918 3.16667H16.7096C16.8754 3.16667 17.0344 3.23251 17.1516 3.34973C17.2688 3.46694 17.3346 3.62591 17.3346 3.79167C17.3346 3.95743 17.2688 4.1164 17.1516 4.23361C17.0344 4.35082 16.8754 4.41667 16.7096 4.41667H15.6096L14.6346 14.5092C14.5598 15.2825 14.1997 16.0002 13.6244 16.5224C13.0491 17.0445 12.2999 17.3336 11.523 17.3333H6.47964C5.70286 17.3334 4.95389 17.0442 4.37876 16.5221C3.80363 15.9999 3.44358 15.2823 3.3688 14.5092L2.39297 4.41667H1.29297C1.12721 4.41667 0.968237 4.35082 0.851027 4.23361C0.733817 4.1164 0.667969 3.95743 0.667969 3.79167C0.667969 3.62591 0.733817 3.46694 0.851027 3.34973C0.968237 3.23251 1.12721 3.16667 1.29297 3.16667H6.08464ZM7.7513 7.125C7.7513 6.95924 7.68545 6.80027 7.56824 6.68306C7.45103 6.56585 7.29206 6.5 7.1263 6.5C6.96054 6.5 6.80157 6.56585 6.68436 6.68306C6.56715 6.80027 6.5013 6.95924 6.5013 7.125V13.375C6.5013 13.5408 6.56715 13.6997 6.68436 13.8169C6.80157 13.9342 6.96054 14 7.1263 14C7.29206 14 7.45103 13.9342 7.56824 13.8169C7.68545 13.6997 7.7513 13.5408 7.7513 13.375V7.125ZM10.8763 6.5C11.0421 6.5 11.201 6.56585 11.3182 6.68306C11.4355 6.80027 11.5013 6.95924 11.5013 7.125V13.375C11.5013 13.5408 11.4355 13.6997 11.3182 13.8169C11.201 13.9342 11.0421 14 10.8763 14C10.7105 14 10.5516 13.9342 10.4344 13.8169C10.3172 13.6997 10.2513 13.5408 10.2513 13.375V7.125C10.2513 6.95924 10.3172 6.80027 10.4344 6.68306C10.5516 6.56585 10.7105 6.5 10.8763 6.5ZM4.61297 14.3892C4.65792 14.853 4.87401 15.2835 5.21911 15.5968C5.56421 15.91 6.01359 16.0834 6.47964 16.0833H11.523C11.989 16.0834 12.4384 15.91 12.7835 15.5968C13.1286 15.2835 13.3447 14.853 13.3896 14.3892L14.3546 4.41667H3.64797L4.61297 14.3892Z" fill="#002873"/>
</svg>
