<svg width="22" height="24" viewBox="0 0 22 24" fill="none" xmlns="http://www.w3.org/2000/svg">
<path d="M19.7729 6.25681L10.5784 11.7775M2.39768 18.3598L9.10602 22.3825C9.55065 22.6497 10.0596 22.7908 10.5784 22.7908C11.0971 22.7908 11.6061 22.6497 12.0507 22.3825L18.759 18.3598C19.186 18.1043 19.5407 17.7415 19.7857 17.3086C20.0249 16.877 20.1532 16.3916 20.1567 15.897V7.65681C20.1586 7.15835 20.0307 6.66799 19.7856 6.23393C19.5406 5.79987 19.1868 5.43705 18.759 5.18114L12.0507 1.60531C11.6034 1.34571 11.0955 1.20898 10.5784 1.20898C10.0612 1.20898 9.55327 1.34571 9.10602 1.60531L2.39768 5.18114C1.97002 5.43686 1.61627 5.79948 1.37122 6.23334C1.12616 6.6672 0.998237 7.15736 1.00002 7.65564V15.8981C1.00352 16.3916 1.13185 16.877 1.37102 17.3086C1.61602 17.7415 1.97068 18.1043 2.39768 18.3598Z" stroke="#002873" stroke-width="1.75" stroke-linecap="round" stroke-linejoin="round"/>
<path d="M1.38281 6.2569L10.5773 11.7776V22.7909M15.6873 13.0889V8.70807L5.98765 3.2749" stroke="#002873" stroke-width="1.75" stroke-linecap="round" stroke-linejoin="round"/>
</svg>
