<svg width="33" height="26" viewBox="0 0 33 26" fill="none" xmlns="http://www.w3.org/2000/svg">
<path d="M16.4999 15.0833H17.8749C19.3874 15.0833 20.6249 14.1458 20.6249 12.9999V2.58325H8.24991C6.18741 2.58325 4.38617 3.44782 3.45117 4.71866" stroke="#002873" stroke-width="1.5625" stroke-linecap="round" stroke-linejoin="round"/>
<path d="M2.75 18.2083C2.75 19.9374 4.5925 21.3333 6.875 21.3333H8.25C8.25 20.1874 9.4875 19.2499 11 19.2499C12.5125 19.2499 13.75 20.1874 13.75 21.3333H19.25C19.25 20.1874 20.4875 19.2499 22 19.2499C23.5125 19.2499 24.75 20.1874 24.75 21.3333H26.125C28.4075 21.3333 30.25 19.9374 30.25 18.2083V15.0833H26.125C25.3687 15.0833 24.75 14.6145 24.75 14.0416V10.9166C24.75 10.3437 25.3687 9.87492 26.125 9.87492H27.8988L25.5475 6.76035C25.0525 6.11451 24.145 5.70825 23.155 5.70825H20.625V12.9999C20.625 14.1458 19.3875 15.0833 17.875 15.0833H16.5" stroke="#002873" stroke-width="1.5625" stroke-linecap="round" stroke-linejoin="round"/>
<path d="M11 23.4167C12.5188 23.4167 13.75 22.484 13.75 21.3333C13.75 20.1827 12.5188 19.25 11 19.25C9.48122 19.25 8.25 20.1827 8.25 21.3333C8.25 22.484 9.48122 23.4167 11 23.4167Z" stroke="#002873" stroke-width="1.5625" stroke-linecap="round" stroke-linejoin="round"/>
<path d="M22 23.4167C23.5188 23.4167 24.75 22.484 24.75 21.3333C24.75 20.1827 23.5188 19.25 22 19.25C20.4812 19.25 19.25 20.1827 19.25 21.3333C19.25 22.484 20.4812 23.4167 22 23.4167Z" stroke="#002873" stroke-width="1.5625" stroke-linecap="round" stroke-linejoin="round"/>
<path d="M30.25 13V15.0833H26.125C25.3687 15.0833 24.75 14.6146 24.75 14.0417V10.9167C24.75 10.3438 25.3687 9.875 26.125 9.875H27.8988L30.25 13Z" stroke="#002873" stroke-width="1.5625" stroke-linecap="round" stroke-linejoin="round"/>
<path d="M2.75 8.83325H11" stroke="#002873" stroke-width="1.5625" stroke-linecap="round" stroke-linejoin="round"/>
<path d="M2.75 11.9583H8.25" stroke="#002873" stroke-width="1.5625" stroke-linecap="round" stroke-linejoin="round"/>
<path d="M2.75 15.0833H5.5" stroke="#002873" stroke-width="1.5625" stroke-linecap="round" stroke-linejoin="round"/>
</svg>
