<svg width="40" height="41" viewBox="0 0 40 41" fill="none" xmlns="http://www.w3.org/2000/svg">
<g clip-path="url(#clip0_1201_13343)">
<path d="M20.3536 0.853516C15.1442 0.853516 10.1435 2.92469 6.46286 6.60781C2.7784 10.2924 0.708052 15.2894 0.707031 20.5001C0.707031 25.7086 2.77913 30.7092 6.46286 34.3923C10.1435 38.0754 15.1442 40.1466 20.3536 40.1466C25.563 40.1466 30.5637 38.0754 34.2443 34.3923C37.928 30.7092 40.0001 25.7086 40.0001 20.5001C40.0001 15.2916 37.928 10.2909 34.2443 6.60781C30.5637 2.92469 25.563 0.853516 20.3536 0.853516Z" fill="#002873"/>
<path d="M28 13H12C10.8954 13 10 13.8954 10 15V27C10 28.1046 10.8954 29 12 29H28C29.1046 29 30 28.1046 30 27V15C30 13.8954 29.1046 13 28 13Z" stroke="white" stroke-width="2" stroke-linecap="round" stroke-linejoin="round"/>
<path d="M30 16L21.03 21.7C20.7213 21.8934 20.3643 21.996 20 21.996C19.6357 21.996 19.2787 21.8934 18.97 21.7L10 16" stroke="white" stroke-width="2" stroke-linecap="round" stroke-linejoin="round"/>
</g>
<defs>
<clipPath id="clip0_1201_13343">
<rect width="39.2931" height="39.2931" fill="white" transform="translate(0.707031 0.853516)"/>
</clipPath>
</defs>
</svg>
