<svg width="25" height="25" viewBox="0 0 25 25" fill="none" xmlns="http://www.w3.org/2000/svg">
<path fill-rule="evenodd" clip-rule="evenodd" d="M12.5 25C19.4036 25 25 19.4036 25 12.5C25 5.59644 19.4036 0 12.5 0C5.59644 0 0 5.59644 0 12.5C0 19.4036 5.59644 25 12.5 25ZM5.46875 7.8125C5.03728 7.8125 4.6875 8.16228 4.6875 8.59375C4.6875 9.02522 5.03728 9.375 5.46875 9.375H19.5312C19.9627 9.375 20.3125 9.02522 20.3125 8.59375C20.3125 8.16228 19.9627 7.8125 19.5312 7.8125H5.46875ZM7.8125 13.2812C7.8125 12.8498 8.16228 12.5 8.59375 12.5H16.4062C16.8377 12.5 17.1875 12.8498 17.1875 13.2812C17.1875 13.7127 16.8377 14.0625 16.4062 14.0625H8.59375C8.16228 14.0625 7.8125 13.7127 7.8125 13.2812ZM10.9375 17.9688C10.9375 17.5373 11.2873 17.1875 11.7188 17.1875H13.2812C13.7127 17.1875 14.0625 17.5373 14.0625 17.9688C14.0625 18.4002 13.7127 18.75 13.2812 18.75H11.7188C11.2873 18.75 10.9375 18.4002 10.9375 17.9688Z" fill="#002873"/>
</svg>
