<svg width="68" height="61" viewBox="0 0 68 61" fill="none" xmlns="http://www.w3.org/2000/svg">
<path fill-rule="evenodd" clip-rule="evenodd" d="M54.7756 25.7652C54.2394 25.7652 53.6987 25.5941 53.2409 25.2407L52.6868 24.8124C52.6454 24.7807 52.6073 24.7444 52.5726 24.7047L28.6561 6.25119L4.73963 24.7047C4.70606 24.7444 4.66798 24.7807 4.62543 24.8124L4.07136 25.2407C3.53406 25.6554 2.86804 25.8332 2.19641 25.7415C1.52366 25.6497 0.928157 25.3007 0.518481 24.7569C-0.328891 23.6318 -0.115104 22.0183 0.995336 21.1606L28.1804 0.162319C28.4614 -0.0541065 28.8509 -0.0541065 29.1307 0.162319C35.3735 4.98559 41.6173 9.80773 47.8612 14.6299L56.3158 21.1606C57.4273 22.0183 57.6411 23.6317 56.7937 24.7568C56.2957 25.4185 55.5401 25.7652 54.7756 25.7652ZM28.6561 1.79046L1.94571 22.4217C1.52147 22.7492 1.43976 23.3655 1.76325 23.7949C2.08674 24.2243 2.69567 24.307 3.11994 23.9796L3.55986 23.6397C3.59454 23.6 3.63262 23.5638 3.67406 23.5321L28.1815 4.62304C28.4625 4.40662 28.8509 4.40662 29.1318 4.62304L53.6382 23.5321C53.6808 23.5649 53.7188 23.6012 53.7524 23.6397L54.1924 23.9796C54.3961 24.1371 54.6502 24.2051 54.9076 24.17C55.1651 24.1348 55.3923 24.0023 55.5479 23.796C55.7035 23.5898 55.7707 23.3327 55.7359 23.0721C55.7012 22.8115 55.5703 22.5815 55.3665 22.424L46.9119 15.8944C40.8259 11.1923 34.7399 6.49254 28.6561 1.79046Z" fill="#002873"/>
<path fill-rule="evenodd" clip-rule="evenodd" d="M61.5245 60.6988H48.5958C46.9078 60.6988 45.1895 59.8966 44.1104 58.6038C43.2172 57.5342 42.8444 56.2369 43.0594 54.951L45.3272 41.4057C45.391 41.0238 45.7179 40.7451 46.0996 40.7451H64.0185C64.4013 40.7451 64.7271 41.0239 64.7909 41.4057L67.0587 54.951C67.2737 56.2369 66.9009 57.5331 66.0077 58.6038C64.9308 59.8966 63.2125 60.6988 61.5245 60.6988ZM46.7623 42.3325L44.6041 55.2172C44.4284 56.2641 44.8895 57.081 45.3071 57.5807C46.0962 58.5256 47.3555 59.1125 48.5947 59.1125L61.5234 59.1125C62.7626 59.1125 64.023 58.5256 64.811 57.5807C65.2286 57.081 65.6886 56.2642 65.514 55.2172L63.357 42.3325L46.7623 42.3325Z" fill="#002873"/>
<path fill-rule="evenodd" clip-rule="evenodd" d="M60.3898 44.793C59.9566 44.793 59.6062 44.4384 59.6062 43.9999V38.1886C59.6062 35.6506 57.5667 33.5862 55.0594 33.5862C52.552 33.5862 50.5125 35.6506 50.5125 38.1886V43.9999C50.5125 44.4383 50.1621 44.793 49.7289 44.793C49.2956 44.793 48.9453 44.4384 48.9453 43.9999V38.1886C48.9453 34.7759 51.6878 32 55.0593 32C58.4308 32 61.1733 34.7759 61.1733 38.1886V43.9999C61.1734 44.4383 60.8219 44.793 60.3898 44.793Z" fill="#002873"/>
<path fill-rule="evenodd" clip-rule="evenodd" d="M49.7266 48.5536C48.2702 48.5536 47.0859 47.3549 47.0859 45.8808C47.0859 44.4068 48.2702 43.208 49.7266 43.208C51.1829 43.208 52.3671 44.4068 52.3671 45.8808C52.3671 47.3549 51.1829 48.5536 49.7266 48.5536ZM49.7266 44.7931C49.1344 44.7931 48.6531 45.2804 48.6531 45.8797C48.6531 46.479 49.1344 46.9663 49.7266 46.9663C50.3187 46.9663 50.8 46.479 50.8 45.8797C50.8 45.2804 50.3187 44.7931 49.7266 44.7931Z" fill="#002873"/>
<path fill-rule="evenodd" clip-rule="evenodd" d="M60.3906 48.5536C58.9343 48.5536 57.75 47.3549 57.75 45.8808C57.75 44.4068 58.9343 43.208 60.3906 43.208C61.8469 43.208 63.0312 44.4068 63.0312 45.8808C63.0312 47.3549 61.8458 48.5536 60.3906 48.5536ZM60.3906 44.7931C59.7984 44.7931 59.3171 45.2804 59.3171 45.8797C59.3171 46.479 59.7985 46.9663 60.3906 46.9663C60.9827 46.9663 61.4641 46.479 61.4641 45.8797C61.4641 45.2804 60.9816 44.7931 60.3906 44.7931Z" fill="#002873"/>
<path d="M25.515 23.6658C25.8359 23.9545 26.2477 24.0989 26.6595 24.0989C27.0713 24.0989 27.4832 23.9544 27.8041 23.6658C27.8129 23.6578 27.8216 23.6496 27.8299 23.6411L28.398 23.0655V24.1494C28.398 24.4822 28.6677 24.7519 29.0006 24.7519C29.3334 24.7519 29.6031 24.4822 29.6031 24.1494V23.0667L30.17 23.6411C30.1783 23.6496 30.187 23.6579 30.1958 23.6658C30.5167 23.9546 30.9285 24.099 31.3404 24.0989C31.7521 24.0989 32.164 23.9545 32.4848 23.6658C32.8116 23.3719 32.9916 22.9759 32.9916 22.5507C32.9916 22.18 32.8547 21.8314 32.6029 21.5532C32.8547 21.2751 32.9916 20.9265 32.9916 20.5558C32.9916 20.1307 32.8116 19.7346 32.4849 19.4408C32.3237 19.2957 32.1439 19.1883 31.9551 19.1163C31.9812 18.9956 31.995 18.8714 31.995 18.745C31.995 18.2786 31.8132 17.8401 31.4832 17.5105C30.8052 16.8331 29.7041 16.8301 29.0223 17.5013L28.9999 17.5219L28.9779 17.5015C28.2962 16.8299 27.1947 16.8329 26.5168 17.5103C26.1867 17.84 26.0049 18.2785 26.0049 18.7449C26.0049 18.8711 26.0187 18.9953 26.0447 19.1158C25.8562 19.1879 25.6765 19.2954 25.5151 19.4407C25.1883 19.7346 25.0084 20.1306 25.0084 20.5558C25.0084 20.9265 25.1452 21.2751 25.397 21.5532C25.1453 21.8314 25.0084 22.18 25.0084 22.5507C25.0082 22.9759 25.1882 23.3719 25.515 23.6658ZM26.9875 22.7791C26.8056 22.9321 26.4979 22.9291 26.321 22.7699C26.2506 22.7066 26.2134 22.6308 26.2134 22.5507C26.2134 22.4707 26.2506 22.3949 26.3211 22.3315L26.6881 22.0012C26.8151 21.8869 26.8876 21.7241 26.8876 21.5533C26.8876 21.3825 26.8151 21.2197 26.6881 21.1054L26.321 20.7751C26.2506 20.7118 26.2134 20.636 26.2134 20.5559C26.2134 20.4758 26.2506 20.4 26.3211 20.3366C26.4724 20.2005 26.6478 20.179 26.8088 20.2723C27.0029 20.4668 27.2699 20.7341 27.5383 21.0021C27.7527 21.2162 27.9669 21.4297 28.145 21.6064L26.9875 22.7791ZM31.3118 22.0011L31.6789 22.3315C31.7493 22.3948 31.7865 22.4706 31.7865 22.5507C31.7865 22.6307 31.7493 22.7065 31.6788 22.7699C31.502 22.9291 31.1942 22.9321 31.0124 22.7791L29.8549 21.6063C30.033 21.4295 30.2473 21.216 30.4616 21.0019C30.73 20.7339 30.997 20.4666 31.1911 20.2723C31.3521 20.179 31.5278 20.2006 31.6789 20.3366C31.7493 20.3999 31.7865 20.4757 31.7865 20.5558C31.7865 20.6358 31.7493 20.7116 31.6788 20.775L31.3118 21.1054C31.1848 21.2196 31.1123 21.3825 31.1123 21.5532C31.1123 21.7241 31.1848 21.8869 31.3118 22.0011ZM27.3685 18.3628C27.4741 18.2572 27.6129 18.2045 27.7518 18.2045C27.8906 18.2045 28.0293 18.2573 28.135 18.3629C28.1404 18.3681 28.1458 18.3734 28.1513 18.3785L28.5898 18.7848C28.8207 18.9988 29.1772 18.999 29.4084 18.7854L29.8481 18.379C29.8538 18.3737 29.8594 18.3683 29.8649 18.3628C30.0762 18.1516 30.4201 18.1516 30.6315 18.3628C30.7337 18.4648 30.79 18.6005 30.79 18.7448C30.79 18.8891 30.7337 19.0248 30.6306 19.1277C30.5522 19.2064 30.4679 19.2909 30.3804 19.3785C30.3801 19.3789 30.3798 19.3792 30.3794 19.3795C29.9216 19.8383 29.3674 20.3922 29 20.7568C28.6399 20.3994 28.1002 19.86 27.6474 19.4064C27.6286 19.3848 27.6084 19.3641 27.5862 19.3451C27.5104 19.2691 27.4372 19.1957 27.3685 19.1268C27.2663 19.0248 27.21 18.8891 27.21 18.7447C27.21 18.6007 27.2662 18.4649 27.3685 18.3628ZM32.4849 42.3343C31.8431 41.7568 30.8376 41.7567 30.1958 42.3343C30.187 42.3422 30.1783 42.3505 30.17 42.3589L29.6019 42.9345V41.8507C29.6019 41.5179 29.3321 41.2482 28.9993 41.2482C28.6665 41.2482 28.3968 41.5179 28.3968 41.8507V42.9334L27.8299 42.359C27.8216 42.3505 27.8129 42.3423 27.8041 42.3343C27.1623 41.7568 26.1568 41.7568 25.5151 42.3343C25.1883 42.6283 25.0083 43.0243 25.0083 43.4494C25.0083 43.8201 25.1452 44.1687 25.397 44.4469C25.1452 44.7249 25.0083 45.0735 25.0083 45.4443C25.0083 45.8694 25.1883 46.2655 25.5151 46.5594C25.6763 46.7044 25.8558 46.8128 26.0446 46.8848C26.0186 47.0052 26.0049 47.129 26.0049 47.2551C26.0049 47.7215 26.1867 48.1601 26.5168 48.4898C27.1947 49.167 28.2958 49.1701 28.9777 48.4989L29 48.4781L29.022 48.4986C29.3614 48.8328 29.8048 49 30.2481 49C30.6954 49 31.1427 48.8299 31.4832 48.4898C31.8133 48.16 31.995 47.7215 31.995 47.2551C31.995 47.1292 31.9814 47.0054 31.9555 46.8853C32.1441 46.8132 32.3236 46.7046 32.4849 46.5594C32.8117 46.2655 32.9916 45.8694 32.9916 45.4443C32.9916 45.0736 32.8548 44.725 32.603 44.4469C32.8547 44.1688 32.9916 43.8202 32.9916 43.4495C32.9916 43.0243 32.8117 42.6282 32.4849 42.3343ZM31.0124 43.2209C31.1943 43.0678 31.502 43.0709 31.6789 43.2301C31.7493 43.2935 31.7866 43.3693 31.7866 43.4494C31.7866 43.5294 31.7493 43.6052 31.6789 43.6686L31.3118 43.9989C31.1848 44.1132 31.1123 44.276 31.1123 44.4468C31.1123 44.6177 31.1848 44.7805 31.3118 44.8947L31.6789 45.2249C31.7493 45.2883 31.7866 45.3641 31.7866 45.4442C31.7866 45.5243 31.7493 45.6001 31.6789 45.6635C31.5277 45.7996 31.3522 45.821 31.1912 45.7278C30.997 45.5333 30.73 45.266 30.4616 44.998C30.2473 44.784 30.033 44.5704 29.8549 44.3938L31.0124 43.2209ZM26.6881 43.9989L26.3211 43.6686C26.2506 43.6052 26.2134 43.5294 26.2134 43.4493C26.2134 43.3693 26.2506 43.2935 26.3211 43.2301C26.4979 43.0709 26.8056 43.0678 26.9876 43.2209L28.145 44.3938C27.9669 44.5706 27.7527 44.7841 27.5383 44.9981C27.2699 45.2662 27.0029 45.5334 26.8088 45.7278C26.6478 45.821 26.4721 45.7995 26.321 45.6635C26.2506 45.6002 26.2133 45.5243 26.2133 45.4443C26.2133 45.3642 26.2506 45.2883 26.321 45.225L26.6881 44.8947C26.8151 44.7805 26.8876 44.6177 26.8876 44.4469C26.8876 44.276 26.8151 44.1132 26.6881 43.9989ZM30.6314 47.6372C30.4201 47.8483 30.0762 47.8484 29.8649 47.6372C29.8595 47.632 29.8541 47.6267 29.8486 47.6216L29.4101 47.2153C29.2946 47.1082 29.1476 47.0547 29.0006 47.0547C28.8538 47.0547 28.707 47.108 28.5916 47.2147L28.1519 47.6211C28.1462 47.6264 28.1406 47.6318 28.1351 47.6373C27.9237 47.8485 27.5798 47.8485 27.3685 47.6373C27.2663 47.5352 27.2101 47.3995 27.2101 47.2552C27.2101 47.111 27.2663 46.9752 27.3694 46.8723C27.4477 46.7937 27.532 46.7093 27.6193 46.6217C27.6197 46.6213 27.6202 46.6208 27.6207 46.6204C28.0785 46.1617 28.6326 45.6078 29 45.2431C29.3601 45.6005 29.8999 46.14 30.3526 46.5936C30.3714 46.6151 30.3916 46.6358 30.4138 46.6549C30.4896 46.7309 30.5628 46.8043 30.6315 46.8732C30.7337 46.9752 30.79 47.111 30.79 47.2552C30.7899 47.3994 30.7337 47.5352 30.6314 47.6372ZM15.4406 36.4849C15.7345 36.8118 16.1306 36.9917 16.5557 36.9917C16.9265 36.9917 17.2752 36.8548 17.5532 36.6031C17.8313 36.8548 18.1799 36.9917 18.5506 36.9917C18.9757 36.9917 19.3718 36.8118 19.6657 36.485C20.2432 35.8432 20.2432 34.8377 19.6657 34.1959C19.6578 34.187 19.6495 34.1785 19.641 34.1701L19.0654 33.602H20.1493C20.4821 33.602 20.7518 33.3323 20.7518 32.9995C20.7518 32.6667 20.4821 32.3969 20.1493 32.3969H19.0666L19.641 31.8301C19.6495 31.8217 19.6578 31.8131 19.6657 31.8042C20.2432 31.1625 20.2432 30.157 19.6657 29.5152C19.3717 29.1884 18.9757 29.0084 18.5506 29.0084C18.1799 29.0084 17.8313 29.1454 17.5531 29.3971C17.275 29.1454 16.9264 29.0084 16.5557 29.0084C16.1306 29.0084 15.7345 29.1884 15.4407 29.5151C15.2956 29.6763 15.1882 29.8562 15.1162 30.0449C14.9955 30.0188 14.8713 30.005 14.7448 30.005C14.2784 30.005 13.84 30.1868 13.5103 30.5169C12.833 31.1948 12.8299 32.296 13.5012 32.9777L13.5219 33.0002L13.5015 33.0222C12.83 33.7039 12.8329 34.8053 13.5103 35.4833C13.84 35.8134 14.2785 35.9952 14.7449 35.9952C14.8712 35.9952 14.9953 35.9814 15.1158 35.9555C15.1878 36.1438 15.2954 36.3236 15.4406 36.4849ZM18.7698 35.6791C18.6431 35.8199 18.4581 35.8199 18.3314 35.679L18.0012 35.3119C17.8869 35.1849 17.7241 35.1124 17.5532 35.1124C17.3824 35.1124 17.2195 35.1849 17.1053 35.3119L16.7749 35.6791C16.6483 35.8199 16.4633 35.82 16.3365 35.6789C16.2004 35.5277 16.1789 35.3522 16.2722 35.1913C16.4667 34.9971 16.734 34.7301 17.002 34.4617C17.216 34.2473 17.4296 34.0331 17.6062 33.855L18.779 35.0125C18.9321 35.1943 18.929 35.5021 18.7698 35.6791ZM16.3365 30.321C16.4633 30.1803 16.6483 30.1802 16.775 30.3211L17.1053 30.6882C17.2196 30.8152 17.3824 30.8877 17.5532 30.8877C17.7241 30.8877 17.8869 30.8152 18.0011 30.6882L18.3314 30.3211C18.4582 30.1803 18.6431 30.1803 18.7699 30.3212C18.929 30.4981 18.9321 30.8058 18.779 30.9877L17.6062 32.1451C17.4295 31.9669 17.216 31.7527 17.0019 31.5384C16.7339 31.27 16.4666 31.003 16.2723 30.809C16.179 30.648 16.2005 30.4722 16.3365 30.321ZM14.3628 34.6315C14.1517 34.4202 14.1517 34.0763 14.3628 33.865C14.3681 33.8596 14.3733 33.8542 14.3785 33.8487L14.7849 33.4102C14.9988 33.1794 14.999 32.8227 14.7854 32.5916L14.379 32.1519C14.3737 32.1462 14.3683 32.1406 14.3628 32.1351C14.1517 31.9237 14.1517 31.5799 14.3628 31.3685C14.4649 31.2663 14.6006 31.21 14.7448 31.21C14.8891 31.21 15.0248 31.2662 15.1278 31.3693C15.2064 31.4477 15.2909 31.532 15.3784 31.6194L15.3796 31.6206C15.8384 32.0785 16.3922 32.6326 16.7569 32.9999C16.3995 33.36 15.8603 33.8995 15.4068 34.3523C15.385 34.3712 15.3642 34.3915 15.345 34.414C15.269 34.4897 15.1957 34.5629 15.1269 34.6315C15.0248 34.7337 14.8892 34.7899 14.7448 34.7899C14.6006 34.79 14.4649 34.7338 14.3628 34.6315ZM44.478 33L44.4984 32.978C45.17 32.2962 45.1671 31.1949 44.4897 30.5169C44.1599 30.1867 43.7214 30.005 43.2551 30.005C43.1288 30.005 43.0047 30.0188 42.8842 30.0447C42.8121 29.8563 42.7045 29.6765 42.5593 29.5152C42.2654 29.1884 41.8694 29.0084 41.4442 29.0084C41.0735 29.0084 40.7249 29.1453 40.4468 29.3971C40.1686 29.1454 39.82 29.0084 39.4493 29.0084C39.0242 29.0084 38.6282 29.1884 38.3342 29.5151C37.7568 30.1569 37.7567 31.1624 38.3342 31.8042C38.3422 31.8131 38.3504 31.8217 38.3589 31.8301L38.9346 32.3981H37.8507C37.5179 32.3981 37.2481 32.6679 37.2481 33.0007C37.2481 33.3335 37.5179 33.6032 37.8507 33.6032H38.9334L38.3589 34.1702C38.3504 34.1785 38.3422 34.1871 38.3342 34.196C37.7568 34.8378 37.7568 35.8433 38.3342 36.485C38.6282 36.8118 39.0242 36.9918 39.4493 36.9918C39.8201 36.9918 40.1687 36.8549 40.4468 36.6032C40.7249 36.8549 41.0735 36.9918 41.4442 36.9918C41.8694 36.9918 42.2654 36.8118 42.5593 36.4851C42.7043 36.3239 42.8118 36.144 42.8838 35.9554C43.0045 35.9814 43.1287 35.9952 43.2551 35.9952C43.7216 35.9952 44.16 35.8134 44.4897 35.4834C45.1671 34.8054 45.1701 33.7042 44.4988 33.0225L44.478 33ZM39.23 30.321C39.3568 30.1803 39.5417 30.1803 39.6685 30.321L39.9987 30.6881C40.113 30.8151 40.2758 30.8876 40.4466 30.8876C40.6174 30.8876 40.7802 30.8151 40.8945 30.6881L41.2248 30.321C41.3516 30.1802 41.5366 30.1801 41.6633 30.321C41.7994 30.4723 41.8209 30.6478 41.7276 30.8088C41.5331 31.0029 41.2659 31.2699 40.9979 31.5384C40.7838 31.7528 40.5703 31.967 40.3935 32.1451L39.2207 30.9876C39.0678 30.8057 39.0708 30.498 39.23 30.321ZM41.6634 35.6791C41.5367 35.8199 41.3517 35.8199 41.2249 35.679L40.8946 35.3119C40.7803 35.1849 40.6175 35.1124 40.4467 35.1124C40.2758 35.1124 40.113 35.1849 39.9987 35.3119L39.6684 35.6791C39.5417 35.8199 39.3568 35.8199 39.23 35.679C39.0708 35.5021 39.0678 35.1944 39.2208 35.0124L40.3936 33.855C40.5703 34.0331 40.7838 34.2473 40.9979 34.4617C41.2659 34.7301 41.5333 34.9972 41.7276 35.1912C41.8209 35.3522 41.7993 35.5279 41.6634 35.6791ZM43.2145 33.4085L43.6209 33.8481C43.6262 33.8538 43.6316 33.8594 43.6371 33.865C43.8482 34.0763 43.8482 34.4202 43.6371 34.6316C43.535 34.7337 43.3993 34.79 43.255 34.79C43.1107 34.79 42.975 34.7337 42.872 34.6306C42.7933 34.5521 42.7086 34.4677 42.6209 34.3801C42.6207 34.38 42.6205 34.3798 42.6204 34.3796C42.1616 33.9217 41.6076 33.3674 41.243 32.9999C41.6004 32.6398 42.1398 32.1001 42.5934 31.6473C42.615 31.6285 42.6357 31.6083 42.6547 31.5861C42.7307 31.5103 42.8041 31.4371 42.873 31.3684C42.975 31.2662 43.1107 31.2099 43.2551 31.2099C43.3993 31.2099 43.535 31.2662 43.6371 31.3685C43.8483 31.5798 43.8483 31.9236 43.6371 32.135C43.6319 32.1404 43.6266 32.1458 43.6215 32.1513L43.2152 32.5898C43.0011 32.8207 43.0009 33.1773 43.2145 33.4085ZM41.3876 43.1363C40.3198 43.1363 39.451 44.005 39.451 45.0728C39.451 46.1407 40.3198 47.0094 41.3876 47.0094C42.4554 47.0094 43.3242 46.1407 43.3242 45.0728C43.3242 44.005 42.4554 43.1363 41.3876 43.1363ZM41.3876 45.8043C40.9843 45.8043 40.6561 45.4762 40.6561 45.0728C40.6561 44.6695 40.9842 44.3413 41.3876 44.3413C41.791 44.3413 42.1191 44.6695 42.1191 45.0728C42.1191 45.4762 41.7909 45.8043 41.3876 45.8043ZM27.0598 33C27.0598 34.0679 27.9286 34.9366 28.9964 34.9366C30.0642 34.9366 30.933 34.0679 30.933 33C30.933 31.9322 30.0642 31.0634 28.9964 31.0634C27.9286 31.0634 27.0598 31.9322 27.0598 33ZM29.7279 33C29.7279 33.4033 29.3998 33.7315 28.9964 33.7315C28.593 33.7315 28.2649 33.4034 28.2649 33C28.2649 32.5966 28.593 32.2685 28.9964 32.2685C29.3998 32.2685 29.7279 32.5967 29.7279 33ZM16.6123 22.8638C17.6801 22.8638 18.5489 21.995 18.5489 20.9272C18.5489 19.8594 17.6801 18.9906 16.6123 18.9906C15.5445 18.9906 14.6757 19.8594 14.6757 20.9272C14.6757 21.995 15.5445 22.8638 16.6123 22.8638ZM16.6123 20.1957C17.0156 20.1957 17.3438 20.5238 17.3438 20.9272C17.3438 21.3306 17.0157 21.6587 16.6123 21.6587C16.2089 21.6587 15.8808 21.3306 15.8808 20.9272C15.8808 20.5238 16.209 20.1957 16.6123 20.1957ZM41.0727 22.5489C42.1406 22.5489 43.0093 21.6802 43.0093 20.6123C43.0093 19.5445 42.1406 18.6758 41.0727 18.6758C40.0049 18.6758 39.1362 19.5445 39.1362 20.6123C39.1362 21.6802 40.0049 22.5489 41.0727 22.5489ZM41.0727 19.8809C41.476 19.8809 41.8042 20.209 41.8042 20.6124C41.8042 21.0158 41.4761 21.3439 41.0727 21.3439C40.6694 21.3439 40.3412 21.0158 40.3412 20.6124C40.3412 20.209 40.6694 19.8809 41.0727 19.8809ZM16.9272 43.4511C15.8593 43.4511 14.9906 44.3199 14.9906 45.3877C14.9906 46.4555 15.8593 47.3243 16.9272 47.3243C17.995 47.3243 18.8637 46.4555 18.8637 45.3877C18.8637 44.3199 17.995 43.4511 16.9272 43.4511ZM16.9272 46.1191C16.5239 46.1191 16.1957 45.791 16.1957 45.3876C16.1957 44.9843 16.5238 44.6561 16.9272 44.6561C17.3305 44.6561 17.6587 44.9843 17.6587 45.3876C17.6587 45.791 17.3305 46.1191 16.9272 46.1191ZM18.9759 23.0941C20.0584 23.868 21.5232 24.4515 23.3296 24.8286C25.9054 25.3662 27.8013 26.8464 28.8124 29.1091C28.9482 29.4129 28.812 29.7693 28.5081 29.9051C28.4283 29.9408 28.3448 29.9577 28.2626 29.9577C28.0323 29.9577 27.8123 29.8248 27.7122 29.6008C26.8533 27.6788 25.2959 26.4701 23.0833 26.0082C21.1122 25.5968 19.4944 24.9462 18.275 24.0744C18.0042 23.8809 17.9416 23.5045 18.1353 23.2339C18.3287 22.9631 18.7051 22.9005 18.9759 23.0941ZM39.3739 43.0185C39.2526 43.0185 39.1302 42.9819 39.024 42.906C37.9415 42.1321 36.4767 41.5486 34.6703 41.1715C32.0943 40.6338 30.1982 39.1534 29.1871 36.8903C29.0514 36.5865 29.1876 36.2302 29.4914 36.0944C29.7952 35.9586 30.1516 36.0949 30.2874 36.3988C31.1463 38.3211 32.7037 39.53 34.9166 39.9918C36.8877 40.4033 38.5055 41.0539 39.7249 41.9257C39.9956 42.1193 40.0582 42.4956 39.8646 42.7664C39.7469 42.9308 39.5618 43.0185 39.3739 43.0185ZM25.5981 34.2889C23.6776 35.1481 22.4698 36.7051 22.0082 38.9167C21.5968 40.8876 20.9463 42.5053 20.0745 43.7247C19.9569 43.8893 19.7718 43.977 19.5838 43.977C19.4625 43.977 19.3401 43.9405 19.2339 43.8645C18.9632 43.671 18.9006 43.2947 19.0941 43.024C19.868 41.9413 20.4515 40.4766 20.8286 38.6704C21.3659 36.0959 22.8451 34.2003 25.106 33.1889C25.4097 33.0529 25.7661 33.189 25.9021 33.4928C26.0379 33.7966 25.9018 34.153 25.5981 34.2889ZM32.3958 31.7139C34.3198 30.8552 35.5296 29.2973 35.9917 27.0834C36.4032 25.1122 37.0538 23.4945 37.9255 22.2752C38.119 22.0046 38.4953 21.9418 38.7661 22.1354C39.0367 22.329 39.0993 22.7053 38.9058 22.9761C38.1319 24.0584 37.5484 25.5232 37.1713 27.3296C36.6334 29.907 35.1518 31.8036 32.8868 32.8143C32.8071 32.8499 32.7237 32.8668 32.6416 32.8668C32.4111 32.8668 32.1911 32.7338 32.091 32.5096C31.9555 32.2057 32.0919 31.8495 32.3958 31.7139Z" fill="#002873"/>
<path fill-rule="evenodd" clip-rule="evenodd" d="M51.672 34.205V22.3925C51.672 22.1443 51.5578 21.9109 51.363 21.7614L29.13 4.62326C28.8502 4.40683 28.4618 4.40683 28.1808 4.62326L5.96917 21.7602C5.7744 21.9109 5.66022 22.1443 5.66022 22.3913L5.66016 54.9384C5.66016 55.3769 6.01055 55.7315 6.44374 55.7315H43.2912C43.2087 55.2093 43.1432 54.6803 43.0954 54.1453H7.22724L7.22733 22.7844L28.6554 6.25133L50.1048 22.7844V35.4553C50.607 35.009 51.1301 34.5915 51.672 34.205Z" fill="#002873"/>
</svg>
