<svg width="84" height="69" viewBox="0 0 84 69" fill="none" xmlns="http://www.w3.org/2000/svg">
<path d="M66 46.0024V55.3711C66 59.4089 63.2904 62.8108 59.6356 63.7705V68.072C59.6356 68.5846 59.2299 69 58.7294 69H41.4554C40.9549 69 40.5493 68.5846 40.5493 68.072C40.5493 67.5595 40.955 67.1441 41.4554 67.1441H57.8234V64.0336C57.7269 64.0369 57.6308 64.0411 57.5335 64.0411H46.4882C45.9877 64.0411 45.582 63.6257 45.582 63.1131C45.582 62.6006 45.9877 62.1852 46.4882 62.1852H57.5335C61.2027 62.1852 64.1878 59.1284 64.1878 55.3708V46.9301H49.9145C49.414 46.9301 49.0083 46.5146 49.0083 46.0021C49.0083 45.4896 49.414 45.0741 49.9145 45.0741H65.0938C65.5943 45.0744 66 45.4898 66 46.0024ZM41.137 62.7188L39.1305 68.388C39.0005 68.7552 38.66 68.9997 38.2786 68.9997H10.1281C9.7466 68.9997 9.40588 68.7549 9.27608 68.3875L7.27309 62.7188H5.85093C4.36987 62.7188 2.96011 61.8347 1.88112 60.2294C0.904162 58.776 0.238092 56.7852 0.00547804 54.6237C-0.0228077 54.3615 0.0593371 54.0994 0.231247 53.903C0.403157 53.7066 0.648558 53.5941 0.9061 53.5941H8.05825L7.27374 51.3779H5.85093C4.36987 51.3779 2.96011 50.4937 1.88112 48.8884C0.904162 47.4349 0.238092 45.4442 0.00547804 43.2826C-0.0228077 43.0204 0.0593371 42.7583 0.231247 42.5619C0.403157 42.3655 0.648558 42.253 0.9061 42.253H8.41899C7.73096 41.229 7.24816 39.8362 7.07406 38.2147C7.04603 37.9526 7.12818 37.6905 7.30009 37.4941C7.472 37.2978 7.71727 37.1854 7.97481 37.1854H16.1443C15.0653 36.0638 14.398 34.5264 14.398 32.8318V19.928C14.398 19.4154 14.8037 19 15.304 19H33.6603C34.1608 19 34.5665 19.4154 34.5665 19.928V21.7913H36.9178C39.6828 21.7913 41.9324 24.0966 41.9324 26.9302C41.9324 29.7618 39.6828 32.0654 36.9178 32.0654H34.5665V32.8318C34.5665 34.5264 33.8991 36.0639 32.82 37.1854H40.4355C40.6931 37.1854 40.9385 37.2976 41.1103 37.4941C41.2822 37.6904 41.3643 37.9526 41.3363 38.2146C41.1625 39.8362 40.6797 41.2289 39.9915 42.253H47.5044C47.7619 42.253 48.0075 42.3653 48.1792 42.5619C48.3512 42.7583 48.4333 43.0204 48.405 43.2826C48.1725 45.4441 47.5063 47.4349 46.5295 48.8884C45.4505 50.4937 44.0406 51.3779 42.5597 51.3779H41.137L40.3522 53.5941H47.5044C47.7619 53.5941 48.0075 53.7064 48.1792 53.903C48.351 54.0995 48.4333 54.3615 48.405 54.6237C48.1725 56.7852 47.5063 58.776 46.5295 60.2295C45.4505 61.8348 44.0406 62.719 42.5597 62.719H41.137V62.7188ZM34.5665 30.2096H36.9178C38.6836 30.2096 40.1201 28.7386 40.1201 26.9302C40.1201 25.1199 38.6836 23.6471 36.9178 23.6471H34.5665V30.2096ZM16.2102 32.8319C16.2102 35.2325 18.119 37.1856 20.4653 37.1856H28.499C30.8453 37.1856 32.7542 35.2325 32.7542 32.8319V20.8559H16.2103V32.8319H16.2102ZM9.0454 39.0414C9.46646 40.9066 10.4234 42.253 11.4193 42.253H36.991C37.9871 42.253 38.944 40.9064 39.365 39.0414H9.0454ZM42.5596 49.5221C44.2869 49.5221 45.8738 47.258 46.4542 44.109H36.991H11.4193H1.95629C2.53672 47.258 4.12369 49.5221 5.85093 49.5221H42.5596ZM9.20117 51.3779L9.98568 53.5941H38.4247L39.2093 51.3779H9.20117ZM42.5596 60.863C44.2869 60.863 45.8738 58.5989 46.4542 55.4499H1.95629C2.53672 58.5989 4.12369 60.863 5.85093 60.863H42.5596ZM39.2094 62.7188H9.20026L10.7637 67.1439H37.6433L39.2094 62.7188Z" fill="#002873"/>
<path d="M82.6287 2.93437C80.8478 2.91124 79.0719 3.12582 77.3488 3.57235C77.4131 3.36551 77.4479 3.15077 77.4523 2.93437C77.4523 1.37241 75.8329 0.250435 75.648 0.125772C75.3978 -0.0419201 75.07 -0.0419201 74.8198 0.125772C74.6349 0.250435 73.0155 1.37241 73.0155 2.93437C73.0596 3.72183 73.4031 4.46343 73.9768 5.00965C72.9617 5.67412 72.052 6.48476 71.2777 7.41492C71.4412 6.24098 71.2291 5.04574 70.6713 3.99767C69.8595 2.77803 68.6081 1.9123 67.1736 1.57773C66.0371 1.31394 64.8447 1.4273 63.7794 1.90039C63.4447 1.10564 62.8028 0.477034 61.9973 0.155102C60.5183 -0.343552 58.921 0.829751 58.7436 0.961748C58.5032 1.14271 58.3978 1.45036 58.4773 1.73906C58.5365 1.95172 59.1059 3.82901 60.5996 4.32766C60.8389 4.40305 61.0881 4.4426 61.3391 4.44499C62.2268 4.39021 63.0784 4.0764 63.7868 3.54302C64.6765 2.95643 65.7719 2.76256 66.8113 3.0077C67.8779 3.25616 68.8088 3.8987 69.4142 4.80432C70.235 6.02895 69.5991 9.54153 68.83 11.6021C68.8064 11.6757 68.7939 11.7523 68.7931 11.8295C68.7143 12.0029 68.6692 12.1895 68.6599 12.3795C68.6466 12.6308 68.5042 12.8578 68.2828 12.9808C68.054 13.1118 67.7721 13.1118 67.5433 12.9808C67.2296 12.8189 66.8638 12.7874 66.5267 12.8933C66.1896 12.9993 65.9088 13.2339 65.7464 13.5454C65.3763 14.226 65.5725 15.0731 66.2049 15.5254C66.403 15.6625 66.5211 15.8871 66.5211 16.1267C66.5211 16.3663 66.403 16.5909 66.2049 16.728C65.8968 16.9422 65.6826 17.2647 65.6059 17.63C66.0509 17.887 66.4165 18.2598 66.6634 18.708L66.6634 18.7593C66.7633 18.9578 66.8402 19.1669 66.8926 19.3826C67.1063 19.3847 67.3171 19.3343 67.5064 19.236C67.7301 19.1207 67.9976 19.1263 68.2161 19.251C68.4346 19.3757 68.5741 19.6022 68.586 19.8519C68.606 20.374 68.9046 20.8461 69.3698 21.0912C69.5399 21.1284 69.7078 21.1749 69.8727 21.2306L70.0576 21.2306C70.8101 21.2035 71.4104 20.5985 71.4256 19.8519C71.4374 19.6021 71.5767 19.3754 71.7953 19.2506C72.0241 19.1196 72.306 19.1196 72.5348 19.2506C72.8485 19.4125 73.2143 19.444 73.5514 19.3381C73.8886 19.2321 74.1693 18.9975 74.3317 18.686C74.7018 18.0054 74.5056 17.1583 73.8733 16.706C73.6743 16.5801 73.5479 16.3676 73.5331 16.134C73.5327 15.8901 73.6547 15.662 73.8585 15.5254C74.0513 15.393 74.2067 15.2138 74.3095 15.0047L74.3539 14.9314C74.5556 14.4892 74.5365 13.9788 74.3022 13.5528C74.1412 13.2417 73.8618 13.0072 73.5258 12.9012C73.1899 12.7952 72.8252 12.8265 72.5126 12.9881C72.2838 13.1191 72.0019 13.1191 71.7731 12.9881C71.5545 12.8633 71.4152 12.6366 71.4034 12.3868C71.381 11.8396 71.0531 11.3504 70.553 11.1182C70.5683 11.0485 70.5881 10.98 70.6122 10.9128C71.5096 9.2658 72.7288 7.81247 74.1986 6.63761C74.1824 7.18429 74.3318 7.72326 74.6275 8.1849C75.5001 9.48287 77.4523 9.5342 77.7037 9.5342C78.0023 9.53272 78.2706 9.35338 78.3841 9.07955C78.4728 8.87422 79.1901 7.04093 78.3101 5.74296C78.1192 5.44898 77.8671 5.19894 77.5706 5.00965C79.2191 4.57043 80.9221 4.36551 82.6287 4.401C83.0371 4.401 83.3681 4.07268 83.3681 3.66768C83.3681 3.26268 83.0371 2.93437 82.6287 2.93437ZM72.276 16.134C72.276 17.349 71.2828 18.334 70.0576 18.334C68.8323 18.334 67.8391 17.349 67.8391 16.134C67.8391 14.919 68.8323 13.9341 70.0576 13.9341C71.2828 13.9341 72.276 14.919 72.276 16.134Z" fill="#002873"/>
<path d="M61.1848 22.7337C61.5932 22.7337 61.9243 22.4054 61.9243 22.0004C61.9243 21.5954 61.5932 21.2671 61.1848 21.2671C60.7764 21.2671 60.4453 21.5954 60.4453 22.0004C60.4453 22.4054 60.7764 22.7337 61.1848 22.7337Z" fill="#002873"/>
<path d="M40.4789 43.2665C40.4789 43.2078 40.5381 38.0233 43.5921 34.7234C43.7308 35.2549 44.024 35.7343 44.4352 36.102C45.0036 36.5354 45.708 36.7561 46.4243 36.7253C46.8762 36.7229 47.3259 36.6638 47.7628 36.5493C48.0513 36.4679 48.2617 36.2216 48.2952 35.926C48.2952 35.706 48.5023 33.7261 47.3043 32.7434C47.1944 32.6513 47.0755 32.5702 46.9494 32.5014C48.2105 32.0046 49.5085 31.6049 50.8316 31.3061L50.8834 31.3061L51.8299 31.0788C53.3089 30.7195 54.7878 30.3455 56.3112 29.8395L56.4886 29.7735C55.8106 30.4309 55.268 31.213 54.8914 32.0761C53.8117 34.672 54.7213 37.7153 55.2093 39.0133C56.4566 38.4689 57.6057 37.7257 58.6109 36.8133C59.3368 36.1415 59.9179 35.3307 60.3191 34.43C59.9117 34.1726 59.574 33.8201 59.3356 33.4034C58.7443 32.3383 58.8489 31.0264 59.6018 30.0668C59.3006 29.6776 59.0977 29.2224 59.0102 28.7395C59.0102 28.6955 59.0102 28.6515 59.0102 28.6002C60.43 27.8669 61.6502 27.0822 61.7315 27.0309C61.8129 26.9796 61.7685 27.0309 61.7907 26.9869C62.253 26.7398 62.5486 26.2681 62.5671 25.7476C62.5829 25.4989 62.725 25.2752 62.9443 25.1536C63.1731 25.0226 63.455 25.0226 63.6837 25.1536C63.9954 25.3157 64.3594 25.3481 64.6952 25.2435C65.031 25.1389 65.311 24.906 65.4733 24.5963C65.8545 23.9212 65.6598 23.0696 65.0222 22.6237C64.8178 22.4874 64.6952 22.2592 64.6952 22.015C64.6952 21.7708 64.8178 21.5426 65.0222 21.4064C65.6598 20.9604 65.8545 20.1088 65.4733 19.4337C65.311 19.124 65.031 18.8911 64.6952 18.7865C64.3594 18.6819 63.9954 18.7143 63.6837 18.8764C63.455 19.0074 63.1731 19.0074 62.9443 18.8764C62.725 18.7548 62.5829 18.5311 62.5671 18.2824C62.5671 17.5332 61.9546 16.9258 61.1991 16.9258C60.4436 16.9258 59.8311 17.5332 59.8311 18.2824C59.8153 18.5311 59.6732 18.7548 59.4539 18.8764C59.2251 19.0074 58.9433 19.0074 58.7145 18.8764C58.4028 18.7143 58.0388 18.6819 57.703 18.7865C57.3672 18.8911 57.0872 19.124 56.9249 19.4337C56.5437 20.1088 56.7384 20.9604 57.376 21.4064C57.5804 21.5426 57.703 21.7708 57.703 22.015C57.703 22.2592 57.5804 22.4874 57.376 22.6237C56.7384 23.0696 56.5437 23.9212 56.9249 24.5963C57.0872 24.906 57.3672 25.1389 57.703 25.2435C58.0388 25.3481 58.4028 25.3157 58.7145 25.1536C58.823 25.102 58.9416 25.0745 59.062 25.0729C59.189 25.0733 59.3138 25.1062 59.4244 25.1683C59.6437 25.2899 59.7857 25.5136 59.8015 25.7623C59.8166 25.9753 59.8771 26.1827 59.979 26.3709C58.6573 27.1859 57.2638 27.8805 55.8157 28.4462C54.9062 28.7615 53.9744 29.0182 53.0501 29.2528C53.124 29.1062 53.198 28.9595 53.2645 28.7982C54.0099 26.9462 53.888 24.8617 52.9317 23.1077C51.7412 21.1424 51.4528 18.9864 52.2736 17.6078C52.9055 16.6089 54.0466 16.0431 55.2315 16.1412C55.2976 16.1518 55.3651 16.1518 55.4312 16.1412C55.6456 16.0825 57.5387 15.5252 58.0341 14.0439C58.5296 12.5626 57.3538 10.986 57.2207 10.8173C57.0382 10.5789 56.728 10.4744 56.4369 10.5533C56.2224 10.612 54.3294 11.1766 53.8265 12.6579C53.6266 13.3792 53.6975 14.1479 54.0262 14.8212C52.7624 15.0257 51.6548 15.7749 51.0017 16.8671C49.9369 18.7224 50.1957 21.3917 51.6746 23.8336C52.4033 25.1941 52.4898 26.8039 51.9113 28.2335C51.6027 29.1008 50.8884 29.7653 49.996 30.0155C48.7698 30.3087 47.5663 30.6885 46.3948 31.1521C46.4027 31.0349 46.4027 30.9173 46.3948 30.8001C46.3948 29.2382 44.7753 28.1162 44.5904 27.9915C44.3403 27.8238 44.0124 27.8238 43.7622 27.9915C43.5774 28.1162 41.9579 29.2382 41.9579 30.8001C42.0235 31.6943 42.4501 32.5245 43.1411 33.1027C39.0592 36.7986 39 42.9951 39 43.2665C39 43.6715 39.3311 43.9998 39.7395 43.9998C40.1479 43.9998 40.4789 43.6715 40.4789 43.2665ZM58.9659 22.0003C58.9659 20.7854 59.9591 19.8004 61.1843 19.8004C62.4095 19.8004 63.4027 20.7854 63.4027 22.0003C63.4027 23.2153 62.4095 24.2003 61.1843 24.2003C59.9591 24.2003 58.9659 23.2153 58.9659 22.0003Z" fill="#002873"/>
<path d="M70.0578 16.867C70.4662 16.867 70.7973 16.5387 70.7973 16.1337C70.7973 15.7287 70.4662 15.4004 70.0578 15.4004C69.6494 15.4004 69.3184 15.7287 69.3184 16.1337C69.3184 16.5387 69.6494 16.867 70.0578 16.867Z" fill="#002873"/>
<path d="M69.6737 22.7336C69.4404 22.6996 69.212 22.6381 68.9934 22.5503L68.9565 22.5503C68.1691 22.3584 67.3681 22.226 66.5605 22.1543C67.0613 22.8421 67.2441 23.7084 67.0634 24.5376C67.2858 24.7909 67.461 25.0814 67.581 25.3955C68.7559 25.2333 69.907 25.8202 70.4576 26.8622C70.9868 27.8983 70.8718 29.1432 70.1618 30.0668C70.5594 30.573 70.7824 31.1926 70.7977 31.8341C72.5869 32.6544 74.5221 33.1155 76.4917 33.1907C76.4917 31.5921 76.1811 27.5882 73.7113 25.0582C73.6078 24.9482 73.4894 24.8309 73.3711 24.7282C72.2987 23.7993 71.0379 23.1091 69.6737 22.7043L69.6737 22.7336Z" fill="#002873"/>
<path d="M62.226 34.7969C62.0638 34.8152 61.9001 34.8152 61.7379 34.7969L61.7379 34.8482C61.3324 35.7945 60.756 36.6593 60.0371 37.4001C60.9227 38.7382 62.0661 39.8895 63.4017 40.7881C64.1629 39.5171 64.6888 38.1214 64.9546 36.6668L64.8807 36.6668C63.6882 36.6564 62.6286 35.91 62.226 34.7969Z" fill="#002873"/>
<path d="M66.2504 26.3119C66.2446 26.1981 66.2272 26.085 66.1986 25.9746C65.57 26.5693 64.6982 26.8403 63.8397 26.7079C63.4445 27.8298 62.3832 28.5861 61.185 28.5999L61.0001 28.5999L60.9188 28.5999C60.7686 28.5872 60.62 28.5602 60.4751 28.5192C60.5392 28.9109 60.7606 29.2602 61.0888 29.4872C61.287 29.6243 61.4051 29.8489 61.4051 30.0885C61.4051 30.3281 61.287 30.5527 61.0888 30.6898C60.4562 31.1423 60.2627 31.9915 60.6378 32.6698C60.8125 32.9889 61.1077 33.2262 61.4586 33.3298C61.7818 33.4234 62.129 33.3893 62.4273 33.2344C62.6561 33.1034 62.938 33.1034 63.1668 33.2344C63.3882 33.3574 63.5306 33.5844 63.5439 33.8357C63.5657 34.5659 64.147 35.1582 64.8824 35.1997C65.083 35.1988 65.2806 35.151 65.4592 35.0604C65.9272 34.8171 66.2289 34.3447 66.2504 33.8211C66.2637 33.5697 66.4061 33.3427 66.6275 33.2198C66.8563 33.0888 67.1382 33.0888 67.367 33.2198C67.6807 33.3817 68.0465 33.4131 68.3836 33.3072C68.7208 33.2013 69.0015 32.9666 69.1639 32.6551C69.2444 32.5063 69.2994 32.3452 69.3266 32.1785C69.4082 31.6134 69.1695 31.0496 68.7055 30.7118C68.5073 30.5747 68.3892 30.3501 68.3892 30.1105C68.3892 29.8709 68.5073 29.6464 68.7055 29.5092C69.3382 29.0567 69.5316 28.2075 69.1565 27.5292C68.9956 27.2182 68.7162 26.9837 68.3802 26.8777C68.0443 26.7717 67.6796 26.803 67.367 26.9646C67.1382 27.0956 66.8563 27.0956 66.6275 26.9646C66.3903 26.8324 66.2455 26.5817 66.2504 26.3119ZM67.1008 30.0665C67.1008 31.2815 66.1076 32.2665 64.8824 32.2665C63.6572 32.2665 62.6639 31.2815 62.6639 30.0665C62.6639 28.8515 63.6572 27.8666 64.8824 27.8666C66.1076 27.8666 67.1008 28.8515 67.1008 30.0665Z" fill="#002873"/>
<path d="M72.7138 20.8637C72.5424 21.3039 72.2628 21.6946 71.9004 22.0003C72.6786 22.367 73.4066 22.8302 74.0671 23.3789L74.2667 23.3789C77.7644 22.7776 80.3822 19.7124 81.3435 18.4437C79.5423 17.2365 77.49 16.447 75.339 16.1338C76.0697 17.0823 76.1738 18.367 75.6052 19.419C75.0397 20.4516 73.8871 21.0275 72.7138 20.8637Z" fill="#002873"/>
<path d="M64.8821 30.8001C65.2905 30.8001 65.6215 30.4718 65.6215 30.0668C65.6215 29.6618 65.2905 29.3335 64.8821 29.3335C64.4737 29.3335 64.1426 29.6618 64.1426 30.0668C64.1426 30.4718 64.4737 30.8001 64.8821 30.8001Z" fill="#002873"/>
</svg>
