<svg width="24" height="24" viewBox="0 0 24 24" fill="none" xmlns="http://www.w3.org/2000/svg">
<path d="M21.9998 8.862C22.0032 10.4008 21.4104 11.881 20.3458 12.992C17.9048 15.523 15.5368 18.162 13.0058 20.6C12.4248 21.15 11.5038 21.13 10.9488 20.555L3.65375 12.993C1.44875 10.707 1.44875 7.017 3.65375 4.732C4.17489 4.185 4.80169 3.74952 5.49614 3.45197C6.19059 3.15442 6.93824 3.001 7.69375 3.001C8.44926 3.001 9.19691 3.15442 9.89136 3.45197C10.5858 3.74952 11.2126 4.185 11.7338 4.732L11.9998 5.006L12.2648 4.732C12.7865 4.18574 13.4134 3.7507 14.1077 3.45304C14.802 3.15539 15.5493 3.00128 16.3048 3C17.8248 3 19.2778 3.624 20.3448 4.732C21.4097 5.84284 22.0029 7.32311 21.9998 8.862Z" stroke="#21262D" stroke-width="1.5" stroke-linejoin="round"/>
</svg>
