<svg width="22" height="20" viewBox="0 0 22 20" fill="none" xmlns="http://www.w3.org/2000/svg">
<path d="M20.9998 6.862C21.0032 8.40075 20.4104 9.881 19.3458 10.992C16.9048 13.523 14.5368 16.162 12.0058 18.6C11.4248 19.15 10.5038 19.13 9.94875 18.555L2.65375 10.993C0.44875 8.707 0.44875 5.017 2.65375 2.732C3.17489 2.185 3.80169 1.74952 4.49614 1.45197C5.19059 1.15442 5.93824 1.001 6.69375 1.001C7.44926 1.001 8.19691 1.15442 8.89136 1.45197C9.58581 1.74952 10.2126 2.185 10.7338 2.732L10.9998 3.006L11.2648 2.732C11.7865 2.18574 12.4134 1.7507 13.1077 1.45304C13.802 1.15539 14.5493 1.00128 15.3048 1C16.8248 1 18.2778 1.624 19.3448 2.732C20.4097 3.84284 21.0029 5.32311 20.9998 6.862Z" stroke="white" stroke-width="1.5" stroke-linejoin="round"/>
</svg>
