<svg width="395" height="142" viewBox="0 0 395 142" fill="none" xmlns="http://www.w3.org/2000/svg">
<rect x="96" y="29" width="299" height="84" rx="42" fill="white" fill-opacity="0.8"/>
<path d="M175.563 67.5L177.795 63.27L177.831 63.99L171.963 54.81H174.447L178.965 61.974H178.515L182.277 54.81H184.671L177.975 67.5H175.563ZM184.813 67.5V58.41H187.045V61.974H191.149V58.41H193.381V67.5H191.149V63.702H187.045V67.5H184.813ZM195.94 67.5V58.41H197.974V65.286H197.434L202.6 58.41H204.454V67.5H202.42V60.606H202.978L197.794 67.5H195.94ZM207.014 67.5V58.41H209.246V61.974H210.614L213.278 58.41H215.69L212.342 62.946L211.856 62.244C212.192 62.28 212.486 62.37 212.738 62.514C213.002 62.658 213.248 62.862 213.476 63.126C213.716 63.378 213.95 63.702 214.178 64.098L216.086 67.5H213.692L212.144 64.764C211.988 64.488 211.832 64.272 211.676 64.116C211.52 63.96 211.346 63.852 211.154 63.792C210.962 63.732 210.728 63.702 210.452 63.702H209.246V67.5H207.014ZM220.862 67.68C220.07 67.68 219.374 67.494 218.774 67.122C218.174 66.738 217.706 66.192 217.37 65.484C217.034 64.776 216.866 63.93 216.866 62.946C216.866 61.962 217.034 61.122 217.37 60.426C217.706 59.718 218.174 59.178 218.774 58.806C219.374 58.422 220.07 58.23 220.862 58.23C221.63 58.23 222.302 58.422 222.878 58.806C223.466 59.178 223.856 59.682 224.048 60.318H223.85L224.048 58.41H226.208C226.172 58.782 226.136 59.16 226.1 59.544C226.076 59.928 226.064 60.306 226.064 60.678V67.5H223.832L223.814 65.628H224.03C223.838 66.252 223.448 66.75 222.86 67.122C222.272 67.494 221.606 67.68 220.862 67.68ZM221.492 65.952C222.2 65.952 222.77 65.706 223.202 65.214C223.634 64.71 223.85 63.954 223.85 62.946C223.85 61.938 223.634 61.188 223.202 60.696C222.77 60.204 222.2 59.958 221.492 59.958C220.784 59.958 220.214 60.204 219.782 60.696C219.35 61.188 219.134 61.938 219.134 62.946C219.134 63.954 219.344 64.71 219.764 65.214C220.196 65.706 220.772 65.952 221.492 65.952ZM228.454 67.752L227.752 65.988C228.148 65.844 228.478 65.658 228.742 65.43C229.018 65.19 229.234 64.89 229.39 64.53C229.558 64.158 229.678 63.702 229.75 63.162C229.822 62.61 229.858 61.956 229.858 61.2V58.41H237.094V67.5H234.862V60.138H231.91V61.272C231.91 62.58 231.79 63.678 231.55 64.566C231.31 65.442 230.938 66.138 230.434 66.654C229.93 67.17 229.27 67.536 228.454 67.752ZM239.657 67.5V58.41H241.889V61.452H244.283C245.495 61.452 246.407 61.71 247.019 62.226C247.631 62.73 247.937 63.462 247.937 64.422C247.937 65.046 247.793 65.592 247.505 66.06C247.217 66.516 246.797 66.87 246.245 67.122C245.705 67.374 245.051 67.5 244.283 67.5H239.657ZM241.889 66.024H243.977C244.589 66.024 245.057 65.898 245.381 65.646C245.705 65.382 245.867 64.986 245.867 64.458C245.867 63.93 245.705 63.546 245.381 63.306C245.069 63.054 244.601 62.928 243.977 62.928H241.889V66.024ZM249.817 67.5V58.41H252.049V61.974H256.153V58.41H258.385V67.5H256.153V63.702H252.049V67.5H249.817ZM264.526 67.68C263.734 67.68 263.038 67.494 262.438 67.122C261.838 66.738 261.37 66.192 261.034 65.484C260.698 64.776 260.53 63.93 260.53 62.946C260.53 61.962 260.698 61.122 261.034 60.426C261.37 59.718 261.838 59.178 262.438 58.806C263.038 58.422 263.734 58.23 264.526 58.23C265.294 58.23 265.966 58.422 266.542 58.806C267.13 59.178 267.52 59.682 267.712 60.318H267.514L267.712 58.41H269.872C269.836 58.782 269.8 59.16 269.764 59.544C269.74 59.928 269.728 60.306 269.728 60.678V67.5H267.496L267.478 65.628H267.694C267.502 66.252 267.112 66.75 266.524 67.122C265.936 67.494 265.27 67.68 264.526 67.68ZM265.156 65.952C265.864 65.952 266.434 65.706 266.866 65.214C267.298 64.71 267.514 63.954 267.514 62.946C267.514 61.938 267.298 61.188 266.866 60.696C266.434 60.204 265.864 59.958 265.156 59.958C264.448 59.958 263.878 60.204 263.446 60.696C263.014 61.188 262.798 61.938 262.798 62.946C262.798 63.954 263.008 64.71 263.428 65.214C263.86 65.706 264.436 65.952 265.156 65.952ZM271.596 67.5L272.982 65.106C273.222 64.698 273.516 64.374 273.864 64.134C274.224 63.882 274.596 63.756 274.98 63.756H275.376L275.358 63.954C274.29 63.954 273.468 63.72 272.892 63.252C272.316 62.784 272.028 62.1 272.028 61.2C272.028 60.312 272.322 59.628 272.91 59.148C273.51 58.656 274.386 58.41 275.538 58.41H280.056V67.5H278.004V64.296H276.978C276.606 64.296 276.276 64.398 275.988 64.602C275.712 64.806 275.478 65.07 275.286 65.394L274.098 67.5H271.596ZM275.97 62.838H278.004V59.868H275.97C275.358 59.868 274.896 60 274.584 60.264C274.284 60.528 274.134 60.888 274.134 61.344C274.134 61.824 274.284 62.196 274.584 62.46C274.896 62.712 275.358 62.838 275.97 62.838ZM287.557 67.5V58.41H296.071V67.5H293.839V60.138H289.789V67.5H287.557ZM302.808 67.68C301.872 67.68 301.062 67.488 300.378 67.104C299.694 66.72 299.16 66.174 298.776 65.466C298.404 64.758 298.218 63.918 298.218 62.946C298.218 61.974 298.404 61.14 298.776 60.444C299.16 59.736 299.694 59.19 300.378 58.806C301.062 58.422 301.872 58.23 302.808 58.23C303.744 58.23 304.554 58.422 305.238 58.806C305.934 59.19 306.468 59.736 306.84 60.444C307.224 61.14 307.416 61.974 307.416 62.946C307.416 63.918 307.224 64.758 306.84 65.466C306.468 66.174 305.934 66.72 305.238 67.104C304.554 67.488 303.744 67.68 302.808 67.68ZM302.808 65.952C303.516 65.952 304.08 65.706 304.5 65.214C304.92 64.71 305.13 63.954 305.13 62.946C305.13 61.938 304.92 61.188 304.5 60.696C304.08 60.204 303.516 59.958 302.808 59.958C302.1 59.958 301.536 60.204 301.116 60.696C300.696 61.188 300.486 61.938 300.486 62.946C300.486 63.954 300.696 64.71 301.116 65.214C301.536 65.706 302.1 65.952 302.808 65.952ZM313.796 67.68C312.86 67.68 312.038 67.488 311.33 67.104C310.634 66.72 310.094 66.174 309.71 65.466C309.326 64.746 309.134 63.894 309.134 62.91C309.134 61.926 309.326 61.086 309.71 60.39C310.106 59.694 310.652 59.16 311.348 58.788C312.044 58.416 312.86 58.23 313.796 58.23C314.396 58.23 314.978 58.326 315.542 58.518C316.118 58.698 316.586 58.962 316.946 59.31L316.262 60.876C315.938 60.576 315.572 60.354 315.164 60.21C314.768 60.054 314.378 59.976 313.994 59.976C313.19 59.976 312.56 60.228 312.104 60.732C311.66 61.236 311.438 61.968 311.438 62.928C311.438 63.888 311.66 64.626 312.104 65.142C312.56 65.658 313.19 65.916 313.994 65.916C314.366 65.916 314.75 65.844 315.146 65.7C315.554 65.556 315.926 65.334 316.262 65.034L316.946 66.582C316.574 66.93 316.1 67.2 315.524 67.392C314.96 67.584 314.384 67.68 313.796 67.68ZM318.756 71.586L318.234 69.804C318.798 69.684 319.272 69.546 319.656 69.39C320.04 69.234 320.358 69.03 320.61 68.778C320.862 68.526 321.072 68.202 321.24 67.806L321.69 66.744L321.636 67.626L317.676 58.41H320.07L322.914 65.502H322.392L325.254 58.41H327.522L323.382 68.004C323.106 68.652 322.806 69.186 322.482 69.606C322.158 70.038 321.81 70.38 321.438 70.632C321.066 70.896 320.658 71.1 320.214 71.244C319.77 71.388 319.284 71.502 318.756 71.586ZM327.81 69.84V65.79H328.854C329.214 65.226 329.472 64.566 329.628 63.81C329.796 63.042 329.88 62.106 329.88 61.002V58.41H336.882V65.79H338.358V69.84H336.45V67.5H329.718V69.84H327.81ZM330.87 65.808H334.776V60.102H331.788V61.506C331.788 62.31 331.71 63.096 331.554 63.864C331.398 64.632 331.17 65.28 330.87 65.808ZM343.592 67.68C342.8 67.68 342.104 67.494 341.504 67.122C340.904 66.738 340.436 66.192 340.1 65.484C339.764 64.776 339.596 63.93 339.596 62.946C339.596 61.962 339.764 61.122 340.1 60.426C340.436 59.718 340.904 59.178 341.504 58.806C342.104 58.422 342.8 58.23 343.592 58.23C344.36 58.23 345.032 58.422 345.608 58.806C346.196 59.178 346.586 59.682 346.778 60.318H346.58L346.778 58.41H348.938C348.902 58.782 348.866 59.16 348.83 59.544C348.806 59.928 348.794 60.306 348.794 60.678V67.5H346.562L346.544 65.628H346.76C346.568 66.252 346.178 66.75 345.59 67.122C345.002 67.494 344.336 67.68 343.592 67.68ZM344.222 65.952C344.93 65.952 345.5 65.706 345.932 65.214C346.364 64.71 346.58 63.954 346.58 62.946C346.58 61.938 346.364 61.188 345.932 60.696C345.5 60.204 344.93 59.958 344.222 59.958C343.514 59.958 342.944 60.204 342.512 60.696C342.08 61.188 341.864 61.938 341.864 62.946C341.864 63.954 342.074 64.71 342.494 65.214C342.926 65.706 343.502 65.952 344.222 65.952ZM173.493 88.5V79.41H175.527V86.286H174.987L180.153 79.41H182.007V88.5H179.973V81.606H180.531L175.347 88.5H173.493ZM187.915 88.68C187.099 88.68 186.331 88.584 185.611 88.392C184.903 88.2 184.309 87.924 183.829 87.564L184.459 86.088C184.903 86.412 185.419 86.658 186.007 86.826C186.607 86.994 187.237 87.078 187.897 87.078C188.665 87.078 189.223 86.976 189.571 86.772C189.931 86.556 190.111 86.244 190.111 85.836C190.111 85.452 189.973 85.164 189.697 84.972C189.421 84.768 189.013 84.666 188.473 84.666H186.115V83.118H188.257C188.749 83.118 189.127 83.022 189.391 82.83C189.655 82.638 189.787 82.368 189.787 82.02C189.787 81.648 189.625 81.354 189.301 81.138C188.989 80.922 188.473 80.814 187.753 80.814C187.129 80.814 186.559 80.892 186.043 81.048C185.527 81.192 185.041 81.408 184.585 81.696L183.973 80.292C184.465 79.944 185.059 79.68 185.755 79.5C186.463 79.32 187.231 79.23 188.059 79.23C189.271 79.23 190.201 79.452 190.849 79.896C191.497 80.34 191.821 80.97 191.821 81.786C191.821 82.338 191.629 82.812 191.245 83.208C190.873 83.604 190.369 83.85 189.733 83.946V83.694C190.477 83.742 191.065 83.964 191.497 84.36C191.929 84.756 192.145 85.29 192.145 85.962C192.145 86.79 191.779 87.45 191.047 87.942C190.315 88.434 189.271 88.68 187.915 88.68ZM199.177 88.5V75.81H208.231V77.61H201.391V81.12H205.081C206.473 81.12 207.559 81.432 208.339 82.056C209.119 82.668 209.509 83.58 209.509 84.792C209.509 85.992 209.119 86.91 208.339 87.546C207.559 88.182 206.473 88.5 205.081 88.5H199.177ZM201.391 86.718H204.811C205.663 86.718 206.287 86.562 206.683 86.25C207.079 85.926 207.277 85.44 207.277 84.792C207.277 84.156 207.079 83.682 206.683 83.37C206.287 83.058 205.663 82.902 204.811 82.902H201.391V86.718ZM215.638 88.68C214.702 88.68 213.892 88.488 213.208 88.104C212.524 87.72 211.99 87.174 211.606 86.466C211.234 85.758 211.048 84.918 211.048 83.946C211.048 82.974 211.234 82.14 211.606 81.444C211.99 80.736 212.524 80.19 213.208 79.806C213.892 79.422 214.702 79.23 215.638 79.23C216.574 79.23 217.384 79.422 218.068 79.806C218.764 80.19 219.298 80.736 219.67 81.444C220.054 82.14 220.246 82.974 220.246 83.946C220.246 84.918 220.054 85.758 219.67 86.466C219.298 87.174 218.764 87.72 218.068 88.104C217.384 88.488 216.574 88.68 215.638 88.68ZM215.638 86.952C216.346 86.952 216.91 86.706 217.33 86.214C217.75 85.71 217.96 84.954 217.96 83.946C217.96 82.938 217.75 82.188 217.33 81.696C216.91 81.204 216.346 80.958 215.638 80.958C214.93 80.958 214.366 81.204 213.946 81.696C213.526 82.188 213.316 82.938 213.316 83.946C213.316 84.954 213.526 85.71 213.946 86.214C214.366 86.706 214.93 86.952 215.638 86.952ZM221.968 88.752L221.266 86.988C221.662 86.844 221.992 86.658 222.256 86.43C222.532 86.19 222.748 85.89 222.904 85.53C223.072 85.158 223.192 84.702 223.264 84.162C223.336 83.61 223.372 82.956 223.372 82.2V79.41H230.608V88.5H228.376V81.138H225.424V82.272C225.424 83.58 225.304 84.678 225.064 85.566C224.824 86.442 224.452 87.138 223.948 87.654C223.444 88.17 222.784 88.536 221.968 88.752ZM237.635 88.68C236.111 88.68 234.917 88.26 234.053 87.42C233.189 86.58 232.757 85.428 232.757 83.964C232.757 83.016 232.943 82.188 233.315 81.48C233.687 80.772 234.203 80.22 234.863 79.824C235.535 79.428 236.315 79.23 237.203 79.23C238.079 79.23 238.811 79.416 239.399 79.788C239.987 80.16 240.431 80.682 240.731 81.354C241.043 82.026 241.199 82.812 241.199 83.712V84.306H234.575V83.118H239.597L239.291 83.37C239.291 82.53 239.111 81.888 238.751 81.444C238.403 81 237.893 80.778 237.221 80.778C236.477 80.778 235.901 81.042 235.493 81.57C235.097 82.098 234.899 82.836 234.899 83.784V84.018C234.899 85.002 235.139 85.74 235.619 86.232C236.111 86.712 236.801 86.952 237.689 86.952C238.205 86.952 238.685 86.886 239.129 86.754C239.585 86.61 240.017 86.382 240.425 86.07L241.091 87.582C240.659 87.93 240.143 88.2 239.543 88.392C238.943 88.584 238.307 88.68 237.635 88.68ZM247.526 88.68C246.59 88.68 245.768 88.488 245.06 88.104C244.364 87.72 243.824 87.174 243.44 86.466C243.056 85.746 242.864 84.894 242.864 83.91C242.864 82.926 243.056 82.086 243.44 81.39C243.836 80.694 244.382 80.16 245.078 79.788C245.774 79.416 246.59 79.23 247.526 79.23C248.126 79.23 248.708 79.326 249.272 79.518C249.848 79.698 250.316 79.962 250.676 80.31L249.992 81.876C249.668 81.576 249.302 81.354 248.894 81.21C248.498 81.054 248.108 80.976 247.724 80.976C246.92 80.976 246.29 81.228 245.834 81.732C245.39 82.236 245.168 82.968 245.168 83.928C245.168 84.888 245.39 85.626 245.834 86.142C246.29 86.658 246.92 86.916 247.724 86.916C248.096 86.916 248.48 86.844 248.876 86.7C249.284 86.556 249.656 86.334 249.992 86.034L250.676 87.582C250.304 87.93 249.83 88.2 249.254 88.392C248.69 88.584 248.114 88.68 247.526 88.68ZM252.36 88.752L251.658 86.988C252.054 86.844 252.384 86.658 252.648 86.43C252.924 86.19 253.14 85.89 253.296 85.53C253.464 85.158 253.584 84.702 253.656 84.162C253.728 83.61 253.764 82.956 253.764 82.2V79.41H261V88.5H258.768V81.138H255.816V82.272C255.816 83.58 255.696 84.678 255.456 85.566C255.216 86.442 254.844 87.138 254.34 87.654C253.836 88.17 253.176 88.536 252.36 88.752ZM267.145 88.68C266.353 88.68 265.657 88.494 265.057 88.122C264.457 87.738 263.989 87.192 263.653 86.484C263.317 85.776 263.149 84.93 263.149 83.946C263.149 82.962 263.317 82.122 263.653 81.426C263.989 80.718 264.457 80.178 265.057 79.806C265.657 79.422 266.353 79.23 267.145 79.23C267.913 79.23 268.585 79.422 269.161 79.806C269.749 80.178 270.139 80.682 270.331 81.318H270.133L270.331 79.41H272.491C272.455 79.782 272.419 80.16 272.383 80.544C272.359 80.928 272.347 81.306 272.347 81.678V88.5H270.115L270.097 86.628H270.313C270.121 87.252 269.731 87.75 269.143 88.122C268.555 88.494 267.889 88.68 267.145 88.68ZM267.775 86.952C268.483 86.952 269.053 86.706 269.485 86.214C269.917 85.71 270.133 84.954 270.133 83.946C270.133 82.938 269.917 82.188 269.485 81.696C269.053 81.204 268.483 80.958 267.775 80.958C267.067 80.958 266.497 81.204 266.065 81.696C265.633 82.188 265.417 82.938 265.417 83.946C265.417 84.954 265.627 85.71 266.047 86.214C266.479 86.706 267.055 86.952 267.775 86.952ZM274.971 88.5V79.41H279.813C280.953 79.41 281.787 79.62 282.315 80.04C282.843 80.448 283.107 81.03 283.107 81.786C283.107 82.362 282.915 82.842 282.531 83.226C282.147 83.61 281.637 83.85 281.001 83.946V83.694C281.781 83.742 282.381 83.97 282.801 84.378C283.221 84.786 283.431 85.314 283.431 85.962C283.431 86.742 283.131 87.36 282.531 87.816C281.931 88.272 281.079 88.5 279.975 88.5H274.971ZM277.059 87.114H279.741C280.269 87.114 280.671 87.006 280.947 86.79C281.235 86.574 281.379 86.256 281.379 85.836C281.379 85.416 281.235 85.098 280.947 84.882C280.671 84.666 280.269 84.558 279.741 84.558H277.059V87.114ZM277.059 83.172H279.543C280.023 83.172 280.395 83.07 280.659 82.866C280.923 82.65 281.055 82.35 281.055 81.966C281.055 81.582 280.923 81.288 280.659 81.084C280.395 80.88 280.023 80.778 279.543 80.778H277.059V83.172ZM293.279 90.84V88.5H285.395V79.41H287.627V86.772H291.479V79.41H293.693V86.772H295.169V90.84H293.279ZM300.403 88.68C299.611 88.68 298.915 88.494 298.315 88.122C297.715 87.738 297.247 87.192 296.911 86.484C296.575 85.776 296.407 84.93 296.407 83.946C296.407 82.962 296.575 82.122 296.911 81.426C297.247 80.718 297.715 80.178 298.315 79.806C298.915 79.422 299.611 79.23 300.403 79.23C301.171 79.23 301.843 79.422 302.419 79.806C303.007 80.178 303.397 80.682 303.589 81.318H303.391L303.589 79.41H305.749C305.713 79.782 305.677 80.16 305.641 80.544C305.617 80.928 305.605 81.306 305.605 81.678V88.5H303.373L303.355 86.628H303.571C303.379 87.252 302.989 87.75 302.401 88.122C301.813 88.494 301.147 88.68 300.403 88.68ZM301.033 86.952C301.741 86.952 302.311 86.706 302.743 86.214C303.175 85.71 303.391 84.954 303.391 83.946C303.391 82.938 303.175 82.188 302.743 81.696C302.311 81.204 301.741 80.958 301.033 80.958C300.325 80.958 299.755 81.204 299.323 81.696C298.891 82.188 298.675 82.938 298.675 83.946C298.675 84.954 298.885 85.71 299.305 86.214C299.737 86.706 300.313 86.952 301.033 86.952Z" fill="#002873"/>
<g clip-path="url(#clip0_751_18129)">
<rect width="142" height="141.698" rx="70.849" fill="white"/>
<path d="M95.3112 64.1289C92.7695 64.0194 90.325 62.6458 88.9629 60.2753C87.5887 57.9048 87.6252 55.1089 88.8048 52.8478C86.5428 54.027 83.7456 54.0513 81.3741 52.6898C79.0027 51.3161 77.6284 48.8849 77.5189 46.3442C76.1447 48.4959 73.7489 49.9182 71.0125 49.9182C68.2762 49.9182 65.8682 48.4959 64.5061 46.3442C64.3967 48.8849 63.0224 51.3283 60.6509 52.6898C58.2795 54.0635 55.4823 54.027 53.2203 52.8478C54.3999 55.1089 54.4243 57.9048 53.0622 60.2753C51.6879 62.6458 49.2556 64.0194 46.7139 64.1289C48.8665 65.5025 50.2894 67.8973 50.2894 70.6325C50.2894 73.3676 48.8665 75.7746 46.7139 77.1361C49.2556 77.2455 51.7001 78.6191 53.0622 80.9896C54.4364 83.3601 54.3999 86.156 53.2203 88.4171C55.4823 87.2379 58.2795 87.2136 60.6509 88.5751C63.0224 89.9488 64.3967 92.38 64.5061 94.9207C65.8804 92.769 68.2762 91.3467 71.0125 91.3467C73.7489 91.3467 76.1569 92.769 77.5189 94.9207C77.6284 92.38 79.0027 89.9366 81.3741 88.5751C83.7456 87.2015 86.5428 87.2379 88.8048 88.4171C87.6252 86.156 87.6008 83.3601 88.9629 80.9896C90.3372 78.6191 92.7695 77.2455 95.3112 77.1361C93.1586 75.7624 91.7357 73.3676 91.7357 70.6325C91.7357 67.8973 93.1586 65.5025 95.3112 64.1289ZM88.2454 80.5884C86.2874 83.9679 82.1646 85.3172 78.65 83.8706C78.1392 87.6391 74.9164 90.5323 71.0004 90.5323C67.0965 90.5323 63.8737 87.6269 63.3508 83.8706C59.8361 85.3051 55.7134 83.9679 53.7554 80.5884C51.7974 77.209 52.6973 72.9665 55.7012 70.6446C52.6973 68.3228 51.7974 64.0802 53.7554 60.7008C55.7134 57.3213 59.8361 55.972 63.3508 57.4186C63.8616 53.6502 67.0844 50.757 71.0004 50.757C74.9042 50.757 78.127 53.6623 78.65 57.4186C82.1646 55.9842 86.2874 57.3213 88.2454 60.7008C90.2034 64.0802 89.3034 68.3228 86.2996 70.6446C89.2913 72.9665 90.1912 77.209 88.2454 80.5884Z" fill="#002873"/>
<path d="M107.156 70.6444C107.156 66.4992 103.872 63.1076 99.7618 62.9374C103.24 60.7371 104.383 56.1663 102.304 52.5681C100.224 48.9698 95.6998 47.6812 92.0514 49.5898C93.9607 45.9429 92.6716 41.4208 89.0718 39.3421C85.472 37.2633 80.8993 38.4182 78.698 41.8827C78.5278 37.7739 75.1469 34.4917 70.9876 34.4917C66.8406 34.4917 63.4475 37.7739 63.2773 41.8827C61.076 38.406 56.5033 37.2633 52.9035 39.3421C49.3037 41.4208 48.0146 45.9429 49.9239 49.5898C46.2755 47.6812 41.7514 48.9698 39.6718 52.5681C37.5922 56.1663 38.7475 60.7371 42.2135 62.9374C38.1029 63.1076 34.8193 66.487 34.8193 70.6444C34.8193 74.7897 38.1029 78.1813 42.2135 78.3515C38.7353 80.5518 37.5922 85.1226 39.6718 88.7208C41.7514 92.3191 46.2755 93.6076 49.9239 91.6991C48.0146 95.346 49.3037 99.8681 52.9035 101.947C56.5033 104.026 61.076 102.871 63.2773 99.4062C63.4475 103.515 66.8284 106.797 70.9876 106.797C75.1347 106.797 78.5278 103.515 78.698 99.4062C80.8993 102.883 85.472 104.026 89.0718 101.947C92.6716 99.8681 93.9607 95.346 92.0514 91.6991C95.6998 93.6076 100.224 92.3191 102.304 88.7208C104.383 85.1226 103.228 80.5518 99.7618 78.3515C103.885 78.1692 107.156 74.7897 107.156 70.6444ZM95.3106 77.148C92.7689 77.2575 90.3244 78.6311 88.9623 81.0016C87.5881 83.3721 87.6246 86.168 88.8042 88.4291C86.5422 87.2499 83.7451 87.2256 81.3736 88.5871C79.0021 89.9608 77.6278 92.392 77.5184 94.9327C76.1441 92.781 73.7483 91.3587 71.012 91.3587C68.2756 91.3587 65.8676 92.781 64.5056 94.9327C64.3961 92.392 63.0219 89.9486 60.6504 88.5871C58.2789 87.2134 55.4817 87.2499 53.2197 88.4291C54.3994 86.168 54.4237 83.3721 53.0616 81.0016C51.6873 78.6311 49.255 77.2575 46.7133 77.148C48.8659 75.7744 50.2888 73.3796 50.2888 70.6444C50.2888 67.9093 48.8659 65.5023 46.7133 64.1408C49.255 64.0314 51.6995 62.6578 53.0616 60.2873C54.4358 57.9168 54.3994 55.1209 53.2197 52.8598C55.4817 54.039 58.2789 54.0633 60.6504 52.7018C63.0219 51.3281 64.3961 48.8969 64.5056 46.3562C65.8798 48.5079 68.2756 49.9302 71.012 49.9302C73.7483 49.9302 76.1563 48.5079 77.5184 46.3562C77.6278 48.8969 79.0021 51.3403 81.3736 52.7018C83.7451 54.0754 86.5422 54.039 88.8042 52.8598C87.6246 55.1209 87.6003 57.9168 88.9623 60.2873C90.3366 62.6578 92.7689 64.0314 95.3106 64.1408C93.1581 65.5145 91.7352 67.9093 91.7352 70.6444C91.7352 73.3796 93.1581 75.7744 95.3106 77.148Z" fill="#002873"/>
<path d="M86.2869 70.6323C89.2908 68.3104 90.1908 64.0679 88.2328 60.6885C86.2748 57.309 82.152 55.9597 78.6374 57.4063C78.1266 53.6378 74.9038 50.7446 70.9878 50.7446C67.0839 50.7446 63.8611 53.65 63.3382 57.4063C59.8235 55.9718 55.7008 57.309 53.7428 60.6885C51.7847 64.0679 52.6847 68.3104 55.6886 70.6323C52.6847 72.9541 51.7847 77.1967 53.7428 80.5761C55.7008 83.9556 59.8235 85.3049 63.3382 83.8583C63.849 87.6268 67.0718 90.52 70.9878 90.52C74.8916 90.52 78.1144 87.6146 78.6374 83.8583C82.152 85.2928 86.2748 83.9556 88.2328 80.5761C90.1908 77.2088 89.2908 72.9663 86.2869 70.6323Z" fill="#002873"/>
<path d="M136.173 74.4373C139.7 73.5499 142.206 70.2677 141.987 66.5115C141.768 62.7552 138.898 59.789 135.298 59.3149C138.521 57.6374 140.199 53.8689 139.129 50.2585C138.046 46.6481 134.568 44.4235 130.956 44.8003C133.705 42.4299 134.471 38.3697 132.586 35.1118C130.701 31.8539 126.797 30.4924 123.367 31.6837C125.496 28.7419 125.301 24.6088 122.723 21.8736C120.145 19.1385 116.022 18.713 112.969 20.658C114.356 17.3029 113.225 13.3278 110.075 11.2612C106.925 9.19464 102.827 9.72951 100.297 12.3309C100.881 8.74485 98.8498 5.1466 95.323 3.85803C91.784 2.56947 87.9166 4.02822 86.0559 7.15238C85.8005 3.52981 82.9912 0.490742 79.2577 0.0531164C75.5241 -0.384509 72.0945 1.92518 71 5.38972C69.9055 1.92518 66.4881 -0.384509 62.7423 0.0531164C59.0087 0.490742 56.1994 3.52981 55.9441 7.15238C54.0833 4.04038 50.216 2.56947 46.677 3.85803C43.138 5.1466 41.1192 8.74485 41.7029 12.3309C39.1733 9.72951 35.0749 9.19464 31.9251 11.2612C28.7753 13.3278 27.6442 17.3029 29.0306 20.658C25.9659 18.7008 21.8554 19.1385 19.2771 21.8736C16.6989 24.6088 16.5043 28.7419 18.6326 31.6837C15.203 30.4924 11.2992 31.8539 9.41414 35.1118C7.5291 38.3697 8.29528 42.4299 11.0438 44.8003C7.43182 44.4235 3.95363 46.6603 2.87126 50.2585C1.78888 53.8689 3.47933 57.6374 6.70213 59.3149C3.10233 59.789 0.232213 62.7552 0.0133057 66.5115C-0.205601 70.2677 2.29966 73.5499 5.8265 74.4373C2.43344 75.7259 0.317346 79.2755 0.974067 82.9832C1.63079 86.6909 4.82926 89.3044 8.45339 89.3531C5.4495 91.3832 4.20902 95.334 5.70488 98.7863C7.20074 102.239 10.91 104.05 14.4612 103.26C12.0045 105.934 11.7127 110.055 13.9625 113.07C16.2124 116.085 20.25 116.996 23.5093 115.404C21.7337 118.577 22.4026 122.649 25.2849 125.068C28.1672 127.487 32.3021 127.439 35.1114 125.141C34.1142 128.63 35.7073 132.447 39.076 134.137C42.4448 135.826 46.4459 134.818 48.6593 131.936C48.5012 135.559 50.9213 138.902 54.5941 139.777C58.2547 140.64 61.9275 138.744 63.4112 135.437C64.0923 138.999 67.2299 141.698 70.9878 141.698C74.7579 141.698 77.8834 138.999 78.5645 135.437C80.0482 138.756 83.7209 140.653 87.3815 139.777C91.0422 138.914 93.4744 135.559 93.3163 131.936C95.5297 134.818 99.5309 135.814 102.9 134.137C106.268 132.447 107.849 128.63 106.864 125.141C109.674 127.439 113.808 127.487 116.691 125.068C119.573 122.649 120.242 118.577 118.466 115.404C121.738 116.984 125.763 116.085 128.013 113.07C130.263 110.055 129.971 105.934 127.514 103.26C131.053 104.05 134.775 102.239 136.271 98.7863C137.767 95.334 136.526 91.3832 133.522 89.3531C137.159 89.3044 140.357 86.6909 141.002 82.9832C141.646 79.2755 139.567 75.7259 136.173 74.4373ZM115.657 103.868C113.784 106.384 113.675 109.654 115.11 112.231C112.459 110.955 109.187 111.259 106.791 113.264C104.395 115.27 103.52 118.443 104.323 121.275C102.036 119.416 98.789 118.966 95.9919 120.364C93.1947 121.774 91.6137 124.643 91.7475 127.585C89.9476 125.251 86.8951 124.059 83.8425 124.776C80.79 125.494 78.6009 127.937 78.0415 130.83C76.8375 128.144 74.1377 126.284 71 126.284C67.8623 126.284 65.1746 128.156 63.9585 130.83C63.3991 127.937 61.21 125.506 58.1574 124.776C55.1049 124.059 52.0524 125.251 50.2525 127.585C50.3741 124.643 48.8052 121.762 46.0081 120.364C43.211 118.954 39.9638 119.416 37.6775 121.275C38.4801 118.443 37.6167 115.282 35.2087 113.264C32.8129 111.246 29.5414 110.943 26.8902 112.231C28.3253 109.666 28.2037 106.384 26.343 103.868C24.4701 101.351 21.3567 100.306 18.4866 100.938C20.469 98.762 21.1135 95.5528 19.873 92.6717C18.6326 89.7907 15.8476 88.0645 12.9045 88.0159C15.3368 86.3626 16.711 83.3843 16.1638 80.2966C15.6165 77.209 13.3058 74.8871 10.46 74.1577C13.2085 73.1123 15.2273 70.523 15.4098 67.3988C15.5922 64.2747 13.8896 61.4666 11.2749 60.1051C14.1936 59.7161 16.7597 57.6738 17.6596 54.6712C18.5596 51.6686 17.538 48.5566 15.3125 46.6238C18.2434 46.9155 21.2108 45.5176 22.7796 42.8067C24.3485 40.0959 24.0809 36.8258 22.354 34.4432C25.139 35.4035 28.3496 34.7228 30.49 32.4496C32.6426 30.1764 33.1291 26.9306 32.0102 24.2076C34.4912 25.7879 37.7748 25.8609 40.3895 24.1469C43.0042 22.4207 44.2325 19.3816 43.7704 16.4762C45.8257 18.5793 48.9998 19.4181 51.9429 18.3483C54.886 17.2785 56.7832 14.6042 57.0021 11.6624C58.5101 14.1909 61.4046 15.7225 64.5179 15.37C67.6313 15.0053 70.0879 12.8415 70.9757 10.0334C71.8635 12.8415 74.3322 15.0053 77.4334 15.37C80.5468 15.7347 83.4412 14.1909 84.9492 11.6624C85.1682 14.592 87.0653 17.2785 90.0084 18.3483C92.9515 19.4181 96.1257 18.5914 98.181 16.4762C97.7188 19.3816 98.9471 22.4207 101.562 24.1469C104.177 25.873 107.46 25.7879 109.941 24.2076C108.822 26.9306 109.309 30.1642 111.461 32.4496C113.614 34.7228 116.825 35.4035 119.597 34.4432C117.883 36.8258 117.603 40.0959 119.172 42.8067C120.741 45.5176 123.708 46.9155 126.639 46.6238C124.413 48.5445 123.404 51.6686 124.292 54.6712C125.192 57.6738 127.758 59.7161 130.676 60.1051C128.074 61.4666 126.359 64.2625 126.542 67.3988C126.724 70.523 128.743 73.1123 131.491 74.1577C128.633 74.8871 126.335 77.209 125.788 80.2966C125.24 83.3843 126.615 86.3626 129.047 88.0159C126.104 88.0645 123.319 89.8029 122.078 92.6717C120.838 95.5528 121.482 98.762 123.465 100.938C120.643 100.306 117.53 101.351 115.657 103.868Z" fill="#002873"/>
<path d="M87.2778 98.8111C89.2438 97.6765 89.9174 95.1636 88.7823 93.1984C87.6471 91.2333 85.1332 90.56 83.1672 91.6946C81.2012 92.8292 80.5276 95.3421 81.6627 97.3073C82.7978 99.2724 85.3118 99.9457 87.2778 98.8111Z" fill="white"/>
<path d="M99.1924 86.9129C100.328 84.9477 99.6539 82.4349 97.6879 81.3002C95.7219 80.1656 93.208 80.8389 92.0729 82.8041C90.9378 84.7692 91.6113 87.2821 93.5773 88.4167C95.5433 89.5513 98.0573 88.8781 99.1924 86.9129Z" fill="white"/>
<path d="M99.4456 74.7533C101.716 74.7533 103.556 72.9137 103.556 70.6445C103.556 68.3752 101.716 66.5356 99.4456 66.5356C97.1753 66.5356 95.335 68.3752 95.335 70.6445C95.335 72.9137 97.1753 74.7533 99.4456 74.7533Z" fill="white"/>
<path d="M97.6869 59.9732C99.653 58.8386 100.327 56.3257 99.1914 54.3606C98.0563 52.3954 95.5424 51.7221 93.5764 52.8567C91.6104 53.9913 90.9368 56.5042 92.0719 58.4694C93.207 60.4345 95.7209 61.1078 97.6869 59.9732Z" fill="white"/>
<path d="M88.7803 48.0735C89.9154 46.1084 89.2418 43.5955 87.2758 42.4609C85.3098 41.3263 82.7959 41.9996 81.6608 43.9647C80.5257 45.9299 81.1992 48.4427 83.1652 49.5774C85.1312 50.712 87.6452 50.0387 88.7803 48.0735Z" fill="white"/>
<path d="M71.0002 46.3197C73.2704 46.3197 75.1108 44.4801 75.1108 42.2109C75.1108 39.9416 73.2704 38.1021 71.0002 38.1021C68.73 38.1021 66.8896 39.9416 66.8896 42.2109C66.8896 44.4801 68.73 46.3197 71.0002 46.3197Z" fill="white"/>
<path d="M58.8325 49.5684C60.7985 48.4338 61.472 45.9209 60.3369 43.9558C59.2018 41.9906 56.6879 41.3173 54.7219 42.4519C52.7559 43.5866 52.0823 46.0994 53.2174 48.0646C54.3525 50.0297 56.8665 50.703 58.8325 49.5684Z" fill="white"/>
<path d="M49.9248 58.4803C51.0599 56.5151 50.3864 54.0022 48.4204 52.8676C46.4544 51.733 43.9404 52.4063 42.8053 54.3715C41.6702 56.3366 42.3438 58.8495 44.3098 59.9841C46.2758 61.1187 48.7897 60.4454 49.9248 58.4803Z" fill="white"/>
<path d="M42.5666 74.7533C44.8369 74.7533 46.6772 72.9137 46.6772 70.6445C46.6772 68.3752 44.8369 66.5356 42.5666 66.5356C40.2964 66.5356 38.4561 68.3752 38.4561 70.6445C38.4561 72.9137 40.2964 74.7533 42.5666 74.7533Z" fill="white"/>
<path d="M48.4233 88.4063C50.3893 87.2717 51.0629 84.7588 49.9278 82.7937C48.7926 80.8285 46.2787 80.1552 44.3127 81.2898C42.3467 82.4245 41.6731 84.9373 42.8082 86.9025C43.9433 88.8676 46.4573 89.5409 48.4233 88.4063Z" fill="white"/>
<path d="M60.3369 97.3201C61.4721 95.355 60.7985 92.8421 58.8325 91.7075C56.8665 90.5729 54.3525 91.2461 53.2174 93.2113C52.0823 95.1765 52.7559 97.6893 54.7219 98.8239C56.6879 99.9586 59.2018 99.2853 60.3369 97.3201Z" fill="white"/>
<path d="M71.0002 103.175C73.2704 103.175 75.1108 101.335 75.1108 99.0659C75.1108 96.7966 73.2704 94.957 71.0002 94.957C68.73 94.957 66.8896 96.7966 66.8896 99.0659C66.8896 101.335 68.73 103.175 71.0002 103.175Z" fill="white"/>
<path d="M85.1153 78.7972C86.2504 76.832 85.5768 74.3191 83.6108 73.1845C81.6448 72.0499 79.1308 72.7232 77.9957 74.6883C76.8606 76.6535 77.5342 79.1664 79.5002 80.301C81.4662 81.4356 83.9802 80.7623 85.1153 78.7972Z" fill="white"/>
<path d="M83.604 68.0972C85.57 66.9626 86.2435 64.4497 85.1084 62.4846C83.9733 60.5194 81.4594 59.8461 79.4934 60.9807C77.5274 62.1154 76.8538 64.6282 77.9889 66.5934C79.124 68.5585 81.6379 69.2318 83.604 68.0972Z" fill="white"/>
<path d="M71.0002 62.5604C73.2704 62.5604 75.1108 60.7208 75.1108 58.4516C75.1108 56.1824 73.2704 54.3428 71.0002 54.3428C68.73 54.3428 66.8896 56.1824 66.8896 58.4516C66.8896 60.7208 68.73 62.5604 71.0002 62.5604Z" fill="white"/>
<path d="M63.9961 66.6062C65.1312 64.6411 64.4576 62.1282 62.4916 60.9936C60.5256 59.859 58.0117 60.5323 56.8766 62.4974C55.7415 64.4626 56.415 66.9755 58.3811 68.1101C60.3471 69.2447 62.861 68.5714 63.9961 66.6062Z" fill="white"/>
<path d="M62.4965 80.2886C64.4625 79.154 65.1361 76.6411 64.001 74.676C62.8659 72.7108 60.352 72.0375 58.3859 73.1722C56.4199 74.3068 55.7464 76.8196 56.8815 78.7848C58.0166 80.75 60.5305 81.4232 62.4965 80.2886Z" fill="white"/>
<path d="M71.0002 86.934C73.2704 86.934 75.1108 85.0944 75.1108 82.8251C75.1108 80.5559 73.2704 78.7163 71.0002 78.7163C68.73 78.7163 66.8896 80.5559 66.8896 82.8251C66.8896 85.0944 68.73 86.934 71.0002 86.934Z" fill="white"/>
<path d="M71.0002 74.7533C73.2704 74.7533 75.1108 72.9137 75.1108 70.6445C75.1108 68.3752 73.2704 66.5356 71.0002 66.5356C68.73 66.5356 66.8896 68.3752 66.8896 70.6445C66.8896 72.9137 68.73 74.7533 71.0002 74.7533Z" fill="white"/>
<path d="M86.5507 136.278C88.7596 135.755 90.1259 133.541 89.6024 131.333C89.0789 129.125 86.8638 127.759 84.6549 128.282C82.446 128.806 81.0797 131.02 81.6032 133.228C82.1267 135.436 84.3418 136.802 86.5507 136.278Z" fill="white"/>
<path d="M101.282 130.922C103.311 129.903 104.129 127.434 103.11 125.406C102.091 123.378 99.6208 122.56 97.5922 123.578C95.5635 124.597 94.7449 127.066 95.7638 129.094C96.7827 131.122 99.2532 131.94 101.282 130.922Z" fill="white"/>
<path d="M114.383 122.302C116.122 120.843 116.349 118.252 114.89 116.513C113.431 114.775 110.838 114.549 109.099 116.007C107.36 117.466 107.133 120.058 108.592 121.796C110.052 123.534 112.645 123.761 114.383 122.302Z" fill="white"/>
<path d="M125.15 110.946C126.505 109.126 126.128 106.552 124.307 105.196C122.486 103.841 119.911 104.218 118.555 106.038C117.2 107.858 117.577 110.433 119.398 111.788C121.219 113.143 123.794 112.766 125.15 110.946Z" fill="white"/>
<path d="M132.983 97.3734C133.882 95.2898 132.921 92.872 130.836 91.9732C128.752 91.0743 126.333 92.0348 125.434 94.1184C124.535 96.202 125.495 98.6198 127.58 99.5186C129.665 100.417 132.083 99.457 132.983 97.3734Z" fill="white"/>
<path d="M137.464 82.349C137.858 80.1142 136.365 77.9833 134.13 77.5893C131.894 77.1954 129.762 78.6877 129.368 80.9224C128.974 83.1572 130.467 85.2881 132.702 85.682C134.938 86.076 137.07 84.5837 137.464 82.349Z" fill="white"/>
<path d="M134.525 71.0487C136.791 70.9168 138.522 68.9734 138.39 66.708C138.258 64.4426 136.313 62.7131 134.047 62.8451C131.781 62.977 130.05 64.9204 130.182 67.1858C130.314 69.4512 132.259 71.1807 134.525 71.0487Z" fill="white"/>
<path d="M132.905 56.4114C135.08 55.7606 136.315 53.4707 135.664 51.2967C135.013 49.1228 132.722 47.8881 130.547 48.5389C128.372 49.1897 127.137 51.4796 127.788 53.6535C128.439 55.8275 130.73 57.0622 132.905 56.4114Z" fill="white"/>
<path d="M127.943 42.5079C129.909 41.3732 130.582 38.8604 129.447 36.8952C128.312 34.93 125.798 34.2568 123.832 35.3914C121.866 36.526 121.193 39.0389 122.328 41.004C123.463 42.9692 125.977 43.6425 127.943 42.5079Z" fill="white"/>
<path d="M119.928 30.1693C121.58 28.6121 121.655 26.0117 120.098 24.361C118.54 22.7104 115.938 22.6346 114.287 24.1918C112.636 25.7489 112.56 28.3493 114.118 30C115.675 31.6506 118.277 31.7264 119.928 30.1693Z" fill="white"/>
<path d="M109.268 19.9604C110.516 18.0644 109.989 15.5166 108.093 14.2696C106.196 13.0227 103.647 13.5488 102.399 15.4448C101.152 17.3407 101.678 19.8885 103.575 21.1355C105.472 22.3824 108.021 21.8563 109.268 19.9604Z" fill="white"/>
<path d="M96.5453 12.5002C97.3217 10.3678 96.2217 8.00997 94.0884 7.23389C91.9551 6.45781 89.5963 7.55732 88.8199 9.68972C88.0435 11.8221 89.1435 14.1799 91.2768 14.956C93.4101 15.7321 95.7689 14.6326 96.5453 12.5002Z" fill="white"/>
<path d="M82.4443 8.19913C82.7078 5.94532 81.0936 3.90466 78.8389 3.64121C76.5841 3.37775 74.5426 4.99125 74.279 7.24506C74.0154 9.49886 75.6296 11.5395 77.8844 11.803C80.1392 12.0664 82.1807 10.4529 82.4443 8.19913Z" fill="white"/>
<path d="M64.1133 11.7848C66.3681 11.5214 67.9823 9.48071 67.7187 7.2269C67.4551 4.97309 65.4136 3.35961 63.1588 3.62306C60.904 3.88652 59.2898 5.92716 59.5534 8.18097C59.817 10.4348 61.8585 12.0483 64.1133 11.7848Z" fill="white"/>
<path d="M50.733 14.9675C52.8663 14.1915 53.9663 11.8337 53.1899 9.70127C52.4134 7.56886 50.0546 6.46934 47.9213 7.24542C45.788 8.0215 44.688 10.3793 45.4644 12.5117C46.2408 14.6441 48.5996 15.7436 50.733 14.9675Z" fill="white"/>
<path d="M38.4304 21.1415C40.3272 19.8945 40.8536 17.3467 39.6061 15.4508C38.3586 13.5548 35.8097 13.0287 33.9129 14.2757C32.0161 15.5226 31.4898 18.0704 32.7373 19.9664C33.9848 21.8623 36.5337 22.3884 38.4304 21.1415Z" fill="white"/>
<path d="M27.8857 29.969C29.4436 28.3184 29.3677 25.7179 27.7164 24.1608C26.065 22.6036 23.4635 22.6794 21.9057 24.3301C20.3478 25.9807 20.4236 28.5812 22.075 30.1383C23.7264 31.6955 26.3279 31.6197 27.8857 29.969Z" fill="white"/>
<path d="M19.6553 41.0193C20.7904 39.0542 20.1168 36.5413 18.1508 35.4067C16.1848 34.2721 13.6709 34.9454 12.5358 36.9105C11.4007 38.8757 12.0742 41.3885 14.0402 42.5232C16.0062 43.6578 18.5202 42.9845 19.6553 41.0193Z" fill="white"/>
<path d="M14.2218 53.6452C14.8729 51.4712 13.6376 49.1813 11.4628 48.5305C9.28791 47.8797 6.99701 49.1144 6.34591 51.2884C5.69481 53.4623 6.93007 55.7522 9.10494 56.403C11.2798 57.0538 13.5707 55.8191 14.2218 53.6452Z" fill="white"/>
<path d="M11.8193 67.1943C11.9513 64.929 10.221 62.9855 7.95467 62.8536C5.68832 62.7217 3.74406 64.4511 3.61206 66.7165C3.48006 68.9819 5.2103 70.9253 7.47665 71.0573C9.74301 71.1892 11.6873 69.4597 11.8193 67.1943Z" fill="white"/>
<path d="M9.27707 85.6988C11.5128 85.3048 13.0057 83.1739 12.6116 80.9391C12.2175 78.7044 10.0856 77.2121 7.84987 77.606C5.61416 78 4.12125 80.131 4.51536 82.3657C4.90947 84.6005 7.04136 86.0927 9.27707 85.6988Z" fill="white"/>
<path d="M14.4263 99.5024C16.5108 98.6036 17.4716 96.1858 16.5724 94.1022C15.6732 92.0186 13.2544 91.0581 11.1699 91.957C9.08534 92.8558 8.12448 95.2736 9.02371 97.3572C9.92294 99.4408 12.3418 100.401 14.4263 99.5024Z" fill="white"/>
<path d="M22.6257 111.754C24.4467 110.399 24.8238 107.824 23.468 106.004C22.1122 104.184 19.537 103.807 17.716 105.162C15.8951 106.518 15.518 109.092 16.8738 110.912C18.2296 112.732 20.8048 113.109 22.6257 111.754Z" fill="white"/>
<path d="M33.3958 121.826C34.8551 120.088 34.6283 117.496 32.8893 116.037C31.1504 114.579 28.5576 114.805 27.0983 116.544C25.639 118.282 25.8658 120.873 27.6048 122.332C29.3438 123.791 31.9365 123.564 33.3958 121.826Z" fill="white"/>
<path d="M46.2167 129.11C47.2355 127.082 46.4169 124.613 44.3883 123.595C42.3596 122.576 39.8891 123.394 38.8702 125.422C37.8513 127.45 38.67 129.919 40.6986 130.938C42.7273 131.956 45.1978 131.138 46.2167 129.11Z" fill="white"/>
<path d="M60.366 133.247C60.8895 131.039 59.5232 128.825 57.3143 128.301C55.1054 127.778 52.8904 129.144 52.3668 131.352C51.8433 133.56 53.2096 135.774 55.4185 136.297C57.6274 136.82 59.8425 135.455 60.366 133.247Z" fill="white"/>
<path d="M71.0002 138.112C73.2704 138.112 75.1108 136.272 75.1108 134.003C75.1108 131.734 73.2704 129.894 71.0002 129.894C68.73 129.894 66.8896 131.734 66.8896 134.003C66.8896 136.272 68.73 138.112 71.0002 138.112Z" fill="white"/>
<path d="M76.6065 20.585C76.0713 19.8556 75.7795 20.1717 75.7187 20.1838C75.4998 20.2324 75.2079 20.5485 75.3538 20.9618C75.4511 21.2293 75.8646 21.5332 76.0957 22.1045C76.2781 22.5421 76.2295 23.1256 76.0106 23.2837C75.6335 23.5511 74.6606 23.15 74.5025 23.077C73.5904 22.6515 73.6147 22.2382 72.654 22.1045C72.1675 22.0316 71.2797 22.0802 70.9635 22.6637C70.7081 23.1378 70.927 23.7942 71.2797 24.1103C72.131 24.8761 75.1836 24.4264 75.3781 24.4142C75.439 24.402 76.0592 24.3899 76.1443 24.6573C76.2295 24.9248 76.2173 24.9126 75.8646 25.2408C75.7552 25.3502 75.6335 25.3989 75.5241 25.4596C75.1836 25.6298 74.8795 25.642 74.7579 25.6541C74.7579 25.6541 74.4174 25.6785 73.4566 25.8851C72.5932 26.0675 71.4865 26.8212 71.45 27.7329C71.4257 28.2921 71.8027 28.9485 72.2526 29.0214C72.3743 29.0457 72.9094 29.2038 74.0039 28.134C74.5877 27.5627 74.8066 26.8333 75.4754 26.5294C75.6457 26.4565 75.9984 26.189 76.3632 26.5537C76.6916 26.8819 76.2416 28.3164 76.12 28.8634C75.9376 29.69 75.7916 30.4194 76.12 31.1123C76.1686 31.2096 76.5092 31.9146 77.0078 31.9146C77.4943 31.9268 77.9321 31.2825 78.0537 30.7112C78.1996 29.9818 77.8591 29.6414 77.4334 28.2556C77.1781 27.4168 76.9956 26.5537 77.2389 26.4078C77.5429 26.2255 77.7861 26.5294 78.3091 27.1737C78.8928 27.903 79.5009 29.0336 79.9995 29.5077C80.1333 29.6292 80.4738 29.9575 80.8873 29.9088C81.3373 29.8602 81.7386 29.3861 81.7751 28.9485C81.8237 28.1948 80.8022 27.5505 80.0847 27.1007C79.4523 26.6996 79.2333 26.7117 78.5523 26.2133C78.0294 25.8365 77.5186 25.3502 77.6037 24.9734C77.6888 24.6087 78.2726 24.5358 78.3091 24.5358C78.9658 24.4385 79.2455 24.8275 80.4009 25.253C80.9481 25.4596 81.5319 25.6055 82.1643 25.6541C82.8696 25.7149 83.3561 25.7514 83.6966 25.411C84.0493 25.0585 84.1101 24.3899 83.8547 23.9644C83.502 23.3688 82.6021 23.3445 81.921 23.3201C81.0576 23.2958 80.8508 23.5146 79.586 23.5633C78.3577 23.6119 78.1875 23.4174 78.1388 23.3201C77.9686 23.0041 78.3091 22.4692 78.5401 22.1167C78.978 21.4359 79.4036 21.2293 79.4401 20.8524C79.5009 20.2446 78.9171 19.9042 78.5401 20.1109C78.2726 20.2446 78.0658 20.6093 77.8226 21.2414C77.5672 21.8857 77.5672 22.1775 77.4213 22.2018C76.6429 22.3476 77.2267 21.4359 76.6065 20.585Z" fill="#22BC2E"/>
<path d="M83.4071 24.3064C83.425 23.9511 82.9882 23.6402 82.4315 23.6121C81.8747 23.584 81.4088 23.8493 81.3909 24.2047C81.3729 24.5601 81.8097 24.8709 82.3665 24.899C82.9232 24.9271 83.3891 24.6618 83.4071 24.3064Z" fill="#22BC2E"/>
<path d="M73.4577 23.4584C73.5292 23.1098 73.1445 22.7365 72.5984 22.6245C72.0523 22.5126 71.5516 22.7044 71.4801 23.053C71.4086 23.4015 71.7933 23.7748 72.3394 23.8868C72.8855 23.9987 73.3862 23.8069 73.4577 23.4584Z" fill="#22BC2E"/>
<path d="M73.2652 28.1195C73.7464 27.7649 73.9361 27.2058 73.6889 26.8708C73.4418 26.5357 72.8514 26.5516 72.3702 26.9062C71.8891 27.2609 71.6994 27.8199 71.9465 28.155C72.1937 28.49 72.7841 28.4741 73.2652 28.1195Z" fill="#22BC2E"/>
<path d="M76.9958 31.1365C77.2577 31.1365 77.4701 30.8372 77.4701 30.4679C77.4701 30.0987 77.2577 29.7993 76.9958 29.7993C76.7338 29.7993 76.5215 30.0987 76.5215 30.4679C76.5215 30.8372 76.7338 31.1365 76.9958 31.1365Z" fill="#22BC2E"/>
<path d="M81.1489 29.3203C81.3788 29.1348 81.3258 28.6879 81.0305 28.3222C80.7352 27.9566 80.3094 27.8105 80.0794 27.9961C79.8495 28.1816 79.9025 28.6285 80.1978 28.9941C80.4931 29.3598 80.9189 29.5059 81.1489 29.3203Z" fill="#22BC2E"/>
<path d="M121.568 66.1588C122.236 65.5389 121.884 65.2836 121.859 65.2349C121.786 65.0161 121.446 64.7608 121.032 64.9675C120.777 65.0891 120.522 65.5389 119.987 65.8428C119.573 66.0737 118.989 66.098 118.807 65.9035C118.491 65.5632 118.783 64.5542 118.831 64.384C119.147 63.4358 119.549 63.4115 119.573 62.439C119.585 61.9528 119.439 61.0775 118.819 60.8344C118.32 60.6399 117.7 60.9316 117.421 61.3206C116.764 62.2567 117.566 65.2228 117.615 65.4294C117.627 65.4902 117.725 66.098 117.469 66.2196C117.214 66.329 117.226 66.3168 116.861 66.0129C116.739 65.9157 116.666 65.8063 116.606 65.709C116.399 65.393 116.338 65.0891 116.314 64.9675C116.314 64.9675 116.241 64.6393 115.937 63.7032C115.657 62.8766 114.769 61.8555 113.857 61.9284C113.298 61.9771 112.702 62.4147 112.678 62.8766C112.678 62.9982 112.58 63.5574 113.76 64.5056C114.392 65.0161 115.146 65.1498 115.535 65.7698C115.633 65.9278 115.937 66.2439 115.621 66.6572C115.341 67.0219 113.857 66.7423 113.298 66.6815C112.459 66.5964 111.717 66.5357 111.06 66.949C110.975 67.0098 110.318 67.4231 110.367 67.9215C110.415 68.3956 111.097 68.7724 111.692 68.821C112.434 68.8818 112.726 68.4928 114.052 67.9093C114.854 67.5568 115.694 67.265 115.864 67.496C116.083 67.7756 115.803 68.043 115.231 68.6387C114.587 69.3073 113.529 70.0367 113.115 70.5959C113.006 70.7417 112.726 71.1186 112.823 71.5197C112.933 71.9574 113.444 72.3099 113.881 72.2856C114.636 72.2491 115.158 71.155 115.511 70.3892C115.827 69.7084 115.803 69.5018 116.204 68.7724C116.521 68.2132 116.934 67.6419 117.323 67.6905C117.7 67.7391 117.834 68.3105 117.846 68.3348C118.029 68.9791 117.664 69.2951 117.372 70.4986C117.238 71.0578 117.153 71.6535 117.189 72.2977C117.214 73.0028 117.238 73.489 117.615 73.7808C118.016 74.0847 118.673 74.0726 119.074 73.7686C119.634 73.3432 119.549 72.4436 119.488 71.775C119.403 70.9119 119.172 70.7417 118.965 69.4896C118.77 68.274 118.941 68.0917 119.038 68.0309C119.33 67.8242 119.914 68.1038 120.278 68.2862C121.008 68.6387 121.264 69.0399 121.641 69.0277C122.249 69.0155 122.516 68.3956 122.273 68.043C122.103 67.7999 121.726 67.6297 121.069 67.4595C120.4 67.2893 120.108 67.3258 120.06 67.18C119.816 66.4141 120.789 66.876 121.568 66.1588Z" fill="#22BC2E"/>
<path d="M118.675 73.3589C119.03 73.3344 119.286 72.8639 119.248 72.308C119.21 71.7521 118.891 71.3213 118.536 71.3458C118.18 71.3703 117.924 71.8408 117.962 72.3967C118 72.9526 118.319 73.3834 118.675 73.3589Z" fill="#22BC2E"/>
<path d="M119.083 62.4269C119.129 61.8716 118.879 61.3975 118.524 61.368C118.17 61.3385 117.845 61.7648 117.798 62.3201C117.752 62.8755 118.002 63.3496 118.357 63.3791C118.712 63.4085 119.037 62.9822 119.083 62.4269Z" fill="#22BC2E"/>
<path d="M114.992 64.0019C115.296 63.7167 115.21 63.1326 114.8 62.6973C114.391 62.262 113.813 62.1404 113.509 62.4255C113.206 62.7107 113.292 63.2948 113.701 63.7301C114.111 64.1654 114.689 64.287 114.992 64.0019Z" fill="#22BC2E"/>
<path d="M111.872 68.187C112.239 68.143 112.511 67.8966 112.479 67.6367C112.448 67.3767 112.126 67.2016 111.759 67.2456C111.392 67.2895 111.12 67.536 111.151 67.7959C111.182 68.0559 111.505 68.231 111.872 68.187Z" fill="#22BC2E"/>
<path d="M114.427 71.4958C114.755 71.1592 114.849 70.7192 114.638 70.5131C114.426 70.3069 113.989 70.4127 113.66 70.7494C113.332 71.086 113.238 71.526 113.45 71.7321C113.661 71.9382 114.099 71.8325 114.427 71.4958Z" fill="#22BC2E"/>
<path d="M84.2926 119.963C85.0466 120.473 85.2169 120.072 85.2655 120.048C85.4601 119.926 85.6303 119.537 85.3385 119.185C85.156 118.966 84.6696 118.82 84.2561 118.358C83.9399 118.005 83.7818 117.434 83.9399 117.227C84.2074 116.851 85.2533 116.899 85.4236 116.911C86.4208 117.009 86.5303 117.398 87.491 117.203C87.9653 117.106 88.7923 116.766 88.8896 116.109C88.9626 115.586 88.5491 115.039 88.0991 114.857C87.0411 114.431 84.3169 115.866 84.1345 115.951C84.0737 115.975 83.5021 116.206 83.3318 115.988C83.1616 115.769 83.1859 115.769 83.4048 115.343C83.4778 115.197 83.5629 115.112 83.648 115.027C83.9156 114.76 84.1953 114.638 84.3047 114.577C84.3047 114.577 84.6088 114.431 85.4601 113.921C86.2141 113.459 87.0046 112.377 86.7249 111.502C86.5546 110.967 85.983 110.481 85.5331 110.566C85.4114 110.59 84.852 110.627 84.1831 111.988C83.8304 112.717 83.8669 113.483 83.344 113.994C83.2102 114.115 82.967 114.492 82.5048 114.273C82.0913 114.079 82.0305 112.572 81.9576 112.012C81.8481 111.174 81.7508 110.432 81.2036 109.897C81.1306 109.824 80.5712 109.277 80.0969 109.435C79.6469 109.593 79.4401 110.335 79.5253 110.918C79.6347 111.648 80.0725 111.854 80.936 113.009C81.4711 113.714 81.9332 114.456 81.7508 114.687C81.5319 114.954 81.2036 114.76 80.486 114.322C79.6834 113.836 78.7348 112.973 78.1145 112.693C77.9443 112.62 77.5186 112.426 77.1416 112.608C76.7403 112.803 76.5092 113.386 76.6308 113.812C76.8376 114.541 78.0172 114.796 78.8442 114.979C79.5739 115.137 79.7685 115.064 80.5833 115.295C81.2036 115.477 81.8481 115.757 81.8968 116.146C81.9332 116.522 81.4103 116.778 81.386 116.802C80.8022 117.118 80.4131 116.838 79.1726 116.826C78.5888 116.814 77.9929 116.875 77.3727 117.045C76.6916 117.227 76.2173 117.361 76.0106 117.787C75.7917 118.236 75.9619 118.881 76.3511 119.197C76.8862 119.647 77.7497 119.355 78.3821 119.148C79.2091 118.881 79.3185 118.601 80.4982 118.139C81.6414 117.677 81.8603 117.799 81.9454 117.884C82.213 118.127 82.067 118.747 81.9697 119.148C81.7873 119.938 81.459 120.279 81.5441 120.643C81.69 121.227 82.3589 121.361 82.6508 121.032C82.8575 120.814 82.9305 120.412 82.9548 119.732C82.9791 119.039 82.8819 118.771 83.0035 118.686C83.6602 118.309 83.417 119.367 84.2926 119.963Z" fill="#22BC2E"/>
<path d="M77.7966 119.074C78.3302 118.913 78.6792 118.506 78.5761 118.166C78.473 117.825 77.9569 117.68 77.4232 117.841C76.8896 118.002 76.5406 118.409 76.6437 118.75C76.7468 119.091 77.2629 119.236 77.7966 119.074Z" fill="#22BC2E"/>
<path d="M87.3407 116.696C87.8925 116.618 88.2991 116.268 88.2487 115.916C88.1984 115.564 87.7102 115.342 87.1584 115.421C86.6065 115.5 86.2 115.849 86.2503 116.201C86.3007 116.553 86.7888 116.775 87.3407 116.696Z" fill="#22BC2E"/>
<path d="M86.1767 112.573C86.5099 112.077 86.4997 111.487 86.154 111.255C85.8082 111.023 85.2578 111.237 84.9246 111.733C84.5914 112.229 84.6016 112.819 84.9473 113.051C85.2931 113.283 85.8435 113.069 86.1767 112.573Z" fill="#22BC2E"/>
<path d="M80.7845 111.413C81.0311 111.325 81.13 110.971 81.0053 110.624C80.8807 110.276 80.5798 110.066 80.3332 110.154C80.0866 110.243 79.9878 110.596 80.1124 110.944C80.237 111.291 80.538 111.502 80.7845 111.413Z" fill="#22BC2E"/>
<path d="M78.5195 114.161C78.6733 113.908 78.4726 113.506 78.0711 113.261C77.6696 113.016 77.2195 113.022 77.0656 113.275C76.9118 113.527 77.1126 113.93 77.514 114.174C77.9155 114.419 78.3657 114.413 78.5195 114.161Z" fill="#22BC2E"/>
<path d="M24.6764 91.7965C24.2386 92.5988 24.6642 92.7203 24.7007 92.769C24.8467 92.9392 25.248 93.0729 25.5642 92.7568C25.7588 92.5623 25.8561 92.0517 26.2817 91.5898C26.5979 91.2373 27.1452 91.0306 27.3763 91.1522C27.7776 91.3831 27.8384 92.4286 27.8384 92.5988C27.8505 93.6077 27.4735 93.7536 27.7654 94.6775C27.9114 95.1394 28.337 95.9296 29.0059 95.9539C29.541 95.9782 30.0396 95.5041 30.1734 95.0422C30.4896 93.936 28.7748 91.3953 28.6775 91.213C28.641 91.1643 28.3613 90.6173 28.5681 90.4228C28.7748 90.2283 28.7627 90.2526 29.2126 90.4228C29.3586 90.4836 29.4559 90.5565 29.5532 90.6294C29.845 90.8604 30.0031 91.1279 30.0639 91.2373C30.0639 91.2373 30.2342 91.529 30.8301 92.3192C31.3652 93.0121 32.5206 93.6928 33.3597 93.3282C33.8705 93.1093 34.2962 92.4894 34.1745 92.0517C34.1381 91.9302 34.0529 91.3831 32.6179 90.8604C31.8517 90.5808 31.0977 90.7024 30.5382 90.2283C30.4045 90.1067 30.0031 89.9001 30.1734 89.4138C30.3193 88.9762 31.8152 88.7696 32.3625 88.6358C33.1895 88.4413 33.907 88.259 34.3934 87.6633C34.4664 87.5782 34.9407 86.9704 34.734 86.5206C34.5272 86.083 33.761 85.9493 33.1894 86.0952C32.4719 86.2775 32.3138 86.7394 31.2436 87.7119C30.599 88.3076 29.9058 88.8425 29.6626 88.6966C29.3707 88.5021 29.541 88.1496 29.8937 87.408C30.295 86.5571 31.049 85.536 31.2679 84.8795C31.3287 84.7094 31.4747 84.2596 31.2436 83.907C31.0004 83.5302 30.4045 83.36 29.991 83.5302C29.2856 83.8098 29.1518 85.0133 29.0545 85.852C28.9694 86.5936 29.0667 86.7881 28.9208 87.6147C28.7991 88.2468 28.5924 88.9276 28.2032 89.0005C27.8384 89.0735 27.5222 88.5872 27.4979 88.5629C27.1209 88.0159 27.3641 87.5904 27.2425 86.3626C27.1938 85.7913 27.0722 85.1956 26.8411 84.5999C26.5858 83.9435 26.4033 83.4816 25.9655 83.3235C25.4912 83.1533 24.871 83.3843 24.5913 83.7976C24.2021 84.3811 24.5669 85.1956 24.8467 85.8156C25.1993 86.6057 25.4791 86.6908 26.075 87.8092C26.6466 88.8911 26.5493 89.1221 26.4885 89.2193C26.2817 89.5111 25.6372 89.426 25.2237 89.3774C24.421 89.268 24.044 88.9762 23.6913 89.1099C23.1197 89.3166 23.0711 89.9852 23.4116 90.2405C23.6548 90.4228 24.0562 90.4593 24.7372 90.4106C25.4304 90.362 25.6858 90.2405 25.7831 90.362C26.2574 91.0063 25.1872 90.8726 24.6764 91.7965Z" fill="#22BC2E"/>
<path d="M25.8654 85.9231C26.1938 85.7856 26.2854 85.2576 26.0701 84.7436C25.8548 84.2296 25.4141 83.9243 25.0858 84.0617C24.7574 84.1991 24.6657 84.7272 24.881 85.2412C25.0963 85.7552 25.5371 86.0605 25.8654 85.9231Z" fill="#22BC2E"/>
<path d="M29.1026 95.3438C29.448 95.2576 29.6185 94.7494 29.4835 94.2088C29.3484 93.6682 28.959 93.2998 28.6136 93.3859C28.2683 93.4721 28.0977 93.9803 28.2328 94.5209C28.3678 95.0615 28.7572 95.4299 29.1026 95.3438Z" fill="#22BC2E"/>
<path d="M33.5419 92.7449C33.7373 92.3773 33.4678 91.852 32.9399 91.5716C32.412 91.2912 31.8257 91.3619 31.6302 91.7294C31.4348 92.097 31.7043 92.6223 32.2322 92.9028C32.7601 93.1832 33.3465 93.1125 33.5419 92.7449Z" fill="#22BC2E"/>
<path d="M33.6274 87.6218C33.9606 87.4622 34.1389 87.1414 34.0256 86.9053C33.9124 86.6691 33.5506 86.6071 33.2175 86.7667C32.8843 86.9263 32.706 87.2471 32.8193 87.4832C32.9325 87.7193 33.2943 87.7814 33.6274 87.6218Z" fill="#22BC2E"/>
<path d="M30.7084 84.9215C30.9107 84.4972 30.8583 84.0502 30.5915 83.9231C30.3247 83.7961 29.9445 84.037 29.7422 84.4613C29.5399 84.8855 29.5923 85.3325 29.8591 85.4596C30.1259 85.5867 30.5061 85.3457 30.7084 84.9215Z" fill="#22BC2E"/>
<path d="M44.1235 27.9151C44.16 28.5229 43.8682 28.7295 43.9654 29.3616C44.0019 29.5805 44.0627 29.9573 44.2816 30.0424C44.5249 30.1397 44.8411 29.8601 45.7289 28.9119C46.8599 27.6962 46.7869 27.2829 47.2612 26.9182C47.699 26.59 48.7936 26.1281 49.3895 26.4563C50.0097 26.7967 50.0097 27.7084 49.6692 28.3405C49.3165 28.997 48.4773 29.2401 47.1761 29.6291C46.4342 29.8479 45.814 29.9451 45.291 30.5165C45.2059 30.6137 45.0235 30.8933 45.1329 31.1243C45.2302 31.3188 45.4978 31.4039 46.1788 31.331C48.0882 31.1122 48.5017 30.6016 49.3895 30.711C50.2651 30.8204 51.1164 31.1729 51.1164 31.9752C51.1164 32.4372 50.557 33.1058 49.4259 33.0207C48.5138 32.9599 48.2949 32.3399 46.9693 32.1333C46.8356 32.109 45.8018 32.036 45.6072 32.2913C45.4127 32.5466 46.0207 33.1301 46.3734 33.3732C47.2126 33.9567 47.7233 34.0175 48.4287 34.5159C48.9152 34.8563 49.5354 35.3425 49.3165 36.0598C49.1827 36.5095 48.6841 36.8985 48.1855 36.8985C47.2855 36.8985 46.6045 35.5735 46.3734 35.1359C45.9964 34.3943 45.9599 33.8716 45.3275 33.203C45.1451 33.0085 44.8289 32.6803 44.61 32.7654C44.4641 32.8262 44.3911 33.045 44.3668 34.1755C44.3424 35.4763 44.4276 35.6708 44.2816 36.1813C44.1722 36.5582 43.9776 37.2511 43.4425 37.4213C42.8709 37.6036 42.0804 37.1417 41.9101 36.5825C41.7885 36.1692 41.8372 35.6464 42.5182 34.5524C42.7858 34.1269 43.2722 33.8109 43.6006 33.203C44.0992 32.2913 44.16 31.9996 44.0384 31.7929C43.9168 31.5862 43.6006 31.5012 43.3574 31.5133C43.1385 31.5255 42.9195 31.6227 41.5696 33.5191C41.0953 34.1755 40.6818 34.4673 40.2683 34.601C39.9035 34.7226 39.3806 34.6983 39.0644 34.3579C38.6022 33.8595 38.9427 33.045 38.9792 32.9477C39.2468 32.3399 39.8184 32.0725 40.1102 31.9388C40.5724 31.7321 40.6697 31.8294 41.5575 31.5741C42.6885 31.258 42.7736 31.0149 42.7979 30.9298C42.8831 30.6137 42.6155 30.3098 42.5669 30.2612C42.1899 29.8722 41.6426 30.1397 41.071 29.7507C40.9372 29.6656 40.5602 29.1793 40.6332 28.8511C40.6818 28.6201 40.998 28.4013 41.2777 28.4499C41.7764 28.535 41.7156 28.7417 42.3236 29.2887C42.7736 29.702 43.0776 29.9695 43.2479 29.8965C43.479 29.7871 43.3938 29.0577 43.2479 28.5715C43.0655 27.9637 42.8223 27.8178 42.8831 27.441C42.9439 27.0884 43.2601 26.7359 43.5276 26.7602C43.8438 26.821 44.087 27.4288 44.1235 27.9151Z" fill="#22BC2E"/>
<path d="M48.6443 28.3278C49.1445 28.0392 49.3921 27.5318 49.1974 27.1945C49.0026 26.8573 48.4392 26.818 47.9389 27.1067C47.4387 27.3954 47.1911 27.9028 47.3859 28.24C47.5807 28.5772 48.1441 28.6165 48.6443 28.3278Z" fill="#22BC2E"/>
<path d="M50.3798 32.0258C50.4216 31.6386 50.0549 31.2816 49.5607 31.2283C49.0666 31.175 48.6321 31.4456 48.5903 31.8327C48.5485 32.2199 48.9152 32.5769 49.4094 32.6302C49.9035 32.6835 50.338 32.4129 50.3798 32.0258Z" fill="#22BC2E"/>
<path d="M43.7034 36.012C43.8713 35.6238 43.7875 35.214 43.5162 35.0968C43.2449 34.9796 42.8889 35.1993 42.721 35.5876C42.5531 35.9758 42.6369 36.3856 42.9082 36.5028C43.1794 36.62 43.5355 36.4003 43.7034 36.012Z" fill="#22BC2E"/>
<path d="M40.6717 33.8297C41.1323 33.4812 41.315 32.947 41.0799 32.6365C40.8447 32.3261 40.2808 32.3569 39.8202 32.7054C39.3597 33.0539 39.177 33.5881 39.4121 33.8986C39.6472 34.209 40.2112 34.1782 40.6717 33.8297Z" fill="#22BC2E"/>
<path d="M48.5596 36.0004C48.8066 35.7536 48.7604 35.3072 48.4564 35.0033C48.1525 34.6995 47.7058 34.6533 47.4589 34.9002C47.2119 35.1471 47.2581 35.5935 47.5621 35.8973C47.866 36.2011 48.3126 36.2473 48.5596 36.0004Z" fill="#22BC2E"/>
<path d="M22.9259 55.2789C23.2665 55.7773 23.1084 56.1177 23.5097 56.6161C23.6556 56.7862 23.8867 57.0902 24.1299 57.0415C24.3853 57.0051 24.5313 56.6039 24.8231 55.3397C25.2001 53.7229 24.9204 53.3946 25.1515 52.8598C25.3582 52.3614 26.0758 51.4132 26.769 51.401C27.4743 51.3889 27.9365 52.1669 27.9608 52.8962C27.9851 53.6378 27.377 54.2699 26.4406 55.2546C25.9055 55.8137 25.419 56.2149 25.2488 56.9686C25.2245 57.1023 25.2123 57.4305 25.4069 57.5764C25.5893 57.698 25.8569 57.6372 26.4163 57.2239C27.9608 56.0812 28.0581 55.4247 28.8851 55.0722C29.6999 54.7318 30.612 54.6103 31.0133 55.3032C31.2444 55.7043 31.0863 56.5553 30.0769 57.0537C29.2499 57.4548 28.7635 57.0294 27.5108 57.5156C27.3892 57.5643 26.4528 58.014 26.4041 58.3422C26.3676 58.6583 27.1825 58.865 27.6081 58.9014C28.6297 58.9865 29.104 58.7799 29.9553 58.865C30.539 58.9258 31.3174 59.023 31.4998 59.7645C31.6093 60.2265 31.366 60.81 30.9525 61.0531C30.1742 61.5029 28.9215 60.6884 28.5081 60.421C27.8149 59.9712 27.5108 59.5336 26.6352 59.2783C26.3798 59.2054 25.9298 59.0716 25.7839 59.254C25.6866 59.3755 25.7352 59.6065 26.2825 60.5912C26.9027 61.7217 27.0852 61.8554 27.2189 62.366C27.3162 62.755 27.4987 63.4479 27.1095 63.8612C26.696 64.311 25.7961 64.2988 25.3704 63.8977C25.0542 63.6059 24.8353 63.1197 24.8718 61.8433C24.8839 61.3449 25.1515 60.8221 25.1393 60.1414C25.115 59.0959 25.0177 58.8163 24.8231 58.7069C24.6042 58.5854 24.3002 58.6705 24.0934 58.8042C23.911 58.9258 23.7772 59.1202 23.5462 61.4421C23.4732 62.2444 23.2543 62.7185 22.9624 63.0346C22.707 63.3142 22.2449 63.5694 21.7949 63.4236C21.1504 63.2291 21.0287 62.3538 21.0166 62.2444C20.9436 61.588 21.3085 61.0653 21.4909 60.81C21.7828 60.3967 21.9165 60.4331 22.5611 59.7767C23.3759 58.9379 23.3394 58.6826 23.3151 58.5975C23.23 58.2693 22.853 58.1599 22.78 58.1356C22.257 57.9776 21.9165 58.4881 21.2233 58.4395C21.0652 58.4273 20.4936 58.1964 20.3842 57.8803C20.3112 57.6615 20.4815 57.309 20.7369 57.2117C21.2112 57.0294 21.2598 57.2482 22.0625 57.4184C22.6584 57.5521 23.0597 57.6372 23.1692 57.4792C23.3151 57.2725 22.8773 56.6768 22.5003 56.3365C22.0381 55.8988 21.7584 55.8988 21.6246 55.5463C21.503 55.2059 21.6003 54.744 21.8436 54.6346C22.1354 54.4766 22.6584 54.8777 22.9259 55.2789Z" fill="#22BC2E"/>
<path d="M27.0523 53.3896C27.3411 52.8895 27.3017 52.3264 26.9644 52.1317C26.627 51.937 26.1194 52.1845 25.8306 52.6845C25.5417 53.1845 25.5811 53.7477 25.9185 53.9424C26.2558 54.1371 26.7634 53.8896 27.0523 53.3896Z" fill="#22BC2E"/>
<path d="M29.8534 56.7285C30.308 56.5277 30.5489 56.0761 30.3914 55.72C30.234 55.3638 29.7378 55.2378 29.2831 55.4386C28.8285 55.6395 28.5876 56.091 28.7451 56.4472C28.9025 56.8034 29.3987 56.9293 29.8534 56.7285Z" fill="#22BC2E"/>
<path d="M26.1643 63.3206C26.4578 63.2865 26.6562 62.9183 26.6074 62.4982C26.5586 62.0781 26.2811 61.7651 25.9876 61.7992C25.694 61.8332 25.4956 62.2014 25.5444 62.6216C25.5932 63.0417 25.8707 63.3547 26.1643 63.3206Z" fill="#22BC2E"/>
<path d="M22.9046 62.1322C23.1292 61.6002 23.0202 61.0462 22.6613 60.8949C22.3023 60.7435 21.8293 61.0521 21.6048 61.5841C21.3803 62.1161 21.4892 62.6701 21.8482 62.8214C22.2071 62.9728 22.6801 62.6642 22.9046 62.1322Z" fill="#22BC2E"/>
<path d="M30.8128 60.0773C30.9031 59.7401 30.6398 59.3766 30.2246 59.2654C29.8094 59.1542 29.3996 59.3374 29.3092 59.6746C29.2188 60.0118 29.4821 60.3753 29.8973 60.4865C30.3125 60.5977 30.7224 60.4145 30.8128 60.0773Z" fill="#22BC2E"/>
<path d="M46.6774 114.93C47.2368 114.699 47.5287 114.918 48.1003 114.614C48.2949 114.505 48.6354 114.334 48.6476 114.091C48.6597 113.836 48.2949 113.617 47.1152 113.082C45.6072 112.401 45.2302 112.608 44.7437 112.28C44.2937 111.976 43.5033 111.089 43.6249 110.408C43.7465 109.703 44.6099 109.411 45.3275 109.533C46.0572 109.654 46.5679 110.371 47.3463 111.478C47.7963 112.11 48.0881 112.669 48.7935 112.985C48.9151 113.034 49.2435 113.119 49.4137 112.949C49.5718 112.791 49.5597 112.523 49.2678 111.891C48.453 110.153 47.8206 109.934 47.6503 109.046C47.4679 108.183 47.5287 107.259 48.2949 107.004C48.7327 106.858 49.5354 107.174 49.8272 108.268C50.0583 109.156 49.5475 109.557 49.7786 110.87C49.8029 111.004 50.0583 112 50.3745 112.11C50.6785 112.207 51.0434 111.453 51.1528 111.04C51.4326 110.055 51.3353 109.545 51.5785 108.73C51.7488 108.159 52.0041 107.43 52.7582 107.393C53.2324 107.381 53.7676 107.721 53.9135 108.183C54.2054 109.034 53.1595 110.104 52.819 110.469C52.2352 111.064 51.7488 111.271 51.3231 112.073C51.2015 112.316 50.9826 112.718 51.1407 112.9C51.238 113.021 51.469 113.021 52.5514 112.681C53.7919 112.292 53.95 112.146 54.4851 112.11C54.8864 112.085 55.6039 112.049 55.9323 112.511C56.285 112.997 56.1026 113.885 55.6283 114.225C55.2756 114.48 54.7648 114.59 53.5122 114.31C53.0257 114.201 52.5636 113.836 51.8947 113.714C50.861 113.532 50.5691 113.568 50.4231 113.751C50.265 113.933 50.2894 114.261 50.3745 114.492C50.4596 114.699 50.6177 114.869 52.8554 115.538C53.6216 115.769 54.0473 116.073 54.3027 116.425C54.5337 116.729 54.6797 117.24 54.4608 117.641C54.1446 118.236 53.2568 118.176 53.1595 118.164C52.5028 118.103 52.0649 117.653 51.846 117.422C51.5055 117.057 51.5663 116.924 51.0434 116.17C50.3745 115.21 50.1191 115.197 50.034 115.197C49.7056 115.222 49.511 115.562 49.4745 115.635C49.2192 116.121 49.657 116.547 49.4624 117.215C49.4259 117.361 49.0854 117.884 48.7449 117.92C48.5138 117.945 48.2098 117.714 48.1611 117.446C48.076 116.948 48.2949 116.936 48.6232 116.182C48.8665 115.623 49.0246 115.246 48.903 115.112C48.7205 114.93 48.0638 115.246 47.6503 115.538C47.1395 115.903 47.0666 116.182 46.7017 116.243C46.349 116.304 45.9112 116.109 45.8504 115.854C45.7288 115.538 46.2274 115.112 46.6774 114.93Z" fill="#22BC2E"/>
<path d="M45.936 111.729C46.1929 111.436 46.0492 110.89 45.615 110.509C45.1808 110.129 44.6205 110.057 44.3636 110.35C44.1067 110.643 44.2504 111.189 44.6846 111.569C45.1188 111.95 45.6791 112.022 45.936 111.729Z" fill="#22BC2E"/>
<path d="M48.9566 109.447C49.3368 109.362 49.5573 108.9 49.449 108.415C49.3407 107.93 48.9446 107.606 48.5644 107.691C48.1842 107.775 47.9638 108.237 48.0721 108.722C48.1804 109.207 48.5764 109.531 48.9566 109.447Z" fill="#22BC2E"/>
<path d="M55.1946 113.319C55.2185 113.025 54.8959 112.758 54.4742 112.724C54.0524 112.69 53.6912 112.901 53.6673 113.195C53.6434 113.49 53.9659 113.756 54.3877 113.79C54.8094 113.825 55.1707 113.614 55.1946 113.319Z" fill="#22BC2E"/>
<path d="M53.8695 117.466C54.0881 117.143 53.8777 116.619 53.3996 116.295C52.9214 115.971 52.3566 115.97 52.138 116.292C51.9194 116.615 52.1298 117.139 52.608 117.463C53.0861 117.787 53.651 117.788 53.8695 117.466Z" fill="#22BC2E"/>
<path d="M53.1319 109.086C53.3221 108.701 53.2223 108.263 52.9091 108.109C52.5959 107.954 52.1878 108.142 51.9977 108.527C51.8075 108.912 51.9072 109.35 52.2204 109.504C52.5337 109.659 52.9417 109.472 53.1319 109.086Z" fill="#22BC2E"/>
<path d="M110.853 99.6007C110.61 99.0415 110.829 98.7497 110.513 98.1905C110.403 97.996 110.221 97.6557 109.977 97.6557C109.722 97.6557 109.503 98.0204 108.992 99.1995C108.336 100.719 108.555 101.096 108.226 101.582C107.934 102.032 107.059 102.846 106.378 102.737C105.672 102.628 105.368 101.765 105.478 101.059C105.587 100.318 106.292 99.8074 107.387 99.005C108.019 98.5431 108.567 98.2392 108.871 97.5341C108.919 97.4126 108.992 97.0843 108.822 96.9141C108.664 96.7561 108.384 96.7683 107.776 97.0722C106.061 97.9231 105.843 98.5431 104.955 98.7376C104.091 98.9321 103.167 98.8835 102.899 98.1298C102.741 97.6921 103.045 96.8777 104.14 96.5738C105.028 96.3306 105.429 96.8291 106.742 96.5738C106.876 96.5495 107.873 96.2699 107.971 95.966C108.068 95.6621 107.302 95.3095 106.888 95.2001C105.903 94.9327 105.393 95.0421 104.578 94.8111C104.006 94.6531 103.264 94.41 103.228 93.6563C103.203 93.1822 103.544 92.6473 104.006 92.4771C104.857 92.1732 105.94 93.1943 106.305 93.5347C106.913 94.106 107.132 94.5801 107.934 94.9935C108.178 95.115 108.591 95.3217 108.761 95.1636C108.883 95.0664 108.871 94.8354 108.518 93.7535C108.105 92.5257 107.959 92.3677 107.91 91.8328C107.886 91.4317 107.825 90.7266 108.287 90.3741C108.773 90.0094 109.661 90.1796 110.014 90.6537C110.269 91.0062 110.391 91.5168 110.135 92.7689C110.038 93.2551 109.673 93.717 109.564 94.3978C109.394 95.4311 109.442 95.7228 109.625 95.8687C109.819 96.0267 110.136 95.9903 110.367 95.9052C110.573 95.8201 110.731 95.6499 111.376 93.4131C111.595 92.6351 111.899 92.2097 112.239 91.9544C112.543 91.7234 113.042 91.5654 113.456 91.772C114.064 92.0881 114.015 92.9634 114.003 93.0728C113.954 93.7292 113.504 94.179 113.285 94.3978C112.921 94.7503 112.799 94.6896 112.045 95.2244C111.096 95.9052 111.084 96.1605 111.084 96.2456C111.108 96.5738 111.461 96.7683 111.522 96.7926C112.008 97.0357 112.434 96.5981 113.103 96.7683C113.261 96.8047 113.784 97.133 113.82 97.4733C113.857 97.7043 113.626 98.0204 113.346 98.069C112.848 98.1662 112.835 97.9353 112.081 97.6314C111.51 97.4004 111.133 97.2424 111.011 97.3761C110.841 97.5584 111.157 98.2149 111.461 98.6282C111.838 99.1387 112.118 99.1995 112.179 99.5642C112.239 99.9167 112.057 100.354 111.802 100.427C111.485 100.537 111.048 100.038 110.853 99.6007Z" fill="#22BC2E"/>
<path d="M107.52 101.645C107.893 101.205 107.955 100.644 107.658 100.392C107.361 100.14 106.817 100.293 106.444 100.734C106.07 101.174 106.009 101.735 106.306 101.987C106.603 102.239 107.147 102.086 107.52 101.645Z" fill="#22BC2E"/>
<path d="M104.611 98.3366C105.094 98.2201 105.412 97.8188 105.32 97.4402C105.229 97.0617 104.763 96.8493 104.28 96.9658C103.797 97.0823 103.479 97.4836 103.571 97.8621C103.662 98.2407 104.128 98.4531 104.611 98.3366Z" fill="#22BC2E"/>
<path d="M109.58 91.8987C109.607 91.4765 109.39 91.1191 109.095 91.1002C108.8 91.0814 108.539 91.4083 108.512 91.8304C108.485 92.2526 108.702 92.61 108.997 92.6288C109.292 92.6477 109.553 92.3208 109.58 91.8987Z" fill="#22BC2E"/>
<path d="M113.266 93.6492C113.581 93.1659 113.573 92.6014 113.247 92.3885C112.921 92.1755 112.4 92.3948 112.085 92.8782C111.769 93.3616 111.777 93.926 112.103 94.139C112.429 94.3519 112.95 94.1326 113.266 93.6492Z" fill="#22BC2E"/>
<path d="M105.332 94.1519C105.481 93.8363 105.287 93.4316 104.898 93.2482C104.509 93.0647 104.073 93.1719 103.924 93.4875C103.775 93.8032 103.969 94.2078 104.358 94.3913C104.747 94.5748 105.183 94.4676 105.332 94.1519Z" fill="#22BC2E"/>
<path d="M108.664 36.8864C108.081 37.0444 107.813 36.7892 107.217 37.008C107.011 37.0809 106.646 37.2146 106.609 37.4578C106.561 37.713 106.901 37.9805 107.996 38.6612C109.406 39.5365 109.808 39.3785 110.245 39.7796C110.647 40.1443 111.316 41.129 111.109 41.7854C110.89 42.4661 110.002 42.6363 109.309 42.4297C108.592 42.2109 108.19 41.4329 107.57 40.2294C107.205 39.5365 106.998 38.953 106.342 38.5518C106.232 38.4789 105.916 38.3695 105.721 38.5154C105.539 38.6491 105.515 38.9287 105.721 39.5729C106.305 41.3964 106.889 41.7125 106.95 42.5999C107.011 43.4873 106.828 44.3868 106.038 44.5449C105.588 44.63 104.821 44.2045 104.688 43.0861C104.578 42.1744 105.138 41.8462 105.077 40.509C105.077 40.3753 104.955 39.342 104.651 39.1961C104.359 39.0502 103.909 39.7675 103.739 40.1565C103.326 41.0925 103.362 41.6152 103.009 42.3932C102.766 42.9281 102.413 43.6331 101.659 43.5602C101.185 43.5116 100.711 43.0983 100.614 42.6242C100.443 41.7368 101.611 40.8129 102 40.509C102.657 39.9984 103.167 39.8525 103.69 39.111C103.849 38.8922 104.104 38.5154 103.982 38.3209C103.897 38.1871 103.666 38.1628 102.559 38.3573C101.282 38.5761 101.1 38.7098 100.577 38.6612C100.176 38.6248 99.4704 38.5761 99.1907 38.0777C98.8988 37.5429 99.2028 36.6919 99.7258 36.4123C100.103 36.2057 100.638 36.157 101.83 36.6068C102.292 36.777 102.705 37.2025 103.362 37.4091C104.359 37.7252 104.651 37.7252 104.821 37.5672C105.004 37.397 105.028 37.0809 104.967 36.8378C104.919 36.619 104.773 36.4366 102.657 35.4763C101.927 35.1481 101.55 34.7834 101.343 34.4065C101.161 34.0783 101.076 33.5556 101.343 33.1787C101.745 32.6317 102.608 32.8019 102.705 32.8262C103.35 32.9721 103.727 33.4827 103.909 33.7379C104.201 34.1512 104.128 34.2607 104.542 35.0873C105.077 36.1327 105.32 36.1814 105.417 36.1814C105.746 36.2057 105.989 35.8896 106.025 35.8288C106.342 35.379 105.965 34.9049 106.244 34.2607C106.305 34.1148 106.706 33.6528 107.047 33.6528C107.278 33.6528 107.558 33.9203 107.57 34.1999C107.582 34.7104 107.363 34.6861 106.938 35.3912C106.621 35.9139 106.415 36.2664 106.524 36.4123C106.682 36.6068 107.375 36.388 107.825 36.157C108.385 35.8653 108.482 35.5979 108.859 35.5857C109.224 35.5735 109.625 35.8167 109.65 36.0841C109.686 36.4002 109.127 36.7527 108.664 36.8864Z" fill="#22BC2E"/>
<path d="M110.35 41.717C110.643 41.4609 110.573 40.9007 110.193 40.4658C109.813 40.0309 109.267 39.886 108.974 40.1422C108.68 40.3983 108.75 40.9585 109.13 41.3934C109.51 41.8283 110.056 41.9732 110.35 41.717Z" fill="#22BC2E"/>
<path d="M105.838 43.8049C106.226 43.7711 106.506 43.3426 106.463 42.8476C106.42 42.3527 106.07 41.9789 105.682 42.0126C105.294 42.0464 105.014 42.4749 105.057 42.9699C105.101 43.4648 105.45 43.8387 105.838 43.8049Z" fill="#22BC2E"/>
<path d="M101.48 37.6821C101.543 37.3934 101.258 37.0867 100.845 36.997C100.431 36.9072 100.045 37.0685 99.9826 37.3572C99.92 37.6459 100.204 37.9526 100.618 38.0423C101.031 38.132 101.417 37.9708 101.48 37.6821Z" fill="#22BC2E"/>
<path d="M103.454 34.806C103.714 34.5154 103.575 33.9682 103.144 33.5838C102.713 33.1994 102.153 33.1233 101.893 33.4138C101.634 33.7044 101.773 34.2516 102.204 34.636C102.635 35.0204 103.195 35.0965 103.454 34.806Z" fill="#22BC2E"/>
<path d="M102.535 42.5049C102.774 42.1481 102.733 41.7012 102.443 41.5066C102.153 41.3121 101.724 41.4435 101.485 41.8003C101.245 42.1571 101.286 42.604 101.576 42.7986C101.866 42.9931 102.295 42.8616 102.535 42.5049Z" fill="#22BC2E"/>
<path d="M68.865 120.357C70.3741 118.582 70.1578 115.92 68.3818 114.412C66.6058 112.903 63.9427 113.119 62.4336 114.895C60.9245 116.67 61.1409 119.332 62.9168 120.84C64.6928 122.349 67.3559 122.132 68.865 120.357Z" fill="#FD4242"/>
<path d="M68.6515 119.19C69.4865 118.208 69.3668 116.735 68.3842 115.9C67.4015 115.065 65.928 115.185 65.093 116.167C64.258 117.15 64.3777 118.622 65.3603 119.457C66.343 120.292 67.8165 120.172 68.6515 119.19Z" fill="#21262D"/>
<path d="M37.4121 107.369C39.7099 106.979 41.2562 104.801 40.8658 102.504C40.4754 100.207 38.2962 98.6615 35.9984 99.0517C33.7006 99.442 32.1544 101.62 32.5448 103.917C32.9351 106.214 35.1143 107.759 37.4121 107.369Z" fill="#FD4242"/>
<path d="M37.9964 106.352C39.2678 106.136 40.1234 104.931 39.9074 103.66C39.6914 102.389 38.4856 101.534 37.2142 101.75C35.9428 101.966 35.0872 103.171 35.3032 104.442C35.5192 105.713 36.725 106.568 37.9964 106.352Z" fill="#21262D"/>
<path d="M27.4314 75.6751C28.6093 73.6649 27.9338 71.0808 25.9227 69.9033C23.9116 68.7259 21.3264 69.4011 20.1484 71.4114C18.9705 73.4216 19.646 76.0057 21.6571 77.1832C23.6682 78.3606 26.2535 77.6854 27.4314 75.6751Z" fill="#FD4242"/>
<path d="M25.9687 75.9468C26.6204 74.8345 26.2467 73.4046 25.1339 72.7531C24.0211 72.1017 22.5907 72.4752 21.9389 73.5876C21.2871 74.6999 21.6609 76.1297 22.7737 76.7812C23.8864 77.4326 25.3169 77.0591 25.9687 75.9468Z" fill="#21262D"/>
<path d="M34.396 46.4936C36.591 45.7103 37.7352 43.2968 36.9516 41.1027C36.1681 38.9086 33.7534 37.7649 31.5584 38.5481C29.3634 39.3314 28.2192 41.745 29.0028 43.939C29.7863 46.1331 32.201 47.2768 34.396 46.4936Z" fill="#FD4242"/>
<path d="M33.0924 45.7537C34.307 45.3203 34.9401 43.9849 34.5065 42.7709C34.0729 41.5569 32.7369 40.924 31.5224 41.3574C30.3078 41.7908 29.6747 43.1262 30.1083 44.3402C30.5418 45.5543 31.8779 46.1871 33.0924 45.7537Z" fill="#21262D"/>
<path d="M63.8983 26.1465C64.7091 23.9624 63.5952 21.5348 61.4102 20.7244C59.2252 19.9139 56.7966 21.0274 55.9857 23.2114C55.1749 25.3955 56.2889 27.823 58.4739 28.6335C60.6589 29.444 63.0875 28.3305 63.8983 26.1465Z" fill="#FD4242"/>
<path d="M60.963 25.8651C61.4116 24.6566 60.7952 23.3134 59.5862 22.865C58.3772 22.4165 57.0335 23.0326 56.5848 24.2411C56.1362 25.4495 56.7525 26.7927 57.9615 27.2412C59.1705 27.6897 60.5143 27.0735 60.963 25.8651Z" fill="#21262D"/>
<path d="M94.1839 31.9802C96.2095 30.8279 96.9171 28.2525 95.7643 26.2278C94.6116 24.2031 92.035 23.4958 90.0094 24.648C87.9838 25.8003 87.2763 28.3757 88.429 30.4004C89.5818 32.4251 92.1583 33.1324 94.1839 31.9802Z" fill="#FD4242"/>
<path d="M92.1087 29.8718C93.2295 29.2343 93.621 27.8092 92.9831 26.6889C92.3453 25.5686 90.9197 25.1773 89.7989 25.8148C88.6781 26.4524 88.2866 27.8774 88.9244 28.9977C89.5623 30.118 90.9879 30.5094 92.1087 29.8718Z" fill="#21262D"/>
<path d="M118.536 52.5368C118.955 50.2452 117.436 48.0478 115.143 47.6289C112.851 47.2101 110.652 48.7283 110.233 51.02C109.814 53.3117 111.333 55.509 113.626 55.9279C115.919 56.3467 118.117 54.8285 118.536 52.5368Z" fill="#FD4242"/>
<path d="M116.114 51.1102C116.346 49.8422 115.506 48.6264 114.237 48.3946C112.969 48.1628 111.752 49.0029 111.52 50.2709C111.289 51.5389 112.129 52.7548 113.398 52.9865C114.666 53.2183 115.882 52.3782 116.114 51.1102Z" fill="#21262D"/>
<path d="M119.045 87.3014C120.84 85.8151 121.089 83.156 119.602 81.3621C118.115 79.5683 115.455 79.319 113.661 80.8053C111.866 82.2917 111.617 84.9508 113.104 86.7446C114.59 88.5385 117.251 88.7877 119.045 87.3014Z" fill="#FD4242"/>
<path d="M118.118 84.6419C119.111 83.8195 119.249 82.3482 118.426 81.3556C117.604 80.363 116.132 80.2251 115.139 81.0475C114.146 81.8699 114.008 83.3412 114.831 84.3338C115.653 85.3264 117.125 85.4643 118.118 84.6419Z" fill="#21262D"/>
<path d="M101.358 110.087C101.372 107.757 99.4948 105.857 97.1641 105.842C94.8335 105.828 92.9323 107.705 92.9178 110.034C92.9033 112.364 94.781 114.264 97.1117 114.279C99.4423 114.293 101.343 112.416 101.358 110.087Z" fill="#FD4242"/>
<path d="M100.445 109.322C100.453 108.033 99.4144 106.981 98.1248 106.973C96.8352 106.965 95.7833 108.004 95.7753 109.293C95.7672 110.582 96.8062 111.633 98.0957 111.641C99.3853 111.649 100.437 110.611 100.445 109.322Z" fill="#21262D"/>
<path d="M85.5506 95.8219C85.8647 95.6406 85.9724 95.2392 85.791 94.9252C85.6097 94.6113 85.208 94.5037 84.8939 94.685C84.5798 94.8662 84.4722 95.2677 84.6536 95.5817C84.8349 95.8956 85.2365 96.0032 85.5506 95.8219Z" fill="#002873"/>
<path d="M96.2011 85.1871C96.3825 84.8731 96.2749 84.4717 95.9608 84.2904C95.6467 84.1091 95.2451 84.2167 95.0637 84.5307C94.8824 84.8446 94.99 85.2461 95.3041 85.4273C95.6182 85.6086 96.0198 85.5011 96.2011 85.1871Z" fill="#002873"/>
<path d="M99.4458 71.3011C99.8085 71.3011 100.102 71.0073 100.102 70.6447C100.102 70.2822 99.8085 69.9883 99.4458 69.9883C99.0831 69.9883 98.7891 70.2822 98.7891 70.6447C98.7891 71.0073 99.0831 71.3011 99.4458 71.3011Z" fill="#002873"/>
<path d="M95.9598 56.9855C96.2739 56.8042 96.3815 56.4028 96.2002 56.0888C96.0188 55.7748 95.6172 55.6673 95.3031 55.8485C94.989 56.0298 94.8814 56.4313 95.0627 56.7452C95.2441 57.0592 95.6457 57.1668 95.9598 56.9855Z" fill="#002873"/>
<path d="M85.79 46.3477C85.9714 46.0338 85.8637 45.6323 85.5497 45.451C85.2356 45.2698 84.8339 45.3773 84.6526 45.6913C84.4712 46.0052 84.5788 46.4067 84.8929 46.588C85.207 46.7692 85.6087 46.6617 85.79 46.3477Z" fill="#002873"/>
<path d="M70.9995 42.8676C71.3622 42.8676 71.6562 42.5737 71.6562 42.2111C71.6562 41.8486 71.3622 41.5547 70.9995 41.5547C70.6368 41.5547 70.3428 41.8486 70.3428 42.2111C70.3428 42.5737 70.6368 42.8676 70.9995 42.8676Z" fill="#002873"/>
<path d="M57.1053 46.5783C57.4194 46.397 57.527 45.9955 57.3457 45.6816C57.1643 45.3676 56.7627 45.26 56.4486 45.4413C56.1345 45.6226 56.0269 46.024 56.2082 46.338C56.3896 46.652 56.7912 46.7595 57.1053 46.5783Z" fill="#002873"/>
<path d="M46.9336 56.7549C47.1149 56.441 47.0073 56.0395 46.6932 55.8583C46.3791 55.677 45.9775 55.7846 45.7961 56.0985C45.6148 56.4125 45.7224 56.8139 46.0365 56.9952C46.3506 57.1765 46.7522 57.0689 46.9336 56.7549Z" fill="#002873"/>
<path d="M42.5669 71.3011C42.9296 71.3011 43.2236 71.0073 43.2236 70.6447C43.2236 70.2822 42.9296 69.9883 42.5669 69.9883C42.2042 69.9883 41.9102 70.2822 41.9102 70.6447C41.9102 71.0073 42.2042 71.3011 42.5669 71.3011Z" fill="#002873"/>
<path d="M46.6971 85.4161C47.0112 85.2349 47.1188 84.8334 46.9375 84.5194C46.7561 84.2055 46.3545 84.0979 46.0404 84.2792C45.7263 84.4605 45.6187 84.8619 45.8 85.1759C45.9814 85.4898 46.383 85.5974 46.6971 85.4161Z" fill="#002873"/>
<path d="M57.3457 95.5924C57.527 95.2784 57.4194 94.8769 57.1053 94.6957C56.7912 94.5144 56.3896 94.622 56.2082 94.9359C56.0269 95.2499 56.1345 95.6513 56.4486 95.8326C56.7627 96.0139 57.1643 95.9063 57.3457 95.5924Z" fill="#002873"/>
<path d="M70.9995 99.7226C71.3622 99.7226 71.6562 99.4287 71.6562 99.0661C71.6562 98.7036 71.3622 98.4097 70.9995 98.4097C70.6368 98.4097 70.3428 98.7036 70.3428 99.0661C70.3428 99.4287 70.6368 99.7226 70.9995 99.7226Z" fill="#002873"/>
<path d="M82.125 77.0714C82.3063 76.7574 82.1987 76.3559 81.8846 76.1747C81.5705 75.9934 81.1689 76.101 80.9875 76.4149C80.8062 76.7289 80.9138 77.1303 81.2279 77.3116C81.542 77.4929 81.9436 77.3853 82.125 77.0714Z" fill="#002873"/>
<path d="M81.8768 65.1066C82.1909 64.9253 82.2985 64.5238 82.1172 64.2099C81.9358 63.8959 81.5342 63.7884 81.2201 63.9696C80.906 64.1509 80.7984 64.5524 80.9797 64.8663C81.1611 65.1803 81.5627 65.2879 81.8768 65.1066Z" fill="#002873"/>
<path d="M70.9995 59.1083C71.3622 59.1083 71.6562 58.8144 71.6562 58.4519C71.6562 58.0893 71.3622 57.7954 70.9995 57.7954C70.6368 57.7954 70.3428 58.0893 70.3428 58.4519C70.3428 58.8144 70.6368 59.1083 70.9995 59.1083Z" fill="#002873"/>
<path d="M61.0049 64.8809C61.1862 64.567 61.0786 64.1655 60.7645 63.9842C60.4504 63.803 60.0488 63.9105 59.8674 64.2245C59.6861 64.5385 59.7937 64.9399 60.1078 65.1212C60.4219 65.3025 60.8235 65.1949 61.0049 64.8809Z" fill="#002873"/>
<path d="M60.7694 77.2975C61.0835 77.1162 61.1911 76.7148 61.0097 76.4008C60.8284 76.0869 60.4268 75.9793 60.1127 76.1605C59.7986 76.3418 59.691 76.7433 59.8723 77.0572C60.0537 77.3712 60.4553 77.4788 60.7694 77.2975Z" fill="#002873"/>
<path d="M70.9995 83.4813C71.3622 83.4813 71.6562 83.1874 71.6562 82.8249C71.6562 82.4624 71.3622 82.1685 70.9995 82.1685C70.6368 82.1685 70.3428 82.4624 70.3428 82.8249C70.3428 83.1874 70.6368 83.4813 70.9995 83.4813Z" fill="#002873"/>
<path d="M70.9995 71.3011C71.3622 71.3011 71.6562 71.0073 71.6562 70.6447C71.6562 70.2822 71.3622 69.9883 70.9995 69.9883C70.6368 69.9883 70.3428 70.2822 70.3428 70.6447C70.3428 71.0073 70.6368 71.3011 70.9995 71.3011Z" fill="#002873"/>
<path d="M85.7554 132.918C86.1083 132.834 86.3265 132.48 86.2429 132.127C86.1592 131.775 85.8054 131.557 85.4525 131.64C85.0996 131.724 84.8813 132.077 84.9649 132.43C85.0486 132.783 85.4024 133.001 85.7554 132.918Z" fill="#002873"/>
<path d="M99.731 127.838C100.055 127.675 100.186 127.28 100.023 126.956C99.8603 126.632 99.4656 126.502 99.1415 126.664C98.8174 126.827 98.6866 127.222 98.8494 127.546C99.0122 127.87 99.4069 128 99.731 127.838Z" fill="#002873"/>
<path d="M112.164 119.657C112.442 119.424 112.478 119.01 112.245 118.733C112.011 118.455 111.597 118.419 111.319 118.652C111.042 118.885 111.005 119.299 111.239 119.577C111.472 119.854 111.886 119.89 112.164 119.657Z" fill="#002873"/>
<path d="M122.379 108.883C122.596 108.592 122.536 108.181 122.245 107.964C121.954 107.748 121.542 107.808 121.326 108.099C121.109 108.39 121.169 108.801 121.46 109.018C121.751 109.234 122.163 109.174 122.379 108.883Z" fill="#002873"/>
<path d="M129.811 96.0057C129.955 95.6728 129.801 95.2865 129.468 95.1429C129.135 94.9993 128.749 95.1528 128.605 95.4856C128.461 95.8185 128.615 96.2048 128.948 96.3484C129.281 96.492 129.667 96.3386 129.811 96.0057Z" fill="#002873"/>
<path d="M134.064 81.7499C134.127 81.3929 133.888 81.0524 133.531 80.9895C133.174 80.9266 132.833 81.165 132.77 81.522C132.707 81.879 132.946 82.2195 133.303 82.2824C133.66 82.3454 134.001 82.107 134.064 81.7499Z" fill="#002873"/>
<path d="M134.324 67.6021C134.686 67.581 134.962 67.2705 134.941 66.9086C134.92 66.5467 134.609 66.2703 134.247 66.2914C133.885 66.3125 133.609 66.623 133.63 66.9849C133.651 67.3468 133.962 67.6232 134.324 67.6021Z" fill="#002873"/>
<path d="M131.915 53.1036C132.262 52.9997 132.46 52.6338 132.356 52.2865C132.252 51.9392 131.886 51.7419 131.538 51.8459C131.191 51.9499 130.994 52.3157 131.098 52.6631C131.202 53.0104 131.568 53.2076 131.915 53.1036Z" fill="#002873"/>
<path d="M126.216 39.5172C126.53 39.336 126.637 38.9345 126.456 38.6205C126.275 38.3066 125.873 38.199 125.559 38.3803C125.245 38.5616 125.137 38.963 125.319 39.277C125.5 39.5909 125.902 39.6985 126.216 39.5172Z" fill="#002873"/>
<path d="M117.558 27.6574C117.822 27.4086 117.834 26.9931 117.585 26.7294C117.336 26.4657 116.92 26.4536 116.656 26.7024C116.393 26.9512 116.38 27.3666 116.629 27.6303C116.878 27.894 117.294 27.9062 117.558 27.6574Z" fill="#002873"/>
<path d="M106.382 18.0619C106.581 17.759 106.497 17.352 106.194 17.1527C105.891 16.9535 105.484 17.0376 105.285 17.3405C105.085 17.6434 105.169 18.0504 105.473 18.2496C105.776 18.4488 106.183 18.3648 106.382 18.0619Z" fill="#002873"/>
<path d="M93.2997 11.3202C93.4237 10.9795 93.248 10.6028 92.9071 10.4788C92.5663 10.3548 92.1895 10.5305 92.0654 10.8712C91.9414 11.2119 92.1171 11.5886 92.4579 11.7125C92.7988 11.8365 93.1756 11.6609 93.2997 11.3202Z" fill="#002873"/>
<path d="M79.0136 7.79806C79.0557 7.43798 78.7978 7.11196 78.4376 7.06986C78.0773 7.02777 77.7512 7.28555 77.7091 7.64563C77.6669 8.00571 77.9248 8.33173 78.2851 8.37382C78.6453 8.41591 78.9715 8.15813 79.0136 7.79806Z" fill="#002873"/>
<path d="M63.712 8.35665C64.0722 8.31456 64.3301 7.98853 64.288 7.62846C64.2459 7.26838 63.9197 7.0106 63.5595 7.05269C63.1993 7.09478 62.9414 7.42081 62.9835 7.78088C63.0256 8.14096 63.3517 8.39874 63.712 8.35665Z" fill="#002873"/>
<path d="M49.5517 11.7245C49.8925 11.6006 50.0682 11.2239 49.9442 10.8832C49.8202 10.5425 49.4433 10.3668 49.1025 10.4908C48.7616 10.6148 48.5859 10.9915 48.71 11.3322C48.834 11.6729 49.2108 11.8485 49.5517 11.7245Z" fill="#002873"/>
<path d="M36.5321 18.2582C36.8352 18.059 36.9193 17.6519 36.72 17.349C36.5207 17.0461 36.1134 16.962 35.8104 17.1613C35.5074 17.3605 35.4233 17.7675 35.6226 18.0704C35.8219 18.3733 36.2291 18.4574 36.5321 18.2582Z" fill="#002873"/>
<path d="M25.3738 27.5992C25.6227 27.3355 25.6106 26.92 25.3468 26.6712C25.0829 26.4225 24.6673 26.4346 24.4184 26.6983C24.1695 26.962 24.1816 27.3775 24.4455 27.6262C24.7093 27.875 25.1249 27.8629 25.3738 27.5992Z" fill="#002873"/>
<path d="M16.665 39.2926C16.8464 38.9786 16.7388 38.5771 16.4247 38.3959C16.1106 38.2146 15.7089 38.3222 15.5276 38.6361C15.3462 38.9501 15.4538 39.3515 15.7679 39.5328C16.082 39.7141 16.4837 39.6065 16.665 39.2926Z" fill="#002873"/>
<path d="M10.9134 52.6564C11.0174 52.309 10.8201 51.9432 10.4726 51.8392C10.1252 51.7353 9.75917 51.9325 9.65515 52.2798C9.55112 52.6271 9.74847 52.993 10.0959 53.097C10.4434 53.2009 10.8094 53.0037 10.9134 52.6564Z" fill="#002873"/>
<path d="M8.37186 66.9938C8.39295 66.6318 8.11652 66.3214 7.75444 66.3003C7.39236 66.2792 7.08174 66.5555 7.06065 66.9174C7.03956 67.2794 7.31599 67.5898 7.67807 67.6109C8.04015 67.632 8.35077 67.3557 8.37186 66.9938Z" fill="#002873"/>
<path d="M8.67749 82.2986C9.03467 82.2356 9.27318 81.8952 9.21021 81.5382C9.14725 81.1811 8.80666 80.9427 8.44948 81.0057C8.09229 81.0686 7.85378 81.4091 7.91674 81.7661C7.97971 82.1231 8.3203 82.3615 8.67749 82.2986Z" fill="#002873"/>
<path d="M13.0578 96.3327C13.3909 96.1891 13.5444 95.8028 13.4007 95.4699C13.257 95.137 12.8706 94.9836 12.5376 95.1272C12.2045 95.2708 12.051 95.6571 12.1947 95.9899C12.3384 96.3228 12.7248 96.4763 13.0578 96.3327Z" fill="#002873"/>
<path d="M20.5621 108.986C20.853 108.769 20.9133 108.358 20.6967 108.067C20.4801 107.776 20.0687 107.716 19.7777 107.933C19.4868 108.149 19.4266 108.56 19.6432 108.851C19.8598 109.142 20.2712 109.202 20.5621 108.986Z" fill="#002873"/>
<path d="M30.7495 119.607C30.9827 119.329 30.9464 118.915 30.6686 118.682C30.3908 118.449 29.9766 118.485 29.7434 118.763C29.5103 119.04 29.5465 119.455 29.8243 119.688C30.1022 119.921 30.5164 119.884 30.7495 119.607Z" fill="#002873"/>
<path d="M43.1295 127.559C43.2923 127.235 43.1615 126.841 42.8374 126.678C42.5133 126.515 42.1186 126.646 41.9559 126.97C41.7931 127.294 41.9239 127.689 42.248 127.851C42.5721 128.014 42.9668 127.883 43.1295 127.559Z" fill="#002873"/>
<path d="M57.0056 132.45C57.0892 132.097 56.8709 131.743 56.518 131.66C56.1651 131.576 55.8113 131.794 55.7276 132.147C55.644 132.5 55.8622 132.853 56.2151 132.937C56.5681 133.021 56.922 132.802 57.0056 132.45Z" fill="#002873"/>
<path d="M70.9995 134.66C71.3622 134.66 71.6562 134.366 71.6562 134.003C71.6562 133.641 71.3622 133.347 70.9995 133.347C70.6368 133.347 70.3428 133.641 70.3428 134.003C70.3428 134.366 70.6368 134.66 70.9995 134.66Z" fill="#002873"/>
</g>
<defs>
<clipPath id="clip0_751_18129">
<rect width="142" height="141.698" rx="70.849" fill="white"/>
</clipPath>
</defs>
</svg>
