<svg width="34" height="26" viewBox="0 0 34 26" fill="none" xmlns="http://www.w3.org/2000/svg">
<path d="M16.9999 15.0833H18.3749C19.8874 15.0833 21.1249 14.1458 21.1249 12.9999V2.58325H8.74991C6.68741 2.58325 4.88617 3.44782 3.95117 4.71866" stroke="#002873" stroke-width="1.5625" stroke-linecap="round" stroke-linejoin="round"/>
<path d="M3.25 18.2083C3.25 19.9374 5.0925 21.3333 7.375 21.3333H8.75C8.75 20.1874 9.9875 19.2499 11.5 19.2499C13.0125 19.2499 14.25 20.1874 14.25 21.3333H19.75C19.75 20.1874 20.9875 19.2499 22.5 19.2499C24.0125 19.2499 25.25 20.1874 25.25 21.3333H26.625C28.9075 21.3333 30.75 19.9374 30.75 18.2083V15.0833H26.625C25.8687 15.0833 25.25 14.6145 25.25 14.0416V10.9166C25.25 10.3437 25.8687 9.87492 26.625 9.87492H28.3988L26.0475 6.76035C25.5525 6.11451 24.645 5.70825 23.655 5.70825H21.125V12.9999C21.125 14.1458 19.8875 15.0833 18.375 15.0833H17" stroke="#002873" stroke-width="1.5625" stroke-linecap="round" stroke-linejoin="round"/>
<path d="M11.5 23.4167C13.0188 23.4167 14.25 22.484 14.25 21.3333C14.25 20.1827 13.0188 19.25 11.5 19.25C9.98122 19.25 8.75 20.1827 8.75 21.3333C8.75 22.484 9.98122 23.4167 11.5 23.4167Z" stroke="#002873" stroke-width="1.5625" stroke-linecap="round" stroke-linejoin="round"/>
<path d="M22.5 23.4167C24.0188 23.4167 25.25 22.484 25.25 21.3333C25.25 20.1827 24.0188 19.25 22.5 19.25C20.9812 19.25 19.75 20.1827 19.75 21.3333C19.75 22.484 20.9812 23.4167 22.5 23.4167Z" stroke="#002873" stroke-width="1.5625" stroke-linecap="round" stroke-linejoin="round"/>
<path d="M30.75 13V15.0833H26.625C25.8687 15.0833 25.25 14.6146 25.25 14.0417V10.9167C25.25 10.3438 25.8687 9.875 26.625 9.875H28.3988L30.75 13Z" stroke="#002873" stroke-width="1.5625" stroke-linecap="round" stroke-linejoin="round"/>
<path d="M3.25 8.83325H11.5" stroke="#002873" stroke-width="1.5625" stroke-linecap="round" stroke-linejoin="round"/>
<path d="M3.25 11.9583H8.75" stroke="#002873" stroke-width="1.5625" stroke-linecap="round" stroke-linejoin="round"/>
<path d="M3.25 15.0833H6" stroke="#002873" stroke-width="1.5625" stroke-linecap="round" stroke-linejoin="round"/>
</svg>
