<svg width="28" height="28" viewBox="0 0 28 28" fill="none" xmlns="http://www.w3.org/2000/svg">
<path d="M24.5683 14V26.0468C24.5683 26.1478 24.5484 26.2478 24.5097 26.341C24.4711 26.4343 24.4144 26.5191 24.343 26.5905C24.2716 26.6619 24.1869 26.7186 24.0936 26.7572C24.0003 26.7958 23.9003 26.8157 23.7993 26.8157H4.83208C4.7311 26.8157 4.63111 26.7958 4.53782 26.7572C4.44453 26.7186 4.35976 26.6619 4.28836 26.5905C4.21696 26.5191 4.16032 26.4343 4.12167 26.341C4.08303 26.2478 4.06314 26.1478 4.06314 26.0468V14M14.3157 26.8157V7.59218M14.3157 7.59218H8.54864C7.6989 7.59218 6.88397 7.25462 6.28312 6.65377C5.68227 6.05292 5.34471 5.23799 5.34471 4.38825C5.34471 3.53852 5.68227 2.72359 6.28312 2.12273C6.88397 1.52188 7.6989 1.18433 8.54864 1.18433C13.0341 1.18433 14.3157 7.59218 14.3157 7.59218ZM14.3157 7.59218H20.0828C20.9325 7.59218 21.7474 7.25462 22.3483 6.65377C22.9491 6.05292 23.2867 5.23799 23.2867 4.38825C23.2867 3.53852 22.9491 2.72359 22.3483 2.12273C21.7474 1.52188 20.9325 1.18433 20.0828 1.18433C15.5973 1.18433 14.3157 7.59218 14.3157 7.59218ZM14.3157 7.59218H26.3625C26.5664 7.59218 26.762 7.67319 26.9062 7.81739C27.0504 7.9616 27.1314 8.15718 27.1314 8.36112V13.2311C27.1314 13.435 27.0504 13.6306 26.9062 13.7748C26.762 13.919 26.5664 14 26.3625 14H2.26894C2.06501 14 1.86942 13.919 1.72522 13.7748C1.58101 13.6306 1.5 13.435 1.5 13.2311V8.36112C1.5 8.15718 1.58101 7.9616 1.72522 7.81739C1.86942 7.67319 2.06501 7.59218 2.26894 7.59218H14.3157Z" stroke="#002873" stroke-width="1.53788" stroke-linecap="round" stroke-linejoin="round"/>
</svg>
