<svg width="37" height="36" viewBox="0 0 37 36" fill="none" xmlns="http://www.w3.org/2000/svg">
<g clip-path="url(#clip0_1868_20719)">
<path d="M34.3668 28.6302H31.4858C32.9023 27.8443 34.0833 26.7812 34.9076 25.5455C35.0406 25.346 35.0531 25.0895 34.9399 24.878C34.8268 24.6666 34.6065 24.5347 34.3668 24.5347H33.1774C34.3985 22.139 35.0168 19.738 35.0168 17.3837C35.0168 8.40917 27.355 0.741455 18.3746 0.741455C9.4091 0.741455 1.73242 8.39312 1.73242 17.3837C1.73242 19.738 2.35078 22.1389 3.57184 24.5347H2.38251C2.14276 24.5347 1.92244 24.6666 1.80933 24.878C1.69628 25.0894 1.70863 25.3459 1.84164 25.5454C2.68233 26.8063 3.88271 27.8673 5.25394 28.6302H2.38251C2.14276 28.6302 1.92244 28.7622 1.80933 28.9736C1.69628 29.185 1.70863 29.4415 1.84164 29.641C3.59043 32.2637 6.89346 34.0259 10.0607 34.0259H26.6886C29.8267 34.0259 33.1711 32.2443 34.9076 29.641C35.0407 29.4416 35.0531 29.1851 34.94 28.9736C34.8268 28.7622 34.6065 28.6302 34.3668 28.6302ZM3.03259 17.3837C3.03259 9.06745 10.0584 2.04163 18.3746 2.04163C26.6909 2.04163 33.7167 9.06745 33.7167 17.3837C33.7167 19.7211 33.0397 22.1252 31.7049 24.5347H28.4534C30.0527 22.3578 30.9213 19.8623 30.9213 17.3837C30.9213 10.5827 25.1756 4.83701 18.3746 4.83701C11.5736 4.83701 5.82797 10.5827 5.82797 17.3837C5.82797 19.8623 6.69661 22.3578 8.29595 24.5347H5.04442C3.70953 22.1252 3.03259 19.7211 3.03259 17.3837ZM26.7944 24.5347H9.95491C8.12999 22.4079 7.12814 19.879 7.12814 17.3837C7.12814 11.2874 12.2784 6.13718 18.3746 6.13718C24.4708 6.13718 29.6211 11.2874 29.6211 17.3837C29.6211 19.879 28.6193 22.4079 26.7944 24.5347ZM3.7354 25.8283C5.07731 25.8283 31.3765 25.8283 33.0169 25.8283C31.4596 27.4725 29.04 28.6302 26.6886 28.6302H10.0607C7.78161 28.6302 5.3419 27.5152 3.7354 25.8283ZM26.6886 32.7258H10.0607C7.78161 32.7258 5.3419 31.6107 3.7354 29.9239C4.71021 29.9239 32.2977 29.9239 33.0169 29.9239C31.4596 31.5681 29.04 32.7258 26.6886 32.7258Z" fill="#002873"/>
<path d="M18.1473 15.4442C18.255 15.151 18.6697 15.151 18.7774 15.4442C18.8524 15.6483 19.0987 15.7283 19.2793 15.6073C19.5388 15.4334 19.8743 15.6771 19.7891 15.9777C19.7298 16.1868 19.882 16.3964 20.0993 16.4046C20.4114 16.4165 20.5396 16.8108 20.294 17.0039C20.1231 17.1383 20.1231 17.3972 20.294 17.5316C20.5396 17.7247 20.4114 18.1191 20.0993 18.1309C19.882 18.1392 19.7298 18.3487 19.7891 18.5579C19.8743 18.8584 19.5388 19.1021 19.2793 18.9283C19.0987 18.8072 18.8524 18.8872 18.7774 19.0913C18.6697 19.3845 18.255 19.3845 18.1473 19.0913C18.0723 18.8872 17.826 18.8072 17.6454 18.9283C17.3859 19.1021 17.0504 18.8584 17.1356 18.5579C17.1949 18.3487 17.0427 18.1392 16.8254 18.1309C16.5132 18.1191 16.3851 17.7247 16.6307 17.5316C16.8016 17.3972 16.8016 17.1383 16.6307 17.0039C16.3851 16.8108 16.5132 16.4165 16.8254 16.4046C17.0427 16.3964 17.1949 16.1868 17.1356 15.9777C17.0504 15.6771 17.3859 15.4334 17.6454 15.6073C17.826 15.7283 18.0723 15.6483 18.1473 15.4442Z" fill="#002873"/>
<path d="M18.4862 22.3745C18.0442 22.3745 17.6855 22.7208 17.6855 23.1475C17.6855 23.5743 18.0442 23.9206 18.4862 23.9206C18.9281 23.9206 19.2868 23.5743 19.2868 23.1475C19.2868 22.7208 18.9281 22.3745 18.4862 22.3745Z" fill="#002873"/>
<path d="M12.578 16.4673C12.136 16.4673 11.7773 16.8136 11.7773 17.2403C11.7773 17.667 12.136 18.0134 12.578 18.0134C13.0199 18.0134 13.3786 17.667 13.3786 17.2403C13.3786 16.8136 13.0199 16.4673 12.578 16.4673Z" fill="#002873"/>
<path d="M24.3924 16.4673C23.9505 16.4673 23.5918 16.8136 23.5918 17.2403C23.5918 17.667 23.9505 18.0134 24.3924 18.0134C24.8344 18.0134 25.1931 17.667 25.1931 17.2403C25.1931 16.8136 24.8344 16.4673 24.3924 16.4673Z" fill="#002873"/>
<path d="M18.4862 10.5598C18.0442 10.5598 17.6855 10.9061 17.6855 11.3329C17.6855 11.7596 18.0442 12.1059 18.4862 12.1059C18.9281 12.1059 19.2868 11.7596 19.2868 11.3329C19.2868 10.9061 18.9281 10.5598 18.4862 10.5598Z" fill="#002873"/>
<path d="M14.8533 20.6494C14.5407 20.3369 14.0422 20.3281 13.7405 20.6299C13.4388 20.9316 13.4475 21.4301 13.76 21.7426C14.0725 22.0551 14.571 22.0639 14.8728 21.7622C15.1745 21.4604 15.1658 20.9619 14.8533 20.6494Z" fill="#002873"/>
<path d="M14.8533 12.5163C14.5407 12.2038 14.0422 12.1951 13.7405 12.4968C13.4388 12.7985 13.4475 13.2971 13.76 13.6096C14.0725 13.9221 14.571 13.9308 14.8728 13.6291C15.1745 13.3274 15.1658 12.8288 14.8533 12.5163Z" fill="#002873"/>
<path d="M22.9861 20.6494C22.6736 20.3369 22.175 20.3281 21.8733 20.6299C21.5716 20.9316 21.5803 21.4301 21.8928 21.7426C22.2053 22.0551 22.7039 22.0639 23.0056 21.7622C23.3073 21.4604 23.2986 20.9619 22.9861 20.6494Z" fill="#002873"/>
<path d="M22.9861 12.5166C22.6736 12.2041 22.175 12.1953 21.8733 12.4971C21.5716 12.7988 21.5803 13.2973 21.8928 13.6098C22.2053 13.9223 22.7039 13.9311 23.0056 13.6293C23.3073 13.3276 23.2986 12.8291 22.9861 12.5166Z" fill="#002873"/>
</g>
<defs>
<clipPath id="clip0_1868_20719">
<rect width="35.75" height="34.5172" fill="white" transform="translate(0.5 0.741455)"/>
</clipPath>
</defs>
</svg>
