<svg width="387" height="145" viewBox="0 0 387 145" fill="none" xmlns="http://www.w3.org/2000/svg">
<rect x="101" y="33.478" width="286" height="85" rx="42.5" fill="white" fill-opacity="0.6"/>
<path d="M180.563 72.478L182.795 68.248L182.831 68.968L176.963 59.788H179.447L183.965 66.952H183.515L187.277 59.788H189.671L182.975 72.478H180.563ZM189.813 72.478V63.388H192.045V66.952H196.149V63.388H198.381V72.478H196.149V68.68H192.045V72.478H189.813ZM200.94 72.478V63.388H202.974V70.264H202.434L207.6 63.388H209.454V72.478H207.42V65.584H207.978L202.794 72.478H200.94ZM212.014 72.478V63.388H214.246V66.952H215.614L218.278 63.388H220.69L217.342 67.924L216.856 67.222C217.192 67.258 217.486 67.348 217.738 67.492C218.002 67.636 218.248 67.84 218.476 68.104C218.716 68.356 218.95 68.68 219.178 69.076L221.086 72.478H218.692L217.144 69.742C216.988 69.466 216.832 69.25 216.676 69.094C216.52 68.938 216.346 68.83 216.154 68.77C215.962 68.71 215.728 68.68 215.452 68.68H214.246V72.478H212.014ZM225.862 72.658C225.07 72.658 224.374 72.472 223.774 72.1C223.174 71.716 222.706 71.17 222.37 70.462C222.034 69.754 221.866 68.908 221.866 67.924C221.866 66.94 222.034 66.1 222.37 65.404C222.706 64.696 223.174 64.156 223.774 63.784C224.374 63.4 225.07 63.208 225.862 63.208C226.63 63.208 227.302 63.4 227.878 63.784C228.466 64.156 228.856 64.66 229.048 65.296H228.85L229.048 63.388H231.208C231.172 63.76 231.136 64.138 231.1 64.522C231.076 64.906 231.064 65.284 231.064 65.656V72.478H228.832L228.814 70.606H229.03C228.838 71.23 228.448 71.728 227.86 72.1C227.272 72.472 226.606 72.658 225.862 72.658ZM226.492 70.93C227.2 70.93 227.77 70.684 228.202 70.192C228.634 69.688 228.85 68.932 228.85 67.924C228.85 66.916 228.634 66.166 228.202 65.674C227.77 65.182 227.2 64.936 226.492 64.936C225.784 64.936 225.214 65.182 224.782 65.674C224.35 66.166 224.134 66.916 224.134 67.924C224.134 68.932 224.344 69.688 224.764 70.192C225.196 70.684 225.772 70.93 226.492 70.93ZM233.454 72.73L232.752 70.966C233.148 70.822 233.478 70.636 233.742 70.408C234.018 70.168 234.234 69.868 234.39 69.508C234.558 69.136 234.678 68.68 234.75 68.14C234.822 67.588 234.858 66.934 234.858 66.178V63.388H242.094V72.478H239.862V65.116H236.91V66.25C236.91 67.558 236.79 68.656 236.55 69.544C236.31 70.42 235.938 71.116 235.434 71.632C234.93 72.148 234.27 72.514 233.454 72.73ZM244.657 72.478V63.388H246.889V66.43H249.283C250.495 66.43 251.407 66.688 252.019 67.204C252.631 67.708 252.937 68.44 252.937 69.4C252.937 70.024 252.793 70.57 252.505 71.038C252.217 71.494 251.797 71.848 251.245 72.1C250.705 72.352 250.051 72.478 249.283 72.478H244.657ZM246.889 71.002H248.977C249.589 71.002 250.057 70.876 250.381 70.624C250.705 70.36 250.867 69.964 250.867 69.436C250.867 68.908 250.705 68.524 250.381 68.284C250.069 68.032 249.601 67.906 248.977 67.906H246.889V71.002ZM254.817 72.478V63.388H257.049V66.952H261.153V63.388H263.385V72.478H261.153V68.68H257.049V72.478H254.817ZM269.526 72.658C268.734 72.658 268.038 72.472 267.438 72.1C266.838 71.716 266.37 71.17 266.034 70.462C265.698 69.754 265.53 68.908 265.53 67.924C265.53 66.94 265.698 66.1 266.034 65.404C266.37 64.696 266.838 64.156 267.438 63.784C268.038 63.4 268.734 63.208 269.526 63.208C270.294 63.208 270.966 63.4 271.542 63.784C272.13 64.156 272.52 64.66 272.712 65.296H272.514L272.712 63.388H274.872C274.836 63.76 274.8 64.138 274.764 64.522C274.74 64.906 274.728 65.284 274.728 65.656V72.478H272.496L272.478 70.606H272.694C272.502 71.23 272.112 71.728 271.524 72.1C270.936 72.472 270.27 72.658 269.526 72.658ZM270.156 70.93C270.864 70.93 271.434 70.684 271.866 70.192C272.298 69.688 272.514 68.932 272.514 67.924C272.514 66.916 272.298 66.166 271.866 65.674C271.434 65.182 270.864 64.936 270.156 64.936C269.448 64.936 268.878 65.182 268.446 65.674C268.014 66.166 267.798 66.916 267.798 67.924C267.798 68.932 268.008 69.688 268.428 70.192C268.86 70.684 269.436 70.93 270.156 70.93ZM276.596 72.478L277.982 70.084C278.222 69.676 278.516 69.352 278.864 69.112C279.224 68.86 279.596 68.734 279.98 68.734H280.376L280.358 68.932C279.29 68.932 278.468 68.698 277.892 68.23C277.316 67.762 277.028 67.078 277.028 66.178C277.028 65.29 277.322 64.606 277.91 64.126C278.51 63.634 279.386 63.388 280.538 63.388H285.056V72.478H283.004V69.274H281.978C281.606 69.274 281.276 69.376 280.988 69.58C280.712 69.784 280.478 70.048 280.286 70.372L279.098 72.478H276.596ZM280.97 67.816H283.004V64.846H280.97C280.358 64.846 279.896 64.978 279.584 65.242C279.284 65.506 279.134 65.866 279.134 66.322C279.134 66.802 279.284 67.174 279.584 67.438C279.896 67.69 280.358 67.816 280.97 67.816ZM292.557 72.478V63.388H301.071V72.478H298.839V65.116H294.789V72.478H292.557ZM307.808 72.658C306.872 72.658 306.062 72.466 305.378 72.082C304.694 71.698 304.16 71.152 303.776 70.444C303.404 69.736 303.218 68.896 303.218 67.924C303.218 66.952 303.404 66.118 303.776 65.422C304.16 64.714 304.694 64.168 305.378 63.784C306.062 63.4 306.872 63.208 307.808 63.208C308.744 63.208 309.554 63.4 310.238 63.784C310.934 64.168 311.468 64.714 311.84 65.422C312.224 66.118 312.416 66.952 312.416 67.924C312.416 68.896 312.224 69.736 311.84 70.444C311.468 71.152 310.934 71.698 310.238 72.082C309.554 72.466 308.744 72.658 307.808 72.658ZM307.808 70.93C308.516 70.93 309.08 70.684 309.5 70.192C309.92 69.688 310.13 68.932 310.13 67.924C310.13 66.916 309.92 66.166 309.5 65.674C309.08 65.182 308.516 64.936 307.808 64.936C307.1 64.936 306.536 65.182 306.116 65.674C305.696 66.166 305.486 66.916 305.486 67.924C305.486 68.932 305.696 69.688 306.116 70.192C306.536 70.684 307.1 70.93 307.808 70.93ZM318.796 72.658C317.86 72.658 317.038 72.466 316.33 72.082C315.634 71.698 315.094 71.152 314.71 70.444C314.326 69.724 314.134 68.872 314.134 67.888C314.134 66.904 314.326 66.064 314.71 65.368C315.106 64.672 315.652 64.138 316.348 63.766C317.044 63.394 317.86 63.208 318.796 63.208C319.396 63.208 319.978 63.304 320.542 63.496C321.118 63.676 321.586 63.94 321.946 64.288L321.262 65.854C320.938 65.554 320.572 65.332 320.164 65.188C319.768 65.032 319.378 64.954 318.994 64.954C318.19 64.954 317.56 65.206 317.104 65.71C316.66 66.214 316.438 66.946 316.438 67.906C316.438 68.866 316.66 69.604 317.104 70.12C317.56 70.636 318.19 70.894 318.994 70.894C319.366 70.894 319.75 70.822 320.146 70.678C320.554 70.534 320.926 70.312 321.262 70.012L321.946 71.56C321.574 71.908 321.1 72.178 320.524 72.37C319.96 72.562 319.384 72.658 318.796 72.658ZM323.756 76.564L323.234 74.782C323.798 74.662 324.272 74.524 324.656 74.368C325.04 74.212 325.358 74.008 325.61 73.756C325.862 73.504 326.072 73.18 326.24 72.784L326.69 71.722L326.636 72.604L322.676 63.388H325.07L327.914 70.48H327.392L330.254 63.388H332.522L328.382 72.982C328.106 73.63 327.806 74.164 327.482 74.584C327.158 75.016 326.81 75.358 326.438 75.61C326.066 75.874 325.658 76.078 325.214 76.222C324.77 76.366 324.284 76.48 323.756 76.564ZM332.81 74.818V70.768H333.854C334.214 70.204 334.472 69.544 334.628 68.788C334.796 68.02 334.88 67.084 334.88 65.98V63.388H341.882V70.768H343.358V74.818H341.45V72.478H334.718V74.818H332.81ZM335.87 70.786H339.776V65.08H336.788V66.484C336.788 67.288 336.71 68.074 336.554 68.842C336.398 69.61 336.17 70.258 335.87 70.786ZM348.592 72.658C347.8 72.658 347.104 72.472 346.504 72.1C345.904 71.716 345.436 71.17 345.1 70.462C344.764 69.754 344.596 68.908 344.596 67.924C344.596 66.94 344.764 66.1 345.1 65.404C345.436 64.696 345.904 64.156 346.504 63.784C347.104 63.4 347.8 63.208 348.592 63.208C349.36 63.208 350.032 63.4 350.608 63.784C351.196 64.156 351.586 64.66 351.778 65.296H351.58L351.778 63.388H353.938C353.902 63.76 353.866 64.138 353.83 64.522C353.806 64.906 353.794 65.284 353.794 65.656V72.478H351.562L351.544 70.606H351.76C351.568 71.23 351.178 71.728 350.59 72.1C350.002 72.472 349.336 72.658 348.592 72.658ZM349.222 70.93C349.93 70.93 350.5 70.684 350.932 70.192C351.364 69.688 351.58 68.932 351.58 67.924C351.58 66.916 351.364 66.166 350.932 65.674C350.5 65.182 349.93 64.936 349.222 64.936C348.514 64.936 347.944 65.182 347.512 65.674C347.08 66.166 346.864 66.916 346.864 67.924C346.864 68.932 347.074 69.688 347.494 70.192C347.926 70.684 348.502 70.93 349.222 70.93ZM178.493 93.478V84.388H180.527V91.264H179.987L185.153 84.388H187.007V93.478H184.973V86.584H185.531L180.347 93.478H178.493ZM192.915 93.658C192.099 93.658 191.331 93.562 190.611 93.37C189.903 93.178 189.309 92.902 188.829 92.542L189.459 91.066C189.903 91.39 190.419 91.636 191.007 91.804C191.607 91.972 192.237 92.056 192.897 92.056C193.665 92.056 194.223 91.954 194.571 91.75C194.931 91.534 195.111 91.222 195.111 90.814C195.111 90.43 194.973 90.142 194.697 89.95C194.421 89.746 194.013 89.644 193.473 89.644H191.115V88.096H193.257C193.749 88.096 194.127 88 194.391 87.808C194.655 87.616 194.787 87.346 194.787 86.998C194.787 86.626 194.625 86.332 194.301 86.116C193.989 85.9 193.473 85.792 192.753 85.792C192.129 85.792 191.559 85.87 191.043 86.026C190.527 86.17 190.041 86.386 189.585 86.674L188.973 85.27C189.465 84.922 190.059 84.658 190.755 84.478C191.463 84.298 192.231 84.208 193.059 84.208C194.271 84.208 195.201 84.43 195.849 84.874C196.497 85.318 196.821 85.948 196.821 86.764C196.821 87.316 196.629 87.79 196.245 88.186C195.873 88.582 195.369 88.828 194.733 88.924V88.672C195.477 88.72 196.065 88.942 196.497 89.338C196.929 89.734 197.145 90.268 197.145 90.94C197.145 91.768 196.779 92.428 196.047 92.92C195.315 93.412 194.271 93.658 192.915 93.658ZM204.177 93.478V80.788H213.231V82.588H206.391V86.098H210.081C211.473 86.098 212.559 86.41 213.339 87.034C214.119 87.646 214.509 88.558 214.509 89.77C214.509 90.97 214.119 91.888 213.339 92.524C212.559 93.16 211.473 93.478 210.081 93.478H204.177ZM206.391 91.696H209.811C210.663 91.696 211.287 91.54 211.683 91.228C212.079 90.904 212.277 90.418 212.277 89.77C212.277 89.134 212.079 88.66 211.683 88.348C211.287 88.036 210.663 87.88 209.811 87.88H206.391V91.696ZM220.638 93.658C219.702 93.658 218.892 93.466 218.208 93.082C217.524 92.698 216.99 92.152 216.606 91.444C216.234 90.736 216.048 89.896 216.048 88.924C216.048 87.952 216.234 87.118 216.606 86.422C216.99 85.714 217.524 85.168 218.208 84.784C218.892 84.4 219.702 84.208 220.638 84.208C221.574 84.208 222.384 84.4 223.068 84.784C223.764 85.168 224.298 85.714 224.67 86.422C225.054 87.118 225.246 87.952 225.246 88.924C225.246 89.896 225.054 90.736 224.67 91.444C224.298 92.152 223.764 92.698 223.068 93.082C222.384 93.466 221.574 93.658 220.638 93.658ZM220.638 91.93C221.346 91.93 221.91 91.684 222.33 91.192C222.75 90.688 222.96 89.932 222.96 88.924C222.96 87.916 222.75 87.166 222.33 86.674C221.91 86.182 221.346 85.936 220.638 85.936C219.93 85.936 219.366 86.182 218.946 86.674C218.526 87.166 218.316 87.916 218.316 88.924C218.316 89.932 218.526 90.688 218.946 91.192C219.366 91.684 219.93 91.93 220.638 91.93ZM226.968 93.73L226.266 91.966C226.662 91.822 226.992 91.636 227.256 91.408C227.532 91.168 227.748 90.868 227.904 90.508C228.072 90.136 228.192 89.68 228.264 89.14C228.336 88.588 228.372 87.934 228.372 87.178V84.388H235.608V93.478H233.376V86.116H230.424V87.25C230.424 88.558 230.304 89.656 230.064 90.544C229.824 91.42 229.452 92.116 228.948 92.632C228.444 93.148 227.784 93.514 226.968 93.73ZM242.635 93.658C241.111 93.658 239.917 93.238 239.053 92.398C238.189 91.558 237.757 90.406 237.757 88.942C237.757 87.994 237.943 87.166 238.315 86.458C238.687 85.75 239.203 85.198 239.863 84.802C240.535 84.406 241.315 84.208 242.203 84.208C243.079 84.208 243.811 84.394 244.399 84.766C244.987 85.138 245.431 85.66 245.731 86.332C246.043 87.004 246.199 87.79 246.199 88.69V89.284H239.575V88.096H244.597L244.291 88.348C244.291 87.508 244.111 86.866 243.751 86.422C243.403 85.978 242.893 85.756 242.221 85.756C241.477 85.756 240.901 86.02 240.493 86.548C240.097 87.076 239.899 87.814 239.899 88.762V88.996C239.899 89.98 240.139 90.718 240.619 91.21C241.111 91.69 241.801 91.93 242.689 91.93C243.205 91.93 243.685 91.864 244.129 91.732C244.585 91.588 245.017 91.36 245.425 91.048L246.091 92.56C245.659 92.908 245.143 93.178 244.543 93.37C243.943 93.562 243.307 93.658 242.635 93.658ZM252.526 93.658C251.59 93.658 250.768 93.466 250.06 93.082C249.364 92.698 248.824 92.152 248.44 91.444C248.056 90.724 247.864 89.872 247.864 88.888C247.864 87.904 248.056 87.064 248.44 86.368C248.836 85.672 249.382 85.138 250.078 84.766C250.774 84.394 251.59 84.208 252.526 84.208C253.126 84.208 253.708 84.304 254.272 84.496C254.848 84.676 255.316 84.94 255.676 85.288L254.992 86.854C254.668 86.554 254.302 86.332 253.894 86.188C253.498 86.032 253.108 85.954 252.724 85.954C251.92 85.954 251.29 86.206 250.834 86.71C250.39 87.214 250.168 87.946 250.168 88.906C250.168 89.866 250.39 90.604 250.834 91.12C251.29 91.636 251.92 91.894 252.724 91.894C253.096 91.894 253.48 91.822 253.876 91.678C254.284 91.534 254.656 91.312 254.992 91.012L255.676 92.56C255.304 92.908 254.83 93.178 254.254 93.37C253.69 93.562 253.114 93.658 252.526 93.658ZM257.36 93.73L256.658 91.966C257.054 91.822 257.384 91.636 257.648 91.408C257.924 91.168 258.14 90.868 258.296 90.508C258.464 90.136 258.584 89.68 258.656 89.14C258.728 88.588 258.764 87.934 258.764 87.178V84.388H266V93.478H263.768V86.116H260.816V87.25C260.816 88.558 260.696 89.656 260.456 90.544C260.216 91.42 259.844 92.116 259.34 92.632C258.836 93.148 258.176 93.514 257.36 93.73ZM272.145 93.658C271.353 93.658 270.657 93.472 270.057 93.1C269.457 92.716 268.989 92.17 268.653 91.462C268.317 90.754 268.149 89.908 268.149 88.924C268.149 87.94 268.317 87.1 268.653 86.404C268.989 85.696 269.457 85.156 270.057 84.784C270.657 84.4 271.353 84.208 272.145 84.208C272.913 84.208 273.585 84.4 274.161 84.784C274.749 85.156 275.139 85.66 275.331 86.296H275.133L275.331 84.388H277.491C277.455 84.76 277.419 85.138 277.383 85.522C277.359 85.906 277.347 86.284 277.347 86.656V93.478H275.115L275.097 91.606H275.313C275.121 92.23 274.731 92.728 274.143 93.1C273.555 93.472 272.889 93.658 272.145 93.658ZM272.775 91.93C273.483 91.93 274.053 91.684 274.485 91.192C274.917 90.688 275.133 89.932 275.133 88.924C275.133 87.916 274.917 87.166 274.485 86.674C274.053 86.182 273.483 85.936 272.775 85.936C272.067 85.936 271.497 86.182 271.065 86.674C270.633 87.166 270.417 87.916 270.417 88.924C270.417 89.932 270.627 90.688 271.047 91.192C271.479 91.684 272.055 91.93 272.775 91.93ZM279.971 93.478V84.388H284.813C285.953 84.388 286.787 84.598 287.315 85.018C287.843 85.426 288.107 86.008 288.107 86.764C288.107 87.34 287.915 87.82 287.531 88.204C287.147 88.588 286.637 88.828 286.001 88.924V88.672C286.781 88.72 287.381 88.948 287.801 89.356C288.221 89.764 288.431 90.292 288.431 90.94C288.431 91.72 288.131 92.338 287.531 92.794C286.931 93.25 286.079 93.478 284.975 93.478H279.971ZM282.059 92.092H284.741C285.269 92.092 285.671 91.984 285.947 91.768C286.235 91.552 286.379 91.234 286.379 90.814C286.379 90.394 286.235 90.076 285.947 89.86C285.671 89.644 285.269 89.536 284.741 89.536H282.059V92.092ZM282.059 88.15H284.543C285.023 88.15 285.395 88.048 285.659 87.844C285.923 87.628 286.055 87.328 286.055 86.944C286.055 86.56 285.923 86.266 285.659 86.062C285.395 85.858 285.023 85.756 284.543 85.756H282.059V88.15ZM298.279 95.818V93.478H290.395V84.388H292.627V91.75H296.479V84.388H298.693V91.75H300.169V95.818H298.279ZM305.403 93.658C304.611 93.658 303.915 93.472 303.315 93.1C302.715 92.716 302.247 92.17 301.911 91.462C301.575 90.754 301.407 89.908 301.407 88.924C301.407 87.94 301.575 87.1 301.911 86.404C302.247 85.696 302.715 85.156 303.315 84.784C303.915 84.4 304.611 84.208 305.403 84.208C306.171 84.208 306.843 84.4 307.419 84.784C308.007 85.156 308.397 85.66 308.589 86.296H308.391L308.589 84.388H310.749C310.713 84.76 310.677 85.138 310.641 85.522C310.617 85.906 310.605 86.284 310.605 86.656V93.478H308.373L308.355 91.606H308.571C308.379 92.23 307.989 92.728 307.401 93.1C306.813 93.472 306.147 93.658 305.403 93.658ZM306.033 91.93C306.741 91.93 307.311 91.684 307.743 91.192C308.175 90.688 308.391 89.932 308.391 88.924C308.391 87.916 308.175 87.166 307.743 86.674C307.311 86.182 306.741 85.936 306.033 85.936C305.325 85.936 304.755 86.182 304.323 86.674C303.891 87.166 303.675 87.916 303.675 88.924C303.675 89.932 303.885 90.688 304.305 91.192C304.737 91.684 305.313 91.93 306.033 91.93Z" fill="#002873"/>
<g clip-path="url(#clip0_637_13598)">
<path d="M81.0324 143.633C120.345 143.633 152.213 111.796 152.213 72.522C152.213 33.2484 120.345 1.41089 81.0324 1.41089C41.7203 1.41089 9.85156 33.2484 9.85156 72.522C9.85156 111.796 41.7203 143.633 81.0324 143.633Z" fill="white"/>
<path d="M81.0326 144.522C41.2476 144.522 8.89844 112.268 8.89844 72.522C8.89844 32.7759 41.2476 0.521973 81.0326 0.521973C120.818 0.521973 153.103 32.8394 153.103 72.522C153.103 112.205 120.754 144.522 81.0326 144.522ZM81.0326 2.29975C42.2645 2.29975 10.7415 33.7918 10.7415 72.522C10.7415 111.252 42.2645 142.744 81.0326 142.744C119.801 142.744 151.26 111.252 151.26 72.522C151.26 33.7918 119.737 2.29975 81.0326 2.29975Z" fill="#002873"/>
<path d="M81.0314 122.871C108.866 122.871 131.43 100.329 131.43 72.5219C131.43 44.7148 108.866 22.1727 81.0314 22.1727C53.197 22.1727 30.6328 44.7148 30.6328 72.5219C30.6328 100.329 53.197 122.871 81.0314 122.871Z" fill="white"/>
<path d="M81.0316 123.824C52.7499 123.824 29.6797 100.839 29.6797 72.5219C29.6797 44.2045 52.6864 21.2203 81.0316 21.2203C109.377 21.2203 132.383 44.2045 132.383 72.5219C132.383 100.839 109.313 123.824 81.0316 123.824ZM81.0316 23.0616C53.7032 23.0616 31.5228 45.2838 31.5228 72.5219C31.5228 99.8235 53.7668 121.982 81.0316 121.982C108.36 121.982 130.54 99.76 130.54 72.5219C130.54 45.2838 108.296 23.0616 81.0316 23.0616Z" fill="#002873"/>
<path d="M23.897 68.014C24.2783 68.0775 24.5326 68.0775 24.6597 68.014C24.7868 68.014 24.9139 67.9505 25.041 67.887C25.1046 67.8235 25.2317 67.76 25.2952 67.633C25.3588 67.506 25.4223 67.379 25.4859 67.1251L25.9943 67.1886L25.613 71.506L25.1046 71.4425C25.041 71.2521 25.041 71.0616 24.9774 70.9346C24.9139 70.8076 24.8503 70.7441 24.7232 70.6806C24.5961 70.6171 24.469 70.5537 24.3419 70.5537C24.1512 70.4902 23.9606 70.4902 23.7064 70.4902L16.7789 69.8552C16.5247 69.8552 16.3341 69.7917 16.1434 69.7917C15.9527 69.7917 15.8256 69.7917 15.6985 69.8552C15.5714 69.9187 15.5078 69.9822 15.4443 70.1092C15.3807 70.2362 15.3172 70.3632 15.1901 70.5537L14.6816 70.4902L15.1265 65.8552C15.2536 64.5219 15.5714 63.506 16.1434 62.8711C16.7154 62.2362 17.478 61.9822 18.4949 62.0457C19.194 62.1092 19.8295 62.2997 20.2744 62.6806C20.7829 63.0616 21.1006 63.5695 21.3548 64.141C21.5455 64.7759 21.6091 65.5378 21.5455 66.4267C21.482 66.9346 21.4184 67.379 21.4184 67.6965L23.897 68.014ZM20.4015 67.6965L20.4651 66.9981C20.5286 66.4902 20.4651 66.0457 20.338 65.7283C20.2109 65.4108 20.0202 65.1568 19.7024 64.9664C19.3847 64.7759 18.9398 64.6489 18.3678 64.5854C17.7958 64.5219 17.3509 64.5854 17.0332 64.7124C16.7154 64.8394 16.4612 65.0298 16.2705 65.3473C16.0798 65.6013 16.0163 65.9822 15.9527 66.4902C15.8892 66.8711 15.8892 67.1251 15.8892 67.379L20.4015 67.6965Z" fill="#002873"/>
<path d="M25.0416 56.6489C25.9313 57.4108 26.5033 58.0457 26.8846 58.6806C27.266 59.252 27.3295 59.9505 27.1388 60.6489C27.0117 61.0298 26.8211 61.5378 26.5033 62.0457L24.3425 61.4743L24.6602 60.3314C25.3593 60.4584 25.7406 60.3314 25.8678 59.887C25.9949 59.3155 25.6771 58.6806 24.8509 57.9822L18.2412 59.1251C17.5421 59.2521 17.0973 59.3155 16.843 59.4425C16.5888 59.5695 16.3982 59.6965 16.3346 59.9505L15.8262 59.8235L16.9702 55.6965L17.4786 55.8235C17.415 56.2679 17.5421 56.4584 17.9235 56.5854C18.1141 56.6489 18.559 56.5854 19.2581 56.5219L22.69 56.014L19.9572 53.8552C19.4488 53.4743 19.0674 53.2203 18.7497 53.1568C18.3683 53.0298 18.1141 53.2203 17.987 53.6013L17.4786 53.4743L18.3048 50.3632L18.8132 50.4901C18.8132 50.8076 18.8768 51.1251 19.131 51.379C19.3852 51.6965 19.703 52.0774 20.2114 52.5219L25.0416 56.6489Z" fill="#002873"/>
<path d="M31.0145 44.0774C31.65 44.3949 32.0313 44.5219 32.222 44.4584C32.4127 44.3949 32.6669 44.2679 32.8575 43.9505L33.366 44.2044L31.4593 48.1409L30.9509 47.887C31.0145 47.506 31.0145 47.1885 30.9509 46.9981C30.8874 46.8076 30.506 46.6171 29.934 46.2997L27.519 45.1568C27.3283 46.0457 27.0741 46.8076 26.7563 47.506C26.375 48.3314 25.8666 48.9028 25.231 49.2203C24.5955 49.5378 23.8328 49.4743 22.7524 48.9663L21.4813 48.3314C20.8458 48.014 20.4644 47.887 20.2738 47.9505C20.0831 48.0139 19.8925 48.1409 19.6382 48.4584L19.1934 48.2044L21.1 44.3314L21.5449 44.5854C21.4813 44.9663 21.4813 45.2203 21.5449 45.4108C21.6084 45.6012 21.9897 45.8552 22.6253 46.1092L23.6422 46.6171C24.4684 46.9981 25.0404 47.1886 25.4217 47.0616C25.7395 46.9346 26.0572 46.6171 26.3114 46.1092C26.5021 45.7282 26.6292 45.2838 26.7563 44.7759L24.0235 43.4425C23.3879 43.1251 23.0066 42.9981 22.816 43.0616C22.6253 43.1251 22.3711 43.252 22.1169 43.5695L21.672 43.3155L23.5786 39.379L24.0235 39.633C23.9599 40.0139 23.9599 40.2679 24.0235 40.4584C24.087 40.6489 24.4684 40.9028 25.1039 41.1568L31.0145 44.0774Z" fill="#002873"/>
<path d="M38.0059 34.4901C38.3237 34.7441 38.5779 34.8711 38.705 34.9346C38.8322 34.9981 39.0228 34.9981 39.1499 34.9981C39.277 34.9981 39.4677 34.8711 39.7219 34.6806L40.1668 34.9981L37.6246 38.3631L37.1797 38.0457C37.3068 37.7282 37.3704 37.5378 37.3704 37.4108C37.3704 37.2838 37.3068 37.1568 37.2433 37.0298C37.1797 36.9028 36.9255 36.7124 36.5442 36.4584L33.9385 34.4901L31.7141 37.4108L34.3198 39.379C34.4469 39.506 34.6376 39.5695 34.7647 39.6965C34.8918 39.8235 35.0189 39.8235 35.146 39.887C35.2731 39.9505 35.3367 39.9504 35.4638 39.9504C35.5909 39.9504 35.6544 39.887 35.7815 39.887C35.9087 39.8235 35.9722 39.76 36.0993 39.633L36.5442 39.9504L34.002 43.3155L33.5571 42.9981C33.6207 42.8076 33.6843 42.6171 33.6843 42.4901C33.6843 42.3631 33.6843 42.2362 33.6207 42.1092C33.5571 41.9822 33.4936 41.8552 33.3665 41.7917C33.2394 41.6647 33.0487 41.5378 32.858 41.4108L27.3288 37.2203C27.1382 37.0933 26.9475 36.9663 26.8204 36.8393C26.6933 36.7758 26.5662 36.7124 26.4391 36.6489C26.3119 36.5854 26.1848 36.6489 26.0577 36.7124C25.9306 36.7758 25.8035 36.8393 25.6128 36.9663L25.168 36.6489L27.7101 33.2838L28.155 33.6012C27.9644 33.8552 27.9644 34.0457 27.9644 34.1727C27.9644 34.2997 28.0279 34.4266 28.155 34.5536C28.2821 34.6806 28.4728 34.8711 28.7906 35.1251L30.9514 36.7758L33.1758 33.8552L30.9514 32.2679C30.6336 32.0139 30.3794 31.887 30.2523 31.8235C30.1252 31.76 29.9345 31.76 29.8074 31.76C29.6803 31.76 29.4897 31.887 29.2354 32.0774L28.7906 31.76L31.3327 28.3949L31.7776 28.7124C31.7141 28.9663 31.6505 29.0933 31.6505 29.2203C31.6505 29.3473 31.6505 29.4743 31.7141 29.6012C31.7776 29.7282 31.8412 29.7917 31.9683 29.9187C32.0954 30.0457 32.2225 30.1727 32.4767 30.2997L38.0059 34.4901Z" fill="#002873"/>
<path d="M42.9005 27.9504L40.2948 30.2361L40.6126 30.9981C40.6761 31.1885 40.8032 31.379 40.8668 31.5695C40.9303 31.76 41.0574 31.9504 41.2481 32.0774C41.6294 32.4584 42.0108 32.5219 42.4556 32.1409L42.837 32.5219L40.2948 34.8076L39.9135 34.4266C40.0406 34.2996 40.1041 34.1092 40.1677 33.9187C40.2312 33.7282 40.1677 33.5377 40.1677 33.2838C40.1041 33.0298 40.0406 32.7123 39.8499 32.3949L36.418 23.4425L38.0068 21.9822L46.0147 26.9346C46.396 27.1885 46.6502 27.3155 46.7773 27.379C46.968 27.4425 47.0951 27.506 47.2858 27.506C47.4764 27.506 47.6671 27.4425 47.8578 27.3155L48.2391 27.6965L44.9342 30.6806L44.5529 30.2996C44.7436 30.1092 44.8707 29.9187 44.8707 29.7282C44.8707 29.5377 44.8071 29.3473 44.68 29.2203C44.5529 29.0933 44.4258 28.9663 44.2987 28.8393C44.108 28.7123 43.9174 28.5854 43.6632 28.3949L42.9005 27.9504ZM39.977 29.2838L42.1379 27.379L38.1339 24.8393L39.977 29.2838Z" fill="#002873"/>
<path d="M52.9416 24.3314C53.1958 24.0775 53.3865 23.8235 53.3229 23.633C53.3229 23.4426 53.1958 23.0616 52.8781 22.6172L51.5434 20.3949L51.2256 20.5854C50.7808 20.8394 50.463 21.2203 50.2723 21.5378C50.1452 21.9187 50.1452 22.5537 50.3359 23.5061C50.5265 24.6489 50.6537 25.4108 50.6537 25.7918L50.8443 26.1092L48.1115 27.8235L47.8573 27.3791C48.3021 26.9981 48.4293 26.3632 48.2386 25.3473L48.1115 24.3314C47.9844 23.3791 48.175 22.4902 48.747 21.7283L48.6835 21.6648C47.0946 21.9187 45.8871 21.4743 45.188 20.268C44.1711 18.5537 44.8702 17.0299 47.2217 15.633L51.2892 13.2203L51.5434 13.6648C51.2892 13.9822 51.0985 14.1727 51.1621 14.3632C51.1621 14.5537 51.2892 14.8711 51.607 15.3791L55.166 21.3473C55.4202 21.7918 55.6745 22.1092 55.8651 22.1727C56.0558 22.2997 56.31 22.2997 56.6913 22.1727L56.9455 22.6172L53.3229 24.7759L52.9416 24.3314ZM51.0985 19.5695L48.8106 15.6965L48.4293 15.887C47.5395 16.3949 47.0311 16.9029 46.9675 17.4108C46.904 17.9187 47.0311 18.4902 47.3488 19.0616C47.7937 19.76 48.2386 20.2045 48.6835 20.3314C49.1919 20.4584 49.7639 20.3314 50.3359 19.9505L51.0985 19.5695Z" fill="#002873"/>
<path d="M63.6817 17.9823C63.8088 18.2997 63.8724 18.5537 63.9359 18.6807C63.9995 18.8077 64.0631 18.9347 64.1902 18.9982C64.2537 19.0616 64.3808 19.1251 64.5079 19.1251C64.635 19.1251 64.8257 19.1251 65.0799 19.1251L65.207 19.6331L61.076 20.9029L60.9489 20.395C61.1396 20.268 61.2667 20.2045 61.3302 20.0775C61.3938 20.014 61.4573 19.887 61.5209 19.7601C61.5209 19.6331 61.5209 19.5061 61.5209 19.3156C61.5209 19.1251 61.4573 18.9347 61.3302 18.6807L59.36 12.014C59.2965 11.7601 59.2329 11.5696 59.1694 11.3791C59.1058 11.1886 59.0423 11.1251 58.9787 10.9982C58.9152 10.8712 58.788 10.8712 58.6609 10.8077C58.5338 10.8077 58.3432 10.7442 58.1525 10.7442L58.0254 10.2362L62.5377 8.90292C63.8724 8.52196 64.8893 8.45847 65.6519 8.71244C66.4146 8.96641 66.9866 9.60133 67.2408 10.5537C67.4314 11.2521 67.495 11.887 67.3043 12.4585C67.1772 13.0299 66.7959 13.5378 66.351 13.9823C65.9061 14.4267 65.1435 14.7442 64.3173 14.9982C63.8088 15.1251 63.4275 15.2521 63.1097 15.3156L63.6817 17.9823ZM62.6649 14.6172L63.3004 14.4267C63.8088 14.2997 64.1902 14.1093 64.4444 13.8553C64.6986 13.6013 64.8893 13.3474 64.8893 12.9664C64.9528 12.5855 64.8893 12.141 64.6986 11.6331C64.5079 11.1251 64.3173 10.6807 64.1266 10.4267C63.9359 10.1728 63.6182 9.98228 63.3004 9.91879C62.9826 9.8553 62.6013 9.91879 62.1564 10.0458C61.7751 10.1728 61.5209 10.2362 61.3302 10.2997L62.6649 14.6172Z" fill="#002873"/>
<path d="M74.1053 14.2997L70.6733 14.7441L70.4827 15.5695C70.4191 15.8235 70.4191 16.014 70.3556 16.2045C70.292 16.3949 70.3556 16.6489 70.3556 16.8394C70.4191 17.3473 70.7369 17.6013 71.3089 17.6013L71.3724 18.1092L67.9405 18.5537L67.877 18.0457C68.0676 17.9822 68.2583 17.9187 68.3854 17.7918C68.5125 17.6648 68.6396 17.4743 68.7032 17.2838C68.7667 17.0933 68.8938 16.7759 68.9574 16.3314L71.1818 6.99811L73.3426 6.74414L77.1559 15.3791C77.3465 15.76 77.4737 16.014 77.5372 16.2045C77.6643 16.3314 77.7914 16.4584 77.9185 16.5854C78.0456 16.6489 78.2363 16.7124 78.4905 16.7759L78.5541 17.2838L74.1053 17.8553L74.0417 17.3473C74.2959 17.2838 74.4866 17.1568 74.6137 17.0299C74.7408 16.9029 74.8044 16.7124 74.7408 16.4584C74.7408 16.268 74.6773 16.141 74.6137 15.887C74.5502 15.633 74.4866 15.4426 74.3595 15.1251L74.1053 14.2997ZM70.864 13.7918L73.724 13.4108L71.8809 9.09335L70.864 13.7918Z" fill="#002873"/>
<path d="M79.0625 17.1568V16.6489C79.4438 16.5854 79.698 16.4584 79.7616 16.268C79.8887 16.0775 79.9523 15.76 79.9523 15.1886L80.27 8.26795C80.27 7.69652 80.27 7.37906 80.2065 7.18859C80.1429 6.99811 79.8887 6.87113 79.5074 6.74414V6.23621L88.0237 6.61716L87.8966 9.34732L86.8161 9.28383C86.6255 8.52192 86.3713 8.01398 86.1806 7.82351C85.9899 7.63303 85.6086 7.50605 85.1002 7.44255L82.8758 7.31557L82.6851 10.9981C83.4478 10.9346 84.0197 10.9346 84.5282 10.9981C85.8628 11.0616 86.8797 11.3791 87.5152 11.887C88.1508 12.4584 88.4685 13.2838 88.405 14.3632C88.2779 16.5219 86.8161 17.4743 83.9562 17.3473L79.0625 17.1568ZM82.4944 16.3314C83.8926 16.4584 84.7824 16.3949 85.2908 16.014C85.7993 15.633 85.9899 15.0616 86.0535 14.2997C86.117 12.8394 85.4179 12.014 83.9562 11.9505H83.702C83.3206 11.9505 83.0029 11.9505 82.7486 11.9505L82.4944 16.3314Z" fill="#002873"/>
<path d="M93.6788 18.9346C92.1535 18.5536 91.0731 17.8552 90.5646 16.7759C89.9927 15.6965 89.9291 14.2362 90.374 12.4584C90.6282 11.252 91.0731 10.2997 91.6451 9.60125C92.2171 8.83934 92.9162 8.33141 93.7424 8.07744C94.5686 7.82347 95.5219 7.82347 96.4752 8.07744C98.0641 8.45839 99.0809 9.1568 99.6529 10.2362C100.225 11.3155 100.288 12.7759 99.9071 14.4901C99.6529 15.506 99.3351 16.2679 98.9538 16.9663C98.5725 17.6012 98.0641 18.1092 97.5556 18.4901C97.0472 18.8711 96.4116 19.0616 95.7761 19.1251C95.077 19.1251 94.3779 19.0616 93.6788 18.9346ZM92.8526 12.7759C92.4713 14.3632 92.4077 15.5695 92.5984 16.4584C92.789 17.3473 93.2975 17.8552 94.0601 18.0457C94.4415 18.1727 94.8228 18.1092 95.1406 17.9822C95.4583 17.8552 95.7761 17.6012 96.0303 17.2203C96.2845 16.9028 96.5388 16.4584 96.7294 15.9505C96.9201 15.4425 97.1107 14.8711 97.2379 14.2362C97.4921 13.2203 97.6192 12.3314 97.6192 11.5695C97.6192 10.8076 97.4921 10.2362 97.2379 9.79173C96.9836 9.34728 96.6023 9.09331 96.0939 8.96633C95.3312 8.77585 94.6957 9.02982 94.1237 9.66474C93.6788 10.2362 93.2339 11.3155 92.8526 12.7759Z" fill="#002873"/>
<path d="M101.369 21.1569L101.56 20.649C101.75 20.7124 101.941 20.7124 102.132 20.7124C102.259 20.7124 102.386 20.649 102.513 20.5855C102.64 20.522 102.704 20.395 102.767 20.268C102.831 20.141 102.958 19.9505 103.085 19.6966L106.326 12.3315L105.754 12.0775C105.437 11.9505 105.246 11.887 105.055 11.887C104.865 11.887 104.674 11.9505 104.483 12.014C104.293 12.141 104.102 12.268 103.911 12.4585C103.721 12.649 103.53 12.9029 103.403 13.0934L102.386 12.649L103.53 10.0458L112.237 13.9188L111.093 16.522L110.076 16.0775C110.14 15.6966 110.14 15.4426 110.203 15.2521C110.203 15.0616 110.203 14.9347 110.203 14.7442C110.203 14.6172 110.14 14.4902 110.14 14.3632C110.076 14.2363 110.076 14.1728 110.013 14.1093C109.949 14.0458 109.885 13.9188 109.758 13.8553C109.631 13.7918 109.504 13.6648 109.313 13.6013L108.805 13.3474L105.564 20.7124C105.437 20.9664 105.373 21.1569 105.31 21.3474C105.246 21.4743 105.246 21.6013 105.246 21.7283C105.246 21.8553 105.246 21.9188 105.31 21.9823C105.373 22.0458 105.373 22.1093 105.5 22.2363C105.564 22.2997 105.691 22.4267 105.882 22.4902L105.691 22.9982L101.369 21.1569Z" fill="#002873"/>
<path d="M113.573 23.76L110.649 21.9187L110.014 22.4266C109.823 22.5536 109.696 22.6806 109.505 22.8711C109.378 22.9981 109.251 23.1885 109.124 23.379C108.87 23.8235 108.933 24.2044 109.378 24.5219L109.06 24.9663L106.137 23.1251L106.454 22.6806C106.645 22.7441 106.836 22.8076 107.026 22.8076C107.217 22.8076 107.408 22.7441 107.662 22.6171C107.853 22.4901 108.17 22.3632 108.488 22.1092L116.178 16.3949L118.021 17.5378L115.352 26.5536C115.225 26.9346 115.161 27.252 115.161 27.4425C115.161 27.633 115.161 27.8235 115.225 27.9505C115.289 28.0774 115.416 28.2679 115.543 28.4584L115.225 28.9028L111.475 26.4901L111.793 26.0457C112.047 26.1727 112.238 26.2362 112.429 26.1727C112.619 26.1727 112.746 26.0457 112.873 25.8552C112.937 25.7282 113.064 25.5378 113.128 25.3473C113.191 25.1568 113.318 24.9028 113.382 24.5854L113.573 23.76ZM111.475 21.2838L113.89 22.8711L115.225 18.3632L111.475 21.2838Z" fill="#002873"/>
<path d="M47.2212 119.189L46.2043 120.459L45.6324 120.014C45.823 119.633 45.8866 119.316 45.8866 118.998C45.8866 118.744 45.6959 118.49 45.5052 118.3C45.0604 117.919 44.5519 117.855 43.9164 118.109C43.3444 118.363 42.7089 118.935 42.0098 119.76C41.3742 120.586 40.9929 121.284 40.8658 121.855C40.7387 122.427 40.9293 122.871 41.3107 123.252C41.5013 123.443 41.7555 123.506 41.9462 123.57C42.1369 123.633 42.3275 123.57 42.5182 123.506C42.7089 123.443 42.9631 123.252 43.2173 123.062L43.7893 123.57L42.7089 124.903C42.3275 124.712 42.0098 124.522 41.692 124.395C41.3742 124.205 41.12 124.014 40.8022 123.76C40.1667 123.252 39.7854 122.744 39.5947 122.236C39.404 121.728 39.3405 121.157 39.5311 120.586C39.7218 120.014 40.0396 119.379 40.6116 118.681C41.12 118.046 41.692 117.601 42.264 117.284C42.836 116.966 43.4715 116.903 44.0435 116.966C44.679 117.03 45.251 117.347 45.823 117.792C46.1408 118.046 46.395 118.236 46.5857 118.49C46.8399 118.681 47.0306 118.935 47.2212 119.189Z" fill="#002873"/>
<path d="M45.1869 126.808C44.8691 126.617 44.6149 126.617 44.3607 126.744C44.1064 126.871 43.7251 127.252 43.1531 127.887L42.5176 127.506L43.9793 125.22L44.4878 125.538C45.3775 125.157 46.2673 124.586 47.2206 123.76C48.1104 122.998 48.7459 122.236 49.1908 121.601C49.3179 121.347 49.3814 121.157 49.3814 121.03C49.3179 120.903 49.2543 120.776 49.1272 120.649L49.3179 120.332L53.576 122.998L53.3854 123.316C53.1312 123.252 52.9405 123.189 52.8134 123.252C52.6863 123.316 52.4956 123.506 52.2414 123.951L49.3814 128.586L50.1441 129.03L48.6823 131.316L48.0468 130.935C48.3646 130.236 48.4917 129.728 48.5552 129.411C48.6188 129.093 48.4281 128.839 48.1104 128.649L45.1869 126.808ZM47.8561 127.57L51.161 122.3L50.1441 121.665C48.5552 123.824 46.9664 125.284 45.314 126.046L47.8561 127.57Z" fill="#002873"/>
<path d="M59.2972 125.665L58.5346 127.252L57.8355 126.935C57.899 126.554 57.899 126.3 57.8355 126.173C57.8355 126.046 57.7719 125.919 57.7084 125.792C57.6448 125.665 57.4541 125.538 57.1999 125.411L56.1195 124.903L54.9755 127.316L55.6746 127.633C55.8017 127.697 55.9288 127.76 56.0559 127.76C56.1831 127.76 56.2466 127.697 56.3737 127.633C56.5008 127.57 56.6279 127.443 56.755 127.252L57.327 127.506L56.3737 129.538L55.8017 129.284C55.8653 129.093 55.8653 128.903 55.8653 128.776C55.8653 128.649 55.8017 128.522 55.7382 128.459C55.6746 128.395 55.5475 128.332 55.4204 128.205L54.7213 127.887L53.4502 130.617L54.5306 131.125C54.6578 131.189 54.7213 131.189 54.8484 131.252C54.912 131.252 55.0391 131.252 55.1026 131.252C55.1662 131.252 55.2933 131.252 55.3568 131.189C55.4204 131.125 55.5475 131.125 55.6111 131.062C55.6746 130.998 55.8017 130.935 55.8653 130.808C55.9924 130.681 56.1195 130.554 56.2466 130.363L56.9457 130.681L55.9924 132.459L51.0352 130.109L51.1623 129.792C51.2894 129.792 51.4165 129.855 51.48 129.792C51.5436 129.792 51.6707 129.728 51.7343 129.728C51.7978 129.728 51.8614 129.601 51.9249 129.474C51.9885 129.347 52.052 129.22 52.1156 129.093L54.1493 124.713C54.2129 124.586 54.2764 124.395 54.34 124.332C54.4035 124.205 54.4035 124.141 54.4035 124.014C54.4035 123.951 54.34 123.824 54.34 123.76C54.2764 123.697 54.2129 123.57 54.0858 123.506L54.2129 123.189L59.2972 125.665Z" fill="#002873"/>
<path d="M64.3164 135.443L61.3929 134.49L61.52 134.109C61.8378 134.109 62.092 134.109 62.1556 133.982C62.2827 133.855 62.3462 133.601 62.4733 133.284L64.1893 128.078L63.0453 127.697C62.7275 128.522 62.2827 129.347 61.7742 130.236C61.2658 131.125 60.7574 131.824 60.3125 132.395C59.8676 132.966 59.4863 133.347 59.1049 133.474C58.7872 133.601 58.4058 133.601 57.961 133.474C57.6432 133.347 57.389 133.22 57.1348 133.03L57.5796 131.76L58.2787 131.951C58.2152 132.268 58.3423 132.458 58.533 132.522C58.7236 132.585 58.9143 132.585 59.1049 132.458C59.2956 132.332 59.6134 132.014 59.9947 131.506C60.376 130.998 60.8209 130.3 61.2658 129.538C61.7107 128.776 61.9649 128.141 62.092 127.76C62.1556 127.506 62.2191 127.316 62.1556 127.189C62.092 127.062 61.9649 126.998 61.7742 126.871L61.9013 126.49L66.7315 128.078L66.6044 128.458C66.3501 128.458 66.1595 128.458 66.0324 128.522C65.9053 128.585 65.7782 128.839 65.651 129.284L64.1893 133.728C64.0622 134.173 63.9986 134.427 64.0622 134.554C64.1257 134.681 64.2529 134.808 64.5071 134.998L64.3164 135.443Z" fill="#002873"/>
<path d="M70.3546 134.236L68.0031 133.792L67.7489 134.3C67.6853 134.427 67.6218 134.554 67.5582 134.681C67.4947 134.808 67.4311 134.935 67.4311 135.125C67.3676 135.506 67.4947 135.697 67.876 135.824L67.8124 136.205L65.4609 135.76L65.5245 135.379C65.6516 135.379 65.7787 135.379 65.9058 135.316C66.0329 135.252 66.16 135.189 66.2236 135.062C66.3507 134.935 66.4778 134.744 66.6049 134.49L70.0368 128.839L71.4986 129.093L72.1977 135.57C72.1977 135.887 72.2612 136.078 72.2612 136.205C72.3248 136.332 72.3248 136.459 72.4519 136.522C72.5155 136.586 72.6426 136.712 72.7697 136.776L72.7061 137.157L69.6555 136.586L69.7191 136.205C69.9097 136.205 70.0369 136.205 70.164 136.141C70.2911 136.078 70.3546 135.951 70.3546 135.824C70.3546 135.697 70.4182 135.57 70.4182 135.443C70.4182 135.316 70.4182 135.125 70.4182 134.871L70.3546 134.236ZM68.3209 133.22L70.2911 133.601L69.9733 130.363L68.3209 133.22Z" fill="#002873"/>
<path d="M80.6508 136.141C80.6508 136.458 80.6508 136.649 80.6508 136.712C80.6508 136.776 80.7144 136.903 80.7779 136.966C80.8415 137.03 80.9686 137.093 81.1593 137.157V137.538L78.2358 137.411V137.03C78.4264 136.966 78.6171 136.966 78.6806 136.903C78.7442 136.839 78.8077 136.776 78.8077 136.649C78.8077 136.522 78.8713 136.332 78.8713 136.014L78.9984 133.792L76.4562 133.665L76.3291 135.887C76.3291 136.014 76.3291 136.141 76.3291 136.268C76.3291 136.395 76.3291 136.458 76.3291 136.522C76.3291 136.585 76.3927 136.649 76.3927 136.712C76.4562 136.776 76.5198 136.839 76.5833 136.839C76.6469 136.839 76.774 136.903 76.8376 136.966V137.347L73.9141 137.22V136.839C74.0412 136.839 74.1683 136.776 74.2318 136.712C74.2954 136.649 74.3589 136.649 74.4225 136.522C74.486 136.395 74.486 136.332 74.486 136.205C74.486 136.078 74.4861 135.951 74.5496 135.76L74.8038 130.935C74.8038 130.744 74.8038 130.617 74.8038 130.49C74.8038 130.363 74.8038 130.3 74.7403 130.173C74.6767 130.109 74.6767 130.046 74.5496 129.982C74.4861 129.919 74.3589 129.855 74.2318 129.855V129.474L77.1553 129.601V129.982C76.9647 130.046 76.8376 130.109 76.7104 130.173C76.6469 130.236 76.5833 130.3 76.5198 130.427C76.4562 130.554 76.4562 130.744 76.4562 130.998L76.3291 132.839L78.8713 132.966L78.9984 131.125C78.9984 130.871 78.9984 130.617 78.9984 130.554C78.9984 130.427 78.9349 130.363 78.8713 130.3C78.8077 130.236 78.6806 130.173 78.49 130.109V129.728L81.4135 129.855V130.236C81.2228 130.3 81.0957 130.3 81.0321 130.363C80.9686 130.427 80.905 130.49 80.8415 130.554C80.7779 130.617 80.7779 130.744 80.7779 130.808C80.7779 130.935 80.7779 131.062 80.7144 131.252L80.6508 136.141Z" fill="#002873"/>
<path d="M86.2441 137.347C85.1637 137.411 84.3375 137.157 83.7019 136.586C83.1299 136.014 82.7486 135.062 82.6215 133.792C82.5579 132.966 82.6215 132.205 82.8122 131.633C83.0028 130.998 83.3841 130.554 83.8926 130.173C84.401 129.792 84.973 129.601 85.6721 129.538C86.7525 129.474 87.6423 129.665 88.2778 130.3C88.9134 130.871 89.2311 131.824 89.3583 133.093C89.4218 133.792 89.3582 134.427 89.2311 134.935C89.104 135.443 88.9134 135.887 88.6592 136.205C88.4049 136.522 88.0236 136.84 87.6423 137.03C87.1974 137.22 86.7525 137.347 86.2441 137.347ZM84.401 133.538C84.4646 134.681 84.7188 135.506 85.0366 136.014C85.3543 136.522 85.7992 136.776 86.3076 136.713C86.5619 136.713 86.8161 136.586 87.0067 136.395C87.1974 136.205 87.3245 136.014 87.4516 135.697C87.5787 135.379 87.6423 135.062 87.6423 134.681C87.6423 134.3 87.6423 133.855 87.6423 133.411C87.5787 132.649 87.4516 132.078 87.3245 131.57C87.1974 131.062 86.9432 130.744 86.689 130.49C86.4347 130.236 86.117 130.173 85.7356 130.173C85.2272 130.236 84.8459 130.49 84.5917 131.062C84.3375 131.633 84.2739 132.459 84.401 133.538Z" fill="#002873"/>
<path d="M97.7478 131.189C98.3198 131.189 98.7647 131.379 99.0825 131.57C99.4002 131.824 99.6544 132.141 99.7816 132.522C99.8451 132.903 99.9087 133.22 99.8451 133.538C99.7816 133.855 99.6544 134.109 99.4638 134.363C99.2731 134.617 99.0189 134.808 98.7011 134.935C98.3834 135.125 98.002 135.252 97.43 135.379L94.1252 136.205L94.0617 135.824C94.1888 135.76 94.2523 135.697 94.3794 135.633C94.443 135.57 94.5065 135.506 94.5065 135.443C94.5065 135.379 94.5065 135.252 94.5065 135.125C94.5065 134.998 94.443 134.871 94.443 134.681L93.2355 130.046C93.1719 129.855 93.1719 129.728 93.1084 129.601C93.0448 129.474 93.0448 129.411 92.9812 129.347C92.9177 129.284 92.8541 129.22 92.7906 129.22C92.727 129.22 92.5999 129.157 92.4093 129.157L92.3457 128.776L95.9047 127.887C96.2861 127.76 96.6674 127.697 96.9216 127.697C97.3029 127.633 97.6207 127.697 97.8749 127.76C98.1291 127.824 98.3198 127.951 98.5105 128.141C98.7011 128.332 98.8282 128.585 98.8918 128.903C98.9554 129.728 98.6376 130.49 97.7478 131.189ZM96.0319 131.316C96.4132 131.252 96.6674 131.125 96.8581 130.935C97.0487 130.808 97.1758 130.617 97.2394 130.363C97.3029 130.173 97.3029 129.855 97.1758 129.538C97.1123 129.22 96.9852 129.03 96.7945 128.839C96.6038 128.712 96.4132 128.585 96.2225 128.585C95.9683 128.585 95.7141 128.585 95.3963 128.649C95.1421 128.712 94.8879 128.776 94.6972 128.839L95.3328 131.443L96.0319 131.316ZM96.159 134.998C96.3496 134.935 96.6038 134.871 96.9216 134.808C97.2394 134.744 97.5572 134.617 97.7478 134.49C97.9385 134.363 98.0656 134.173 98.1291 133.919C98.1927 133.665 98.1927 133.347 98.0656 133.03C98.002 132.776 97.9385 132.585 97.8114 132.395C97.6843 132.205 97.5572 132.078 97.43 132.014C97.2394 131.951 97.1123 131.887 96.9216 131.887C96.731 131.887 96.4767 131.887 96.2225 131.951L95.4599 132.141L96.159 134.998Z" fill="#002873"/>
<path d="M104.42 133.22L104.293 132.903C104.483 132.712 104.61 132.585 104.61 132.458C104.61 132.332 104.547 132.078 104.42 131.76L102.45 127.379C102.322 126.998 102.132 126.808 102.068 126.744C101.941 126.681 101.75 126.617 101.496 126.681L101.369 126.363L106.771 124.014L107.534 125.728L106.835 126.046C106.453 125.665 106.199 125.411 106.009 125.347C105.818 125.284 105.564 125.284 105.246 125.474L103.848 126.109L104.865 128.458C105.31 128.205 105.691 128.014 106.009 127.887C106.835 127.506 107.597 127.379 108.169 127.506C108.741 127.633 109.186 128.078 109.504 128.776C110.076 130.109 109.504 131.189 107.661 132.014L104.42 133.22ZM106.263 131.697C107.153 131.379 107.725 130.998 107.915 130.681C108.106 130.3 108.042 129.855 107.852 129.347C107.407 128.395 106.771 128.141 105.818 128.522L105.627 128.585C105.373 128.712 105.182 128.776 105.055 128.903L106.263 131.697Z" fill="#002873"/>
<path d="M114.462 128.332C113.508 128.903 112.682 129.03 111.856 128.776C111.03 128.522 110.331 127.824 109.695 126.744C109.25 126.046 108.996 125.347 108.932 124.713C108.869 124.078 108.932 123.506 109.25 122.935C109.504 122.427 110.013 121.982 110.585 121.601C111.538 121.03 112.428 120.903 113.254 121.157C114.08 121.411 114.779 122.109 115.415 123.189C115.796 123.76 115.987 124.332 116.114 124.839C116.241 125.347 116.241 125.855 116.178 126.3C116.114 126.744 115.923 127.125 115.606 127.506C115.288 127.76 114.906 128.078 114.462 128.332ZM111.093 125.728C111.665 126.681 112.237 127.316 112.746 127.697C113.254 128.014 113.762 128.078 114.207 127.76C114.462 127.633 114.652 127.443 114.716 127.189C114.779 126.935 114.843 126.681 114.779 126.363C114.716 126.046 114.652 125.728 114.525 125.411C114.398 125.03 114.207 124.713 113.953 124.268C113.572 123.633 113.19 123.125 112.873 122.744C112.491 122.363 112.174 122.173 111.856 122.046C111.538 121.919 111.22 121.982 110.902 122.173C110.458 122.427 110.203 122.871 110.267 123.443C110.267 124.078 110.585 124.776 111.093 125.728Z" fill="#002873"/>
<path d="M123.932 121.474L121.516 123.379L121.262 123.062C121.453 122.808 121.516 122.617 121.516 122.427C121.453 122.3 121.326 122.046 121.135 121.728L117.767 117.411L116.813 118.173C117.258 118.871 117.767 119.697 118.212 120.649C118.657 121.538 118.974 122.363 119.229 123.062C119.419 123.76 119.546 124.268 119.483 124.649C119.419 125.03 119.229 125.347 118.847 125.601C118.593 125.792 118.339 125.982 118.021 126.046L117.195 124.966L117.767 124.522C118.021 124.776 118.212 124.776 118.402 124.649C118.529 124.522 118.657 124.395 118.657 124.141C118.657 123.887 118.593 123.506 118.339 122.871C118.085 122.236 117.83 121.538 117.385 120.712C116.941 119.887 116.623 119.316 116.369 118.998C116.178 118.808 116.051 118.681 115.924 118.617C115.797 118.617 115.669 118.617 115.479 118.744L115.225 118.427L119.229 115.316L119.483 115.633C119.292 115.824 119.229 116.014 119.229 116.141C119.229 116.268 119.356 116.522 119.673 116.903L122.533 120.522C122.788 120.839 123.042 121.093 123.169 121.093C123.296 121.157 123.487 121.093 123.741 120.966L123.932 121.474Z" fill="#002873"/>
<path d="M123.678 110.998L124.949 112.268L124.44 112.839C124.123 112.649 123.868 112.585 123.741 112.585C123.614 112.585 123.424 112.585 123.296 112.585C123.169 112.649 122.979 112.712 122.788 112.966L121.898 113.855L123.805 115.76L124.313 115.252C124.44 115.125 124.504 114.998 124.504 114.935C124.568 114.808 124.568 114.744 124.504 114.617C124.44 114.49 124.377 114.363 124.25 114.109L124.695 113.665L126.283 115.252L125.839 115.697C125.648 115.57 125.521 115.506 125.394 115.443C125.267 115.379 125.14 115.379 125.076 115.443C124.949 115.443 124.885 115.57 124.758 115.697L124.25 116.205L126.347 118.3L127.173 117.411C127.237 117.347 127.364 117.22 127.364 117.157C127.427 117.093 127.427 117.03 127.491 116.903C127.491 116.839 127.491 116.712 127.491 116.649C127.491 116.522 127.491 116.458 127.427 116.395C127.427 116.332 127.364 116.205 127.3 116.078C127.237 115.951 127.173 115.76 127.046 115.57L127.555 114.998L128.953 116.522L125.076 120.395L124.822 120.141C124.885 120.014 124.949 119.887 124.949 119.824C124.949 119.76 124.949 119.633 124.949 119.57C124.949 119.506 124.885 119.379 124.822 119.316C124.758 119.252 124.631 119.125 124.504 118.998L121.072 115.633C120.945 115.506 120.818 115.379 120.754 115.316C120.691 115.252 120.564 115.189 120.5 115.189C120.436 115.189 120.309 115.189 120.246 115.189C120.182 115.189 120.055 115.252 119.928 115.316L119.674 115.062L123.678 110.998Z" fill="#002873"/>
<path d="M127.68 106.3L128.951 107.316L128.506 107.887C128.125 107.697 127.807 107.633 127.489 107.633C127.235 107.633 126.981 107.824 126.79 108.014C126.409 108.459 126.346 108.966 126.6 109.601C126.854 110.173 127.426 110.808 128.252 111.506C129.078 112.141 129.777 112.522 130.349 112.649C130.921 112.776 131.366 112.586 131.748 112.205C131.938 112.014 132.002 111.76 132.065 111.57C132.129 111.379 132.065 111.189 132.002 110.998C131.938 110.808 131.748 110.554 131.557 110.3L132.065 109.728L133.4 110.808C133.209 111.189 133.019 111.506 132.892 111.824C132.701 112.141 132.51 112.395 132.256 112.712C131.748 113.347 131.239 113.728 130.731 113.919C130.222 114.109 129.65 114.173 129.078 113.982C128.506 113.792 127.871 113.474 127.172 112.903C126.536 112.395 126.091 111.824 125.774 111.252C125.456 110.681 125.392 110.046 125.456 109.474C125.519 108.839 125.837 108.268 126.282 107.697C126.536 107.379 126.727 107.125 126.981 106.935C127.172 106.681 127.426 106.49 127.68 106.3Z" fill="#002873"/>
<path d="M138.168 103.633L136.579 106.236L136.262 106.046C136.389 105.728 136.389 105.538 136.262 105.411C136.198 105.284 135.944 105.093 135.626 104.903L130.987 102.046L130.351 103.125C131.05 103.633 131.749 104.268 132.512 104.966C133.275 105.665 133.847 106.3 134.292 106.871C134.736 107.443 134.991 107.887 135.054 108.268C135.118 108.649 135.054 109.03 134.8 109.411C134.609 109.728 134.419 109.919 134.228 110.109L133.084 109.411L133.465 108.776C133.783 108.903 133.974 108.839 134.101 108.649C134.228 108.522 134.228 108.331 134.164 108.077C134.101 107.824 133.847 107.506 133.465 106.998C133.084 106.49 132.512 105.919 131.813 105.347C131.177 104.712 130.669 104.331 130.288 104.078C130.033 103.951 129.843 103.887 129.779 103.887C129.652 103.887 129.525 104.014 129.398 104.141L129.08 103.951L131.749 99.6331L132.067 99.8235C132.004 100.077 131.94 100.268 132.004 100.395C132.067 100.522 132.258 100.712 132.639 100.966L136.579 103.379C136.961 103.633 137.215 103.697 137.342 103.697C137.469 103.697 137.66 103.57 137.851 103.379L138.168 103.633Z" fill="#002873"/>
<path d="M138.422 97.5379L137.468 99.6967L137.85 100.078C137.977 100.205 138.104 100.268 138.167 100.395C138.295 100.459 138.422 100.586 138.549 100.649C138.867 100.776 139.121 100.713 139.311 100.332L139.629 100.459L138.676 102.617L138.358 102.49C138.422 102.363 138.422 102.236 138.358 102.109C138.295 101.982 138.295 101.855 138.167 101.728C138.104 101.601 137.913 101.411 137.723 101.22L133.02 96.522L133.655 95.1887L140.138 96.0776C140.455 96.1411 140.646 96.1411 140.773 96.1411C140.9 96.1411 141.027 96.1411 141.091 96.0776C141.218 96.0141 141.282 95.9506 141.409 95.8236L141.726 95.9506L140.455 98.7443L140.138 98.6173C140.201 98.4268 140.201 98.2998 140.138 98.1728C140.074 98.0459 140.011 97.9824 139.883 97.9189C139.756 97.8554 139.629 97.8554 139.502 97.7919C139.375 97.7284 139.184 97.7284 138.93 97.6649L138.422 97.5379ZM136.96 99.2522L137.786 97.4109L134.545 96.903L136.96 99.2522Z" fill="#002873"/>
<path d="M139.819 88.9664C140.137 88.522 140.455 88.2045 140.836 88.014C141.218 87.8236 141.599 87.8236 142.044 87.9505C142.425 88.0775 142.679 88.2045 142.934 88.395C143.188 88.5855 143.315 88.8394 143.442 89.1569C143.506 89.4743 143.569 89.7918 143.569 90.1093C143.569 90.4902 143.442 90.8712 143.315 91.3791L142.298 94.6807L141.917 94.5537C141.917 94.4267 141.917 94.2997 141.917 94.2363C141.917 94.1728 141.853 94.0458 141.79 93.9823C141.726 93.9188 141.663 93.8553 141.535 93.8553C141.408 93.7918 141.281 93.7918 141.091 93.7283L136.515 92.3315C136.324 92.268 136.197 92.268 136.07 92.2045C135.943 92.2045 135.879 92.2045 135.752 92.2045C135.688 92.2045 135.625 92.268 135.498 92.3315C135.434 92.395 135.371 92.4585 135.307 92.5855L134.926 92.4585L136.006 88.9664C136.133 88.5855 136.26 88.268 136.388 88.014C136.515 87.6966 136.705 87.4426 136.96 87.2521C137.15 87.0617 137.341 86.9347 137.595 86.8712C137.849 86.8077 138.103 86.8077 138.421 86.9347C139.184 87.1886 139.629 87.887 139.819 88.9664ZM138.993 90.5537C139.12 90.1728 139.12 89.9188 139.12 89.6648C139.057 89.4109 138.993 89.2204 138.803 89.0934C138.675 88.9029 138.421 88.7759 138.04 88.7124C137.722 88.6489 137.468 88.5855 137.277 88.649C137.087 88.7124 136.896 88.8394 136.769 89.0299C136.642 89.2204 136.515 89.4743 136.388 89.7918C136.324 90.0458 136.26 90.2997 136.197 90.5537L138.739 91.3156L138.993 90.5537ZM142.235 92.3315C142.298 92.141 142.362 91.887 142.489 91.6331C142.616 91.3156 142.616 90.9982 142.616 90.7442C142.616 90.4902 142.489 90.2997 142.362 90.1093C142.171 89.9188 141.917 89.7918 141.535 89.6648C141.281 89.6013 141.027 89.5378 140.836 89.5378C140.646 89.5378 140.455 89.6013 140.328 89.6648C140.201 89.7283 140.074 89.8553 139.947 90.0458C139.819 90.2363 139.756 90.4267 139.692 90.6807L139.438 91.4426L142.235 92.3315Z" fill="#002873"/>
<path d="M144.904 80.5855L145.095 79.5696L147.764 80.0141L147.637 80.776C146.811 80.776 146.239 80.8395 145.921 80.9665C145.667 81.0934 145.476 81.2839 145.413 81.6014L144.459 87.0617L144.078 86.9982C144.078 86.7442 144.015 86.5538 143.887 86.4268C143.76 86.3633 143.506 86.2363 143.188 86.1728L138.422 85.3474C138.04 85.2839 137.786 85.2839 137.659 85.3474C137.532 85.4109 137.405 85.5379 137.278 85.7919L136.896 85.7284L137.405 82.8077L137.786 82.8712C137.786 83.1252 137.85 83.3157 137.977 83.3792C138.104 83.4427 138.295 83.5061 138.74 83.6331L144.142 84.5855L144.523 82.2998L139.121 81.3474C138.74 81.2839 138.485 81.2839 138.358 81.3474C138.231 81.4109 138.104 81.5379 137.977 81.7919L137.596 81.7284L138.104 78.8077L138.485 78.8712C138.485 79.1252 138.549 79.3157 138.676 79.3792C138.803 79.4427 139.057 79.5696 139.375 79.6331L144.904 80.5855Z" fill="#002873"/>
<path d="M138.486 72.395L140.265 72.4585L140.202 73.2204C139.82 73.3474 139.63 73.4109 139.439 73.4744C139.312 73.5379 139.185 73.6649 139.121 73.7918C139.058 73.9188 138.994 74.1093 138.994 74.3633L138.931 75.5696L141.6 75.6966L141.663 74.9347C141.663 74.7442 141.663 74.6172 141.6 74.5538C141.536 74.4903 141.473 74.3633 141.409 74.2998C141.282 74.2363 141.155 74.1728 140.901 74.1093V73.4744L143.189 73.6014V74.2363C142.998 74.2998 142.807 74.2998 142.68 74.3633C142.553 74.4268 142.49 74.4903 142.426 74.5538C142.363 74.6172 142.363 74.7442 142.363 74.9347L142.299 75.6966L145.286 75.8236L145.35 74.6172C145.35 74.4903 145.35 74.3633 145.35 74.2998C145.35 74.2363 145.286 74.1093 145.286 74.0458C145.223 73.9823 145.223 73.9188 145.159 73.8553C145.095 73.7918 145.032 73.7284 144.968 73.6649C144.905 73.6014 144.778 73.5379 144.651 73.4744C144.523 73.4109 144.333 73.3474 144.079 73.2839L144.142 72.522L146.176 72.7125L145.922 78.1728H145.54C145.54 78.0458 145.477 77.9188 145.413 77.8553C145.35 77.7918 145.286 77.7284 145.223 77.6649C145.159 77.6014 145.032 77.6014 144.905 77.6014C144.778 77.6014 144.651 77.6014 144.46 77.5379L139.63 77.3474C139.439 77.3474 139.312 77.3474 139.185 77.3474C139.058 77.3474 138.994 77.3474 138.867 77.4109C138.804 77.4744 138.74 77.4744 138.676 77.6014C138.613 77.7284 138.549 77.7918 138.549 77.9188H138.168L138.486 72.395Z" fill="#002873"/>
<path d="M143.939 19.6656L-0.00195312 86.7181L18.0735 125.444L162.014 58.392L143.939 19.6656Z" fill="#002873"/>
<path d="M141.917 23.5209L4.42773 87.5682L4.80375 88.3738L142.293 24.3265L141.917 23.5209Z" fill="white"/>
<path d="M157.368 56.5917L19.8789 120.639L20.2549 121.445L157.744 57.3973L157.368 56.5917Z" fill="white"/>
<path d="M35.845 108.522C35.7814 108.839 35.5272 109.093 35.0188 109.284L33.0486 110.236C32.5402 110.49 32.1588 110.49 31.9046 110.3C31.6504 110.109 31.3962 109.728 31.142 109.157L27.138 100.522C27.0109 100.204 26.8838 100.014 26.7567 99.9505C26.6296 99.887 26.4389 99.887 26.1847 100.014L23.9603 101.03C23.7061 101.157 23.579 101.284 23.579 101.411C23.579 101.538 23.6425 101.792 23.7697 102.109L27.7736 110.744C28.0278 111.316 28.1549 111.697 28.1549 112.077C28.1549 112.395 27.9007 112.712 27.3922 112.903L25.4221 113.855C24.9772 114.046 24.5959 114.109 24.2781 113.982C23.9603 113.855 23.7061 113.474 23.3883 112.776L13.2832 91.1251C13.029 90.5537 12.9019 90.0457 12.9654 89.7283C13.029 89.4108 13.2832 89.1569 13.7281 88.9029L15.7618 87.9505C16.2067 87.76 16.5245 87.76 16.8422 87.887C17.0964 88.0775 17.4142 88.395 17.6684 88.9664L21.0368 96.141C21.1639 96.4584 21.291 96.5854 21.4181 96.6489C21.5453 96.7124 21.7359 96.6489 21.9266 96.5854L24.2145 95.5061C24.4052 95.4426 24.5323 95.3156 24.5959 95.1886C24.6594 95.0616 24.5959 94.8711 24.4688 94.5537L21.1004 87.3791C20.8462 86.8076 20.719 86.4267 20.7826 86.0457C20.8462 85.7283 21.0368 85.4743 21.4817 85.2838L23.5154 84.3315C23.9603 84.141 24.3416 84.0775 24.6594 84.268C24.9772 84.3949 25.2314 84.7759 25.5492 85.4108L35.6543 107.062C35.7814 107.76 35.9085 108.204 35.845 108.522Z" fill="white"/>
<path d="M52.3049 101.284L48.7459 102.935C48.5552 102.998 48.3645 103.062 48.2374 102.998C48.1103 102.935 47.9832 102.808 47.7926 102.554L44.6148 97.6013C44.4242 97.3474 44.2971 97.2204 44.17 97.2204C44.0429 97.1569 43.9157 97.2204 43.6615 97.2839L42.0727 98.0458C41.882 98.1093 41.7549 98.2362 41.6913 98.3632C41.6278 98.4902 41.6278 98.6807 41.6913 98.9347L43.598 104.522C43.6615 104.776 43.7251 104.966 43.6615 105.093C43.598 105.22 43.4709 105.347 43.2166 105.474L39.7847 107.062C39.3398 107.252 39.0221 107.189 38.895 106.808L31.2049 82.4902C31.0142 81.9188 31.0142 81.4743 31.1413 81.1569C31.2684 80.8394 31.5862 80.5854 32.0946 80.3315L36.4163 78.2997C36.8612 78.1093 37.2425 78.0458 37.5603 78.1728C37.8781 78.2997 38.1959 78.6172 38.5136 79.1251L52.432 100.458C52.8134 100.776 52.6862 101.093 52.3049 101.284ZM36.9248 84.141C36.7341 83.7601 36.5434 83.6331 36.3528 83.6966C36.1621 83.7601 36.1621 84.014 36.3528 84.4585L39.7212 93.2839C39.7847 93.6013 40.0389 93.6648 40.4203 93.4743L41.3736 93.0299C41.7549 92.8394 41.882 92.6489 41.6913 92.395L36.9248 84.141Z" fill="white"/>
<path d="M68.0042 93.4743C67.9406 93.7918 67.6228 94.0457 67.1144 94.2997L65.3984 95.1251C64.9536 95.3156 64.6358 95.4425 64.3816 95.3791C64.1909 95.3156 63.8096 95.0616 63.3647 94.6806L55.9288 86.8076C55.7382 86.6171 55.6111 86.4902 55.5475 86.4902C55.484 86.4267 55.3569 86.4267 55.2933 86.4902C55.2297 86.5537 55.1662 86.6171 55.2297 86.6806C55.2297 86.8076 55.3569 86.9981 55.484 87.2521L59.4879 95.887C59.7421 96.4584 59.8692 96.9029 59.8057 97.2203C59.7421 97.5378 59.5514 97.8553 59.043 98.0457L57.0728 98.9346C56.6279 99.1251 56.2466 99.1886 55.9288 99.1251C55.6111 99.0616 55.2933 98.6171 54.912 97.9187L44.8704 76.3314C44.5526 75.6965 44.4255 75.1886 44.5526 74.9346C44.6797 74.6806 44.9339 74.3632 45.4424 74.1092L47.1583 73.2838C47.6032 73.0933 47.921 72.9664 48.1752 73.0298C48.3659 73.0933 48.7472 73.3473 49.1921 73.7283L56.6279 81.5378C56.8186 81.7283 56.9457 81.8553 57.0093 81.8553C57.0728 81.9187 57.1999 81.9187 57.2635 81.8553C57.327 81.7918 57.3906 81.7283 57.327 81.6648C57.2635 81.6013 57.1999 81.3473 57.0728 81.0933L53.0689 72.5219C52.8147 71.9505 52.6876 71.506 52.7511 71.1886C52.8147 70.8711 53.0053 70.5537 53.5138 70.3632L55.484 69.4743C55.9288 69.2838 56.3102 69.2203 56.6279 69.2838C56.9457 69.3473 57.2635 69.7918 57.6448 70.4902L67.6864 92.014C67.9406 92.7124 68.0677 93.1568 68.0042 93.4743Z" fill="white"/>
<path d="M78.4897 73.8553C79.7608 76.5855 80.7141 78.7442 81.3496 80.4585C81.9852 82.1728 82.3665 83.5061 82.43 84.522C82.4936 85.5379 82.3029 86.3633 81.7945 86.9347C81.2861 87.5061 80.587 88.0141 79.6336 88.4585L73.596 91.2522C73.024 91.5061 72.6427 91.5696 72.3885 91.4426C72.1342 91.3157 71.88 90.9347 71.5622 90.2363L61.4571 68.649C61.1393 68.0141 61.0758 67.5696 61.1393 67.2522C61.2029 66.9347 61.4571 66.6807 61.902 66.4268L68.2574 63.4427C69.2743 62.9347 70.2276 62.8077 71.0538 62.9347C71.88 63.0617 72.6427 63.5696 73.4053 64.4585C74.168 65.2839 74.9306 66.4903 75.7568 68.0141C76.5195 69.6649 77.4092 71.5696 78.4897 73.8553ZM74.2315 76.3315C73.2782 74.2363 72.5156 72.649 71.9436 71.5696C71.3716 70.4268 70.9267 69.6649 70.5454 69.1569C70.1641 68.7125 69.7827 68.4585 69.465 68.522C69.1472 68.522 68.7023 68.7125 68.1939 68.903C67.6854 69.1569 67.3677 69.3474 67.2406 69.5379C67.1134 69.7284 67.177 70.1093 67.4312 70.5538L73.9138 84.522C74.1044 84.9665 74.3586 85.2204 74.5493 85.2839C74.74 85.3474 75.1213 85.1569 75.8204 84.903C76.2653 84.7125 76.583 84.4585 76.8373 84.268C77.0915 84.0141 77.155 83.6331 77.0279 83.1252C76.9008 82.5538 76.6466 81.7919 76.2017 80.7125C75.7568 79.6331 75.1213 78.1728 74.2315 76.3315Z" fill="white"/>
<path d="M102.895 77.3474C102.831 77.6014 102.577 77.8553 102.005 78.1093L100.035 78.9982C99.5264 79.2521 99.145 79.2522 98.8908 79.1252C98.6366 78.9982 98.3824 78.6172 98.0646 77.9823L93.3616 67.8871C93.298 67.6966 93.1709 67.5061 93.1074 67.3156C93.0438 67.1252 92.9167 66.9982 92.7896 67.0617C92.726 67.1252 92.6625 67.1887 92.726 67.3791C92.726 67.5696 92.7896 67.7601 92.8532 68.0141L94.7598 76.0775C94.8869 76.5855 94.8869 76.9664 94.7598 77.2204C94.6327 77.4744 94.3785 77.6648 93.9336 77.8553C93.4887 78.0458 93.1709 78.1093 92.9167 78.0458C92.6625 77.9823 92.3447 77.7918 92.0269 77.3474L87.0697 70.6807C86.9426 70.4902 86.8155 70.3633 86.6884 70.1728C86.5613 70.0458 86.4342 69.9823 86.3706 69.9823C86.2435 70.0458 86.2435 70.1728 86.3706 70.3633C86.4977 70.5537 86.5613 70.7442 86.6248 70.9347L91.3278 81.0299C91.5821 81.6014 91.7092 82.0458 91.7092 82.3633C91.6456 82.6807 91.3914 82.9347 90.883 83.1252L88.9128 84.0141C88.4043 84.268 88.023 84.3315 87.7688 84.2045C87.5146 84.0775 87.2604 83.6966 86.9426 82.9982L76.7739 61.2204C76.4561 60.5855 76.3926 60.141 76.3926 59.8871C76.4561 59.6331 76.7104 59.3791 77.2188 59.1252L79.4432 58.2998C80.0152 58.0458 80.4601 57.9188 80.7143 57.9188C80.9685 57.9823 81.2863 58.1728 81.6676 58.6807L88.3408 66.4902C88.5315 66.6807 88.6586 66.7442 88.7857 66.6807C88.9128 66.6172 88.9763 66.4902 88.9128 66.2363L87.2604 56.141C87.1968 55.5696 87.1968 55.1252 87.3239 54.9347C87.451 54.7442 87.8324 54.4902 88.4044 54.1728L90.4381 53.2204C90.9465 52.9664 91.3278 52.9664 91.5185 53.0934C91.7727 53.2204 92.0269 53.6014 92.3447 54.2363L102.513 76.0141C102.831 76.5855 102.958 77.0299 102.895 77.3474Z" fill="white"/>
<path d="M119.291 70.0458L115.732 71.6966C115.542 71.7601 115.351 71.8236 115.224 71.7601C115.097 71.6966 114.97 71.5696 114.779 71.3157L111.601 66.3633C111.411 66.1093 111.283 65.9823 111.156 65.9823C111.029 65.9188 110.902 65.9823 110.648 66.0458L109.059 66.8077C108.868 66.8712 108.741 66.9982 108.678 67.1252C108.614 67.2522 108.614 67.4427 108.678 67.6966L110.584 73.2839C110.648 73.5379 110.711 73.7284 110.648 73.8554C110.584 73.9823 110.457 74.1093 110.203 74.2363L106.771 75.8236C106.326 76.0141 106.008 75.9506 105.881 75.5696L98.1912 51.2522C98.0005 50.6808 98.0005 50.2363 98.1276 49.9188C98.2548 49.6014 98.5725 49.3474 99.081 49.0934L103.403 47.0617C103.848 46.8712 104.229 46.8077 104.547 46.9347C104.864 47.0617 105.182 47.3792 105.5 47.8871L119.418 69.2204C119.8 69.6014 119.673 69.8554 119.291 70.0458ZM103.911 52.9665C103.72 52.5855 103.53 52.4585 103.339 52.522C103.148 52.5855 103.148 52.8395 103.339 53.2839L106.707 62.1093C106.771 62.4268 107.025 62.4903 107.407 62.2998L108.36 61.8554C108.741 61.6649 108.868 61.4744 108.678 61.2204L103.911 52.9665Z" fill="white"/>
<path d="M129.015 50.3633C130.286 53.0934 131.239 55.2522 131.875 56.9665C132.511 58.6807 132.892 60.0141 132.955 61.03C133.019 62.0458 132.828 62.8712 132.32 63.4427C131.811 64.0141 131.112 64.522 130.159 64.9665L124.121 67.7601C123.549 68.0141 123.168 68.0776 122.914 67.9506C122.66 67.8236 122.405 67.4427 122.088 66.7442L111.982 45.1569C111.665 44.522 111.601 44.0776 111.665 43.7601C111.728 43.4427 111.982 43.1887 112.427 42.9347L118.783 39.9506C119.8 39.4427 120.753 39.3157 121.579 39.4427C122.405 39.5696 123.168 40.0776 123.931 40.9665C124.693 41.7919 125.456 42.9982 126.282 44.522C127.045 46.1728 127.935 48.0776 129.015 50.3633ZM124.757 52.776C123.804 50.6807 123.041 49.0934 122.469 48.0141C121.897 46.8712 121.452 46.1093 121.071 45.6014C120.689 45.1569 120.308 44.903 119.99 44.9665C119.673 44.9665 119.228 45.1569 118.719 45.3474C118.211 45.6014 117.893 45.7919 117.766 45.9823C117.639 46.1728 117.702 46.5538 117.957 46.9982L124.439 60.9665C124.63 61.4109 124.884 61.6649 125.075 61.7284C125.265 61.7919 125.647 61.6014 126.346 61.3474C126.791 61.1569 127.108 60.903 127.363 60.7125C127.617 60.4585 127.68 60.0776 127.553 59.5696C127.426 58.9982 127.172 58.2363 126.727 57.1569C126.282 56.0776 125.647 54.6807 124.757 52.776Z" fill="white"/>
<path d="M148.017 56.2045C147.954 56.522 147.7 56.8394 147.191 57.0299L139.565 60.5855C139.056 60.8394 138.675 60.8394 138.421 60.7124C138.167 60.5855 137.849 60.2045 137.531 59.5061L127.426 37.9188C127.108 37.2839 127.045 36.8394 127.108 36.522C127.172 36.2045 127.489 35.9505 127.934 35.6966L135.37 32.268C135.815 32.0775 136.196 32.014 136.451 32.0775C136.705 32.2045 136.959 32.522 137.213 33.1569L137.849 34.5537C138.167 35.1886 138.23 35.6331 138.167 35.887C138.103 36.2045 137.849 36.4585 137.34 36.6489L133.654 38.3632C133.4 38.4902 133.209 38.6172 133.209 38.7442C133.146 38.8712 133.209 39.1251 133.4 39.5061L134.989 42.9982C135.179 43.3156 135.307 43.5696 135.37 43.6331C135.497 43.6966 135.688 43.6331 136.006 43.5061L137.849 42.6172C138.294 42.4267 138.611 42.3632 138.802 42.4902C139.056 42.6172 139.247 42.8712 139.501 43.3791L140.391 45.2839C140.645 45.7918 140.709 46.1728 140.582 46.3632C140.518 46.6172 140.264 46.8077 139.883 46.9982L138.039 47.887C137.785 48.014 137.595 48.141 137.531 48.268C137.467 48.395 137.531 48.522 137.595 48.7759L140.01 53.9823C140.137 54.2997 140.264 54.4902 140.454 54.5537C140.582 54.6172 140.836 54.6172 141.217 54.4267L144.903 52.7124C145.412 52.4585 145.793 52.4585 146.111 52.5855C146.429 52.7124 146.683 53.0934 147.001 53.6648L147.573 54.8712C148.017 55.3791 148.145 55.887 148.017 56.2045Z" fill="white"/>
<path d="M46.3667 60.8677C47.5437 60.3194 48.053 58.9217 47.5041 57.7458C46.9553 56.57 45.5562 56.0612 44.3792 56.6095C43.2022 57.1578 42.693 58.5555 43.2418 59.7314C43.7906 60.9072 45.1897 61.416 46.3667 60.8677Z" fill="#002873"/>
<path d="M45.3781 62.4903C43.9799 62.4903 42.6452 61.6649 42.0097 60.3316C41.1199 58.4903 41.9461 56.2681 43.7892 55.3792C45.6323 54.4903 47.8567 55.3157 48.7464 57.157C49.6362 58.9982 48.81 61.2205 46.9669 62.1094C46.4585 62.3633 45.8865 62.4903 45.3781 62.4903ZM45.3781 57.7284C45.2509 57.7284 45.0603 57.7284 44.9332 57.8554C44.4247 58.1094 44.1705 58.6808 44.4247 59.1887C44.679 59.6967 45.2509 59.8871 45.7594 59.6967C46.2678 59.4427 46.4585 58.8713 46.2678 58.3633C46.1407 57.9189 45.7594 57.7284 45.3781 57.7284Z" fill="#002873"/>
<path d="M62.9038 53.1944C64.0808 52.6461 64.5901 51.2484 64.0413 50.0725C63.4924 48.8966 62.0933 48.3879 60.9163 48.9362C59.7393 49.4845 59.2301 50.8822 59.7789 52.058C60.3277 53.2339 61.7268 53.7426 62.9038 53.1944Z" fill="#002873"/>
<path d="M61.9015 54.7442C60.5033 54.7442 59.1687 53.9188 58.5331 52.5854C57.6433 50.7442 58.4696 48.5219 60.3126 47.6331C61.2024 47.1886 62.2193 47.1886 63.1726 47.5061C64.1259 47.8235 64.825 48.522 65.2699 49.4108C65.7147 50.2997 65.7148 51.3156 65.397 52.268C65.0792 53.2204 64.3801 53.9188 63.4903 54.3632C62.9819 54.6172 62.4735 54.7442 61.9015 54.7442ZM61.9015 50.0458C61.7744 50.0458 61.5837 50.1092 61.4566 50.1727C60.9482 50.4267 60.694 50.9981 60.9482 51.5061C61.2024 52.014 61.7744 52.2045 62.2828 52.014C62.537 51.887 62.7277 51.6966 62.7913 51.4426C62.8548 51.1886 62.8548 50.9346 62.7277 50.6807C62.6006 50.4267 62.4099 50.2362 62.1557 50.1727C62.1557 50.0458 62.0286 50.0458 61.9015 50.0458Z" fill="#002873"/>
<path d="M79.4741 45.4367C80.6512 44.8884 81.1604 43.4907 80.6116 42.3148C80.0627 41.1389 78.6637 40.6302 77.4866 41.1785C76.3096 41.7268 75.8004 43.1245 76.3492 44.3004C76.898 45.4762 78.2971 45.985 79.4741 45.4367Z" fill="#002873"/>
<path d="M78.4894 47.0617C77.0912 47.0617 75.7565 46.2363 75.121 44.903C74.2312 43.0617 75.0574 40.8395 76.9005 39.9506C78.7436 39.0617 80.968 39.8871 81.8578 41.7284C82.7475 43.5697 81.9213 45.7919 80.0782 46.6808C79.5063 46.9347 78.9978 47.0617 78.4894 47.0617ZM78.4894 42.2998C78.3623 42.2998 78.1716 42.2998 78.0445 42.4268C77.5361 42.6808 77.2819 43.2522 77.5361 43.7601C77.7903 44.2681 78.3623 44.4585 78.8707 44.2681C79.3791 44.0141 79.6334 43.4427 79.3791 42.9347C79.1885 42.5538 78.8707 42.2998 78.4894 42.2998Z" fill="#002873"/>
<path d="M96.0132 37.7632C97.1902 37.2149 97.6995 35.8172 97.1506 34.6413C96.6018 33.4655 95.2027 32.9567 94.0257 33.505C92.8487 34.0533 92.3394 35.451 92.8883 36.6269C93.4371 37.8028 94.8362 38.3115 96.0132 37.7632Z" fill="#002873"/>
<path d="M95.0148 39.3156C93.6166 39.3156 92.2819 38.4902 91.6464 37.1569C90.7566 35.3156 91.5828 33.0934 93.4259 32.2045C95.269 31.3156 97.4934 32.141 98.3832 33.9823C99.2729 35.8236 98.4467 38.0458 96.6036 38.9347C96.0952 39.2521 95.5232 39.3156 95.0148 39.3156ZM95.0148 34.6172C94.8877 34.6172 94.697 34.6172 94.5699 34.7442C94.0615 34.9982 93.8072 35.5696 94.0615 36.0775C94.3157 36.5855 94.8877 36.7759 95.3961 36.5855C95.9045 36.3315 96.0952 35.7601 95.9045 35.2521C95.7774 34.8077 95.3961 34.6172 95.0148 34.6172Z" fill="#002873"/>
<path d="M50.0425 47.0239C51.2195 46.4756 51.7288 45.0779 51.1799 43.9021C50.6311 42.7262 49.232 42.2175 48.055 42.7658C46.878 43.3141 46.3687 44.7118 46.9176 45.8876C47.4664 47.0635 48.8655 47.5722 50.0425 47.0239Z" fill="#002873"/>
<path d="M49.0636 48.649C47.6654 48.649 46.3308 47.8236 45.6952 46.4903C44.8055 44.649 45.6317 42.4268 47.4747 41.5379C49.3178 40.649 51.5422 41.4744 52.432 43.3157C53.3217 45.1569 52.4955 47.3792 50.6525 48.268C50.0805 48.522 49.572 48.649 49.0636 48.649ZM49.0636 43.8871C48.9365 43.8871 48.7458 43.8871 48.6187 43.9506C48.1103 44.2046 47.8561 44.776 48.1103 45.2839C48.3645 45.7919 48.9365 45.9823 49.4449 45.7919C49.9534 45.5379 50.144 44.9665 49.9534 44.4585C49.7627 44.1411 49.4449 43.8871 49.0636 43.8871Z" fill="#002873"/>
<path d="M66.5835 39.3506C67.7605 38.8023 68.2698 37.4046 67.7209 36.2287C67.1721 35.0529 65.773 34.5441 64.596 35.0924C63.419 35.6407 62.9098 37.0384 63.4586 38.2143C64.0074 39.3902 65.4065 39.8989 66.5835 39.3506Z" fill="#002873"/>
<path d="M65.5891 40.9665C64.1909 40.9665 62.8562 40.1411 62.2207 38.8077C61.7758 37.9188 61.7758 36.903 62.0936 35.9506C62.4113 34.9982 63.1104 34.2998 64.0002 33.8554C64.89 33.4109 65.9068 33.4109 66.8601 33.7284C67.8135 34.0458 68.5126 34.7442 68.9574 35.6331C69.8472 37.4744 69.021 39.6966 67.1779 40.5855C66.6695 40.8395 66.0975 40.9665 65.5891 40.9665ZM65.5891 36.2046C65.462 36.2046 65.2713 36.268 65.1442 36.3315C64.89 36.4585 64.6993 36.649 64.6357 36.903C64.5722 37.1569 64.5722 37.4109 64.6993 37.6649C64.9535 38.1728 65.5255 38.3633 66.0339 38.1728C66.5424 37.9188 66.733 37.3474 66.5424 36.8395C66.4153 36.5855 66.2246 36.395 65.9704 36.3315C65.8433 36.2046 65.7162 36.2046 65.5891 36.2046Z" fill="#002873"/>
<path d="M83.1206 31.6771C84.2976 31.1288 84.8069 29.7311 84.258 28.5553C83.7092 27.3794 82.3101 26.8707 81.1331 27.419C79.9561 27.9673 79.4469 29.365 79.9957 30.5408C80.5445 31.7167 81.9436 32.2254 83.1206 31.6771Z" fill="#002873"/>
<path d="M82.1769 33.2204C80.7787 33.2204 79.444 32.395 78.8085 31.0617C77.9187 29.2204 78.7449 26.9982 80.588 26.1093C82.4311 25.2204 84.6555 26.0458 85.5453 27.8871C85.9901 28.776 85.9901 29.7918 85.6724 30.7442C85.3546 31.6966 84.6555 32.395 83.7657 32.8395C83.1938 33.0934 82.6853 33.2204 82.1769 33.2204ZM82.1133 28.4585C81.9862 28.4585 81.7956 28.4585 81.6684 28.5855C81.16 28.8395 80.9693 29.4109 81.16 29.9188C81.4142 30.4268 81.9862 30.6172 82.4947 30.4268C82.7489 30.2998 82.9395 30.1093 83.0031 29.8553C83.0666 29.6014 83.0666 29.3474 82.9395 29.0934C82.876 28.7125 82.4947 28.4585 82.1133 28.4585Z" fill="#002873"/>
<path d="M117.609 88.4431C118.786 87.8948 119.295 86.4971 118.746 85.3213C118.197 84.1454 116.798 83.6367 115.621 84.185C114.444 84.7333 113.935 86.131 114.484 87.3068C115.033 88.4827 116.432 88.9914 117.609 88.4431Z" fill="#002873"/>
<path d="M116.687 90.0458C115.288 90.0458 113.954 89.2204 113.318 87.8871C112.429 86.0458 113.255 83.8236 115.098 82.9347C115.988 82.4903 117.004 82.4903 117.958 82.8077C118.911 83.1252 119.61 83.8236 120.055 84.7125C120.5 85.6014 120.5 86.6172 120.182 87.5696C119.864 88.522 119.165 89.2204 118.276 89.6648C117.704 89.9188 117.195 90.0458 116.687 90.0458ZM116.623 85.2839C116.496 85.2839 116.305 85.2839 116.178 85.4109C115.67 85.6648 115.416 86.2363 115.67 86.7442C115.924 87.2522 116.496 87.4426 117.004 87.2522C117.513 86.9982 117.704 86.4268 117.513 85.9188C117.386 85.6649 117.195 85.4744 116.941 85.4109C116.877 85.3474 116.75 85.2839 116.623 85.2839Z" fill="#002873"/>
<path d="M101.097 96.174C102.274 95.6257 102.783 94.228 102.235 93.0521C101.686 91.8762 100.287 91.3675 99.1097 91.9158C97.9327 92.4641 97.4234 93.8618 97.9723 95.0377C98.5211 96.2135 99.9202 96.7223 101.097 96.174Z" fill="#002873"/>
<path d="M100.099 97.7283C99.654 97.7283 99.2091 97.6649 98.8277 97.4744C97.8744 97.1569 97.1753 96.4585 96.7304 95.5696C96.2856 94.6807 96.2856 93.6649 96.6033 92.7125C96.9211 91.7601 97.6202 91.0617 98.51 90.6172C100.353 89.7283 102.577 90.5537 103.467 92.395C104.357 94.2363 103.531 96.4585 101.688 97.3474C101.179 97.6014 100.607 97.7283 100.099 97.7283ZM99.1455 94.4903C99.2726 94.7442 99.4633 94.9347 99.7175 94.9982C99.9717 95.0617 100.226 95.0617 100.48 94.9347C100.989 94.6807 101.179 94.1093 100.989 93.6014C100.734 93.0934 100.162 92.8395 99.654 93.0934C99.3997 93.2204 99.2091 93.4109 99.1455 93.6649C99.0184 93.9188 99.082 94.2363 99.1455 94.4903Z" fill="#002873"/>
<path d="M84.5601 103.847C85.7371 103.299 86.2463 101.901 85.6975 100.726C85.1487 99.5497 83.7496 99.041 82.5726 99.5893C81.3956 100.138 80.8863 101.535 81.4352 102.711C81.984 103.887 83.3831 104.396 84.5601 103.847Z" fill="#002873"/>
<path d="M83.5754 105.474C83.1305 105.474 82.6856 105.411 82.3043 105.22C81.351 104.903 80.6519 104.205 80.207 103.316C79.7621 102.427 79.7621 101.411 80.0799 100.459C80.3977 99.5061 81.0968 98.8077 81.9865 98.3633C82.8763 97.9188 83.8932 97.9188 84.8465 98.2363C85.7998 98.5538 86.4989 99.2522 86.9438 100.141C87.3887 101.03 87.3887 102.046 87.0709 102.998C86.7531 103.951 86.054 104.649 85.1643 105.093C84.5923 105.347 84.0838 105.474 83.5754 105.474ZM83.5754 100.712C83.4483 100.712 83.2576 100.776 83.1305 100.839C82.6221 101.093 82.4314 101.665 82.6221 102.173C82.7492 102.427 82.9398 102.617 83.1941 102.681C83.4483 102.744 83.7025 102.744 83.9567 102.617C84.2109 102.49 84.4016 102.3 84.4652 102.046C84.5287 101.792 84.5287 101.538 84.4016 101.284C84.2745 101.03 84.0838 100.839 83.8296 100.776C83.7661 100.712 83.6389 100.712 83.5754 100.712Z" fill="#002873"/>
<path d="M67.9898 111.605C69.1668 111.057 69.676 109.659 69.1272 108.483C68.5784 107.307 67.1793 106.799 66.0023 107.347C64.8253 107.895 64.316 109.293 64.8648 110.469C65.4137 111.645 66.8128 112.153 67.9898 111.605Z" fill="#002873"/>
<path d="M66.9874 113.157C65.5892 113.157 64.2546 112.332 63.619 110.998C62.7293 109.157 63.5555 106.935 65.3986 106.046C67.2416 105.157 69.466 105.982 70.3558 107.824C71.2456 109.665 70.4194 111.887 68.5763 112.776C68.0679 113.03 67.5594 113.157 66.9874 113.157ZM66.9874 108.459C66.8603 108.459 66.6697 108.459 66.5425 108.586C66.0341 108.839 65.7799 109.411 66.0341 109.919C66.2883 110.427 66.8603 110.681 67.3688 110.427C67.8772 110.173 68.1314 109.601 67.8772 109.093C67.7501 108.649 67.3688 108.459 66.9874 108.459Z" fill="#002873"/>
<path d="M113.99 102.26C115.167 101.712 115.676 100.314 115.127 99.1383C114.578 97.9624 113.179 97.4537 112.002 98.002C110.825 98.5503 110.316 99.948 110.865 101.124C111.414 102.3 112.813 102.808 113.99 102.26Z" fill="#002873"/>
<path d="M113.001 103.887C111.603 103.887 110.268 103.062 109.633 101.728C108.743 99.8871 109.569 97.6649 111.412 96.776C112.302 96.3316 113.319 96.3316 114.272 96.649C115.226 96.9665 115.925 97.6649 116.369 98.5538C117.259 100.395 116.433 102.617 114.59 103.506C114.018 103.76 113.51 103.887 113.001 103.887ZM113.001 99.1252C112.874 99.1252 112.683 99.1252 112.556 99.2522C112.048 99.5062 111.794 100.078 112.048 100.586C112.302 101.093 112.874 101.347 113.382 101.093C113.891 100.839 114.082 100.268 113.891 99.7601C113.764 99.5062 113.573 99.3157 113.319 99.2522C113.192 99.1252 113.065 99.1252 113.001 99.1252Z" fill="#002873"/>
<path d="M97.3941 109.96C98.5711 109.412 99.0803 108.014 98.5315 106.838C97.9827 105.663 96.5836 105.154 95.4066 105.702C94.2295 106.25 93.7203 107.648 94.2691 108.824C94.818 110 96.217 110.509 97.3941 109.96Z" fill="#002873"/>
<path d="M96.4133 111.57C95.0151 111.57 93.6804 110.744 93.0449 109.411C92.6 108.522 92.6 107.506 92.9178 106.554C93.2356 105.601 93.9347 104.903 94.8244 104.459C96.6675 103.57 98.8919 104.395 99.7817 106.236C100.671 108.078 99.8452 110.3 98.0021 111.189C97.4937 111.443 96.9853 111.57 96.4133 111.57ZM95.5235 108.268C95.7777 108.776 96.3497 109.03 96.8582 108.776C97.3666 108.522 97.6208 107.951 97.3666 107.443C97.1124 106.935 96.5404 106.681 96.032 106.935C95.7777 107.062 95.5871 107.252 95.5235 107.506C95.3964 107.76 95.3964 108.014 95.5235 108.268Z" fill="#002873"/>
<path d="M80.8823 117.691C82.0594 117.143 82.5686 115.745 82.0198 114.569C81.4709 113.393 80.0719 112.885 78.8948 113.433C77.7178 113.981 77.2086 115.379 77.7574 116.555C78.3063 117.731 79.7053 118.239 80.8823 117.691Z" fill="#002873"/>
<path d="M79.8898 119.252C79.445 119.252 79.0001 119.189 78.6188 118.998C77.6654 118.681 76.9663 117.982 76.5215 117.093C76.0766 116.204 76.0766 115.189 76.3944 114.236C76.7121 113.284 77.4112 112.585 78.301 112.141C79.1907 111.697 80.2076 111.697 81.1609 112.014C82.1142 112.331 82.8133 113.03 83.2582 113.919C83.7031 114.808 83.7031 115.824 83.3853 116.776C83.0676 117.728 82.3685 118.427 81.4787 118.871C80.9703 119.189 80.3983 119.252 79.8898 119.252ZM79.8898 114.554C79.7627 114.554 79.5721 114.617 79.445 114.681C79.1907 114.808 79.0001 114.998 78.9365 115.252C78.873 115.506 78.873 115.76 79.0001 116.014C79.1272 116.268 79.3179 116.458 79.5721 116.522C79.8263 116.585 80.0805 116.585 80.3347 116.458C80.5889 116.331 80.7796 116.141 80.8432 115.887C80.9067 115.633 80.9067 115.379 80.7796 115.125C80.6525 114.871 80.4618 114.681 80.2076 114.617C80.0805 114.554 80.017 114.554 79.8898 114.554Z" fill="#002873"/>
</g>
<defs>
<clipPath id="clip0_637_13598">
<rect width="162" height="144" fill="white" transform="translate(0 0.521973)"/>
</clipPath>
</defs>
</svg>
