<svg width="162" height="145" viewBox="0 0 162 145" fill="none" xmlns="http://www.w3.org/2000/svg">
<g clip-path="url(#clip0_760_5128)">
<path d="M81.0314 143.633C120.344 143.633 152.212 111.795 152.212 72.5218C152.212 33.2482 120.344 1.41064 81.0314 1.41064C41.7193 1.41064 9.85059 33.2482 9.85059 72.5218C9.85059 111.795 41.7193 143.633 81.0314 143.633Z" fill="white"/>
<path d="M81.0316 144.522C41.2466 144.522 8.89746 112.268 8.89746 72.522C8.89746 32.7759 41.2466 0.521973 81.0316 0.521973C120.817 0.521973 153.102 32.8394 153.102 72.522C153.102 112.205 120.753 144.522 81.0316 144.522ZM81.0316 2.29975C42.2635 2.29975 10.7405 33.7918 10.7405 72.522C10.7405 111.252 42.2635 142.744 81.0316 142.744C119.8 142.744 151.259 111.252 151.259 72.522C151.259 33.7918 119.736 2.29975 81.0316 2.29975Z" fill="#002873"/>
<path d="M81.0314 122.871C108.866 122.871 131.43 100.329 131.43 72.5216C131.43 44.7145 108.866 22.1724 81.0314 22.1724C53.197 22.1724 30.6328 44.7145 30.6328 72.5216C30.6328 100.329 53.197 122.871 81.0314 122.871Z" fill="white"/>
<path d="M81.0316 123.823C52.7499 123.823 29.6797 100.839 29.6797 72.5218C29.6797 44.2043 52.6864 21.2202 81.0316 21.2202C109.377 21.2202 132.383 44.2043 132.383 72.5218C132.383 100.839 109.313 123.823 81.0316 123.823ZM81.0316 23.0615C53.7032 23.0615 31.5228 45.2837 31.5228 72.5218C31.5228 99.8234 53.7668 121.982 81.0316 121.982C108.36 121.982 130.54 99.7599 130.54 72.5218C130.54 45.2837 108.296 23.0615 81.0316 23.0615Z" fill="#002873"/>
<path d="M23.896 68.0143C24.2774 68.0778 24.5316 68.0778 24.6587 68.0143C24.7858 68.0143 24.9129 67.9508 25.04 67.8873C25.1036 67.8239 25.2307 67.7604 25.2942 67.6334C25.3578 67.5064 25.4213 67.3794 25.4849 67.1254L25.9933 67.1889L25.612 71.5064L25.1036 71.4429C25.04 71.2524 25.04 71.062 24.9765 70.935C24.9129 70.808 24.8494 70.7445 24.7222 70.681C24.5951 70.6175 24.468 70.554 24.3409 70.554C24.1503 70.4905 23.9596 70.4905 23.7054 70.4905L16.778 69.8556C16.5237 69.8556 16.3331 69.7921 16.1424 69.7921C15.9518 69.7921 15.8246 69.7921 15.6975 69.8556C15.5704 69.9191 15.5069 69.9826 15.4433 70.1096C15.3798 70.2366 15.3162 70.3635 15.1891 70.554L14.6807 70.4905L15.1255 65.8556C15.2527 64.5223 15.5704 63.5064 16.1424 62.8715C16.7144 62.2366 17.4771 61.9826 18.4939 62.0461C19.193 62.1096 19.8286 62.3001 20.2734 62.681C20.7819 63.062 21.0997 63.5699 21.3539 64.1413C21.5445 64.7762 21.6081 65.5381 21.5445 66.427C21.481 66.935 21.4174 67.3794 21.4174 67.6969L23.896 68.0143ZM20.4006 67.6969L20.4641 66.9985C20.5277 66.4905 20.4641 66.0461 20.337 65.7286C20.2099 65.4112 20.0192 65.1572 19.7015 64.9667C19.3837 64.7762 18.9388 64.6493 18.3668 64.5858C17.7948 64.5223 17.3499 64.5858 17.0322 64.7127C16.7144 64.8397 16.4602 65.0302 16.2695 65.3477C16.0789 65.6016 16.0153 65.9826 15.9518 66.4905C15.8882 66.8715 15.8882 67.1254 15.8882 67.3794L20.4006 67.6969Z" fill="#002873"/>
<path d="M25.0396 56.649C25.9294 57.4109 26.5013 58.0458 26.8827 58.6807C27.264 59.2522 27.3276 59.9506 27.1369 60.649C27.0098 61.0299 26.8191 61.5379 26.5013 62.0458L24.3405 61.4744L24.6583 60.3315C25.3574 60.4585 25.7387 60.3315 25.8658 59.8871C25.9929 59.3157 25.6751 58.6807 24.8489 57.9823L18.2393 59.1252C17.5402 59.2522 17.0953 59.3157 16.8411 59.4426C16.5869 59.5696 16.3962 59.6966 16.3327 59.9506L15.8242 59.8236L16.9682 55.6966L17.4766 55.8236C17.4131 56.268 17.5402 56.4585 17.9215 56.5855C18.1122 56.649 18.5571 56.5855 19.2562 56.522L22.6881 56.0141L19.9553 53.8553C19.4468 53.4744 19.0655 53.2204 18.7477 53.1569C18.3664 53.0299 18.1122 53.2204 17.9851 53.6014L17.4766 53.4744L18.3028 50.3633L18.8113 50.4903C18.8113 50.8077 18.8748 51.1252 19.129 51.3792C19.3833 51.6966 19.701 52.0776 20.2095 52.522L25.0396 56.649Z" fill="#002873"/>
<path d="M31.0145 44.0778C31.65 44.3953 32.0313 44.5222 32.222 44.4588C32.4127 44.3953 32.6669 44.2683 32.8575 43.9508L33.366 44.2048L31.4593 48.1413L30.9509 47.8873C31.0145 47.5064 31.0145 47.1889 30.9509 46.9984C30.8874 46.808 30.506 46.6175 29.934 46.3L27.519 45.1572C27.3283 46.0461 27.0741 46.808 26.7563 47.5064C26.375 48.3318 25.8666 48.9032 25.231 49.2207C24.5955 49.5381 23.8328 49.4746 22.7524 48.9667L21.4813 48.3318C20.8458 48.0143 20.4644 47.8873 20.2738 47.9508C20.0831 48.0143 19.8925 48.1413 19.6382 48.4588L19.1934 48.2048L21.1 44.3318L21.5449 44.5857C21.4813 44.9667 21.4813 45.2207 21.5449 45.4111C21.6084 45.6016 21.9897 45.8556 22.6253 46.1096L23.6422 46.6175C24.4684 46.9984 25.0404 47.1889 25.4217 47.0619C25.7395 46.935 26.0572 46.6175 26.3114 46.1096C26.5021 45.7286 26.6292 45.2842 26.7563 44.7762L24.0235 43.4429C23.3879 43.1254 23.0066 42.9984 22.816 43.0619C22.6253 43.1254 22.3711 43.2524 22.1169 43.5699L21.672 43.3159L23.5786 39.3794L24.0235 39.6334C23.9599 40.0143 23.9599 40.2683 24.0235 40.4588C24.087 40.6492 24.4684 40.9032 25.1039 41.1572L31.0145 44.0778Z" fill="#002873"/>
<path d="M38.005 34.4903C38.3227 34.7442 38.577 34.8712 38.7041 34.9347C38.8312 34.9982 39.0218 34.9982 39.1489 34.9982C39.2761 34.9982 39.4667 34.8712 39.7209 34.6807L40.1658 34.9982L37.6236 38.3633L37.1788 38.0458C37.3059 37.7284 37.3694 37.5379 37.3694 37.4109C37.3694 37.2839 37.3059 37.1569 37.2423 37.0299C37.1788 36.903 36.9245 36.7125 36.5432 36.4585L33.9375 34.4903L31.7131 37.4109L34.3188 39.3791C34.4459 39.5061 34.6366 39.5696 34.7637 39.6966C34.8908 39.8236 35.0179 39.8236 35.145 39.8871C35.2721 39.9506 35.3357 39.9506 35.4628 39.9506C35.5899 39.9506 35.6535 39.8871 35.7806 39.8871C35.9077 39.8236 35.9712 39.7601 36.0983 39.6331L36.5432 39.9506L34.001 43.3157L33.5562 42.9982C33.6197 42.8077 33.6833 42.6172 33.6833 42.4903C33.6833 42.3633 33.6833 42.2363 33.6197 42.1093C33.5562 41.9823 33.4926 41.8553 33.3655 41.7918C33.2384 41.6649 33.0477 41.5379 32.8571 41.4109L27.3278 37.2204C27.1372 37.0934 26.9465 36.9664 26.8194 36.8395C26.6923 36.776 26.5652 36.7125 26.4381 36.649C26.311 36.5855 26.1839 36.649 26.0568 36.7125C25.9296 36.776 25.8025 36.8395 25.6119 36.9664L25.167 36.649L27.7092 33.2839L28.154 33.6014C27.9634 33.8553 27.9634 34.0458 27.9634 34.1728C27.9634 34.2998 28.0269 34.4268 28.154 34.5537C28.2812 34.6807 28.4718 34.8712 28.7896 35.1252L30.9504 36.776L33.1748 33.8553L30.9504 32.268C30.6327 32.0141 30.3784 31.8871 30.2513 31.8236C30.1242 31.7601 29.9336 31.7601 29.8065 31.7601C29.6794 31.7601 29.4887 31.8871 29.2345 32.0776L28.7896 31.7601L31.3318 28.395L31.7766 28.7125C31.7131 28.9664 31.6495 29.0934 31.6495 29.2204C31.6495 29.3474 31.6495 29.4744 31.7131 29.6014C31.7766 29.7284 31.8402 29.7918 31.9673 29.9188C32.0944 30.0458 32.2215 30.1728 32.4757 30.2998L38.005 34.4903Z" fill="#002873"/>
<path d="M42.8986 27.9507L40.2928 30.2364L40.6106 30.9983C40.6742 31.1888 40.8013 31.3792 40.8648 31.5697C40.9284 31.7602 41.0555 31.9507 41.2461 32.0777C41.6275 32.4586 42.0088 32.5221 42.4537 32.1412L42.835 32.5221L40.2928 34.8078L39.9115 34.4269C40.0386 34.2999 40.1022 34.1094 40.1657 33.9189C40.2293 33.7285 40.1657 33.538 40.1657 33.284C40.1022 33.03 40.0386 32.7126 39.848 32.3951L36.416 23.4427L38.0049 21.9824L46.0127 26.9348C46.394 27.1888 46.6483 27.3158 46.7754 27.3792C46.966 27.4427 47.0931 27.5062 47.2838 27.5062C47.4745 27.5062 47.6651 27.4427 47.8558 27.3158L48.2371 27.6967L44.9323 30.6808L44.551 30.2999C44.7416 30.1094 44.8687 29.9189 44.8687 29.7285C44.8687 29.538 44.8052 29.3475 44.6781 29.2205C44.551 29.0935 44.4239 28.9665 44.2968 28.8396C44.1061 28.7126 43.9154 28.5856 43.6612 28.3951L42.8986 27.9507ZM39.9751 29.284L42.1359 27.3792L38.132 24.8396L39.9751 29.284Z" fill="#002873"/>
<path d="M52.9406 24.3313C53.1949 24.0774 53.3855 23.8234 53.322 23.6329C53.322 23.4424 53.1949 23.0615 52.8771 22.617L51.5424 20.3948L51.2247 20.5853C50.7798 20.8393 50.462 21.2202 50.2714 21.5377C50.1442 21.9186 50.1442 22.5535 50.3349 23.5059C50.5256 24.6488 50.6527 25.4107 50.6527 25.7916L50.8433 26.1091L48.1105 27.8234L47.8563 27.3789C48.3012 26.998 48.4283 26.3631 48.2376 25.3472L48.1105 24.3313C47.9834 23.3789 48.1741 22.4901 48.746 21.7282L48.6825 21.6647C47.0936 21.9186 45.8861 21.4742 45.187 20.2678C44.1701 18.5535 44.8692 17.0297 47.2207 15.6329L51.2882 13.2202L51.5424 13.6647C51.2882 13.9821 51.0976 14.1726 51.1611 14.3631C51.1611 14.5535 51.2882 14.871 51.606 15.3789L55.165 21.3472C55.4193 21.7916 55.6735 22.1091 55.8641 22.1726C56.0548 22.2996 56.309 22.2996 56.6903 22.1726L56.9446 22.617L53.322 24.7758L52.9406 24.3313ZM51.0976 19.5694L48.8096 15.6964L48.4283 15.8869C47.5385 16.3948 47.0301 16.9028 46.9665 17.4107C46.903 17.9186 47.0301 18.4901 47.3479 19.0615C47.7927 19.7599 48.2376 20.2043 48.6825 20.3313C49.1909 20.4583 49.7629 20.3313 50.3349 19.9504L51.0976 19.5694Z" fill="#002873"/>
<path d="M63.6807 17.9823C63.8079 18.2997 63.8714 18.5537 63.935 18.6807C63.9985 18.8077 64.0621 18.9347 64.1892 18.9982C64.2527 19.0616 64.3798 19.1251 64.507 19.1251C64.6341 19.1251 64.8247 19.1251 65.0789 19.1251L65.2061 19.6331L61.075 20.9029L60.9479 20.395C61.1386 20.268 61.2657 20.2045 61.3292 20.0775C61.3928 20.014 61.4563 19.887 61.5199 19.7601C61.5199 19.6331 61.5199 19.5061 61.5199 19.3156C61.5199 19.1251 61.4563 18.9347 61.3292 18.6807L59.3591 12.014C59.2955 11.7601 59.2319 11.5696 59.1684 11.3791C59.1048 11.1886 59.0413 11.1251 58.9777 10.9982C58.9142 10.8712 58.7871 10.8712 58.66 10.8077C58.5328 10.8077 58.3422 10.7442 58.1515 10.7442L58.0244 10.2362L62.5368 8.90292C63.8714 8.52196 64.8883 8.45847 65.6509 8.71244C66.4136 8.96641 66.9856 9.60133 67.2398 10.5537C67.4305 11.2521 67.494 11.887 67.3033 12.4585C67.1762 13.0299 66.7949 13.5378 66.35 13.9823C65.9052 14.4267 65.1425 14.7442 64.3163 14.9982C63.8079 15.1251 63.4265 15.2521 63.1088 15.3156L63.6807 17.9823ZM62.6639 14.6172L63.2994 14.4267C63.8079 14.2997 64.1892 14.1093 64.4434 13.8553C64.6976 13.6013 64.8883 13.3474 64.8883 12.9664C64.9518 12.5855 64.8883 12.141 64.6976 11.6331C64.507 11.1251 64.3163 10.6807 64.1256 10.4267C63.935 10.1728 63.6172 9.98228 63.2994 9.91879C62.9816 9.8553 62.6003 9.91879 62.1554 10.0458C61.7741 10.1728 61.5199 10.2362 61.3292 10.2997L62.6639 14.6172Z" fill="#002873"/>
<path d="M74.1043 14.2997L70.6724 14.7441L70.4817 15.5695C70.4181 15.8235 70.4181 16.014 70.3546 16.2045C70.291 16.3949 70.3546 16.6489 70.3546 16.8394C70.4181 17.3473 70.7359 17.6013 71.3079 17.6013L71.3715 18.1092L67.9395 18.5537L67.876 18.0457C68.0666 17.9822 68.2573 17.9187 68.3844 17.7918C68.5115 17.6648 68.6386 17.4743 68.7022 17.2838C68.7657 17.0933 68.8928 16.7759 68.9564 16.3314L71.1808 6.99811L73.3416 6.74414L77.1549 15.3791C77.3456 15.76 77.4727 16.014 77.5362 16.2045C77.6633 16.3314 77.7905 16.4584 77.9176 16.5854C78.0447 16.6489 78.2353 16.7124 78.4895 16.7759L78.5531 17.2838L74.1043 17.8553L74.0407 17.3473C74.295 17.2838 74.4856 17.1568 74.6127 17.0299C74.7398 16.9029 74.8034 16.7124 74.7398 16.4584C74.7398 16.268 74.6763 16.141 74.6127 15.887C74.5492 15.633 74.4856 15.4426 74.3585 15.1251L74.1043 14.2997ZM70.863 13.7918L73.723 13.4108L71.8799 9.09335L70.863 13.7918Z" fill="#002873"/>
<path d="M79.0615 17.157V16.649C79.4428 16.5855 79.6971 16.4585 79.7606 16.2681C79.8877 16.0776 79.9513 15.7601 79.9513 15.1887L80.2691 8.26807C80.2691 7.69665 80.2691 7.37919 80.2055 7.18871C80.1419 6.99823 79.8877 6.87125 79.5064 6.74426V6.23633L88.0227 6.61728L87.8956 9.34744L86.8152 9.28395C86.6245 8.52204 86.3703 8.01411 86.1796 7.82363C85.9889 7.63315 85.6076 7.50617 85.0992 7.44268L82.8748 7.31569L82.6841 10.9982C83.4468 10.9347 84.0188 10.9347 84.5272 10.9982C85.8618 11.0617 86.8787 11.3792 87.5142 11.8871C88.1498 12.4585 88.4676 13.2839 88.404 14.3633C88.2769 16.522 86.8152 17.4744 83.9552 17.3474L79.0615 17.157ZM82.4935 16.3316C83.8917 16.4585 84.7814 16.3951 85.2898 16.0141C85.7983 15.6332 85.9889 15.0617 86.0525 14.2998C86.116 12.8395 85.417 12.0141 83.9552 11.9506H83.701C83.3197 11.9506 83.0019 11.9506 82.7477 11.9506L82.4935 16.3316Z" fill="#002873"/>
<path d="M93.6788 18.9348C92.1535 18.5539 91.0731 17.8555 90.5646 16.7761C89.9927 15.6967 89.9291 14.2364 90.374 12.4586C90.6282 11.2523 91.0731 10.2999 91.6451 9.60149C92.2171 8.83959 92.9162 8.33165 93.7424 8.07768C94.5686 7.82371 95.5219 7.82371 96.4752 8.07768C98.0641 8.45864 99.0809 9.15705 99.6529 10.2364C100.225 11.3158 100.288 12.7761 99.9071 14.4904C99.6529 15.5063 99.3351 16.2682 98.9538 16.9666C98.5725 17.6015 98.0641 18.1094 97.5556 18.4904C97.0472 18.8713 96.4116 19.0618 95.7761 19.1253C95.077 19.1253 94.3779 19.0618 93.6788 18.9348ZM92.8526 12.7761C92.4713 14.3634 92.4077 15.5697 92.5984 16.4586C92.789 17.3475 93.2975 17.8555 94.0601 18.0459C94.4415 18.1729 94.8228 18.1094 95.1406 17.9824C95.4583 17.8555 95.7761 17.6015 96.0303 17.2205C96.2845 16.9031 96.5388 16.4586 96.7294 15.9507C96.9201 15.4428 97.1107 14.8713 97.2379 14.2364C97.4921 13.2205 97.6192 12.3317 97.6192 11.5697C97.6192 10.8078 97.4921 10.2364 97.2379 9.79197C96.9836 9.34752 96.6023 9.09356 96.0939 8.96657C95.3312 8.7761 94.6957 9.03006 94.1237 9.66498C93.6788 10.2364 93.2339 11.3158 92.8526 12.7761Z" fill="#002873"/>
<path d="M101.369 21.157L101.56 20.6491C101.75 20.7126 101.941 20.7126 102.132 20.7126C102.259 20.7126 102.386 20.6491 102.513 20.5856C102.64 20.5221 102.704 20.3951 102.767 20.2681C102.831 20.1411 102.958 19.9507 103.085 19.6967L106.326 12.3316L105.754 12.0776C105.437 11.9507 105.246 11.8872 105.055 11.8872C104.865 11.8872 104.674 11.9507 104.483 12.0142C104.293 12.1411 104.102 12.2681 103.911 12.4586C103.721 12.6491 103.53 12.903 103.403 13.0935L102.386 12.6491L103.53 10.0459L112.237 13.9189L111.093 16.5221L110.076 16.0776C110.14 15.6967 110.14 15.4427 110.203 15.2522C110.203 15.0618 110.203 14.9348 110.203 14.7443C110.203 14.6173 110.14 14.4903 110.14 14.3634C110.076 14.2364 110.076 14.1729 110.013 14.1094C109.949 14.0459 109.885 13.9189 109.758 13.8554C109.631 13.7919 109.504 13.6649 109.313 13.6015L108.805 13.3475L105.564 20.7126C105.437 20.9665 105.373 21.157 105.31 21.3475C105.246 21.4745 105.246 21.6015 105.246 21.7284C105.246 21.8554 105.246 21.9189 105.31 21.9824C105.373 22.0459 105.373 22.1094 105.5 22.2364C105.564 22.2999 105.691 22.4269 105.882 22.4903L105.691 22.9983L101.369 21.157Z" fill="#002873"/>
<path d="M113.572 23.7601L110.648 21.9188L110.013 22.4268C109.822 22.5537 109.695 22.6807 109.504 22.8712C109.377 22.9982 109.25 23.1887 109.123 23.3791C108.869 23.8236 108.932 24.2045 109.377 24.522L109.059 24.9664L106.136 23.1252L106.454 22.6807C106.644 22.7442 106.835 22.8077 107.025 22.8077C107.216 22.8077 107.407 22.7442 107.661 22.6172C107.852 22.4903 108.169 22.3633 108.487 22.1093L116.177 16.395L118.02 17.5379L115.351 26.5537C115.224 26.9347 115.16 27.2522 115.16 27.4426C115.16 27.6331 115.16 27.8236 115.224 27.9506C115.288 28.0776 115.415 28.268 115.542 28.4585L115.224 28.903L111.474 26.4903L111.792 26.0458C112.046 26.1728 112.237 26.2363 112.428 26.1728C112.618 26.1728 112.745 26.0458 112.873 25.8553C112.936 25.7284 113.063 25.5379 113.127 25.3474C113.19 25.1569 113.317 24.903 113.381 24.5855L113.572 23.7601ZM111.474 21.2839L113.889 22.8712L115.224 18.3633L111.474 21.2839Z" fill="#002873"/>
<path d="M47.2212 119.189L46.2043 120.459L45.6324 120.014C45.823 119.633 45.8866 119.316 45.8866 118.998C45.8866 118.744 45.6959 118.49 45.5052 118.3C45.0604 117.919 44.5519 117.855 43.9164 118.109C43.3444 118.363 42.7089 118.935 42.0098 119.76C41.3742 120.586 40.9929 121.284 40.8658 121.855C40.7387 122.427 40.9293 122.871 41.3107 123.252C41.5013 123.443 41.7555 123.506 41.9462 123.57C42.1369 123.633 42.3275 123.57 42.5182 123.506C42.7089 123.443 42.9631 123.252 43.2173 123.062L43.7893 123.57L42.7089 124.903C42.3275 124.712 42.0098 124.522 41.692 124.395C41.3742 124.205 41.12 124.014 40.8022 123.76C40.1667 123.252 39.7854 122.744 39.5947 122.236C39.404 121.728 39.3405 121.157 39.5311 120.586C39.7218 120.014 40.0396 119.379 40.6116 118.681C41.12 118.046 41.692 117.601 42.264 117.284C42.836 116.966 43.4715 116.903 44.0435 116.966C44.679 117.03 45.251 117.347 45.823 117.792C46.1408 118.046 46.395 118.236 46.5857 118.49C46.8399 118.681 47.0306 118.935 47.2212 119.189Z" fill="#002873"/>
<path d="M45.1878 126.808C44.8701 126.617 44.6158 126.617 44.3616 126.744C44.1074 126.871 43.7261 127.252 43.1541 127.887L42.5186 127.506L43.9803 125.22L44.4887 125.538C45.3785 125.157 46.2683 124.586 47.2216 123.76C48.1113 122.998 48.7469 122.236 49.1918 121.601C49.3189 121.347 49.3824 121.157 49.3824 121.03C49.3189 120.903 49.2553 120.776 49.1282 120.649L49.3189 120.332L53.577 122.998L53.3863 123.316C53.1321 123.252 52.9415 123.189 52.8144 123.252C52.6872 123.316 52.4966 123.506 52.2424 123.951L49.3824 128.586L50.1451 129.03L48.6833 131.316L48.0478 130.935C48.3656 130.236 48.4927 129.728 48.5562 129.411C48.6198 129.093 48.4291 128.839 48.1113 128.649L45.1878 126.808ZM47.8571 127.57L51.1619 122.3L50.1451 121.665C48.5562 123.824 46.9674 125.284 45.3149 126.046L47.8571 127.57Z" fill="#002873"/>
<path d="M59.2962 125.665L58.5336 127.252L57.8345 126.935C57.898 126.554 57.898 126.3 57.8345 126.173C57.8345 126.046 57.7709 125.919 57.7074 125.792C57.6438 125.665 57.4532 125.538 57.1989 125.411L56.1185 124.903L54.9745 127.315L55.6736 127.633C55.8008 127.696 55.9279 127.76 56.055 127.76C56.1821 127.76 56.2456 127.696 56.3727 127.633C56.4998 127.569 56.627 127.442 56.7541 127.252L57.3261 127.506L56.3727 129.538L55.8008 129.284C55.8643 129.093 55.8643 128.903 55.8643 128.776C55.8643 128.649 55.8008 128.522 55.7372 128.458C55.6736 128.395 55.5465 128.331 55.4194 128.204L54.7203 127.887L53.4492 130.617L54.5297 131.125C54.6568 131.188 54.7203 131.188 54.8474 131.252C54.911 131.252 55.0381 131.252 55.1017 131.252C55.1652 131.252 55.2923 131.252 55.3559 131.188C55.4194 131.125 55.5465 131.125 55.6101 131.061C55.6736 130.998 55.8008 130.935 55.8643 130.808C55.9914 130.681 56.1185 130.554 56.2456 130.363L56.9447 130.681L55.9914 132.458L51.0342 130.109L51.1613 129.792C51.2884 129.792 51.4155 129.855 51.4791 129.792C51.5426 129.792 51.6697 129.728 51.7333 129.728C51.7968 129.728 51.8604 129.601 51.9239 129.474C51.9875 129.347 52.051 129.22 52.1146 129.093L54.1483 124.712C54.2119 124.585 54.2754 124.395 54.339 124.331C54.4026 124.204 54.4026 124.141 54.4026 124.014C54.4026 123.95 54.339 123.823 54.339 123.76C54.2754 123.696 54.2119 123.569 54.0848 123.506L54.2119 123.188L59.2962 125.665Z" fill="#002873"/>
<path d="M64.3174 135.443L61.3939 134.49L61.521 134.109C61.8388 134.109 62.093 134.109 62.1565 133.982C62.2836 133.855 62.3472 133.601 62.4743 133.284L64.1903 128.078L63.0463 127.697C62.7285 128.522 62.2836 129.347 61.7752 130.236C61.2668 131.125 60.7583 131.824 60.3135 132.395C59.8686 132.966 59.4873 133.347 59.1059 133.474C58.7882 133.601 58.4068 133.601 57.9619 133.474C57.6442 133.347 57.39 133.22 57.1357 133.03L57.5806 131.76L58.2797 131.951C58.2162 132.268 58.3433 132.458 58.5339 132.522C58.7246 132.585 58.9153 132.585 59.1059 132.458C59.2966 132.332 59.6144 132.014 59.9957 131.506C60.377 130.998 60.8219 130.3 61.2668 129.538C61.7117 128.776 61.9659 128.141 62.093 127.76C62.1565 127.506 62.2201 127.316 62.1565 127.189C62.093 127.062 61.9659 126.998 61.7752 126.871L61.9023 126.49L66.7324 128.078L66.6053 128.458C66.3511 128.458 66.1605 128.458 66.0333 128.522C65.9062 128.585 65.7791 128.839 65.652 129.284L64.1903 133.728C64.0632 134.173 63.9996 134.427 64.0632 134.554C64.1267 134.681 64.2538 134.808 64.508 134.998L64.3174 135.443Z" fill="#002873"/>
<path d="M70.3546 134.236L68.0031 133.792L67.7489 134.3C67.6853 134.427 67.6218 134.554 67.5582 134.681C67.4947 134.808 67.4311 134.935 67.4311 135.125C67.3676 135.506 67.4947 135.696 67.876 135.823L67.8124 136.204L65.4609 135.76L65.5245 135.379C65.6516 135.379 65.7787 135.379 65.9058 135.316C66.0329 135.252 66.16 135.189 66.2236 135.062C66.3507 134.935 66.4778 134.744 66.6049 134.49L70.0368 128.839L71.4986 129.093L72.1977 135.57C72.1977 135.887 72.2612 136.077 72.2612 136.204C72.3248 136.331 72.3248 136.458 72.4519 136.522C72.5155 136.585 72.6426 136.712 72.7697 136.776L72.7061 137.157L69.6555 136.585L69.7191 136.204C69.9097 136.204 70.0369 136.204 70.164 136.141C70.2911 136.077 70.3546 135.95 70.3546 135.823C70.3546 135.696 70.4182 135.57 70.4182 135.443C70.4182 135.316 70.4182 135.125 70.4182 134.871L70.3546 134.236ZM68.3209 133.22L70.2911 133.601L69.9733 130.363L68.3209 133.22Z" fill="#002873"/>
<path d="M80.6508 136.141C80.6508 136.459 80.6508 136.649 80.6508 136.713C80.6508 136.776 80.7144 136.903 80.7779 136.967C80.8415 137.03 80.9686 137.094 81.1593 137.157V137.538L78.2358 137.411V137.03C78.4264 136.967 78.6171 136.967 78.6806 136.903C78.7442 136.84 78.8077 136.776 78.8077 136.649C78.8077 136.522 78.8713 136.332 78.8713 136.014L78.9984 133.792L76.4562 133.665L76.3291 135.887C76.3291 136.014 76.3291 136.141 76.3291 136.268C76.3291 136.395 76.3291 136.459 76.3291 136.522C76.3291 136.586 76.3927 136.649 76.3927 136.713C76.4562 136.776 76.5198 136.84 76.5833 136.84C76.6469 136.84 76.774 136.903 76.8376 136.967V137.348L73.9141 137.221V136.84C74.0412 136.84 74.1683 136.776 74.2318 136.713C74.2954 136.649 74.3589 136.649 74.4225 136.522C74.486 136.395 74.486 136.332 74.486 136.205C74.486 136.078 74.4861 135.951 74.5496 135.76L74.8038 130.935C74.8038 130.744 74.8038 130.617 74.8038 130.49C74.8038 130.363 74.8038 130.3 74.7403 130.173C74.6767 130.11 74.6767 130.046 74.5496 129.983C74.4861 129.919 74.3589 129.856 74.2318 129.856V129.475L77.1553 129.602V129.983C76.9647 130.046 76.8376 130.11 76.7104 130.173C76.6469 130.237 76.5833 130.3 76.5198 130.427C76.4562 130.554 76.4562 130.744 76.4562 130.998L76.3291 132.84L78.8713 132.967L78.9984 131.125C78.9984 130.871 78.9984 130.617 78.9984 130.554C78.9984 130.427 78.9349 130.363 78.8713 130.3C78.8077 130.237 78.6806 130.173 78.49 130.11V129.729L81.4135 129.856V130.237C81.2228 130.3 81.0957 130.3 81.0321 130.363C80.9686 130.427 80.905 130.49 80.8415 130.554C80.7779 130.617 80.7779 130.744 80.7779 130.808C80.7779 130.935 80.7779 131.062 80.7144 131.252L80.6508 136.141Z" fill="#002873"/>
<path d="M86.2431 137.347C85.1627 137.411 84.3365 137.157 83.7009 136.586C83.1289 136.014 82.7476 135.062 82.6205 133.792C82.557 132.966 82.6205 132.205 82.8112 131.633C83.0018 130.998 83.3832 130.554 83.8916 130.173C84.4 129.792 84.972 129.601 85.6711 129.538C86.7515 129.474 87.6413 129.665 88.2768 130.3C88.9124 130.871 89.2302 131.824 89.3573 133.093C89.4208 133.792 89.3573 134.427 89.2302 134.935C89.1031 135.443 88.9124 135.887 88.6582 136.205C88.404 136.522 88.0226 136.84 87.6413 137.03C87.1964 137.22 86.7515 137.347 86.2431 137.347ZM84.4 133.538C84.4636 134.681 84.7178 135.506 85.0356 136.014C85.3534 136.522 85.7982 136.776 86.3067 136.713C86.5609 136.713 86.8151 136.586 87.0058 136.395C87.1964 136.205 87.3235 136.014 87.4506 135.697C87.5778 135.379 87.6413 135.062 87.6413 134.681C87.6413 134.3 87.6413 133.855 87.6413 133.411C87.5777 132.649 87.4506 132.078 87.3235 131.57C87.1964 131.062 86.9422 130.744 86.688 130.49C86.4338 130.236 86.116 130.173 85.7347 130.173C85.2262 130.236 84.8449 130.49 84.5907 131.062C84.3365 131.633 84.2729 132.459 84.4 133.538Z" fill="#002873"/>
<path d="M97.7468 131.189C98.3188 131.189 98.7637 131.379 99.0815 131.57C99.3993 131.824 99.6535 132.141 99.7806 132.522C99.8441 132.903 99.9077 133.221 99.8441 133.538C99.7806 133.855 99.6535 134.109 99.4628 134.363C99.2721 134.617 99.0179 134.808 98.7002 134.935C98.3824 135.125 98.0011 135.252 97.4291 135.379L94.1242 136.205L94.0607 135.824C94.1878 135.76 94.2514 135.697 94.3785 135.633C94.442 135.57 94.5056 135.506 94.5056 135.443C94.5056 135.379 94.5056 135.252 94.5056 135.125C94.5056 134.998 94.442 134.871 94.442 134.681L93.2345 130.046C93.1709 129.855 93.1709 129.728 93.1074 129.601C93.0438 129.474 93.0438 129.411 92.9803 129.347C92.9167 129.284 92.8532 129.221 92.7896 129.221C92.7261 129.221 92.5989 129.157 92.4083 129.157L92.3447 128.776L95.9038 127.887C96.2851 127.76 96.6664 127.697 96.9206 127.697C97.302 127.633 97.6197 127.697 97.874 127.76C98.1282 127.824 98.3188 127.951 98.5095 128.141C98.7002 128.332 98.8273 128.586 98.8908 128.903C98.9544 129.728 98.6366 130.49 97.7468 131.189ZM96.0309 131.316C96.4122 131.252 96.6664 131.125 96.8571 130.935C97.0477 130.808 97.1749 130.617 97.2384 130.363C97.302 130.173 97.302 129.855 97.1748 129.538C97.1113 129.221 96.9842 129.03 96.7935 128.84C96.6029 128.713 96.4122 128.586 96.2215 128.586C95.9673 128.586 95.7131 128.586 95.3953 128.649C95.1411 128.713 94.8869 128.776 94.6962 128.84L95.3318 131.443L96.0309 131.316ZM96.158 134.998C96.3486 134.935 96.6029 134.871 96.9206 134.808C97.2384 134.744 97.5562 134.617 97.7468 134.49C97.9375 134.363 98.0646 134.173 98.1282 133.919C98.1917 133.665 98.1917 133.348 98.0646 133.03C98.0011 132.776 97.9375 132.586 97.8104 132.395C97.6833 132.205 97.5562 132.078 97.4291 132.014C97.2384 131.951 97.1113 131.887 96.9206 131.887C96.73 131.887 96.4758 131.887 96.2215 131.951L95.4589 132.141L96.158 134.998Z" fill="#002873"/>
<path d="M104.42 133.221L104.293 132.903C104.483 132.713 104.61 132.586 104.61 132.459C104.61 132.332 104.547 132.078 104.42 131.76L102.45 127.379C102.322 126.998 102.132 126.808 102.068 126.744C101.941 126.681 101.75 126.617 101.496 126.681L101.369 126.363L106.771 124.014L107.534 125.728L106.835 126.046C106.453 125.665 106.199 125.411 106.009 125.347C105.818 125.284 105.564 125.284 105.246 125.474L103.848 126.109L104.865 128.459C105.31 128.205 105.691 128.014 106.009 127.887C106.835 127.506 107.597 127.379 108.169 127.506C108.741 127.633 109.186 128.078 109.504 128.776C110.076 130.109 109.504 131.189 107.661 132.014L104.42 133.221ZM106.263 131.697C107.153 131.379 107.725 130.998 107.915 130.681C108.106 130.3 108.042 129.855 107.852 129.347C107.407 128.395 106.771 128.141 105.818 128.522L105.627 128.586C105.373 128.713 105.182 128.776 105.055 128.903L106.263 131.697Z" fill="#002873"/>
<path d="M114.462 128.332C113.508 128.903 112.682 129.03 111.856 128.776C111.03 128.522 110.331 127.824 109.695 126.744C109.25 126.046 108.996 125.347 108.932 124.713C108.869 124.078 108.932 123.506 109.25 122.935C109.504 122.427 110.013 121.982 110.585 121.601C111.538 121.03 112.428 120.903 113.254 121.157C114.08 121.411 114.779 122.109 115.415 123.189C115.796 123.76 115.987 124.332 116.114 124.839C116.241 125.347 116.241 125.855 116.178 126.3C116.114 126.744 115.923 127.125 115.606 127.506C115.288 127.76 114.906 128.078 114.462 128.332ZM111.093 125.728C111.665 126.681 112.237 127.316 112.746 127.697C113.254 128.014 113.762 128.078 114.207 127.76C114.462 127.633 114.652 127.443 114.716 127.189C114.779 126.935 114.843 126.681 114.779 126.363C114.716 126.046 114.652 125.728 114.525 125.411C114.398 125.03 114.207 124.713 113.953 124.268C113.572 123.633 113.19 123.125 112.873 122.744C112.491 122.363 112.174 122.173 111.856 122.046C111.538 121.919 111.22 121.982 110.902 122.173C110.458 122.427 110.203 122.871 110.267 123.443C110.267 124.078 110.585 124.776 111.093 125.728Z" fill="#002873"/>
<path d="M123.932 121.474L121.516 123.379L121.262 123.061C121.453 122.807 121.516 122.617 121.516 122.427C121.453 122.3 121.326 122.046 121.135 121.728L117.767 117.411L116.813 118.173C117.258 118.871 117.767 119.696 118.212 120.649C118.657 121.538 118.974 122.363 119.229 123.061C119.419 123.76 119.546 124.268 119.483 124.649C119.419 125.03 119.229 125.347 118.847 125.601C118.593 125.792 118.339 125.982 118.021 126.046L117.195 124.966L117.767 124.522C118.021 124.776 118.212 124.776 118.402 124.649C118.529 124.522 118.657 124.395 118.657 124.141C118.657 123.887 118.593 123.506 118.339 122.871C118.085 122.236 117.83 121.538 117.385 120.712C116.941 119.887 116.623 119.315 116.369 118.998C116.178 118.807 116.051 118.681 115.924 118.617C115.797 118.617 115.669 118.617 115.479 118.744L115.225 118.427L119.229 115.315L119.483 115.633C119.292 115.823 119.229 116.014 119.229 116.141C119.229 116.268 119.356 116.522 119.673 116.903L122.533 120.522C122.788 120.839 123.042 121.093 123.169 121.093C123.296 121.157 123.487 121.093 123.741 120.966L123.932 121.474Z" fill="#002873"/>
<path d="M123.677 110.998L124.948 112.268L124.439 112.839C124.122 112.649 123.867 112.585 123.74 112.585C123.613 112.585 123.423 112.585 123.295 112.585C123.168 112.649 122.978 112.712 122.787 112.966L121.897 113.855L123.804 115.76L124.312 115.252C124.439 115.125 124.503 114.998 124.503 114.935C124.567 114.808 124.567 114.744 124.503 114.617C124.439 114.49 124.376 114.363 124.249 114.109L124.694 113.665L126.282 115.252L125.838 115.696C125.647 115.569 125.52 115.506 125.393 115.442C125.266 115.379 125.139 115.379 125.075 115.442C124.948 115.442 124.884 115.569 124.757 115.696L124.249 116.204L126.346 118.3L127.172 117.411C127.236 117.347 127.363 117.22 127.363 117.157C127.426 117.093 127.426 117.03 127.49 116.903C127.49 116.839 127.49 116.712 127.49 116.649C127.49 116.522 127.49 116.458 127.426 116.395C127.426 116.331 127.363 116.204 127.299 116.077C127.236 115.95 127.172 115.76 127.045 115.569L127.554 114.998L128.952 116.522L125.075 120.395L124.821 120.141C124.884 120.014 124.948 119.887 124.948 119.823C124.948 119.76 124.948 119.633 124.948 119.569C124.948 119.506 124.884 119.379 124.821 119.316C124.757 119.252 124.63 119.125 124.503 118.998L121.071 115.633C120.944 115.506 120.817 115.379 120.753 115.316C120.69 115.252 120.563 115.189 120.499 115.189C120.436 115.189 120.308 115.189 120.245 115.189C120.181 115.189 120.054 115.252 119.927 115.316L119.673 115.062L123.677 110.998Z" fill="#002873"/>
<path d="M127.681 106.3L128.952 107.316L128.507 107.887C128.126 107.697 127.808 107.633 127.49 107.633C127.236 107.633 126.982 107.824 126.791 108.014C126.41 108.459 126.346 108.966 126.601 109.601C126.855 110.173 127.427 110.808 128.253 111.506C129.079 112.141 129.778 112.522 130.35 112.649C130.922 112.776 131.367 112.586 131.749 112.205C131.939 112.014 132.003 111.76 132.066 111.57C132.13 111.379 132.066 111.189 132.003 110.998C131.939 110.808 131.749 110.554 131.558 110.3L132.066 109.728L133.401 110.808C133.21 111.189 133.02 111.506 132.893 111.824C132.702 112.141 132.511 112.395 132.257 112.712C131.749 113.347 131.24 113.728 130.732 113.919C130.223 114.109 129.651 114.173 129.079 113.982C128.507 113.792 127.872 113.474 127.173 112.903C126.537 112.395 126.092 111.824 125.774 111.252C125.457 110.681 125.393 110.046 125.457 109.474C125.52 108.839 125.838 108.268 126.283 107.697C126.537 107.379 126.728 107.125 126.982 106.935C127.173 106.681 127.427 106.49 127.681 106.3Z" fill="#002873"/>
<path d="M138.167 103.633L136.579 106.236L136.261 106.046C136.388 105.729 136.388 105.538 136.261 105.411C136.197 105.284 135.943 105.094 135.625 104.903L130.986 102.046L130.35 103.125C131.049 103.633 131.748 104.268 132.511 104.967C133.274 105.665 133.846 106.3 134.291 106.871C134.735 107.443 134.99 107.887 135.053 108.268C135.117 108.649 135.053 109.03 134.799 109.411C134.608 109.729 134.418 109.919 134.227 110.109L133.083 109.411L133.464 108.776C133.782 108.903 133.973 108.84 134.1 108.649C134.227 108.522 134.227 108.332 134.163 108.078C134.1 107.824 133.846 107.506 133.464 106.998C133.083 106.49 132.511 105.919 131.812 105.348C131.176 104.713 130.668 104.332 130.287 104.078C130.032 103.951 129.842 103.887 129.778 103.887C129.651 103.887 129.524 104.014 129.397 104.141L129.079 103.951L131.748 99.6333L132.066 99.8238C132.003 100.078 131.939 100.268 132.003 100.395C132.066 100.522 132.257 100.713 132.638 100.967L136.579 103.379C136.96 103.633 137.214 103.697 137.341 103.697C137.468 103.697 137.659 103.57 137.85 103.379L138.167 103.633Z" fill="#002873"/>
<path d="M138.422 97.5377L137.468 99.6964L137.85 100.077C137.977 100.204 138.104 100.268 138.167 100.395C138.295 100.458 138.422 100.585 138.549 100.649C138.867 100.776 139.121 100.712 139.311 100.331L139.629 100.458L138.676 102.617L138.358 102.49C138.422 102.363 138.422 102.236 138.358 102.109C138.295 101.982 138.295 101.855 138.167 101.728C138.104 101.601 137.913 101.411 137.723 101.22L133.02 96.5218L133.655 95.1885L140.138 96.0774C140.455 96.1409 140.646 96.1409 140.773 96.1409C140.9 96.1409 141.027 96.1409 141.091 96.0774C141.218 96.0139 141.282 95.9504 141.409 95.8234L141.726 95.9504L140.455 98.744L140.138 98.617C140.201 98.4266 140.201 98.2996 140.138 98.1726C140.074 98.0456 140.011 97.9821 139.883 97.9186C139.756 97.8551 139.629 97.8551 139.502 97.7916C139.375 97.7282 139.184 97.7282 138.93 97.6647L138.422 97.5377ZM136.96 99.252L137.786 97.4107L134.545 96.9028L136.96 99.252Z" fill="#002873"/>
<path d="M139.819 88.9665C140.137 88.5221 140.455 88.2046 140.836 88.0142C141.218 87.8237 141.599 87.8237 142.044 87.9507C142.425 88.0776 142.679 88.2046 142.934 88.3951C143.188 88.5856 143.315 88.8396 143.442 89.157C143.506 89.4745 143.569 89.7919 143.569 90.1094C143.569 90.4903 143.442 90.8713 143.315 91.3792L142.298 94.6808L141.917 94.5538C141.917 94.4269 141.917 94.2999 141.917 94.2364C141.917 94.1729 141.853 94.0459 141.79 93.9824C141.726 93.9189 141.663 93.8554 141.535 93.8554C141.408 93.7919 141.281 93.7919 141.091 93.7284L136.515 92.3316C136.324 92.2681 136.197 92.2681 136.07 92.2046C135.943 92.2046 135.879 92.2046 135.752 92.2046C135.688 92.2046 135.625 92.2681 135.498 92.3316C135.434 92.3951 135.371 92.4586 135.307 92.5856L134.926 92.4586L136.006 88.9665C136.133 88.5856 136.26 88.2681 136.388 88.0142C136.515 87.6967 136.705 87.4427 136.96 87.2522C137.15 87.0618 137.341 86.9348 137.595 86.8713C137.849 86.8078 138.103 86.8078 138.421 86.9348C139.184 87.1888 139.629 87.8872 139.819 88.9665ZM138.993 90.5538C139.12 90.1729 139.12 89.9189 139.12 89.6649C139.057 89.411 138.993 89.2205 138.803 89.0935C138.675 88.903 138.421 88.7761 138.04 88.7126C137.722 88.6491 137.468 88.5856 137.277 88.6491C137.087 88.7126 136.896 88.8395 136.769 89.03C136.642 89.2205 136.515 89.4745 136.388 89.7919C136.324 90.0459 136.26 90.2999 136.197 90.5538L138.739 91.3157L138.993 90.5538ZM142.235 92.3316C142.298 92.1411 142.362 91.8872 142.489 91.6332C142.616 91.3157 142.616 90.9983 142.616 90.7443C142.616 90.4903 142.489 90.2999 142.362 90.1094C142.171 89.9189 141.917 89.7919 141.535 89.6649C141.281 89.6014 141.027 89.538 140.836 89.538C140.646 89.538 140.455 89.6014 140.328 89.6649C140.201 89.7284 140.074 89.8554 139.947 90.0459C139.819 90.2364 139.756 90.4268 139.692 90.6808L139.438 91.4427L142.235 92.3316Z" fill="#002873"/>
<path d="M144.904 80.5854L145.095 79.5695L147.764 80.014L147.637 80.7759C146.811 80.7759 146.239 80.8394 145.921 80.9663C145.667 81.0933 145.476 81.2838 145.413 81.6013L144.459 87.0616L144.078 86.9981C144.078 86.7441 144.015 86.5536 143.887 86.4267C143.76 86.3632 143.506 86.2362 143.188 86.1727L138.422 85.3473C138.04 85.2838 137.786 85.2838 137.659 85.3473C137.532 85.4108 137.405 85.5378 137.278 85.7917L136.896 85.7282L137.405 82.8076L137.786 82.8711C137.786 83.1251 137.85 83.3156 137.977 83.379C138.104 83.4425 138.295 83.506 138.74 83.633L144.142 84.5854L144.523 82.2997L139.121 81.3473C138.74 81.2838 138.485 81.2838 138.358 81.3473C138.231 81.4108 138.104 81.5378 137.977 81.7917L137.596 81.7283L138.104 78.8076L138.485 78.8711C138.485 79.1251 138.549 79.3155 138.676 79.379C138.803 79.4425 139.057 79.5695 139.375 79.633L144.904 80.5854Z" fill="#002873"/>
<path d="M138.485 72.395L140.264 72.4585L140.201 73.2204C139.819 73.3474 139.629 73.4109 139.438 73.4744C139.311 73.5379 139.184 73.6649 139.12 73.7918C139.057 73.9188 138.993 74.1093 138.993 74.3633L138.93 75.5696L141.599 75.6966L141.662 74.9347C141.662 74.7442 141.662 74.6172 141.599 74.5538C141.535 74.4903 141.472 74.3633 141.408 74.2998C141.281 74.2363 141.154 74.1728 140.9 74.1093V73.4744L143.188 73.6014V74.2363C142.997 74.2998 142.806 74.2998 142.679 74.3633C142.552 74.4268 142.489 74.4903 142.425 74.5538C142.362 74.6172 142.362 74.7442 142.362 74.9347L142.298 75.6966L145.285 75.8236L145.349 74.6172C145.349 74.4903 145.349 74.3633 145.349 74.2998C145.349 74.2363 145.285 74.1093 145.285 74.0458C145.222 73.9823 145.222 73.9188 145.158 73.8553C145.094 73.7918 145.031 73.7284 144.967 73.6649C144.904 73.6014 144.777 73.5379 144.65 73.4744C144.522 73.4109 144.332 73.3474 144.078 73.2839L144.141 72.522L146.175 72.7125L145.921 78.1728H145.539C145.539 78.0458 145.476 77.9188 145.412 77.8553C145.349 77.7918 145.285 77.7284 145.222 77.6649C145.158 77.6014 145.031 77.6014 144.904 77.6014C144.777 77.6014 144.65 77.6014 144.459 77.5379L139.629 77.3474C139.438 77.3474 139.311 77.3474 139.184 77.3474C139.057 77.3474 138.993 77.3474 138.866 77.4109C138.803 77.4744 138.739 77.4744 138.675 77.6014C138.612 77.7284 138.548 77.7918 138.548 77.9188H138.167L138.485 72.395Z" fill="#002873"/>
<path d="M143.939 19.6657L-0.00195312 86.7183L18.0735 125.445L162.014 58.3921L143.939 19.6657Z" fill="#002873"/>
<path d="M141.916 23.521L4.42676 87.5684L4.80277 88.374L142.292 24.3266L141.916 23.521Z" fill="white"/>
<path d="M157.368 56.5918L19.8789 120.639L20.2549 121.445L157.744 57.3974L157.368 56.5918Z" fill="white"/>
<path d="M35.845 108.522C35.7814 108.839 35.5272 109.093 35.0188 109.284L33.0486 110.236C32.5402 110.49 32.1588 110.49 31.9046 110.3C31.6504 110.109 31.3962 109.728 31.142 109.157L27.138 100.522C27.0109 100.204 26.8838 100.014 26.7567 99.9504C26.6296 99.8869 26.4389 99.8869 26.1847 100.014L23.9603 101.03C23.7061 101.157 23.579 101.284 23.579 101.411C23.579 101.538 23.6425 101.792 23.7697 102.109L27.7736 110.744C28.0278 111.315 28.1549 111.696 28.1549 112.077C28.1549 112.395 27.9007 112.712 27.3922 112.903L25.4221 113.855C24.9772 114.046 24.5959 114.109 24.2781 113.982C23.9603 113.855 23.7061 113.474 23.3883 112.776L13.2832 91.125C13.029 90.5536 12.9019 90.0456 12.9654 89.7282C13.029 89.4107 13.2832 89.1567 13.7281 88.9028L15.7618 87.9504C16.2067 87.7599 16.5245 87.7599 16.8422 87.8869C17.0964 88.0774 17.4142 88.3948 17.6684 88.9663L21.0368 96.1409C21.1639 96.4583 21.291 96.5853 21.4181 96.6488C21.5453 96.7123 21.7359 96.6488 21.9266 96.5853L24.2145 95.5059C24.4052 95.4425 24.5323 95.3155 24.5959 95.1885C24.6594 95.0615 24.5959 94.871 24.4688 94.5536L21.1004 87.379C20.8462 86.8075 20.719 86.4266 20.7826 86.0456C20.8462 85.7282 21.0368 85.4742 21.4817 85.2837L23.5154 84.3313C23.9603 84.1409 24.3416 84.0774 24.6594 84.2678C24.9772 84.3948 25.2314 84.7758 25.5492 85.4107L35.6543 107.061C35.7814 107.76 35.9085 108.204 35.845 108.522Z" fill="white"/>
<path d="M52.3059 101.284L48.7468 102.935C48.5562 102.998 48.3655 103.062 48.2384 102.998C48.1113 102.935 47.9842 102.808 47.7935 102.554L44.6158 97.6016C44.4252 97.3476 44.298 97.2206 44.1709 97.2206C44.0438 97.1571 43.9167 97.2206 43.6625 97.2841L42.0736 98.046C41.883 98.1095 41.7559 98.2365 41.6923 98.3635C41.6288 98.4905 41.6288 98.6809 41.6923 98.9349L43.5989 104.522C43.6625 104.776 43.7261 104.967 43.6625 105.094C43.5989 105.221 43.4718 105.348 43.2176 105.475L39.7857 107.062C39.3408 107.252 39.023 107.189 38.8959 106.808L31.2059 82.4905C31.0152 81.919 31.0152 81.4746 31.1423 81.1571C31.2694 80.8397 31.5872 80.5857 32.0956 80.3317L36.4173 78.3C36.8622 78.1095 37.2435 78.046 37.5613 78.173C37.8791 78.3 38.1968 78.6174 38.5146 79.1254L52.433 100.459C52.8143 100.776 52.6872 101.094 52.3059 101.284ZM36.9257 84.1412C36.7351 83.7603 36.5444 83.6333 36.3538 83.6968C36.1631 83.7603 36.1631 84.0143 36.3538 84.4587L39.7221 93.2841C39.7857 93.6016 40.0399 93.6651 40.4212 93.4746L41.3745 93.0301C41.7559 92.8397 41.883 92.6492 41.6923 92.3952L36.9257 84.1412Z" fill="white"/>
<path d="M68.0032 93.4745C67.9396 93.792 67.6219 94.046 67.1134 94.2999L65.3975 95.1253C64.9526 95.3158 64.6348 95.4428 64.3806 95.3793C64.1899 95.3158 63.8086 95.0618 63.3637 94.6809L55.9279 86.8079C55.7372 86.6174 55.6101 86.4904 55.5465 86.4904C55.483 86.4269 55.3559 86.4269 55.2923 86.4904C55.2288 86.5539 55.1652 86.6174 55.2288 86.6809C55.2288 86.8079 55.3559 86.9984 55.483 87.2523L59.4869 95.8872C59.7411 96.4587 59.8682 96.9031 59.8047 97.2206C59.7411 97.538 59.5505 97.8555 59.042 98.046L57.0718 98.9349C56.627 99.1253 56.2456 99.1888 55.9279 99.1253C55.6101 99.0618 55.2923 98.6174 54.911 97.919L44.8694 76.3317C44.5516 75.6968 44.4245 75.1888 44.5516 74.9349C44.6787 74.6809 44.933 74.3634 45.4414 74.1095L47.1574 73.2841C47.6022 73.0936 47.92 72.9666 48.1742 73.0301C48.3649 73.0936 48.7462 73.3476 49.1911 73.7285L56.627 81.538C56.8176 81.7285 56.9447 81.8555 57.0083 81.8555C57.0718 81.919 57.199 81.919 57.2625 81.8555C57.3261 81.792 57.3896 81.7285 57.3261 81.665C57.2625 81.6015 57.199 81.3476 57.0718 81.0936L53.0679 72.5222C52.8137 71.9507 52.6866 71.5063 52.7501 71.1888C52.8137 70.8714 53.0044 70.5539 53.5128 70.3634L55.483 69.4745C55.9279 69.2841 56.3092 69.2206 56.627 69.2841C56.9447 69.3476 57.2625 69.792 57.6438 70.4904L67.6854 92.0142C67.9396 92.7126 68.0667 93.1571 68.0032 93.4745Z" fill="white"/>
<path d="M78.4897 73.8551C79.7608 76.5853 80.7141 78.744 81.3496 80.4583C81.9852 82.1726 82.3665 83.5059 82.43 84.5218C82.4936 85.5376 82.3029 86.363 81.7945 86.9345C81.2861 87.5059 80.587 88.0138 79.6336 88.4583L73.596 91.2519C73.024 91.5059 72.6427 91.5694 72.3885 91.4424C72.1342 91.3154 71.88 90.9345 71.5622 90.2361L61.4571 68.6488C61.1393 68.0138 61.0758 67.5694 61.1393 67.2519C61.2029 66.9345 61.4571 66.6805 61.902 66.4265L68.2574 63.4424C69.2743 62.9345 70.2276 62.8075 71.0538 62.9345C71.88 63.0615 72.6427 63.5694 73.4053 64.4583C74.168 65.2837 74.9306 66.49 75.7568 68.0138C76.5195 69.6646 77.4092 71.5694 78.4897 73.8551ZM74.2315 76.3313C73.2782 74.2361 72.5156 72.6488 71.9436 71.5694C71.3716 70.4265 70.9267 69.6646 70.5454 69.1567C70.1641 68.7122 69.7827 68.4583 69.465 68.5218C69.1472 68.5218 68.7023 68.7122 68.1939 68.9027C67.6854 69.1567 67.3677 69.3472 67.2406 69.5376C67.1134 69.7281 67.177 70.1091 67.4312 70.5535L73.9138 84.5218C74.1044 84.9662 74.3586 85.2202 74.5493 85.2837C74.74 85.3472 75.1213 85.1567 75.8204 84.9027C76.2653 84.7122 76.583 84.4583 76.8373 84.2678C77.0915 84.0138 77.155 83.6329 77.0279 83.1249C76.9008 82.5535 76.6466 81.7916 76.2017 80.7122C75.7568 79.6329 75.1213 78.1726 74.2315 76.3313Z" fill="white"/>
<path d="M102.895 77.3471C102.831 77.6011 102.577 77.8551 102.005 78.109L100.035 78.9979C99.5264 79.2519 99.145 79.2519 98.8908 79.1249C98.6366 78.9979 98.3824 78.617 98.0646 77.9821L93.3616 67.8868C93.298 67.6963 93.1709 67.5059 93.1074 67.3154C93.0438 67.1249 92.9167 66.9979 92.7896 67.0614C92.726 67.1249 92.6625 67.1884 92.726 67.3789C92.726 67.5694 92.7896 67.7598 92.8532 68.0138L94.7598 76.0773C94.8869 76.5852 94.8869 76.9662 94.7598 77.2202C94.6327 77.4741 94.3785 77.6646 93.9336 77.8551C93.4887 78.0456 93.1709 78.109 92.9167 78.0456C92.6625 77.9821 92.3447 77.7916 92.0269 77.3471L87.0697 70.6805C86.9426 70.49 86.8155 70.363 86.6884 70.1725C86.5613 70.0456 86.4342 69.9821 86.3706 69.9821C86.2435 70.0456 86.2435 70.1725 86.3706 70.363C86.4977 70.5535 86.5613 70.744 86.6248 70.9344L91.3278 81.0297C91.5821 81.6011 91.7092 82.0456 91.7092 82.363C91.6456 82.6805 91.3914 82.9344 90.883 83.1249L88.9128 84.0138C88.4043 84.2678 88.023 84.3313 87.7688 84.2043C87.5146 84.0773 87.2604 83.6963 86.9426 82.9979L76.7739 61.2202C76.4561 60.5852 76.3926 60.1408 76.3926 59.8868C76.4561 59.6329 76.7104 59.3789 77.2188 59.1249L79.4432 58.2995C80.0152 58.0456 80.4601 57.9186 80.7143 57.9186C80.9685 57.9821 81.2863 58.1725 81.6676 58.6805L88.3408 66.49C88.5315 66.6805 88.6586 66.744 88.7857 66.6805C88.9128 66.617 88.9763 66.49 88.9128 66.236L87.2604 56.1408C87.1968 55.5694 87.1968 55.1249 87.3239 54.9344C87.451 54.744 87.8324 54.49 88.4044 54.1725L90.4381 53.2202C90.9465 52.9662 91.3278 52.9662 91.5185 53.0932C91.7727 53.2202 92.0269 53.6011 92.3447 54.236L102.513 76.0138C102.831 76.5852 102.958 77.0297 102.895 77.3471Z" fill="white"/>
<path d="M119.292 70.0458L115.733 71.6966C115.543 71.7601 115.352 71.8236 115.225 71.7601C115.098 71.6966 114.971 71.5696 114.78 71.3157L111.602 66.3633C111.411 66.1093 111.284 65.9823 111.157 65.9823C111.03 65.9188 110.903 65.9823 110.649 66.0458L109.06 66.8077C108.869 66.8712 108.742 66.9982 108.679 67.1252C108.615 67.2522 108.615 67.4427 108.679 67.6966L110.585 73.2839C110.649 73.5379 110.712 73.7284 110.649 73.8554C110.585 73.9823 110.458 74.1093 110.204 74.2363L106.772 75.8236C106.327 76.0141 106.009 75.9506 105.882 75.5696L98.1922 51.2522C98.0015 50.6808 98.0015 50.2363 98.1286 49.9188C98.2557 49.6014 98.5735 49.3474 99.0819 49.0934L103.404 47.0617C103.849 46.8712 104.23 46.8077 104.548 46.9347C104.865 47.0617 105.183 47.3792 105.501 47.8871L119.419 69.2204C119.801 69.6014 119.674 69.8554 119.292 70.0458ZM103.912 52.9665C103.721 52.5855 103.531 52.4585 103.34 52.522C103.149 52.5855 103.149 52.8395 103.34 53.2839L106.708 62.1093C106.772 62.4268 107.026 62.4903 107.408 62.2998L108.361 61.8554C108.742 61.6649 108.869 61.4744 108.679 61.2204L103.912 52.9665Z" fill="white"/>
<path d="M129.016 50.3634C130.287 53.0936 131.24 55.2523 131.876 56.9666C132.512 58.6809 132.893 60.0142 132.956 61.0301C133.02 62.046 132.829 62.8713 132.321 63.4428C131.812 64.0142 131.113 64.5221 130.16 64.9666L124.122 67.7602C123.55 68.0142 123.169 68.0777 122.915 67.9507C122.661 67.8237 122.406 67.4428 122.089 66.7444L111.983 45.1571C111.666 44.5221 111.602 44.0777 111.666 43.7602C111.729 43.4428 111.983 43.1888 112.428 42.9348L118.784 39.9507C119.801 39.4428 120.754 39.3158 121.58 39.4428C122.406 39.5698 123.169 40.0777 123.932 40.9666C124.694 41.792 125.457 42.9983 126.283 44.5221C127.046 46.1729 127.936 48.0777 129.016 50.3634ZM124.758 52.7761C123.805 50.6809 123.042 49.0936 122.47 48.0142C121.898 46.8713 121.453 46.1094 121.072 45.6015C120.69 45.1571 120.309 44.9031 119.991 44.9666C119.674 44.9666 119.229 45.1571 118.72 45.3475C118.212 45.6015 117.894 45.792 117.767 45.9825C117.64 46.1729 117.703 46.5539 117.958 46.9983L124.44 60.9666C124.631 61.411 124.885 61.665 125.076 61.7285C125.266 61.792 125.648 61.6015 126.347 61.3475C126.792 61.1571 127.109 60.9031 127.364 60.7126C127.618 60.4586 127.681 60.0777 127.554 59.5698C127.427 58.9983 127.173 58.2364 126.728 57.1571C126.283 56.0777 125.648 54.6809 124.758 52.7761Z" fill="white"/>
<path d="M148.018 56.2045C147.955 56.522 147.701 56.8394 147.192 57.0299L139.566 60.5855C139.057 60.8394 138.676 60.8394 138.422 60.7124C138.168 60.5855 137.85 60.2045 137.532 59.5061L127.427 37.9188C127.109 37.2839 127.046 36.8394 127.109 36.522C127.173 36.2045 127.49 35.9505 127.935 35.6966L135.371 32.268C135.816 32.0775 136.197 32.014 136.452 32.0775C136.706 32.2045 136.96 32.522 137.214 33.1569L137.85 34.5537C138.168 35.1886 138.231 35.6331 138.168 35.887C138.104 36.2045 137.85 36.4585 137.341 36.6489L133.655 38.3632C133.401 38.4902 133.21 38.6172 133.21 38.7442C133.147 38.8712 133.21 39.1251 133.401 39.5061L134.99 42.9982C135.18 43.3156 135.308 43.5696 135.371 43.6331C135.498 43.6966 135.689 43.6331 136.007 43.5061L137.85 42.6172C138.295 42.4267 138.612 42.3632 138.803 42.4902C139.057 42.6172 139.248 42.8712 139.502 43.3791L140.392 45.2839C140.646 45.7918 140.71 46.1728 140.583 46.3632C140.519 46.6172 140.265 46.8077 139.883 46.9982L138.04 47.887C137.786 48.014 137.596 48.141 137.532 48.268C137.468 48.395 137.532 48.522 137.596 48.7759L140.011 53.9823C140.138 54.2997 140.265 54.4902 140.455 54.5537C140.583 54.6172 140.837 54.6172 141.218 54.4267L144.904 52.7124C145.413 52.4585 145.794 52.4585 146.112 52.5855C146.43 52.7124 146.684 53.0934 147.002 53.6648L147.574 54.8712C148.018 55.3791 148.146 55.887 148.018 56.2045Z" fill="white"/>
<path d="M46.3657 60.8679C47.5428 60.3196 48.052 58.9219 47.5032 57.7461C46.9543 56.5702 45.5553 56.0615 44.3782 56.6098C43.2012 57.1581 42.692 58.5558 43.2408 59.7316C43.7896 60.9075 45.1887 61.4162 46.3657 60.8679Z" fill="#002873"/>
<path d="M45.3781 62.4905C43.9799 62.4905 42.6452 61.6651 42.0097 60.3318C41.1199 58.4905 41.9461 56.2683 43.7892 55.3794C45.6323 54.4905 47.8567 55.3159 48.7464 57.1572C49.6362 58.9985 48.81 61.2207 46.9669 62.1096C46.4585 62.3636 45.8865 62.4905 45.3781 62.4905ZM45.3781 57.7286C45.2509 57.7286 45.0603 57.7286 44.9332 57.8556C44.4247 58.1096 44.1705 58.681 44.4247 59.189C44.679 59.6969 45.2509 59.8874 45.7594 59.6969C46.2678 59.4429 46.4585 58.8715 46.2678 58.3636C46.1407 57.9191 45.7594 57.7286 45.3781 57.7286Z" fill="#002873"/>
<path d="M62.9048 53.1946C64.0818 52.6463 64.5911 51.2486 64.0422 50.0727C63.4934 48.8969 62.0943 48.3881 60.9173 48.9364C59.7403 49.4847 59.231 50.8824 59.7799 52.0583C60.3287 53.2341 61.7278 53.7429 62.9048 53.1946Z" fill="#002873"/>
<path d="M61.9025 54.7445C60.5043 54.7445 59.1696 53.9191 58.5341 52.5858C57.6443 50.7445 58.4705 48.5223 60.3136 47.6334C61.2034 47.189 62.2202 47.189 63.1736 47.5064C64.1269 47.8239 64.826 48.5223 65.2708 49.4112C65.7157 50.3001 65.7157 51.316 65.398 52.2683C65.0802 53.2207 64.3811 53.9191 63.4913 54.3636C62.9829 54.6176 62.4745 54.7445 61.9025 54.7445ZM61.9025 50.0461C61.7754 50.0461 61.5847 50.1096 61.4576 50.1731C60.9492 50.4271 60.6949 50.9985 60.9492 51.5064C61.2034 52.0144 61.7754 52.2049 62.2838 52.0144C62.538 51.8874 62.7287 51.6969 62.7922 51.4429C62.8558 51.189 62.8558 50.935 62.7287 50.681C62.6016 50.4271 62.4109 50.2366 62.1567 50.1731C62.1567 50.0461 62.0296 50.0461 61.9025 50.0461Z" fill="#002873"/>
<path d="M79.4732 45.4368C80.6502 44.8885 81.1594 43.4908 80.6106 42.3149C80.0618 41.1391 78.6627 40.6303 77.4857 41.1786C76.3086 41.7269 75.7994 43.1246 76.3482 44.3005C76.8971 45.4763 78.2961 45.9851 79.4732 45.4368Z" fill="#002873"/>
<path d="M78.4894 47.0618C77.0912 47.0618 75.7565 46.2364 75.121 44.9031C74.2312 43.0618 75.0574 40.8396 76.9005 39.9507C78.7436 39.0618 80.968 39.8872 81.8578 41.7285C82.7475 43.5698 81.9213 45.792 80.0782 46.6809C79.5063 46.9349 78.9978 47.0618 78.4894 47.0618ZM78.4894 42.2999C78.3623 42.2999 78.1716 42.2999 78.0445 42.4269C77.5361 42.6809 77.2819 43.2523 77.5361 43.7603C77.7903 44.2682 78.3623 44.4587 78.8707 44.2682C79.3791 44.0142 79.6334 43.4428 79.3791 42.9349C79.1885 42.5539 78.8707 42.2999 78.4894 42.2999Z" fill="#002873"/>
<path d="M96.0122 37.7634C97.1892 37.2152 97.6985 35.8174 97.1496 34.6416C96.6008 33.4657 95.2017 32.957 94.0247 33.5053C92.8477 34.0536 92.3385 35.4513 92.8873 36.6271C93.4361 37.803 94.8352 38.3117 96.0122 37.7634Z" fill="#002873"/>
<path d="M95.0138 39.3157C93.6156 39.3157 92.281 38.4903 91.6454 37.157C90.7557 35.3157 91.5819 33.0935 93.4249 32.2046C95.268 31.3157 97.4924 32.1411 98.3822 33.9824C99.2719 35.8237 98.4457 38.0459 96.6027 38.9348C96.0942 39.2523 95.5222 39.3157 95.0138 39.3157ZM95.0138 34.6173C94.8867 34.6173 94.696 34.6173 94.5689 34.7443C94.0605 34.9983 93.8063 35.5697 94.0605 36.0776C94.3147 36.5856 94.8867 36.7761 95.3951 36.5856C95.9036 36.3316 96.0942 35.7602 95.9036 35.2523C95.7764 34.8078 95.3951 34.6173 95.0138 34.6173Z" fill="#002873"/>
<path d="M50.0435 47.0242C51.2205 46.4759 51.7297 45.0782 51.1809 43.9023C50.6321 42.7265 49.233 42.2177 48.056 42.766C46.879 43.3143 46.3697 44.712 46.9186 45.8879C47.4674 47.0637 48.8665 47.5725 50.0435 47.0242Z" fill="#002873"/>
<path d="M49.0646 48.6492C47.6664 48.6492 46.3317 47.8238 45.6962 46.4905C44.8064 44.6492 45.6326 42.427 47.4757 41.5381C49.3188 40.6492 51.5432 41.4746 52.433 43.3159C53.3227 45.1572 52.4965 47.3794 50.6534 48.2683C50.0814 48.5223 49.573 48.6492 49.0646 48.6492ZM49.0646 43.8873C48.9375 43.8873 48.7468 43.8873 48.6197 43.9508C48.1113 44.2048 47.857 44.7762 48.1113 45.2842C48.3655 45.7921 48.9375 45.9826 49.4459 45.7921C49.9543 45.5381 50.145 44.9667 49.9543 44.4588C49.7637 44.1413 49.4459 43.8873 49.0646 43.8873Z" fill="#002873"/>
<path d="M66.5816 39.3508C67.7586 38.8026 68.2678 37.4048 67.719 36.229C67.1702 35.0531 65.7711 34.5444 64.5941 35.0927C63.417 35.641 62.9078 37.0387 63.4566 38.2145C64.0055 39.3904 65.4045 39.8991 66.5816 39.3508Z" fill="#002873"/>
<path d="M65.5881 40.9667C64.1899 40.9667 62.8553 40.1413 62.2197 38.808C61.7748 37.9191 61.7748 36.9032 62.0926 35.9508C62.4104 34.9985 63.1095 34.3 63.9992 33.8556C64.889 33.4112 65.9059 33.4111 66.8592 33.7286C67.8125 34.0461 68.5116 34.7445 68.9565 35.6334C69.8462 37.4746 69.02 39.6969 67.1769 40.5858C66.6685 40.8397 66.0965 40.9667 65.5881 40.9667ZM65.5881 36.2048C65.461 36.2048 65.2703 36.2683 65.1432 36.3318C64.889 36.4588 64.6983 36.6492 64.6348 36.9032C64.5712 37.1572 64.5712 37.4111 64.6983 37.6651C64.9525 38.1731 65.5245 38.3635 66.033 38.1731C66.5414 37.9191 66.7321 37.3477 66.5414 36.8397C66.4143 36.5858 66.2236 36.3953 65.9694 36.3318C65.8423 36.2048 65.7152 36.2048 65.5881 36.2048Z" fill="#002873"/>
<path d="M83.1206 31.6775C84.2976 31.1292 84.8069 29.7315 84.258 28.5556C83.7092 27.3798 82.3101 26.871 81.1331 27.4193C79.9561 27.9676 79.4469 29.3653 79.9957 30.5412C80.5445 31.7171 81.9436 32.2258 83.1206 31.6775Z" fill="#002873"/>
<path d="M82.1759 33.2205C80.7777 33.2205 79.4431 32.3951 78.8075 31.0618C77.9178 29.2205 78.744 26.9983 80.587 26.1094C82.4301 25.2205 84.6545 26.0459 85.5443 27.8872C85.9892 28.7761 85.9892 29.792 85.6714 30.7443C85.3536 31.6967 84.6545 32.3951 83.7648 32.8396C83.1928 33.0935 82.6843 33.2205 82.1759 33.2205ZM82.1123 28.4586C81.9852 28.4586 81.7946 28.4586 81.6675 28.5856C81.159 28.8396 80.9684 29.411 81.159 29.9189C81.4132 30.4269 81.9852 30.6174 82.4937 30.4269C82.7479 30.2999 82.9386 30.1094 83.0021 29.8555C83.0657 29.6015 83.0657 29.3475 82.9386 29.0935C82.875 28.7126 82.4937 28.4586 82.1123 28.4586Z" fill="#002873"/>
<path d="M117.608 88.4431C118.785 87.8948 119.294 86.4971 118.745 85.3213C118.197 84.1454 116.797 83.6367 115.62 84.185C114.443 84.7333 113.934 86.131 114.483 87.3068C115.032 88.4827 116.431 88.9914 117.608 88.4431Z" fill="#002873"/>
<path d="M116.686 90.0458C115.287 90.0458 113.953 89.2204 113.317 87.8871C112.428 86.0458 113.254 83.8236 115.097 82.9347C115.987 82.4903 117.003 82.4903 117.957 82.8077C118.91 83.1252 119.609 83.8236 120.054 84.7125C120.499 85.6014 120.499 86.6172 120.181 87.5696C119.863 88.522 119.164 89.2204 118.275 89.6648C117.703 89.9188 117.194 90.0458 116.686 90.0458ZM116.622 85.2839C116.495 85.2839 116.304 85.2839 116.177 85.4109C115.669 85.6648 115.415 86.2363 115.669 86.7442C115.923 87.2522 116.495 87.4426 117.003 87.2522C117.512 86.9982 117.703 86.4268 117.512 85.9188C117.385 85.6649 117.194 85.4744 116.94 85.4109C116.876 85.3474 116.749 85.2839 116.622 85.2839Z" fill="#002873"/>
<path d="M101.096 96.1741C102.273 95.6258 102.782 94.2281 102.234 93.0522C101.685 91.8764 100.286 91.3676 99.1087 91.9159C97.9317 92.4642 97.4225 93.8619 97.9713 95.0378C98.5201 96.2136 99.9192 96.7224 101.096 96.1741Z" fill="#002873"/>
<path d="M100.098 97.7283C99.653 97.7283 99.2081 97.6649 98.8268 97.4744C97.8735 97.1569 97.1744 96.4585 96.7295 95.5696C96.2846 94.6807 96.2846 93.6649 96.6024 92.7125C96.9201 91.7601 97.6192 91.0617 98.509 90.6172C100.352 89.7283 102.576 90.5537 103.466 92.395C104.356 94.2363 103.53 96.4585 101.687 97.3474C101.178 97.6014 100.606 97.7283 100.098 97.7283ZM99.1445 94.4903C99.2716 94.7442 99.4623 94.9347 99.7165 94.9982C99.9707 95.0617 100.225 95.0617 100.479 94.9347C100.988 94.6807 101.178 94.1093 100.988 93.6014C100.733 93.0934 100.161 92.8395 99.653 93.0934C99.3988 93.2204 99.2081 93.4109 99.1445 93.6649C99.0174 93.9188 99.081 94.2363 99.1445 94.4903Z" fill="#002873"/>
<path d="M84.5581 103.847C85.7351 103.299 86.2444 101.901 85.6955 100.726C85.1467 99.5497 83.7476 99.041 82.5706 99.5893C81.3936 100.138 80.8844 101.535 81.4332 102.711C81.982 103.887 83.3811 104.396 84.5581 103.847Z" fill="#002873"/>
<path d="M83.5744 105.475C83.1295 105.475 82.6847 105.411 82.3033 105.221C81.35 104.903 80.6509 104.205 80.206 103.316C79.7612 102.427 79.7612 101.411 80.0789 100.459C80.3967 99.5063 81.0958 98.8079 81.9856 98.3634C82.8753 97.919 83.8922 97.919 84.8455 98.2364C85.7988 98.5539 86.4979 99.2523 86.9428 100.141C87.3877 101.03 87.3877 102.046 87.0699 102.998C86.7521 103.951 86.053 104.649 85.1633 105.094C84.5913 105.348 84.0829 105.475 83.5744 105.475ZM83.5744 100.713C83.4473 100.713 83.2566 100.776 83.1295 100.84C82.6211 101.094 82.4304 101.665 82.6211 102.173C82.7482 102.427 82.9389 102.617 83.1931 102.681C83.4473 102.744 83.7015 102.744 83.9557 102.617C84.21 102.49 84.4006 102.3 84.4642 102.046C84.5277 101.792 84.5277 101.538 84.4006 101.284C84.2735 101.03 84.0828 100.84 83.8286 100.776C83.7651 100.713 83.638 100.713 83.5744 100.713Z" fill="#002873"/>
<path d="M67.9888 111.605C69.1658 111.057 69.675 109.659 69.1262 108.483C68.5774 107.308 67.1783 106.799 66.0013 107.347C64.8243 107.895 64.315 109.293 64.8639 110.469C65.4127 111.645 66.8118 112.154 67.9888 111.605Z" fill="#002873"/>
<path d="M66.9865 113.157C65.5883 113.157 64.2536 112.332 63.6181 110.998C62.7283 109.157 63.5545 106.935 65.3976 106.046C67.2407 105.157 69.4651 105.982 70.3548 107.824C71.2446 109.665 70.4184 111.887 68.5753 112.776C68.0669 113.03 67.5584 113.157 66.9865 113.157ZM66.9865 108.459C66.8593 108.459 66.6687 108.459 66.5416 108.586C66.0331 108.84 65.7789 109.411 66.0331 109.919C66.2874 110.427 66.8593 110.681 67.3678 110.427C67.8762 110.173 68.1304 109.601 67.8762 109.094C67.7491 108.649 67.3678 108.459 66.9865 108.459Z" fill="#002873"/>
<path d="M113.989 102.26C115.166 101.712 115.675 100.314 115.126 99.1382C114.577 97.9623 113.178 97.4536 112.001 98.0019C110.824 98.5501 110.315 99.9479 110.864 101.124C111.413 102.3 112.812 102.808 113.989 102.26Z" fill="#002873"/>
<path d="M113 103.887C111.602 103.887 110.267 103.062 109.632 101.728C108.742 99.8871 109.568 97.6649 111.411 96.776C112.301 96.3316 113.318 96.3316 114.271 96.649C115.225 96.9665 115.924 97.6649 116.369 98.5538C117.258 100.395 116.432 102.617 114.589 103.506C114.017 103.76 113.509 103.887 113 103.887ZM113 99.1252C112.873 99.1252 112.682 99.1252 112.555 99.2522C112.047 99.5062 111.793 100.078 112.047 100.586C112.301 101.093 112.873 101.347 113.381 101.093C113.89 100.839 114.081 100.268 113.89 99.7601C113.763 99.5062 113.572 99.3157 113.318 99.2522C113.191 99.1252 113.064 99.1252 113 99.1252Z" fill="#002873"/>
<path d="M97.3921 109.96C98.5691 109.412 99.0784 108.014 98.5295 106.838C97.9807 105.662 96.5816 105.154 95.4046 105.702C94.2276 106.25 93.7184 107.648 94.2672 108.824C94.816 110 96.2151 110.509 97.3921 109.96Z" fill="#002873"/>
<path d="M96.4123 111.57C95.0141 111.57 93.6795 110.744 93.0439 109.411C92.599 108.522 92.599 107.506 92.9168 106.554C93.2346 105.601 93.9337 104.903 94.8234 104.459C96.6665 103.57 98.8909 104.395 99.7807 106.236C100.67 108.078 99.8442 110.3 98.0012 111.189C97.4927 111.443 96.9843 111.57 96.4123 111.57ZM95.5226 108.268C95.7768 108.776 96.3488 109.03 96.8572 108.776C97.3656 108.522 97.6198 107.951 97.3656 107.443C97.1114 106.935 96.5394 106.681 96.031 106.935C95.7768 107.062 95.5861 107.252 95.5226 107.506C95.3954 107.76 95.3954 108.014 95.5226 108.268Z" fill="#002873"/>
<path d="M80.8804 117.691C82.0574 117.143 82.5666 115.745 82.0178 114.569C81.469 113.393 80.0699 112.885 78.8929 113.433C77.7159 113.981 77.2066 115.379 77.7555 116.555C78.3043 117.731 79.7034 118.239 80.8804 117.691Z" fill="#002873"/>
<path d="M79.8879 119.252C79.443 119.252 78.9981 119.189 78.6168 118.998C77.6635 118.681 76.9644 117.983 76.5195 117.094C76.0746 116.205 76.0746 115.189 76.3924 114.236C76.7102 113.284 77.4093 112.586 78.299 112.141C79.1888 111.697 80.2057 111.697 81.159 112.014C82.1123 112.332 82.8114 113.03 83.2563 113.919C83.7012 114.808 83.7012 115.824 83.3834 116.776C83.0656 117.729 82.3665 118.427 81.4767 118.871C80.9683 119.189 80.3963 119.252 79.8879 119.252ZM79.8879 114.554C79.7608 114.554 79.5701 114.617 79.443 114.681C79.1888 114.808 78.9981 114.998 78.9346 115.252C78.871 115.506 78.871 115.76 78.9981 116.014C79.1252 116.268 79.3159 116.459 79.5701 116.522C79.8243 116.586 80.0786 116.586 80.3328 116.459C80.587 116.332 80.7777 116.141 80.8412 115.887C80.9048 115.633 80.9048 115.379 80.7777 115.125C80.6505 114.871 80.4599 114.681 80.2057 114.617C80.0786 114.554 80.015 114.554 79.8879 114.554Z" fill="#002873"/>
</g>
<defs>
<clipPath id="clip0_760_5128">
<rect width="162" height="144" fill="white" transform="translate(0 0.521973)"/>
</clipPath>
</defs>
</svg>
