<svg width="130" height="118" viewBox="0 0 130 118" fill="none" xmlns="http://www.w3.org/2000/svg">
<g clip-path="url(#clip0_1471_180926)">
<path d="M64.9111 116.831C96.4016 116.831 121.93 91.0254 121.93 59.1922C121.93 27.3591 96.4016 1.55322 64.9111 1.55322C33.4206 1.55322 7.89258 27.3591 7.89258 59.1922C7.89258 91.0254 33.4206 116.831 64.9111 116.831Z" fill="white"/>
<path d="M64.9111 117.552C33.0418 117.552 7.12891 91.4083 7.12891 59.1923C7.12891 26.9762 33.0418 0.832764 64.9111 0.832764C96.7804 0.832764 122.642 27.0276 122.642 59.1923C122.642 91.3569 96.7294 117.552 64.9111 117.552ZM64.9111 2.27374C33.8563 2.27374 8.60528 27.7996 8.60528 59.1923C8.60528 90.5849 33.8563 116.111 64.9111 116.111C95.9658 116.111 121.166 90.5849 121.166 59.1923C121.166 27.7996 95.9149 2.27374 64.9111 2.27374Z" fill="#002873"/>
<path d="M64.9083 100.003C87.2046 100.003 105.279 81.7314 105.279 59.1924C105.279 36.6534 87.2046 18.382 64.9083 18.382C42.6119 18.382 24.5371 36.6534 24.5371 59.1924C24.5371 81.7314 42.6119 100.003 64.9083 100.003Z" fill="white"/>
<path d="M64.9082 100.775C42.2536 100.775 23.7734 82.1451 23.7734 59.1924C23.7734 36.2397 42.2026 17.61 64.9082 17.61C87.6138 17.61 106.043 36.2397 106.043 59.1924C106.043 82.1451 87.5629 100.775 64.9082 100.775ZM64.9082 19.1024C43.0172 19.1024 25.2498 37.1146 25.2498 59.1924C25.2498 81.3217 43.0681 99.2824 64.9082 99.2824C86.7993 99.2824 104.567 81.2702 104.567 59.1924C104.567 37.1146 86.7484 19.1024 64.9082 19.1024Z" fill="#002873"/>
<path d="M19.1436 55.5383C19.449 55.5898 19.6527 55.5898 19.7545 55.5383C19.8563 55.5383 19.9581 55.4869 20.06 55.4354C20.1109 55.384 20.2127 55.3325 20.2636 55.2296C20.3145 55.1266 20.3654 55.0237 20.4163 54.8179L20.8236 54.8693L20.5181 58.3688L20.1109 58.3174C20.06 58.163 20.06 58.0086 20.009 57.9057C19.9581 57.8027 19.9072 57.7513 19.8054 57.6998C19.7036 57.6483 19.6018 57.5969 19.4999 57.5969C19.3472 57.5454 19.1945 57.5454 18.9909 57.5454L13.4417 57.0308C13.2381 57.0308 13.0854 56.9793 12.9326 56.9793C12.7799 56.9793 12.6781 56.9793 12.5763 57.0308C12.4745 57.0822 12.4235 57.1337 12.3726 57.2366C12.3217 57.3396 12.2708 57.4425 12.169 57.5969L11.7617 57.5454L12.1181 53.7886C12.2199 52.7079 12.4745 51.8844 12.9326 51.3698C13.3908 50.8552 14.0017 50.6493 14.8163 50.7008C15.3763 50.7522 15.8854 50.9066 16.2417 51.2154C16.649 51.5242 16.9036 51.9359 17.1072 52.3991C17.2599 52.9137 17.3108 53.5313 17.2599 54.2518C17.209 54.6635 17.1581 55.0237 17.1581 55.281L19.1436 55.5383ZM16.3436 55.281L16.3945 54.7149C16.4454 54.3032 16.3945 53.943 16.2927 53.6857C16.1908 53.4283 16.0381 53.2225 15.7836 53.0681C15.529 52.9137 15.1726 52.8108 14.7145 52.7593C14.2563 52.7079 13.8999 52.7593 13.6454 52.8622C13.3908 52.9652 13.1872 53.1196 13.0345 53.3769C12.8817 53.5827 12.8308 53.8915 12.7799 54.3032C12.729 54.612 12.729 54.8179 12.729 55.0237L16.3436 55.281Z" fill="#002873"/>
<path d="M20.0596 46.3263C20.7723 46.9439 21.2305 47.4585 21.536 47.9732C21.8414 48.4363 21.8923 49.0024 21.7396 49.5685C21.6378 49.8773 21.4851 50.289 21.2305 50.7007L19.4996 50.2375L19.7541 49.3112C20.3141 49.4141 20.6196 49.3112 20.7214 48.951C20.8232 48.4878 20.5687 47.9732 19.9069 47.4071L14.6123 48.3334C14.0523 48.4363 13.6959 48.4878 13.4923 48.5907C13.2886 48.6936 13.1359 48.7966 13.085 49.0024L12.6777 48.8995L13.5941 45.5544L14.0014 45.6573C13.9505 46.0175 14.0523 46.1719 14.3577 46.2749C14.5105 46.3263 14.8668 46.2749 15.4268 46.2234L18.176 45.8117L15.9868 44.0619C15.5796 43.7532 15.2741 43.5473 15.0196 43.4958C14.7141 43.3929 14.5105 43.5473 14.4087 43.8561L14.0014 43.7532L14.6632 41.2314L15.0705 41.3344C15.0705 41.5917 15.1214 41.849 15.325 42.0549C15.5287 42.3122 15.7832 42.621 16.1905 42.9812L20.0596 46.3263Z" fill="#002873"/>
<path d="M24.8461 36.1365C25.3552 36.3939 25.6607 36.4968 25.8134 36.4453C25.9661 36.3939 26.1697 36.2909 26.3225 36.0336L26.7298 36.2395L25.2025 39.4302L24.7952 39.2243C24.8461 38.9156 24.8461 38.6582 24.7952 38.5039C24.7443 38.3495 24.4388 38.1951 23.9806 37.9378L22.0461 37.0114C21.8934 37.7319 21.6897 38.3495 21.4352 38.9156C21.1297 39.5846 20.7224 40.0478 20.2133 40.3051C19.7043 40.5624 19.0933 40.5109 18.2279 40.0992L17.2097 39.5846C16.7006 39.3273 16.3951 39.2243 16.2424 39.2758C16.0897 39.3273 15.937 39.4302 15.7333 39.6875L15.377 39.4817L16.9042 36.3424L17.2606 36.5482C17.2097 36.857 17.2097 37.0629 17.2606 37.2173C17.3115 37.3717 17.617 37.5775 18.1261 37.7834L18.9406 38.1951C19.6024 38.5039 20.0606 38.6582 20.3661 38.5553C20.6206 38.4524 20.8752 38.1951 21.0788 37.7834C21.2315 37.4746 21.3334 37.1143 21.4352 36.7026L19.2461 35.6219C18.737 35.3646 18.4315 35.2617 18.2788 35.3131C18.1261 35.3646 17.9224 35.4675 17.7188 35.7248L17.3624 35.519L18.8897 32.3282L19.2461 32.5341C19.1952 32.8429 19.1952 33.0487 19.2461 33.2031C19.297 33.3575 19.6024 33.5634 20.1115 33.7692L24.8461 36.1365Z" fill="#002873"/>
<path d="M30.4478 28.3655C30.7023 28.5714 30.9059 28.6743 31.0078 28.7258C31.1096 28.7772 31.2623 28.7772 31.3641 28.7772C31.466 28.7772 31.6187 28.6743 31.8223 28.5199L32.1787 28.7772L30.1423 31.5048L29.7859 31.2475C29.8878 30.9902 29.9387 30.8358 29.9387 30.7329C29.9387 30.6299 29.8878 30.527 29.8368 30.4241C29.7859 30.3211 29.5823 30.1668 29.2768 29.9609L27.1896 28.3655L25.4077 30.7329L27.495 32.3282C27.5968 32.4311 27.7496 32.4826 27.8514 32.5855C27.9532 32.6885 28.055 32.6885 28.1568 32.7399C28.2587 32.7914 28.3096 32.7914 28.4114 32.7914C28.5132 32.7914 28.5641 32.7399 28.6659 32.7399C28.7678 32.6885 28.8187 32.637 28.9205 32.5341L29.2768 32.7914L27.2405 35.5189L26.8841 35.2616C26.935 35.1072 26.9859 34.9528 26.9859 34.8499C26.9859 34.747 26.9859 34.6441 26.935 34.5411C26.8841 34.4382 26.8332 34.3353 26.7314 34.2838C26.6296 34.1809 26.4768 34.078 26.3241 33.975L21.895 30.5785C21.7423 30.4755 21.5895 30.3726 21.4877 30.2697C21.3859 30.2182 21.2841 30.1668 21.1823 30.1153C21.0804 30.0638 20.9786 30.1153 20.8768 30.1668C20.775 30.2182 20.6732 30.2697 20.5204 30.3726L20.1641 30.1153L22.2004 27.3877L22.5568 27.645C22.4041 27.8509 22.4041 28.0053 22.4041 28.1082C22.4041 28.2111 22.455 28.3141 22.5568 28.417C22.6586 28.5199 22.8114 28.6743 23.0659 28.8802L24.7968 30.2182L26.5786 27.8509L24.7968 26.5643C24.5423 26.3585 24.3386 26.2555 24.2368 26.2041C24.135 26.1526 23.9823 26.1526 23.8805 26.1526C23.7786 26.1526 23.6259 26.2555 23.4223 26.4099L23.0659 26.1526L25.1023 23.425L25.4586 23.6824C25.4077 23.8882 25.3568 23.9911 25.3568 24.0941C25.3568 24.197 25.3568 24.2999 25.4077 24.4029C25.4586 24.5058 25.5096 24.5572 25.6114 24.6602C25.7132 24.7631 25.815 24.866 26.0186 24.969L30.4478 28.3655Z" fill="#002873"/>
<path d="M34.3666 23.0649L32.2793 24.9175L32.5338 25.5351C32.5848 25.6895 32.6866 25.8439 32.7375 25.9983C32.7884 26.1527 32.8902 26.307 33.0429 26.41C33.3484 26.7188 33.6539 26.7702 34.0102 26.4614L34.3157 26.7702L32.2793 28.6229L31.9738 28.3141C32.0757 28.2112 32.1266 28.0568 32.1775 27.9024C32.2284 27.748 32.1775 27.5936 32.1775 27.3878C32.1266 27.1819 32.0757 26.9246 31.9229 26.6673L29.1738 19.411L30.4466 18.2273L36.8611 22.2414C37.1666 22.4473 37.3702 22.5502 37.4721 22.6017C37.6248 22.6531 37.7266 22.7046 37.8793 22.7046C38.0321 22.7046 38.1848 22.6531 38.3375 22.5502L38.643 22.859L35.9957 25.2778L35.6902 24.969C35.843 24.8146 35.9448 24.6602 35.9448 24.5058C35.9448 24.3514 35.8939 24.1971 35.7921 24.0941C35.6902 23.9912 35.5884 23.8883 35.4866 23.7853C35.3339 23.6824 35.1811 23.5795 34.9775 23.4251L34.3666 23.0649ZM32.0248 24.1456L33.7557 22.6017L30.5484 20.5431L32.0248 24.1456Z" fill="#002873"/>
<path d="M42.4083 20.1315C42.6119 19.9256 42.7647 19.7198 42.7137 19.5654C42.7137 19.411 42.6119 19.1022 42.3574 18.7419L41.2883 16.9407L41.0337 17.0951C40.6774 17.301 40.4228 17.6098 40.2701 17.8671C40.1683 18.1759 40.1683 18.6905 40.321 19.4624C40.4737 20.3888 40.5755 21.0063 40.5755 21.3151L40.7283 21.5724L38.5392 22.9619L38.3355 22.6017C38.6919 22.2929 38.7937 21.7783 38.641 20.9549L38.5392 20.1315C38.4374 19.3595 38.5901 18.639 39.0483 18.0215L38.9974 17.97C37.7246 18.1759 36.7573 17.8156 36.1973 16.8378C35.3828 15.4483 35.9428 14.2132 37.8264 13.081L41.0846 11.1254L41.2883 11.4856C41.0846 11.7429 40.9319 11.8973 40.9828 12.0517C40.9828 12.2061 41.0846 12.4634 41.3392 12.8751L44.1901 17.7127C44.3938 18.0729 44.5974 18.3302 44.7501 18.3817C44.9029 18.4846 45.1065 18.4846 45.4119 18.3817L45.6156 18.7419L42.7137 20.4917L42.4083 20.1315ZM40.9319 16.2717L39.0992 13.1324L38.7937 13.2868C38.081 13.6985 37.6737 14.1102 37.6228 14.522C37.5719 14.9337 37.6737 15.3968 37.9283 15.86C38.2846 16.4261 38.641 16.7863 38.9974 16.8893C39.4046 16.9922 39.8628 16.8893 40.321 16.5805L40.9319 16.2717Z" fill="#002873"/>
<path d="M51.0114 14.9851C51.1132 15.2424 51.1641 15.4482 51.215 15.5512C51.266 15.6541 51.3169 15.757 51.4187 15.8085C51.4696 15.8599 51.5714 15.9114 51.6732 15.9114C51.775 15.9114 51.9278 15.9114 52.1314 15.9114L52.2332 16.3231L48.9241 17.3524L48.8223 16.9407C48.975 16.8378 49.0768 16.7863 49.1278 16.6834C49.1787 16.6319 49.2296 16.529 49.2805 16.426C49.2805 16.3231 49.2805 16.2202 49.2805 16.0658C49.2805 15.9114 49.2296 15.757 49.1278 15.5512L47.5496 10.1475C47.4987 9.94166 47.4477 9.78727 47.3968 9.63288C47.3459 9.47849 47.295 9.42702 47.2441 9.3241C47.1932 9.22117 47.0914 9.22117 46.9896 9.16971C46.8877 9.16971 46.735 9.11824 46.5823 9.11824L46.4805 8.70653L50.095 7.6258C51.1641 7.31702 51.9787 7.26556 52.5896 7.47141C53.2005 7.67727 53.6587 8.1919 53.8623 8.96385C54.0151 9.52995 54.066 10.0446 53.9132 10.5078C53.8114 10.9709 53.506 11.3826 53.1496 11.7429C52.7932 12.1031 52.1823 12.3604 51.5205 12.5663C51.1132 12.6692 50.8078 12.7721 50.5532 12.8236L51.0114 14.9851ZM50.1969 12.2575L50.7059 12.1031C51.1132 12.0002 51.4187 11.8458 51.6223 11.6399C51.826 11.4341 51.9787 11.2282 51.9787 10.9195C52.0296 10.6107 51.9787 10.2504 51.826 9.83873C51.6732 9.42702 51.5205 9.06678 51.3678 8.86092C51.215 8.65507 50.9605 8.50068 50.7059 8.44922C50.4514 8.39775 50.1459 8.44922 49.7896 8.55214C49.4841 8.65507 49.2805 8.70653 49.1278 8.758L50.1969 12.2575Z" fill="#002873"/>
<path d="M59.3622 12.0002L56.6131 12.3605L56.4603 13.0295C56.4094 13.2354 56.4094 13.3898 56.3585 13.5441C56.3076 13.6985 56.3585 13.9044 56.3585 14.0588C56.4094 14.4705 56.664 14.6763 57.1222 14.6763L57.1731 15.088L54.424 15.4483L54.373 15.0366C54.5258 14.9851 54.6785 14.9337 54.7803 14.8307C54.8821 14.7278 54.984 14.5734 55.0349 14.419C55.0858 14.2646 55.1876 14.0073 55.2385 13.6471L57.0203 6.08195L58.7513 5.8761L61.8058 12.8751C61.9585 13.1839 62.0604 13.3898 62.1113 13.5441C62.2131 13.6471 62.3149 13.75 62.4167 13.8529C62.5185 13.9044 62.6713 13.9559 62.8749 14.0073L62.9258 14.419L59.3622 14.8822L59.3113 14.4705C59.5149 14.419 59.6676 14.3161 59.7694 14.2132C59.8713 14.1102 59.9222 13.9559 59.8713 13.75C59.8713 13.5956 59.8204 13.4927 59.7694 13.2868C59.7185 13.081 59.6676 12.9266 59.5658 12.6693L59.3622 12.0002ZM56.7658 11.5885L59.0567 11.2798L57.5803 7.78024L56.7658 11.5885Z" fill="#002873"/>
<path d="M63.334 14.3161V13.9044C63.6394 13.8529 63.8431 13.75 63.894 13.5956C63.9958 13.4412 64.0467 13.1839 64.0467 12.7207L64.3013 7.11118C64.3013 6.64801 64.3013 6.3907 64.2504 6.23631C64.1994 6.08192 63.9958 5.97899 63.6903 5.87606V5.46436L70.5122 5.77314L70.4104 7.98606L69.5449 7.9346C69.3922 7.31704 69.1886 6.90533 69.0358 6.75094C68.8831 6.59655 68.5776 6.49362 68.1704 6.44216L66.3885 6.33923L66.2358 9.32411C66.8467 9.27265 67.3049 9.27265 67.7122 9.32411C68.7813 9.37557 69.5958 9.63289 70.1049 10.0446C70.614 10.5078 70.8686 11.1768 70.8177 12.0517C70.7158 13.8014 69.5449 14.5734 67.254 14.4705L63.334 14.3161ZM66.0831 13.647C67.2031 13.75 67.9158 13.6985 68.3231 13.3897C68.7304 13.0809 68.8831 12.6178 68.934 12.0002C68.9849 10.8165 68.4249 10.1475 67.254 10.0961H67.0504C66.7449 10.0961 66.4904 10.0961 66.2867 10.0961L66.0831 13.647Z" fill="#002873"/>
<path d="M75.0413 15.7569C73.8195 15.4481 72.954 14.882 72.5468 14.0071C72.0886 13.1322 72.0377 11.9486 72.394 10.5076C72.5977 9.52981 72.954 8.75786 73.4122 8.19176C73.8704 7.5742 74.4304 7.16249 75.0922 6.95664C75.754 6.75078 76.5177 6.75078 77.2813 6.95664C78.5541 7.26542 79.3686 7.83151 79.8268 8.70639C80.285 9.58127 80.3359 10.7649 80.0304 12.1544C79.8268 12.9779 79.5722 13.5954 79.2668 14.1615C78.9613 14.6761 78.5541 15.0879 78.1468 15.3966C77.7395 15.7054 77.2304 15.8598 76.7213 15.9113C76.1613 15.9113 75.6013 15.8598 75.0413 15.7569ZM74.3795 10.7649C74.074 12.0515 74.0231 13.0293 74.1758 13.7498C74.3286 14.4703 74.7359 14.882 75.3468 15.0364C75.6522 15.1393 75.9577 15.0879 76.2122 14.9849C76.4668 14.882 76.7213 14.6761 76.925 14.3674C77.1286 14.11 77.3322 13.7498 77.485 13.3381C77.6377 12.9264 77.7904 12.4632 77.8922 11.9486C78.0959 11.1252 78.1977 10.4047 78.1977 9.78712C78.1977 9.16956 78.0959 8.70639 77.8922 8.34615C77.6886 7.9859 77.3831 7.78005 76.9759 7.67712C76.365 7.52273 75.8559 7.72859 75.3977 8.24322C75.0413 8.70639 74.6849 9.58127 74.3795 10.7649Z" fill="#002873"/>
<path d="M81.2012 17.5583L81.3539 17.1466C81.5066 17.1981 81.6594 17.1981 81.8121 17.1981C81.9139 17.1981 82.0157 17.1466 82.1175 17.0952C82.2194 17.0437 82.2703 16.9408 82.3212 16.8379C82.3721 16.7349 82.4739 16.5805 82.5757 16.3747L85.1721 10.4049L84.7139 10.1991C84.4594 10.0961 84.3066 10.0447 84.1539 10.0447C84.0012 10.0447 83.8485 10.0961 83.6957 10.1476C83.543 10.2505 83.3903 10.3535 83.2375 10.5079C83.0848 10.6622 82.9321 10.8681 82.8303 11.0225L82.0157 10.6622L82.9321 8.55225L89.9067 11.6915L88.9903 13.8015L88.1758 13.4413C88.2267 13.1325 88.2267 12.9266 88.2776 12.7722C88.2776 12.6179 88.2776 12.5149 88.2776 12.3605C88.2776 12.2576 88.2267 12.1547 88.2267 12.0518C88.1758 11.9488 88.1758 11.8974 88.1249 11.8459C88.0739 11.7944 88.023 11.6915 87.9212 11.6401C87.8194 11.5886 87.7176 11.4857 87.5648 11.4342L87.1576 11.2283L84.5612 17.1981C84.4594 17.404 84.4085 17.5583 84.3576 17.7127C84.3066 17.8157 84.3066 17.9186 84.3066 18.0215C84.3066 18.1244 84.3066 18.1759 84.3576 18.2274C84.4085 18.2788 84.4085 18.3303 84.5103 18.4332C84.5612 18.4847 84.663 18.5876 84.8157 18.6391L84.663 19.0508L81.2012 17.5583Z" fill="#002873"/>
<path d="M90.9779 19.6684L88.6361 18.1759L88.127 18.5876C87.9742 18.6906 87.8724 18.7935 87.7197 18.9479C87.6179 19.0508 87.516 19.2052 87.4142 19.3596C87.2106 19.7198 87.2615 20.0286 87.6179 20.2859L87.3633 20.6462L85.0215 19.1537L85.276 18.7935C85.4288 18.8449 85.5815 18.8964 85.7342 18.8964C85.8869 18.8964 86.0397 18.8449 86.2433 18.742C86.396 18.6391 86.6506 18.5362 86.9051 18.3303L93.0652 13.6986L94.5415 14.6249L92.4033 21.9328C92.3015 22.2415 92.2506 22.4988 92.2506 22.6532C92.2506 22.8076 92.2506 22.962 92.3015 23.0649C92.3524 23.1679 92.4543 23.3223 92.5561 23.4767L92.3015 23.8369L89.2979 21.8813L89.5524 21.521C89.7561 21.624 89.9088 21.6754 90.0615 21.624C90.2142 21.624 90.3161 21.521 90.4179 21.3667C90.4688 21.2637 90.5706 21.1093 90.6215 20.9549C90.6724 20.8006 90.7742 20.5947 90.8252 20.3374L90.9779 19.6684ZM89.2979 17.6613L91.2324 18.9479L92.3015 15.294L89.2979 17.6613Z" fill="#002873"/>
<path d="M37.8245 97.0179L37.01 98.0472L36.5518 97.6869C36.7045 97.3781 36.7554 97.1208 36.7554 96.8635C36.7554 96.6576 36.6027 96.4518 36.45 96.2974C36.0936 95.9886 35.6863 95.9372 35.1772 96.143C34.719 96.3489 34.21 96.812 33.6499 97.4811C33.1409 98.1501 32.8354 98.7162 32.7336 99.1794C32.6318 99.6425 32.7845 100.003 33.0899 100.312C33.2427 100.466 33.4463 100.517 33.599 100.569C33.7518 100.62 33.9045 100.569 34.0572 100.517C34.21 100.466 34.4136 100.312 34.6172 100.157L35.0754 100.569L34.21 101.65C33.9045 101.495 33.6499 101.341 33.3954 101.238C33.1409 101.083 32.9372 100.929 32.6827 100.723C32.1736 100.312 31.8681 99.8998 31.7154 99.4881C31.5627 99.0764 31.5118 98.6133 31.6645 98.1501C31.8172 97.6869 32.0718 97.1723 32.5299 96.6062C32.9372 96.0915 33.3954 95.7313 33.8536 95.474C34.3118 95.2167 34.8209 95.1652 35.2791 95.2167C35.7881 95.2681 36.2463 95.5254 36.7045 95.8857C36.9591 96.0915 37.1627 96.2459 37.3154 96.4518C37.5191 96.6062 37.6718 96.812 37.8245 97.0179Z" fill="#002873"/>
<path d="M36.1948 103.193C35.9403 103.039 35.7367 103.039 35.533 103.142C35.3294 103.245 35.0239 103.554 34.5657 104.068L34.0566 103.759L35.2276 101.907L35.6348 102.164C36.3476 101.855 37.0603 101.392 37.8239 100.723C38.5367 100.106 39.0458 99.488 39.4021 98.9734C39.5039 98.7675 39.5549 98.6131 39.5549 98.5102C39.5039 98.4073 39.453 98.3043 39.3512 98.2014L39.5039 97.9441L42.9149 100.106L42.7621 100.363C42.5585 100.311 42.4058 100.26 42.304 100.311C42.2021 100.363 42.0494 100.517 41.8458 100.878L39.5549 104.634L40.1658 104.995L38.9949 106.847L38.4858 106.538C38.7403 105.972 38.8421 105.561 38.893 105.303C38.9439 105.046 38.7912 104.84 38.5367 104.686L36.1948 103.193ZM38.333 103.811L40.9803 99.5395L40.1658 99.0248C38.893 100.775 37.6203 101.958 36.2967 102.576L38.333 103.811Z" fill="#002873"/>
<path d="M47.4991 102.267L46.8882 103.554L46.3282 103.296C46.3791 102.988 46.3791 102.782 46.3282 102.679C46.3282 102.576 46.2773 102.473 46.2263 102.37C46.1754 102.267 46.0227 102.164 45.8191 102.061L44.9536 101.65L44.0372 103.605L44.5972 103.862C44.6991 103.914 44.8009 103.965 44.9027 103.965C45.0045 103.965 45.0554 103.914 45.1572 103.862C45.2591 103.811 45.3609 103.708 45.4627 103.554L45.9209 103.76L45.1572 105.406L44.6991 105.2C44.75 105.046 44.75 104.892 44.75 104.789C44.75 104.686 44.6991 104.583 44.6482 104.531C44.5972 104.48 44.4954 104.429 44.3936 104.326L43.8336 104.068L42.8154 106.281L43.6809 106.693C43.7827 106.744 43.8336 106.744 43.9354 106.796C43.9863 106.796 44.0881 106.796 44.1391 106.796C44.19 106.796 44.2918 106.796 44.3427 106.744C44.3936 106.693 44.4954 106.693 44.5463 106.641C44.5972 106.59 44.6991 106.539 44.75 106.436C44.8518 106.333 44.9536 106.23 45.0554 106.075L45.6154 106.333L44.8518 107.774L40.8809 105.87L40.9827 105.612C41.0845 105.612 41.1863 105.664 41.2372 105.612C41.2881 105.612 41.39 105.561 41.4409 105.561C41.4918 105.561 41.5427 105.458 41.5936 105.355C41.6445 105.252 41.6954 105.149 41.7463 105.046L43.3754 101.495C43.4263 101.392 43.4772 101.238 43.5281 101.186C43.5791 101.083 43.5791 101.032 43.5791 100.929C43.5791 100.878 43.5281 100.775 43.5281 100.723C43.4772 100.672 43.4263 100.569 43.3245 100.517L43.4263 100.26L47.4991 102.267Z" fill="#002873"/>
<path d="M51.5184 110.193L49.1766 109.421L49.2784 109.112C49.5329 109.112 49.7366 109.112 49.7875 109.009C49.8893 108.906 49.9402 108.7 50.042 108.443L51.4166 104.223L50.5002 103.914C50.2456 104.583 49.8893 105.252 49.482 105.973C49.0747 106.693 48.6675 107.259 48.3111 107.722C47.9547 108.186 47.6493 108.494 47.3438 108.597C47.0893 108.7 46.7838 108.7 46.4274 108.597C46.1729 108.494 45.9693 108.391 45.7656 108.237L46.122 107.208L46.682 107.362C46.6311 107.619 46.7329 107.774 46.8856 107.825C47.0384 107.877 47.1911 107.877 47.3438 107.774C47.4965 107.671 47.7511 107.414 48.0565 107.002C48.362 106.59 48.7184 106.024 49.0747 105.407C49.4311 104.789 49.6347 104.274 49.7366 103.966C49.7875 103.76 49.8384 103.605 49.7875 103.502C49.7366 103.399 49.6347 103.348 49.482 103.245L49.5838 102.936L53.4529 104.223L53.3511 104.532C53.1475 104.532 52.9948 104.532 52.8929 104.583C52.7911 104.635 52.6893 104.84 52.5875 105.201L51.4166 108.803C51.3147 109.163 51.2638 109.369 51.3148 109.472C51.3657 109.575 51.4675 109.678 51.6711 109.832L51.5184 110.193Z" fill="#002873"/>
<path d="M56.3556 109.215L54.4719 108.854L54.2683 109.266C54.2174 109.369 54.1665 109.472 54.1156 109.575C54.0646 109.678 54.0137 109.781 54.0137 109.935C53.9628 110.244 54.0646 110.398 54.3701 110.501L54.3192 110.81L52.4355 110.45L52.4865 110.141C52.5883 110.141 52.6901 110.141 52.7919 110.09C52.8937 110.038 52.9955 109.987 53.0465 109.884C53.1483 109.781 53.2501 109.626 53.3519 109.421L56.101 104.84L57.2719 105.046L57.8319 110.295C57.8319 110.553 57.8829 110.707 57.8829 110.81C57.9338 110.913 57.9338 111.016 58.0356 111.067C58.0865 111.119 58.1883 111.222 58.2901 111.273L58.2392 111.582L55.7956 111.119L55.8465 110.81C55.9992 110.81 56.101 110.81 56.2028 110.759C56.3047 110.707 56.3556 110.604 56.3556 110.501C56.3556 110.398 56.4065 110.295 56.4065 110.193C56.4065 110.09 56.4065 109.935 56.4065 109.729L56.3556 109.215ZM54.7265 108.391L56.3047 108.7L56.0501 106.075L54.7265 108.391Z" fill="#002873"/>
<path d="M64.6015 110.759C64.6015 111.016 64.6015 111.17 64.6015 111.222C64.6015 111.273 64.6524 111.376 64.7033 111.428C64.7542 111.479 64.856 111.531 65.0087 111.582V111.891L62.6669 111.788V111.479C62.8196 111.428 62.9724 111.428 63.0233 111.376C63.0742 111.325 63.1251 111.273 63.1251 111.17C63.1251 111.067 63.176 110.913 63.176 110.656L63.2778 108.854L61.2415 108.752L61.1396 110.553C61.1396 110.656 61.1396 110.759 61.1396 110.862C61.1396 110.964 61.1396 111.016 61.1396 111.067C61.1396 111.119 61.1905 111.17 61.1905 111.222C61.2415 111.273 61.2924 111.325 61.3433 111.325C61.3942 111.325 61.496 111.376 61.5469 111.428V111.736L59.2051 111.634V111.325C59.3069 111.325 59.4087 111.273 59.4596 111.222C59.5105 111.17 59.5614 111.17 59.6124 111.067C59.6633 110.964 59.6633 110.913 59.6633 110.81C59.6633 110.707 59.6633 110.604 59.7142 110.45L59.9178 106.539C59.9178 106.384 59.9178 106.281 59.9178 106.178C59.9178 106.075 59.9178 106.024 59.8669 105.921C59.816 105.87 59.816 105.818 59.7142 105.767C59.6633 105.715 59.5614 105.664 59.4596 105.664V105.355L61.8015 105.458V105.767C61.6487 105.818 61.5469 105.87 61.4451 105.921C61.3942 105.973 61.3433 106.024 61.2924 106.127C61.2415 106.23 61.2415 106.384 61.2415 106.59L61.1396 108.083L63.176 108.185L63.2778 106.693C63.2778 106.487 63.2778 106.281 63.2778 106.23C63.2778 106.127 63.2269 106.075 63.176 106.024C63.1251 105.973 63.0233 105.921 62.8706 105.87V105.561L65.2124 105.664V105.973C65.0597 106.024 64.9578 106.024 64.9069 106.075C64.856 106.127 64.8051 106.178 64.7542 106.23C64.7033 106.281 64.7033 106.384 64.7033 106.436C64.7033 106.539 64.7033 106.642 64.6524 106.796L64.6015 110.759Z" fill="#002873"/>
<path d="M69.083 111.737C68.2176 111.788 67.5558 111.582 67.0467 111.119C66.5885 110.656 66.283 109.884 66.1812 108.855C66.1303 108.186 66.1812 107.568 66.3339 107.105C66.4867 106.59 66.7921 106.23 67.1994 105.921C67.6067 105.612 68.0648 105.458 68.6249 105.407C69.4903 105.355 70.203 105.51 70.7121 106.024C71.2212 106.487 71.4758 107.259 71.5776 108.289C71.6285 108.855 71.5776 109.369 71.4758 109.781C71.374 110.193 71.2212 110.553 71.0176 110.81C70.814 111.068 70.5085 111.325 70.203 111.479C69.8467 111.634 69.4903 111.737 69.083 111.737ZM67.6067 108.649C67.6576 109.575 67.8612 110.244 68.1158 110.656C68.3703 111.068 68.7267 111.273 69.1339 111.222C69.3376 111.222 69.5412 111.119 69.6939 110.965C69.8467 110.81 69.9485 110.656 70.0503 110.399C70.1521 110.141 70.203 109.884 70.203 109.575C70.203 109.266 70.203 108.906 70.203 108.546C70.1521 107.928 70.0503 107.465 69.9485 107.053C69.8467 106.642 69.643 106.384 69.4394 106.179C69.2358 105.973 68.9812 105.921 68.6758 105.921C68.2685 105.973 67.963 106.179 67.7594 106.642C67.5558 107.105 67.5048 107.774 67.6067 108.649Z" fill="#002873"/>
<path d="M78.296 106.744C78.7542 106.744 79.1106 106.899 79.3651 107.053C79.6197 107.259 79.8233 107.516 79.9251 107.825C79.9761 108.134 80.027 108.391 79.9761 108.649C79.9252 108.906 79.8233 109.112 79.6706 109.318C79.5179 109.523 79.3142 109.678 79.0597 109.781C78.8051 109.935 78.4997 110.038 78.0415 110.141L75.3942 110.81L75.3433 110.501C75.4451 110.45 75.496 110.398 75.5978 110.347C75.6488 110.295 75.6997 110.244 75.6997 110.192C75.6997 110.141 75.6997 110.038 75.6997 109.935C75.6997 109.832 75.6488 109.729 75.6488 109.575L74.6815 105.818C74.6306 105.664 74.6306 105.561 74.5797 105.458C74.5288 105.355 74.5288 105.303 74.4778 105.252C74.4269 105.2 74.376 105.149 74.3251 105.149C74.2742 105.149 74.1724 105.098 74.0197 105.098L73.9688 104.789L76.8197 104.068C77.1251 103.965 77.4306 103.914 77.6342 103.914C77.9397 103.862 78.1942 103.914 78.3979 103.965C78.6015 104.017 78.7542 104.12 78.907 104.274C79.0597 104.429 79.1615 104.634 79.2124 104.892C79.2633 105.561 79.0088 106.178 78.296 106.744ZM76.9215 106.847C77.227 106.796 77.4306 106.693 77.5833 106.539C77.736 106.436 77.8379 106.281 77.8888 106.075C77.9397 105.921 77.9397 105.664 77.8379 105.406C77.787 105.149 77.6851 104.995 77.5324 104.84C77.3797 104.737 77.2269 104.634 77.0742 104.634C76.8706 104.634 76.6669 104.634 76.4124 104.686C76.2088 104.737 76.0051 104.789 75.8524 104.84L76.3615 106.95L76.9215 106.847ZM77.0233 109.832C77.176 109.781 77.3797 109.729 77.6342 109.678C77.8888 109.626 78.1433 109.523 78.296 109.42C78.4488 109.318 78.5506 109.163 78.6015 108.957C78.6524 108.751 78.6524 108.494 78.5506 108.237C78.4997 108.031 78.4488 107.877 78.347 107.722C78.2451 107.568 78.1433 107.465 78.0415 107.413C77.8888 107.362 77.787 107.31 77.6342 107.31C77.4815 107.31 77.2779 107.31 77.0742 107.362L76.4633 107.516L77.0233 109.832Z" fill="#002873"/>
<path d="M83.6429 108.391L83.5411 108.134C83.6938 107.979 83.7956 107.877 83.7956 107.774C83.7956 107.671 83.7447 107.465 83.6429 107.207L82.0647 103.657C81.9629 103.348 81.8101 103.193 81.7592 103.142C81.6574 103.09 81.5047 103.039 81.301 103.09L81.1992 102.833L85.5265 100.929L86.1374 102.318L85.5774 102.576C85.272 102.267 85.0683 102.061 84.9156 102.01C84.7629 101.958 84.5592 101.958 84.3047 102.113L83.1847 102.627L83.9992 104.531C84.3556 104.326 84.6611 104.171 84.9156 104.068C85.5774 103.759 86.1883 103.657 86.6465 103.759C87.1047 103.862 87.4611 104.223 87.7156 104.789C88.1738 105.869 87.7156 106.744 86.2392 107.413L83.6429 108.391ZM85.1192 107.156C85.832 106.899 86.2902 106.59 86.4429 106.333C86.5956 106.024 86.5447 105.664 86.392 105.252C86.0356 104.48 85.5265 104.274 84.7629 104.583L84.6101 104.634C84.4065 104.737 84.2538 104.789 84.152 104.892L85.1192 107.156Z" fill="#002873"/>
<path d="M91.6851 104.429C90.9215 104.892 90.2597 104.995 89.5979 104.789C88.936 104.583 88.376 104.017 87.8669 103.142C87.5106 102.576 87.3069 102.01 87.256 101.495C87.2051 100.981 87.256 100.517 87.5106 100.054C87.7142 99.6426 88.1215 99.2823 88.5797 98.9735C89.3433 98.5104 90.056 98.4074 90.7179 98.6133C91.3797 98.8192 91.9397 99.3853 92.4488 100.26C92.7542 100.723 92.907 101.186 93.0088 101.598C93.1106 102.01 93.1106 102.422 93.0597 102.782C93.0088 103.142 92.8561 103.451 92.6015 103.76C92.347 103.965 92.0415 104.223 91.6851 104.429ZM88.9869 102.319C89.4451 103.091 89.9033 103.605 90.3106 103.914C90.7179 104.171 91.1251 104.223 91.4815 103.965C91.6851 103.863 91.8379 103.708 91.8888 103.502C91.9397 103.296 91.9906 103.091 91.9397 102.833C91.8888 102.576 91.8379 102.319 91.7361 102.061C91.6342 101.753 91.4815 101.495 91.2779 101.135C90.9724 100.62 90.667 100.209 90.4124 99.8999C90.107 99.5911 89.8524 99.4367 89.5979 99.3338C89.3433 99.2309 89.0888 99.2823 88.8342 99.4367C88.4779 99.6426 88.2742 100.003 88.3251 100.466C88.3251 100.981 88.5797 101.547 88.9869 102.319Z" fill="#002873"/>
<path d="M99.2715 98.8706L97.3369 100.415L97.1333 100.157C97.286 99.9513 97.3369 99.797 97.3369 99.6426C97.286 99.5396 97.1842 99.3338 97.0315 99.0765L94.3333 95.577L93.5696 96.1945C93.926 96.7606 94.3332 97.4296 94.6896 98.2016C95.046 98.9221 95.3005 99.5911 95.5042 100.157C95.6569 100.723 95.7587 101.135 95.7078 101.444C95.6569 101.753 95.5042 102.01 95.1987 102.216C94.9951 102.37 94.7914 102.525 94.5369 102.576L93.8751 101.701L94.3333 101.341C94.5369 101.547 94.6896 101.547 94.8423 101.444C94.9442 101.341 95.046 101.238 95.046 101.032C95.046 100.826 94.9951 100.517 94.7914 100.003C94.5878 99.4882 94.3842 98.9221 94.0278 98.2531C93.6714 97.584 93.4169 97.1209 93.2132 96.8635C93.0605 96.7092 92.9587 96.6062 92.8569 96.5548C92.7551 96.5548 92.6532 96.5548 92.5005 96.6577L92.2969 96.4004L95.5042 93.8787L95.7078 94.136C95.5551 94.2904 95.5042 94.4448 95.5042 94.5477C95.5042 94.6506 95.606 94.8565 95.8605 95.1652L98.1515 98.0987C98.3551 98.356 98.5587 98.5618 98.6606 98.5618C98.7624 98.6133 98.9151 98.5618 99.1187 98.4589L99.2715 98.8706Z" fill="#002873"/>
<path d="M99.0686 90.3792L100.087 91.4084L99.6795 91.8716C99.425 91.7172 99.2213 91.6657 99.1195 91.6657C99.0177 91.6657 98.865 91.6657 98.7632 91.6657C98.6613 91.7172 98.5086 91.7687 98.3559 91.9745L97.6432 92.695L99.1704 94.2389L99.5777 93.8272C99.6795 93.7243 99.7304 93.6213 99.7304 93.5699C99.7813 93.467 99.7813 93.4155 99.7304 93.3126C99.6795 93.2096 99.6286 93.1067 99.5268 92.9009L99.8832 92.5406L101.156 93.8272L100.8 94.1874C100.647 94.0845 100.545 94.0331 100.443 93.9816C100.341 93.9301 100.24 93.9301 100.189 93.9816C100.087 93.9816 100.036 94.0845 99.9341 94.1874L99.5268 94.5991L101.207 96.2974L101.869 95.577C101.92 95.5255 102.021 95.4226 102.021 95.3711C102.072 95.3196 102.072 95.2682 102.123 95.1652C102.123 95.1138 102.123 95.0109 102.123 94.9594C102.123 94.8565 102.123 94.805 102.072 94.7535C102.072 94.7021 102.021 94.5991 101.97 94.4962C101.92 94.3933 101.869 94.2389 101.767 94.0845L102.174 93.6213L103.294 94.8565L100.189 97.9957L99.985 97.7899C100.036 97.687 100.087 97.584 100.087 97.5326C100.087 97.4811 100.087 97.3782 100.087 97.3267C100.087 97.2752 100.036 97.1723 99.985 97.1209C99.9341 97.0694 99.8323 96.9665 99.7304 96.8635L96.9813 94.136C96.8795 94.0331 96.7777 93.9301 96.7268 93.8787C96.6759 93.8272 96.5741 93.7757 96.5232 93.7757C96.4722 93.7757 96.3704 93.7757 96.3195 93.7757C96.2686 93.7757 96.1668 93.8272 96.065 93.8787L95.8613 93.6728L99.0686 90.3792Z" fill="#002873"/>
<path d="M102.276 86.5708L103.294 87.3942L102.938 87.8574C102.632 87.703 102.378 87.6515 102.123 87.6515C101.92 87.6515 101.716 87.8059 101.563 87.9603C101.258 88.3206 101.207 88.7323 101.411 89.2469C101.614 89.7101 102.072 90.2247 102.734 90.7908C103.396 91.3054 103.956 91.6142 104.414 91.7171C104.873 91.8201 105.229 91.6657 105.534 91.3569C105.687 91.2025 105.738 90.9966 105.789 90.8423C105.84 90.6879 105.789 90.5335 105.738 90.3791C105.687 90.2247 105.534 90.0188 105.382 89.813L105.789 89.3498L106.858 90.2247C106.705 90.5335 106.553 90.7908 106.451 91.0481C106.298 91.3054 106.145 91.5113 105.942 91.7686C105.534 92.2832 105.127 92.592 104.72 92.7464C104.313 92.9008 103.854 92.9523 103.396 92.7979C102.938 92.6435 102.429 92.3862 101.869 91.923C101.36 91.5113 101.003 91.0481 100.749 90.5849C100.494 90.1218 100.443 89.6071 100.494 89.144C100.545 88.6293 100.8 88.1662 101.156 87.703C101.36 87.4457 101.512 87.2398 101.716 87.0854C101.869 86.8796 102.072 86.7252 102.276 86.5708Z" fill="#002873"/>
<path d="M110.677 84.4094L109.404 86.5194L109.149 86.365C109.251 86.1077 109.251 85.9533 109.149 85.8504C109.098 85.7475 108.895 85.5931 108.64 85.4387L104.924 83.1228L104.415 83.9977C104.975 84.4094 105.535 84.9241 106.146 85.4902C106.757 86.0563 107.215 86.5709 107.571 87.0341C107.927 87.4972 108.131 87.8575 108.182 88.1663C108.233 88.475 108.182 88.7838 107.978 89.0926C107.826 89.3499 107.673 89.5043 107.52 89.6587L106.604 89.0926L106.909 88.578C107.164 88.6809 107.317 88.6294 107.418 88.475C107.52 88.3721 107.52 88.2177 107.469 88.0119C107.418 87.806 107.215 87.5487 106.909 87.137C106.604 86.7253 106.146 86.2621 105.586 85.7989C105.076 85.2843 104.669 84.9755 104.364 84.7697C104.16 84.6667 104.007 84.6153 103.956 84.6153C103.855 84.6153 103.753 84.7182 103.651 84.8211L103.396 84.6667L105.535 81.1672L105.789 81.3216C105.738 81.5275 105.687 81.6819 105.738 81.7848C105.789 81.8877 105.942 82.0421 106.247 82.248L109.404 84.2036C109.709 84.4094 109.913 84.4609 110.015 84.4609C110.117 84.4609 110.269 84.358 110.422 84.2036L110.677 84.4094Z" fill="#002873"/>
<path d="M110.878 79.469L110.114 81.2187L110.42 81.5275C110.522 81.6304 110.624 81.6819 110.674 81.7848C110.776 81.8363 110.878 81.9392 110.98 81.9907C111.234 82.0936 111.438 82.0421 111.591 81.7333L111.845 81.8363L111.082 83.586L110.827 83.4831C110.878 83.3802 110.878 83.2773 110.827 83.1743C110.776 83.0714 110.776 82.9685 110.674 82.8655C110.624 82.7626 110.471 82.6082 110.318 82.4538L106.551 78.6455L107.06 77.5648L112.253 78.2853C112.507 78.3368 112.66 78.3368 112.762 78.3368C112.864 78.3368 112.965 78.3368 113.016 78.2853C113.118 78.2338 113.169 78.1824 113.271 78.0795L113.525 78.1824L112.507 80.4468L112.253 80.3438C112.304 80.1894 112.304 80.0865 112.253 79.9836C112.202 79.8807 112.151 79.8292 112.049 79.7777C111.947 79.7263 111.845 79.7263 111.744 79.6748C111.642 79.6234 111.489 79.6234 111.285 79.5719L110.878 79.469ZM109.707 80.8585L110.369 79.366L107.773 78.9543L109.707 80.8585Z" fill="#002873"/>
<path d="M112 72.5213C112.255 72.161 112.509 71.9037 112.815 71.7493C113.12 71.5949 113.426 71.5949 113.782 71.6979C114.087 71.8008 114.291 71.9037 114.495 72.0581C114.698 72.2125 114.8 72.4184 114.902 72.6757C114.953 72.933 115.004 73.1903 115.004 73.4476C115.004 73.7564 114.902 74.0652 114.8 74.4769L113.986 77.153L113.68 77.0501C113.68 76.9471 113.68 76.8442 113.68 76.7927C113.68 76.7413 113.629 76.6383 113.578 76.5869C113.527 76.5354 113.476 76.484 113.375 76.484C113.273 76.4325 113.171 76.4325 113.018 76.381L109.353 75.2488C109.2 75.1974 109.098 75.1974 108.996 75.1459C108.895 75.1459 108.844 75.1459 108.742 75.1459C108.691 75.1459 108.64 75.1974 108.538 75.2488C108.487 75.3003 108.436 75.3518 108.386 75.4547L108.08 75.3518L108.946 72.5213C109.047 72.2125 109.149 71.9552 109.251 71.7493C109.353 71.492 109.506 71.2862 109.709 71.1318C109.862 70.9774 110.015 70.8745 110.218 70.823C110.422 70.7715 110.626 70.7715 110.88 70.8745C111.491 71.0803 111.847 71.6464 112 72.5213ZM111.338 73.8079C111.44 73.4991 111.44 73.2932 111.44 73.0874C111.389 72.8815 111.338 72.7271 111.186 72.6242C111.084 72.4698 110.88 72.3669 110.575 72.3154C110.32 72.264 110.116 72.2125 109.964 72.264C109.811 72.3154 109.658 72.4183 109.556 72.5727C109.455 72.7271 109.353 72.933 109.251 73.1903C109.2 73.3962 109.149 73.602 109.098 73.8079L111.135 74.4254L111.338 73.8079ZM113.935 75.2488C113.986 75.0945 114.036 74.8886 114.138 74.6827C114.24 74.4254 114.24 74.1681 114.24 73.9623C114.24 73.7564 114.138 73.602 114.036 73.4476C113.884 73.2932 113.68 73.1903 113.375 73.0874C113.171 73.0359 112.967 72.9844 112.815 72.9844C112.662 72.9844 112.509 73.0359 112.407 73.0874C112.306 73.1388 112.204 73.2418 112.102 73.3962C112 73.5505 111.949 73.7049 111.898 73.9108L111.695 74.5284L113.935 75.2488Z" fill="#002873"/>
<path d="M116.071 65.7283L116.224 64.9049L118.362 65.2652L118.26 65.8827C117.598 65.8827 117.14 65.9342 116.885 66.0371C116.682 66.14 116.529 66.2944 116.478 66.5517L115.714 70.9776L115.409 70.9261C115.409 70.7203 115.358 70.5659 115.256 70.463C115.154 70.4115 114.951 70.3086 114.696 70.2571L110.878 69.5881C110.573 69.5366 110.369 69.5366 110.267 69.5881C110.165 69.6395 110.064 69.7425 109.962 69.9483L109.656 69.8969L110.064 67.5295L110.369 67.581C110.369 67.7869 110.42 67.9413 110.522 67.9927C110.624 68.0442 110.776 68.0956 111.133 68.1986L115.46 68.9705L115.765 67.1178L111.438 66.3459C111.133 66.2944 110.929 66.2944 110.827 66.3459C110.725 66.3974 110.624 66.5003 110.522 66.7061L110.216 66.6547L110.624 64.2874L110.929 64.3388C110.929 64.5447 110.98 64.6991 111.082 64.7505C111.184 64.802 111.387 64.9049 111.642 64.9564L116.071 65.7283Z" fill="#002873"/>
<path d="M110.93 59.0894L112.356 59.1408L112.305 59.7584C111.999 59.8613 111.847 59.9128 111.694 59.9642C111.592 60.0157 111.49 60.1186 111.439 60.2216C111.389 60.3245 111.338 60.4789 111.338 60.6847L111.287 61.6625L113.425 61.7655L113.476 61.1479C113.476 60.9935 113.476 60.8906 113.425 60.8391C113.374 60.7876 113.323 60.6847 113.272 60.6333C113.17 60.5818 113.069 60.5303 112.865 60.4789V59.9642L114.698 60.0672V60.5818C114.545 60.6333 114.392 60.6333 114.29 60.6847C114.189 60.7362 114.138 60.7876 114.087 60.8391C114.036 60.8906 114.036 60.9935 114.036 61.1479L113.985 61.7655L116.378 61.8684L116.429 60.8906C116.429 60.7876 116.429 60.6847 116.429 60.6333C116.429 60.5818 116.378 60.4789 116.378 60.4274C116.327 60.3759 116.327 60.3245 116.276 60.273C116.225 60.2216 116.174 60.1701 116.123 60.1186C116.072 60.0672 115.97 60.0157 115.869 59.9642C115.767 59.9128 115.614 59.8613 115.41 59.8098L115.461 59.1923L117.09 59.3467L116.887 63.7725H116.581C116.581 63.6696 116.53 63.5667 116.479 63.5152C116.429 63.4637 116.378 63.4123 116.327 63.3608C116.276 63.3094 116.174 63.3094 116.072 63.3094C115.97 63.3094 115.869 63.3094 115.716 63.2579L111.847 63.1035C111.694 63.1035 111.592 63.1035 111.49 63.1035C111.389 63.1035 111.338 63.1035 111.236 63.155C111.185 63.2064 111.134 63.2064 111.083 63.3094C111.032 63.4123 110.981 63.4637 110.981 63.5667H110.676L110.93 59.0894Z" fill="#002873"/>
<path d="M115.302 16.3495L0 70.6989L14.4791 102.088L129.781 47.7391L115.302 16.3495Z" fill="#002873"/>
<path d="M113.677 19.4742L3.54297 71.3877L3.84417 72.0407L113.978 20.1272L113.677 19.4742Z" fill="white"/>
<path d="M126.056 46.2801L15.9219 98.1936L16.2231 98.8466L126.357 46.9331L126.056 46.2801Z" fill="white"/>
<path d="M28.7154 88.372C28.6645 88.6293 28.4608 88.8352 28.0535 88.9896L26.4753 89.7615C26.0681 89.9674 25.7626 89.9674 25.559 89.813C25.3553 89.6586 25.1517 89.3498 24.9481 88.8866L21.7408 81.8876C21.639 81.6303 21.5371 81.4759 21.4353 81.4244C21.3335 81.373 21.1808 81.373 20.9771 81.4759L19.1953 82.2993C18.9917 82.4022 18.8898 82.5052 18.8898 82.6081C18.8898 82.711 18.9408 82.9169 19.0426 83.1742L22.2499 90.1732C22.4535 90.6364 22.5553 90.9452 22.5553 91.2539C22.5553 91.5113 22.3517 91.7686 21.9444 91.923L20.3662 92.6949C20.0099 92.8493 19.7044 92.9008 19.4498 92.7978C19.1953 92.6949 18.9917 92.3861 18.7371 91.82L10.6425 74.271C10.4389 73.8078 10.3371 73.3961 10.388 73.1388C10.4389 72.8815 10.6425 72.6757 10.9989 72.4698L12.628 71.6978C12.9844 71.5435 13.2389 71.5435 13.4934 71.6464C13.6971 71.8008 13.9516 72.0581 14.1553 72.5213L16.8535 78.3366C16.9553 78.5939 17.0571 78.6969 17.1589 78.7483C17.2607 78.7998 17.4135 78.7483 17.5662 78.6969L19.3989 77.822C19.5517 77.7705 19.6535 77.6676 19.7044 77.5647C19.7553 77.4618 19.7044 77.3074 19.6026 77.05L16.9044 71.2347C16.7007 70.7715 16.5989 70.4627 16.6498 70.1539C16.7007 69.8966 16.8535 69.6908 17.2098 69.5364L18.8389 68.7644C19.1953 68.61 19.5008 68.5586 19.7553 68.713C20.0099 68.8159 20.2135 69.1247 20.468 69.6393L28.5626 87.1883C28.6644 87.7544 28.7663 88.1147 28.7154 88.372Z" fill="white"/>
<path d="M41.9007 82.5051L39.0498 83.8431C38.8971 83.8946 38.7444 83.9461 38.6425 83.8946C38.5407 83.8431 38.4389 83.7402 38.2862 83.5344L35.7407 79.5202C35.588 79.3144 35.4862 79.2114 35.3843 79.2114C35.2825 79.16 35.1807 79.2114 34.9771 79.2629L33.7043 79.8805C33.5516 79.9319 33.4498 80.0349 33.3989 80.1378C33.348 80.2407 33.348 80.3951 33.3989 80.601L34.9262 85.1297C34.9771 85.3356 35.028 85.49 34.9771 85.5929C34.9262 85.6958 34.8243 85.7988 34.6207 85.9017L31.8716 87.1883C31.5152 87.3427 31.2607 87.2912 31.1589 86.9824L24.9988 67.2719C24.8461 66.8088 24.8461 66.4485 24.9479 66.1912C25.0497 65.9339 25.3043 65.728 25.7116 65.5222L29.1734 63.8753C29.5298 63.721 29.8352 63.6695 30.0898 63.7724C30.3443 63.8753 30.5989 64.1327 30.8534 64.5444L42.0026 81.8361C42.308 82.0934 42.2062 82.3507 41.9007 82.5051ZM29.5807 68.61C29.4279 68.3012 29.2752 68.1983 29.1225 68.2497C28.9698 68.3012 28.9698 68.5071 29.1225 68.8673L31.8207 76.0207C31.8716 76.278 32.0752 76.3295 32.3807 76.1751L33.1443 75.8149C33.4498 75.6605 33.5516 75.5061 33.3989 75.3002L29.5807 68.61Z" fill="white"/>
<path d="M54.4769 76.1752C54.426 76.4325 54.1715 76.6384 53.7642 76.8442L52.3896 77.5132C52.0333 77.6676 51.7787 77.7706 51.5751 77.7191C51.4224 77.6676 51.1169 77.4618 50.7605 77.153L44.8041 70.7715C44.6514 70.6171 44.5496 70.5142 44.4987 70.5142C44.4478 70.4628 44.346 70.4628 44.2951 70.5142C44.2441 70.5657 44.1932 70.6171 44.2441 70.6686C44.2441 70.7715 44.346 70.9259 44.4478 71.1318L47.6551 78.1308C47.8587 78.594 47.9605 78.9542 47.9096 79.2115C47.8587 79.4689 47.706 79.7262 47.2987 79.8806L45.7205 80.601C45.3642 80.7554 45.0587 80.8069 44.8041 80.7554C44.5496 80.704 44.2951 80.3437 43.9896 79.7776L35.9459 62.2801C35.6914 61.7654 35.5895 61.3537 35.6914 61.1479C35.7932 60.942 35.9968 60.6847 36.4041 60.4789L37.7786 59.8098C38.135 59.6554 38.3896 59.5525 38.5932 59.604C38.7459 59.6554 39.0514 59.8613 39.4077 60.1701L45.3641 66.5001C45.5169 66.6545 45.6187 66.7574 45.6696 66.7574C45.7205 66.8089 45.8223 66.8089 45.8732 66.7574C45.9242 66.7059 45.9751 66.6545 45.9241 66.603C45.8732 66.5515 45.8223 66.3457 45.7205 66.1398L42.5132 59.1923C42.3096 58.7291 42.2078 58.3689 42.2587 58.1115C42.3096 57.8542 42.4623 57.5969 42.8696 57.4425L44.4478 56.722C44.8041 56.5676 45.1096 56.5162 45.3641 56.5676C45.6187 56.6191 45.8732 56.9793 46.1787 57.5454L54.2224 74.9915C54.426 75.5576 54.5278 75.9179 54.4769 76.1752Z" fill="white"/>
<path d="M62.8769 60.273C63.8951 62.4859 64.6588 64.2357 65.1679 65.6252C65.677 67.0147 65.9824 68.0954 66.0333 68.9188C66.0842 69.7422 65.9315 70.4113 65.5242 70.8744C65.117 71.3376 64.557 71.7493 63.7933 72.1096L58.9569 74.3739C58.4987 74.5798 58.1933 74.6313 57.9896 74.5283C57.786 74.4254 57.5824 74.1166 57.3278 73.5505L49.2332 56.053C48.9787 55.5384 48.9278 55.1781 48.9787 54.9208C49.0296 54.6635 49.2332 54.4576 49.5896 54.2518L54.6805 51.833C55.4951 51.4213 56.2587 51.3184 56.9205 51.4213C57.5824 51.5242 58.1933 51.9359 58.8042 52.6564C59.4151 53.3254 60.026 54.3032 60.6878 55.5384C61.2988 56.8764 62.0115 58.4203 62.8769 60.273ZM59.466 62.2801C58.7024 60.5818 58.0915 59.2952 57.6333 58.4203C57.1751 57.494 56.8187 56.8764 56.5133 56.4647C56.2078 56.1044 55.9024 55.8986 55.6478 55.9501C55.3933 55.9501 55.0369 56.1044 54.6296 56.2588C54.2224 56.4647 53.9678 56.6191 53.866 56.7735C53.7642 56.9279 53.8151 57.2366 54.0187 57.5969L59.2115 68.9188C59.3642 69.2791 59.5678 69.4849 59.7206 69.5364C59.8733 69.5879 60.1788 69.4335 60.7388 69.2276C61.0951 69.0732 61.3497 68.8674 61.5533 68.713C61.7569 68.5071 61.8078 68.1983 61.706 67.7866C61.6042 67.3235 61.4006 66.7059 61.0442 65.831C60.6878 64.9562 60.1788 63.7725 59.466 62.2801Z" fill="white"/>
<path d="M82.4265 63.1035C82.3756 63.3093 82.1719 63.5152 81.7138 63.721L80.1356 64.4415C79.7283 64.6474 79.4228 64.6474 79.2192 64.5444C79.0156 64.4415 78.8119 64.1327 78.5574 63.6181L74.7901 55.4354C74.7392 55.281 74.6373 55.1266 74.5864 54.9722C74.5355 54.8178 74.4337 54.7149 74.3319 54.7664C74.281 54.8179 74.2301 54.8693 74.281 55.0237C74.281 55.1781 74.3319 55.3325 74.3828 55.5383L75.9101 62.0742C76.0119 62.4859 76.0119 62.7947 75.9101 63.0005C75.8083 63.2064 75.6046 63.3608 75.2483 63.5152C74.8919 63.6696 74.6373 63.721 74.4337 63.6696C74.2301 63.6181 73.9755 63.4637 73.721 63.1035L69.75 57.6998C69.6482 57.5454 69.5464 57.4425 69.4446 57.2881C69.3428 57.1852 69.2409 57.1337 69.19 57.1337C69.0882 57.1852 69.0882 57.2881 69.19 57.4425C69.2919 57.5969 69.3428 57.7513 69.3937 57.9057L73.161 66.0883C73.3646 66.5515 73.4664 66.9117 73.4664 67.1691C73.4155 67.4264 73.2119 67.6322 72.8046 67.7866L71.2264 68.5071C70.8191 68.713 70.5137 68.7644 70.3101 68.6615C70.1064 68.5586 69.9028 68.2498 69.6482 67.6837L61.5027 50.0318C61.2482 49.5171 61.1973 49.1569 61.1973 48.951C61.2482 48.7452 61.4518 48.5393 61.8591 48.3335L63.6409 47.6644C64.0991 47.4586 64.4555 47.3557 64.6591 47.3557C64.8627 47.4071 65.1173 47.5615 65.4227 47.9732L70.7682 54.3032C70.921 54.4576 71.0228 54.5091 71.1246 54.4576C71.2264 54.4061 71.2773 54.3032 71.2264 54.0974L69.9028 45.9147C69.8519 45.4515 69.8519 45.0913 69.9537 44.9369C70.0555 44.7825 70.361 44.5766 70.8191 44.3193L72.4482 43.5474C72.8555 43.3415 73.161 43.3415 73.3137 43.4444C73.5173 43.5474 73.721 43.8561 73.9755 44.3708L82.121 62.0227C82.3756 62.4859 82.4774 62.8461 82.4265 63.1035Z" fill="white"/>
<path d="M95.5589 57.1853L92.708 58.5233C92.5553 58.5748 92.4026 58.6262 92.3007 58.5748C92.1989 58.5233 92.0971 58.4204 91.9444 58.2145L89.3989 54.2004C89.2462 53.9945 89.1444 53.8916 89.0425 53.8916C88.9407 53.8402 88.8389 53.8916 88.6353 53.9431L87.3625 54.5606C87.2098 54.6121 87.108 54.715 87.0571 54.818C87.0062 54.9209 87.0062 55.0753 87.0571 55.2811L88.5844 59.8099C88.6353 60.0158 88.6862 60.1702 88.6353 60.2731C88.5844 60.376 88.4825 60.4789 88.2789 60.5819L85.5298 61.8684C85.1734 62.0228 84.9189 61.9714 84.8171 61.6626L78.657 41.9521C78.5043 41.4889 78.5043 41.1287 78.6061 40.8714C78.7079 40.6141 78.9625 40.4082 79.3698 40.2024L82.8316 38.5555C83.188 38.4011 83.4934 38.3497 83.748 38.4526C84.0025 38.5555 84.2571 38.8128 84.5116 39.2245L95.6608 56.5162C95.9662 56.825 95.8644 57.0309 95.5589 57.1853ZM83.2389 43.3416C83.0861 43.0328 82.9334 42.9299 82.7807 42.9814C82.628 43.0328 82.628 43.2387 82.7807 43.5989L85.4789 50.7523C85.5298 51.0097 85.7334 51.0611 86.0389 50.9067L86.8025 50.5465C87.108 50.3921 87.2098 50.2377 87.0571 50.0319L83.2389 43.3416Z" fill="white"/>
<path d="M103.346 41.2315C104.364 43.4444 105.128 45.1942 105.637 46.5837C106.146 47.9732 106.451 49.0539 106.502 49.8773C106.553 50.7007 106.4 51.3698 105.993 51.8329C105.586 52.2961 105.026 52.7078 104.262 53.0681L99.4257 55.3325C98.9675 55.5383 98.662 55.5898 98.4584 55.4868C98.2548 55.3839 98.0511 55.0751 97.7966 54.509L89.702 37.0115C89.4474 36.4968 89.3965 36.1366 89.4474 35.8793C89.4983 35.622 89.702 35.4161 90.0583 35.2103L95.1493 32.7915C95.9638 32.3798 96.7275 32.2768 97.3893 32.3798C98.0511 32.4827 98.662 32.8944 99.2729 33.6149C99.8839 34.2839 100.495 35.2617 101.157 36.4968C101.768 37.8349 102.48 39.3788 103.346 41.2315ZM99.9348 43.1871C99.1711 41.4888 98.5602 40.2022 98.102 39.3273C97.6438 38.401 97.2875 37.7834 96.982 37.3717C96.6766 37.0115 96.3711 36.8056 96.1166 36.8571C95.862 36.8571 95.5057 37.0115 95.0984 37.1659C94.6911 37.3717 94.4366 37.5261 94.3347 37.6805C94.2329 37.8349 94.2838 38.1437 94.4875 38.5039L99.6802 49.8259C99.8329 50.1861 100.037 50.392 100.189 50.4434C100.342 50.4949 100.648 50.3405 101.208 50.1347C101.564 49.9803 101.818 49.7744 102.022 49.62C102.226 49.4142 102.277 49.1054 102.175 48.6937C102.073 48.2305 101.869 47.6129 101.513 46.7381C101.157 45.8632 100.648 44.731 99.9348 43.1871Z" fill="white"/>
<path d="M118.57 45.9661C118.519 46.2235 118.315 46.4808 117.908 46.6352L111.799 49.5171C111.391 49.723 111.086 49.723 110.882 49.62C110.679 49.5171 110.424 49.2083 110.17 48.6422L102.075 31.1447C101.82 30.63 101.77 30.2698 101.82 30.0125C101.871 29.7552 102.126 29.5493 102.482 29.3435L108.439 26.5644C108.795 26.41 109.101 26.3586 109.304 26.41C109.508 26.513 109.711 26.7703 109.915 27.2849L110.424 28.4171C110.679 28.9318 110.73 29.292 110.679 29.4978C110.628 29.7552 110.424 29.961 110.017 30.1154L107.064 31.5049C106.861 31.6078 106.708 31.7108 106.708 31.8137C106.657 31.9166 106.708 32.1225 106.861 32.4313L108.133 35.2618C108.286 35.5191 108.388 35.7249 108.439 35.7764C108.541 35.8278 108.693 35.7764 108.948 35.6735L110.424 34.953C110.781 34.7986 111.035 34.7471 111.188 34.85C111.391 34.953 111.544 35.1588 111.748 35.5705L112.461 37.1144C112.664 37.5261 112.715 37.8349 112.613 37.9893C112.562 38.1952 112.359 38.3496 112.053 38.5039L110.577 39.2244C110.373 39.3274 110.221 39.4303 110.17 39.5332C110.119 39.6361 110.17 39.7391 110.221 39.9449L112.155 44.1649C112.257 44.4222 112.359 44.5766 112.511 44.6281C112.613 44.6796 112.817 44.6796 113.122 44.5252L116.075 43.1356C116.482 42.9298 116.788 42.9298 117.042 43.0327C117.297 43.1357 117.501 43.4444 117.755 43.9076L118.213 44.8854C118.57 45.2971 118.671 45.7088 118.57 45.9661Z" fill="white"/>
<path d="M37.141 49.7458C38.0838 49.3013 38.4918 48.1684 38.0521 47.2153C37.6125 46.2622 36.4918 45.8499 35.5489 46.2943C34.6061 46.7387 34.1982 47.8716 34.6378 48.8247C35.0775 49.7778 36.1982 50.1902 37.141 49.7458Z" fill="#002873"/>
<path d="M36.3493 51.0611C35.2293 51.0611 34.1602 50.392 33.6511 49.3113C32.9383 47.8189 33.6002 46.0176 35.0765 45.2972C36.5529 44.5767 38.3347 45.2457 39.0475 46.7381C39.7602 48.2306 39.0984 50.0318 37.622 50.7523C37.2147 50.9581 36.7566 51.0611 36.3493 51.0611ZM36.3493 47.2013C36.2475 47.2013 36.0947 47.2013 35.9929 47.3042C35.5856 47.5101 35.382 47.9733 35.5856 48.385C35.7893 48.7967 36.2475 48.9511 36.6547 48.7967C37.062 48.5908 37.2147 48.1276 37.062 47.7159C36.9602 47.3557 36.6547 47.2013 36.3493 47.2013Z" fill="#002873"/>
<path d="M50.3871 43.5262C51.3299 43.0817 51.7379 41.9488 51.2982 40.9957C50.8586 40.0426 49.7379 39.6303 48.795 40.0747C47.8522 40.5191 47.4443 41.652 47.8839 42.6051C48.3236 43.5582 49.4443 43.9706 50.3871 43.5262Z" fill="#002873"/>
<path d="M49.5856 44.7825C48.4656 44.7825 47.3965 44.1134 46.8874 43.0327C46.1747 41.5403 46.8365 39.739 48.3129 39.0186C49.0256 38.6583 49.8402 38.6583 50.6038 38.9156C51.3674 39.1729 51.9274 39.739 52.2838 40.4595C52.6402 41.18 52.6402 42.0034 52.3856 42.7754C52.1311 43.5473 51.5711 44.1134 50.8583 44.4737C50.4511 44.6795 50.0438 44.7825 49.5856 44.7825ZM49.5856 40.9742C49.4838 40.9742 49.3311 41.0256 49.2292 41.0771C48.822 41.2829 48.6183 41.7461 48.822 42.1578C49.0256 42.5695 49.4838 42.7239 49.8911 42.5695C50.0947 42.4666 50.2474 42.3122 50.2983 42.1064C50.3492 41.9005 50.3492 41.6946 50.2474 41.4888C50.1456 41.2829 49.9929 41.1285 49.7892 41.0771C49.7892 40.9742 49.6874 40.9742 49.5856 40.9742Z" fill="#002873"/>
<path d="M63.6644 37.2379C64.6073 36.7935 65.0152 35.6606 64.5756 34.7075C64.1359 33.7544 63.0152 33.3421 62.0724 33.7865C61.1296 34.2309 60.7216 35.3638 61.1613 36.3169C61.6009 37.27 62.7216 37.6824 63.6644 37.2379Z" fill="#002873"/>
<path d="M62.8747 38.5553C61.7547 38.5553 60.6856 37.8863 60.1765 36.8056C59.4637 35.3131 60.1256 33.5119 61.6019 32.7914C63.0783 32.0709 64.8601 32.74 65.5729 34.2324C66.2856 35.7248 65.6238 37.5261 64.1474 38.2465C63.6892 38.4524 63.2819 38.5553 62.8747 38.5553ZM62.8747 34.6956C62.7729 34.6956 62.6201 34.6956 62.5183 34.7985C62.111 35.0043 61.9074 35.4675 62.111 35.8792C62.3147 36.2909 62.7729 36.4453 63.1801 36.2909C63.5874 36.0851 63.791 35.6219 63.5874 35.2102C63.4347 34.9014 63.1801 34.6956 62.8747 34.6956Z" fill="#002873"/>
<path d="M76.9086 31.0185C77.8514 30.574 78.2593 29.4411 77.8197 28.488C77.3801 27.535 76.2594 27.1226 75.3165 27.567C74.3737 28.0114 73.9658 29.1443 74.4054 30.0974C74.845 31.0505 75.9658 31.4629 76.9086 31.0185Z" fill="#002873"/>
<path d="M76.109 32.2768C74.989 32.2768 73.9199 31.6077 73.4108 30.527C72.6981 29.0346 73.3599 27.2333 74.8363 26.5129C76.3127 25.7924 78.0945 26.4614 78.8072 27.9538C79.52 29.4463 78.8582 31.2475 77.3818 31.968C76.9745 32.2253 76.5163 32.2768 76.109 32.2768ZM76.109 28.4685C76.0072 28.4685 75.8545 28.4685 75.7527 28.5714C75.3454 28.7772 75.1418 29.2404 75.3454 29.6521C75.549 30.0638 76.0072 30.2182 76.4145 30.0638C76.8218 29.858 76.9745 29.3948 76.8218 28.9831C76.72 28.6229 76.4145 28.4685 76.109 28.4685Z" fill="#002873"/>
<path d="M40.0863 38.5248C41.0292 38.0804 41.4371 36.9475 40.9974 35.9944C40.5578 35.0413 39.4371 34.6289 38.4943 35.0734C37.5514 35.5178 37.1435 36.6507 37.5831 37.6038C38.0228 38.5569 39.1435 38.9692 40.0863 38.5248Z" fill="#002873"/>
<path d="M39.3004 39.8421C38.1804 39.8421 37.1113 39.173 36.6023 38.0923C35.8895 36.5999 36.5513 34.7986 38.0277 34.0782C39.5041 33.3577 41.2859 34.0267 41.9986 35.5191C42.7114 37.0116 42.0496 38.8128 40.5732 39.5333C40.115 39.7391 39.7077 39.8421 39.3004 39.8421ZM39.3004 35.9823C39.1986 35.9823 39.0459 35.9823 38.9441 36.0338C38.5368 36.2396 38.3332 36.7028 38.5368 37.1145C38.7404 37.5262 39.1986 37.6806 39.6059 37.5262C40.0132 37.3204 40.1659 36.8572 40.0132 36.4455C39.8605 36.1882 39.6059 35.9823 39.3004 35.9823Z" fill="#002873"/>
<path d="M53.3363 32.3052C54.2792 31.8608 54.6871 30.7279 54.2474 29.7748C53.8078 28.8217 52.6871 28.4093 51.7443 28.8538C50.8014 29.2982 50.3935 30.4311 50.8331 31.3842C51.2728 32.3373 52.3935 32.7496 53.3363 32.3052Z" fill="#002873"/>
<path d="M52.5384 33.6148C51.4184 33.6148 50.3493 32.9458 49.8402 31.8651C49.4838 31.1446 49.4838 30.3212 49.7384 29.5492C49.9929 28.7773 50.5529 28.2112 51.2657 27.8509C51.9784 27.4907 52.7929 27.4907 53.5566 27.748C54.3202 28.0053 54.8802 28.5714 55.2366 29.2919C55.9493 30.7844 55.2875 32.5856 53.8111 33.3061C53.4039 33.5119 52.9457 33.6148 52.5384 33.6148ZM52.5384 29.7551C52.4366 29.7551 52.2838 29.8066 52.182 29.858C51.9784 29.9609 51.8257 30.1153 51.7748 30.3212C51.7238 30.527 51.7238 30.7329 51.8257 30.9388C52.0293 31.3505 52.4875 31.5048 52.8948 31.3505C53.302 31.1446 53.4548 30.6814 53.302 30.2697C53.2002 30.0639 53.0475 29.9095 52.8439 29.858C52.742 29.7551 52.6402 29.7551 52.5384 29.7551Z" fill="#002873"/>
<path d="M66.5844 26.0854C67.5272 25.6409 67.9351 24.508 67.4955 23.5549C67.0558 22.6019 65.9351 22.1895 64.9923 22.6339C64.0495 23.0783 63.6416 24.2112 64.0812 25.1643C64.5208 26.1174 65.6415 26.5298 66.5844 26.0854Z" fill="#002873"/>
<path d="M65.8278 27.3363C64.7078 27.3363 63.6387 26.6673 63.1296 25.5866C62.4169 24.0941 63.0787 22.2929 64.5551 21.5724C66.0314 20.8519 67.8133 21.521 68.526 23.0134C68.8824 23.7339 68.8824 24.5573 68.6278 25.3293C68.3733 26.1012 67.8133 26.6673 67.1005 27.0275C66.6423 27.2334 66.2351 27.3363 65.8278 27.3363ZM65.7769 23.4766C65.6751 23.4766 65.5223 23.4766 65.4205 23.5795C65.0132 23.7854 64.8605 24.2485 65.0132 24.6602C65.2169 25.0719 65.6751 25.2263 66.0823 25.0719C66.286 24.969 66.4387 24.8146 66.4896 24.6088C66.5405 24.4029 66.5405 24.1971 66.4387 23.9912C66.3878 23.6824 66.0823 23.4766 65.7769 23.4766Z" fill="#002873"/>
<path d="M94.2055 72.0973C95.1483 71.6529 95.5562 70.52 95.1166 69.5669C94.6769 68.6138 93.5562 68.2015 92.6134 68.6459C91.6706 69.0903 91.2626 70.2232 91.7023 71.1763C92.1419 72.1294 93.2626 72.5417 94.2055 72.0973Z" fill="#002873"/>
<path d="M93.4665 73.3963C92.3465 73.3963 91.2774 72.7273 90.7683 71.6466C90.0555 70.1541 90.7174 68.3529 92.1937 67.6324C92.9065 67.2722 93.721 67.2722 94.4847 67.5295C95.2483 67.7868 95.8083 68.3529 96.1647 69.0734C96.521 69.7939 96.521 70.6173 96.2665 71.3893C96.0119 72.1612 95.4519 72.7273 94.7392 73.0876C94.281 73.2934 93.8737 73.3963 93.4665 73.3963ZM93.4156 69.5366C93.3137 69.5366 93.161 69.5366 93.0592 69.6395C92.6519 69.8454 92.4483 70.3085 92.6519 70.7202C92.8556 71.132 93.3137 71.2863 93.721 71.132C94.1283 70.9261 94.281 70.4629 94.1283 70.0512C94.0265 69.8454 93.8737 69.691 93.6701 69.6395C93.6192 69.588 93.5174 69.5366 93.4156 69.5366Z" fill="#002873"/>
<path d="M80.9828 78.3636C81.9256 77.9191 82.3336 76.7862 81.8939 75.8331C81.4543 74.88 80.3336 74.4677 79.3907 74.9121C78.4479 75.3565 78.04 76.4894 78.4796 77.4425C78.9193 78.3956 80.04 78.808 80.9828 78.3636Z" fill="#002873"/>
<path d="M80.1829 79.6236C79.8266 79.6236 79.4702 79.5721 79.1647 79.4177C78.4011 79.1604 77.8411 78.5943 77.4847 77.8738C77.1284 77.1533 77.1284 76.3299 77.3829 75.5579C77.6375 74.786 78.1975 74.2199 78.9102 73.8597C80.3866 73.1392 82.1684 73.8082 82.8811 75.3006C83.5939 76.7931 82.932 78.5943 81.4557 79.3148C81.0484 79.5206 80.5902 79.6236 80.1829 79.6236ZM79.4193 76.9989C79.5211 77.2048 79.6738 77.3592 79.8775 77.4106C80.0811 77.4621 80.2847 77.4621 80.4884 77.3592C80.8957 77.1533 81.0484 76.6901 80.8957 76.2784C80.692 75.8667 80.2338 75.6609 79.8266 75.8667C79.6229 75.9697 79.4702 76.124 79.4193 76.3299C79.3175 76.5358 79.3684 76.7931 79.4193 76.9989Z" fill="#002873"/>
<path d="M67.7348 84.5832C68.6776 84.1387 69.0855 83.0058 68.6459 82.0527C68.2062 81.0997 67.0855 80.6873 66.1427 81.1317C65.1999 81.5761 64.7919 82.709 65.2316 83.6621C65.6712 84.6152 66.7919 85.0276 67.7348 84.5832Z" fill="#002873"/>
<path d="M66.9446 85.902C66.5883 85.902 66.2319 85.8505 65.9265 85.6961C65.1628 85.4388 64.6028 84.8727 64.2464 84.1522C63.8901 83.4317 63.8901 82.6083 64.1446 81.8363C64.3992 81.0644 64.9592 80.4983 65.6719 80.1381C66.3846 79.7778 67.1992 79.7778 67.9628 80.0351C68.7265 80.2924 69.2865 80.8585 69.6428 81.579C69.9992 82.2995 69.9992 83.1229 69.7447 83.8949C69.4901 84.6668 68.9301 85.2329 68.2174 85.5932C67.7592 85.799 67.3519 85.902 66.9446 85.902ZM66.9446 82.0422C66.8428 82.0422 66.6901 82.0937 66.5883 82.1451C66.181 82.351 66.0283 82.8142 66.181 83.2259C66.2828 83.4317 66.4355 83.5861 66.6392 83.6376C66.8428 83.689 67.0465 83.689 67.2501 83.5861C67.4537 83.4832 67.6065 83.3288 67.6574 83.1229C67.7083 82.9171 67.7083 82.7112 67.6065 82.5054C67.5046 82.2995 67.3519 82.1451 67.1483 82.0937C67.0974 82.0422 66.9956 82.0422 66.9446 82.0422Z" fill="#002873"/>
<path d="M54.4594 90.8711C55.4022 90.4267 55.8101 89.2938 55.3705 88.3407C54.9309 87.3876 53.8101 86.9753 52.8673 87.4197C51.9245 87.8641 51.5166 88.997 51.9562 89.9501C52.3958 90.9032 53.5165 91.3156 54.4594 90.8711Z" fill="#002873"/>
<path d="M53.6579 92.129C52.5379 92.129 51.4688 91.46 50.9597 90.3793C50.2469 88.8869 50.9088 87.0856 52.3851 86.3651C53.8615 85.6447 55.6433 86.3137 56.3561 87.8061C57.0688 89.2986 56.407 91.0998 54.9306 91.8203C54.5233 92.0261 54.1161 92.129 53.6579 92.129ZM53.6579 88.3208C53.5561 88.3208 53.4033 88.3208 53.3015 88.4237C52.8942 88.6295 52.6906 89.0927 52.8942 89.5044C53.0979 89.9161 53.5561 90.122 53.9633 89.9161C54.3706 89.7103 54.5742 89.2471 54.3706 88.8354C54.2688 88.4752 53.9633 88.3208 53.6579 88.3208Z" fill="#002873"/>
<path d="M91.307 83.2968C92.2499 82.8524 92.6578 81.7195 92.2181 80.7664C91.7785 79.8133 90.6578 79.4009 89.715 79.8453C88.7721 80.2898 88.3642 81.4227 88.8038 82.3758C89.2435 83.3288 90.3642 83.7412 91.307 83.2968Z" fill="#002873"/>
<path d="M90.5153 84.6155C89.3953 84.6155 88.3262 83.9464 87.8171 82.8657C87.1044 81.3733 87.7662 79.5721 89.2426 78.8516C89.9553 78.4913 90.7698 78.4913 91.5335 78.7486C92.2971 79.0059 92.8571 79.572 93.2135 80.2925C93.9262 81.785 93.2644 83.5862 91.788 84.3067C91.3298 84.5125 90.9226 84.6155 90.5153 84.6155ZM90.5153 80.7557C90.4135 80.7557 90.2607 80.7557 90.1589 80.8586C89.7517 81.0645 89.548 81.5277 89.7517 81.9394C89.9553 82.3511 90.4135 82.5569 90.8207 82.3511C91.228 82.1452 91.3808 81.682 91.228 81.2703C91.1262 81.0645 90.9735 80.9101 90.7698 80.8586C90.668 80.7557 90.5662 80.7557 90.5153 80.7557Z" fill="#002873"/>
<path d="M78.0199 89.5379C78.9627 89.0935 79.3707 87.9605 78.931 87.0075C78.4914 86.0544 77.3707 85.642 76.4279 86.0864C75.485 86.5308 75.0771 87.6637 75.5167 88.6168C75.9564 89.5699 77.0771 89.9823 78.0199 89.5379Z" fill="#002873"/>
<path d="M77.2318 90.8422C76.1117 90.8422 75.0426 90.1732 74.5336 89.0924C74.1772 88.3719 74.1772 87.5485 74.4317 86.7766C74.6863 86.0046 75.2463 85.4385 75.959 85.0783C77.4354 84.3578 79.2172 85.0268 79.93 86.5193C80.6427 88.0117 79.9809 89.8129 78.5045 90.5334C78.0972 90.7393 77.6899 90.8422 77.2318 90.8422ZM76.519 88.1661C76.7227 88.5778 77.1808 88.7837 77.5881 88.5778C77.9954 88.3719 78.199 87.9088 77.9954 87.4971C77.7918 87.0854 77.3336 86.8795 76.9263 87.0854C76.7227 87.1883 76.5699 87.3427 76.519 87.5485C76.4172 87.7544 76.4172 87.9602 76.519 88.1661Z" fill="#002873"/>
<path d="M64.7894 95.804C65.7323 95.3596 66.1402 94.2267 65.7006 93.2736C65.2609 92.3205 64.1402 91.9081 63.1974 92.3525C62.2546 92.797 61.8466 93.9299 62.2863 94.883C62.7259 95.836 63.8466 96.2484 64.7894 95.804Z" fill="#002873"/>
<path d="M63.9935 97.0693C63.6371 97.0693 63.2807 97.0179 62.9753 96.8635C62.2116 96.6061 61.6516 96.04 61.2953 95.3196C60.9389 94.5991 60.9389 93.7757 61.1935 93.0037C61.448 92.2318 62.008 91.6657 62.7207 91.3054C63.4335 90.9452 64.248 90.9452 65.0117 91.2025C65.7753 91.4598 66.3353 92.0259 66.6917 92.7464C67.048 93.4669 67.048 94.2903 66.7935 95.0622C66.5389 95.8342 65.9789 96.4003 65.2662 96.7605C64.8589 97.0178 64.4007 97.0693 63.9935 97.0693ZM63.9935 93.261C63.8917 93.261 63.7389 93.3125 63.6371 93.364C63.4335 93.4669 63.2807 93.6213 63.2298 93.8271C63.1789 94.033 63.1789 94.2388 63.2807 94.4447C63.3826 94.6505 63.5353 94.8049 63.7389 94.8564C63.9426 94.9079 64.1462 94.9079 64.3498 94.8049C64.5535 94.702 64.7062 94.5476 64.7571 94.3418C64.808 94.1359 64.808 93.93 64.7062 93.7242C64.6044 93.5183 64.4517 93.3639 64.248 93.3125C64.1462 93.261 64.0953 93.261 63.9935 93.261Z" fill="#002873"/>
</g>
<defs>
<clipPath id="clip0_1471_180926">
<rect width="129.768" height="116.719" fill="white" transform="translate(0 0.832764)"/>
</clipPath>
</defs>
</svg>
