<svg width="142" height="143" viewBox="0 0 142 143" fill="none" xmlns="http://www.w3.org/2000/svg">
<g clip-path="url(#clip0_751_17750)">
<rect y="0.606201" width="142" height="141.698" rx="70.849" fill="white"/>
<path d="M95.3112 64.7351C92.7695 64.6256 90.325 63.252 88.9629 60.8815C87.5887 58.511 87.6252 55.7151 88.8048 53.454C86.5428 54.6332 83.7456 54.6575 81.3741 53.296C79.0027 51.9223 77.6284 49.4911 77.5189 46.9504C76.1447 49.1021 73.7489 50.5244 71.0125 50.5244C68.2762 50.5244 65.8682 49.1021 64.5061 46.9504C64.3967 49.4911 63.0224 51.9345 60.6509 53.296C58.2795 54.6697 55.4823 54.6332 53.2203 53.454C54.3999 55.7151 54.4243 58.511 53.0622 60.8815C51.6879 63.252 49.2556 64.6256 46.7139 64.7351C48.8665 66.1087 50.2894 68.5035 50.2894 71.2387C50.2894 73.9738 48.8665 76.3808 46.7139 77.7423C49.2556 77.8517 51.7001 79.2253 53.0622 81.5958C54.4364 83.9663 54.3999 86.7622 53.2203 89.0233C55.4823 87.8441 58.2795 87.8198 60.6509 89.1813C63.0224 90.555 64.3967 92.9862 64.5061 95.5269C65.8804 93.3752 68.2762 91.9529 71.0125 91.9529C73.7489 91.9529 76.1569 93.3752 77.5189 95.5269C77.6284 92.9862 79.0027 90.5428 81.3741 89.1813C83.7456 87.8077 86.5428 87.8441 88.8048 89.0233C87.6252 86.7622 87.6008 83.9663 88.9629 81.5958C90.3372 79.2253 92.7695 77.8517 95.3112 77.7423C93.1586 76.3686 91.7357 73.9738 91.7357 71.2387C91.7357 68.5035 93.1586 66.1087 95.3112 64.7351ZM88.2454 81.1946C86.2874 84.5741 82.1646 85.9234 78.65 84.4768C78.1392 88.2453 74.9164 91.1385 71.0004 91.1385C67.0965 91.1385 63.8737 88.2331 63.3508 84.4768C59.8361 85.9113 55.7134 84.5741 53.7554 81.1946C51.7974 77.8152 52.6973 73.5727 55.7012 71.2508C52.6973 68.929 51.7974 64.6864 53.7554 61.307C55.7134 57.9275 59.8361 56.5782 63.3508 58.0248C63.8616 54.2564 67.0844 51.3632 71.0004 51.3632C74.9042 51.3632 78.127 54.2685 78.65 58.0248C82.1646 56.5904 86.2874 57.9275 88.2454 61.307C90.2034 64.6864 89.3034 68.929 86.2996 71.2508C89.2913 73.5727 90.1912 77.8152 88.2454 81.1946Z" fill="#002873"/>
<path d="M107.156 71.2509C107.156 67.1056 103.872 63.714 99.7618 63.5438C103.24 61.3435 104.383 56.7728 102.304 53.1745C100.224 49.5763 95.6998 48.2877 92.0514 50.1962C93.9607 46.5493 92.6716 42.0272 89.0718 39.9485C85.472 37.8698 80.8993 39.0246 78.698 42.4891C78.5278 38.3803 75.1469 35.0981 70.9876 35.0981C66.8406 35.0981 63.4475 38.3803 63.2773 42.4891C61.076 39.0125 56.5033 37.8698 52.9035 39.9485C49.3037 42.0272 48.0146 46.5493 49.9239 50.1962C46.2755 48.2877 41.7514 49.5763 39.6718 53.1745C37.5922 56.7728 38.7475 61.3435 42.2135 63.5438C38.1029 63.714 34.8193 67.0934 34.8193 71.2509C34.8193 75.3962 38.1029 78.7878 42.2135 78.958C38.7353 81.1582 37.5922 85.729 39.6718 89.3273C41.7514 92.9255 46.2755 94.2141 49.9239 92.3055C48.0146 95.9524 49.3037 100.475 52.9035 102.553C56.5033 104.632 61.076 103.477 63.2773 100.013C63.4475 104.121 66.8284 107.404 70.9876 107.404C75.1347 107.404 78.5278 104.121 78.698 100.013C80.8993 103.489 85.472 104.632 89.0718 102.553C92.6716 100.475 93.9607 95.9524 92.0514 92.3055C95.6998 94.2141 100.224 92.9255 102.304 89.3273C104.383 85.729 103.228 81.1582 99.7618 78.958C103.885 78.7756 107.156 75.3962 107.156 71.2509ZM95.3106 77.7545C92.7689 77.8639 90.3244 79.2376 88.9623 81.608C87.5881 83.9785 87.6246 86.7744 88.8042 89.0355C86.5422 87.8563 83.7451 87.832 81.3736 89.1935C79.0021 90.5672 77.6278 92.9984 77.5184 95.5391C76.1441 93.3874 73.7483 91.9652 71.012 91.9652C68.2756 91.9652 65.8676 93.3874 64.5056 95.5391C64.3961 92.9984 63.0219 90.555 60.6504 89.1935C58.2789 87.8199 55.4817 87.8563 53.2197 89.0355C54.3994 86.7744 54.4237 83.9785 53.0616 81.608C51.6873 79.2376 49.255 77.8639 46.7133 77.7545C48.8659 76.3808 50.2888 73.9861 50.2888 71.2509C50.2888 68.5157 48.8659 66.1088 46.7133 64.7473C49.255 64.6379 51.6995 63.2642 53.0616 60.8937C54.4358 58.5233 54.3994 55.7273 53.2197 53.4663C55.4817 54.6454 58.2789 54.6697 60.6504 53.3082C63.0219 51.9346 64.3961 49.5033 64.5056 46.9627C65.8798 49.1143 68.2756 50.5366 71.012 50.5366C73.7483 50.5366 76.1563 49.1143 77.5184 46.9627C77.6278 49.5033 79.0021 51.9467 81.3736 53.3082C83.7451 54.6819 86.5422 54.6454 88.8042 53.4663C87.6246 55.7273 87.6003 58.5233 88.9623 60.8937C90.3366 63.2642 92.7689 64.6379 95.3106 64.7473C93.1581 66.1209 91.7352 68.5157 91.7352 71.2509C91.7352 73.9861 93.1581 76.3808 95.3106 77.7545Z" fill="#002873"/>
<path d="M86.2869 71.2385C89.2908 68.9166 90.1908 64.6741 88.2328 61.2947C86.2748 57.9152 82.152 56.5659 78.6374 58.0125C78.1266 54.244 74.9038 51.3508 70.9878 51.3508C67.0839 51.3508 63.8611 54.2562 63.3382 58.0125C59.8235 56.578 55.7008 57.9152 53.7428 61.2947C51.7847 64.6741 52.6847 68.9166 55.6886 71.2385C52.6847 73.5603 51.7847 77.8029 53.7428 81.1823C55.7008 84.5618 59.8235 85.9111 63.3382 84.4645C63.849 88.233 67.0718 91.1262 70.9878 91.1262C74.8916 91.1262 78.1144 88.2208 78.6374 84.4645C82.152 85.899 86.2748 84.5618 88.2328 81.1823C90.1908 77.815 89.2908 73.5725 86.2869 71.2385Z" fill="#002873"/>
<path d="M136.173 75.0435C139.7 74.1561 142.206 70.8739 141.987 67.1177C141.768 63.3614 138.898 60.3952 135.298 59.9211C138.521 58.2436 140.199 54.4751 139.129 50.8647C138.046 47.2543 134.568 45.0297 130.956 45.4065C133.705 43.0361 134.471 38.9759 132.586 35.718C130.701 32.4601 126.797 31.0986 123.367 32.2899C125.496 29.3481 125.301 25.215 122.723 22.4798C120.145 19.7447 116.022 19.3192 112.969 21.2642C114.356 17.9091 113.225 13.934 110.075 11.8674C106.925 9.80084 102.827 10.3357 100.297 12.9372C100.881 9.35105 98.8498 5.7528 95.323 4.46424C91.784 3.17567 87.9166 4.63442 86.0559 7.75858C85.8005 4.13601 82.9912 1.09694 79.2577 0.659318C75.5241 0.221692 72.0945 2.53139 71 5.99592C69.9055 2.53139 66.4881 0.221692 62.7423 0.659318C59.0087 1.09694 56.1994 4.13601 55.9441 7.75858C54.0833 4.64658 50.216 3.17567 46.677 4.46424C43.138 5.7528 41.1192 9.35105 41.7029 12.9372C39.1733 10.3357 35.0749 9.80084 31.9251 11.8674C28.7753 13.934 27.6442 17.9091 29.0306 21.2642C25.9659 19.307 21.8554 19.7447 19.2771 22.4798C16.6989 25.215 16.5043 29.3481 18.6326 32.2899C15.203 31.0986 11.2992 32.4601 9.41414 35.718C7.5291 38.9759 8.29528 43.0361 11.0438 45.4065C7.43182 45.0297 3.95363 47.2665 2.87126 50.8647C1.78888 54.4751 3.47933 58.2436 6.70213 59.9211C3.10233 60.3952 0.232213 63.3614 0.0133057 67.1177C-0.205601 70.8739 2.29966 74.1561 5.8265 75.0435C2.43344 76.3321 0.317346 79.8817 0.974067 83.5894C1.63079 87.2971 4.82926 89.9106 8.45339 89.9593C5.4495 91.9894 4.20902 95.9402 5.70488 99.3925C7.20074 102.845 10.91 104.656 14.4612 103.866C12.0045 106.54 11.7127 110.661 13.9625 113.676C16.2124 116.691 20.25 117.603 23.5093 116.01C21.7337 119.183 22.4026 123.255 25.2849 125.674C28.1672 128.093 32.3021 128.045 35.1114 125.747C34.1142 129.236 35.7073 133.053 39.076 134.743C42.4448 136.433 46.4459 135.424 48.6593 132.543C48.5012 136.165 50.9213 139.508 54.5941 140.383C58.2547 141.247 61.9275 139.35 63.4112 136.044C64.0923 139.605 67.2299 142.304 70.9878 142.304C74.7579 142.304 77.8834 139.605 78.5645 136.044C80.0482 139.362 83.7209 141.259 87.3815 140.383C91.0422 139.52 93.4744 136.165 93.3163 132.543C95.5297 135.424 99.5309 136.421 102.9 134.743C106.268 133.053 107.849 129.236 106.864 125.747C109.674 128.045 113.808 128.093 116.691 125.674C119.573 123.255 120.242 119.183 118.466 116.01C121.738 117.59 125.763 116.691 128.013 113.676C130.263 110.661 129.971 106.54 127.514 103.866C131.053 104.656 134.775 102.845 136.271 99.3925C137.767 95.9402 136.526 91.9894 133.522 89.9593C137.159 89.9106 140.357 87.2971 141.002 83.5894C141.646 79.8817 139.567 76.3321 136.173 75.0435ZM115.657 104.474C113.784 106.99 113.675 110.26 115.11 112.837C112.459 111.561 109.187 111.865 106.791 113.871C104.395 115.876 103.52 119.049 104.323 121.882C102.036 120.022 98.789 119.572 95.9919 120.97C93.1947 122.38 91.6137 125.249 91.7475 128.191C89.9476 125.857 86.8951 124.665 83.8425 125.383C80.79 126.1 78.6009 128.543 78.0415 131.436C76.8375 128.75 74.1377 126.89 71 126.89C67.8623 126.89 65.1746 128.762 63.9585 131.436C63.3991 128.543 61.21 126.112 58.1574 125.383C55.1049 124.665 52.0524 125.857 50.2525 128.191C50.3741 125.249 48.8052 122.368 46.0081 120.97C43.211 119.56 39.9638 120.022 37.6775 121.882C38.4801 119.049 37.6167 115.889 35.2087 113.871C32.8129 111.853 29.5414 111.549 26.8902 112.837C28.3253 110.272 28.2037 106.99 26.343 104.474C24.4701 101.958 21.3567 100.912 18.4866 101.544C20.469 99.3682 21.1135 96.159 19.873 93.2779C18.6326 90.3969 15.8476 88.6707 12.9045 88.6221C15.3368 86.9688 16.711 83.9905 16.1638 80.9028C15.6165 77.8152 13.3058 75.4933 10.46 74.7639C13.2085 73.7185 15.2273 71.1292 15.4098 68.0051C15.5922 64.8809 13.8896 62.0728 11.2749 60.7113C14.1936 60.3223 16.7597 58.28 17.6596 55.2774C18.5596 52.2748 17.538 49.1628 15.3125 47.23C18.2434 47.5217 21.2108 46.1238 22.7796 43.4129C24.3485 40.7021 24.0809 37.432 22.354 35.0494C25.139 36.0098 28.3496 35.329 30.49 33.0558C32.6426 30.7826 33.1291 27.5368 32.0102 24.8138C34.4912 26.3941 37.7748 26.4671 40.3895 24.7531C43.0042 23.0269 44.2325 19.9878 43.7704 17.0824C45.8257 19.1855 48.9998 20.0243 51.9429 18.9545C54.886 17.8848 56.7832 15.2104 57.0021 12.2686C58.5101 14.7971 61.4046 16.3287 64.5179 15.9762C67.6313 15.6115 70.0879 13.4477 70.9757 10.6396C71.8635 13.4477 74.3322 15.6115 77.4334 15.9762C80.5468 16.3409 83.4412 14.7971 84.9492 12.2686C85.1682 15.1982 87.0653 17.8848 90.0084 18.9545C92.9515 20.0243 96.1257 19.1976 98.181 17.0824C97.7188 19.9878 98.9471 23.0269 101.562 24.7531C104.177 26.4792 107.46 26.3941 109.941 24.8138C108.822 27.5368 109.309 30.7704 111.461 33.0558C113.614 35.329 116.825 36.0098 119.597 35.0494C117.883 37.432 117.603 40.7021 119.172 43.4129C120.741 46.1238 123.708 47.5217 126.639 47.23C124.413 49.1507 123.404 52.2748 124.292 55.2774C125.192 58.28 127.758 60.3223 130.676 60.7113C128.074 62.0728 126.359 64.8687 126.542 68.0051C126.724 71.1292 128.743 73.7185 131.491 74.7639C128.633 75.4933 126.335 77.8152 125.788 80.9028C125.24 83.9905 126.615 86.9688 129.047 88.6221C126.104 88.6707 123.319 90.4091 122.078 93.2779C120.838 96.159 121.482 99.3682 123.465 101.544C120.643 100.912 117.53 101.958 115.657 104.474Z" fill="#002873"/>
<path d="M87.2778 99.4175C89.2438 98.2829 89.9174 95.7701 88.7823 93.8049C87.6471 91.8397 85.1332 91.1664 83.1672 92.3011C81.2012 93.4357 80.5276 95.9486 81.6627 97.9137C82.7978 99.8789 85.3118 100.552 87.2778 99.4175Z" fill="white"/>
<path d="M99.1924 87.5191C100.328 85.5539 99.6539 83.0411 97.6879 81.9064C95.7219 80.7718 93.208 81.4451 92.0729 83.4103C90.9378 85.3754 91.6113 87.8883 93.5773 89.0229C95.5433 90.1575 98.0573 89.4843 99.1924 87.5191Z" fill="white"/>
<path d="M99.4456 75.3597C101.716 75.3597 103.556 73.5202 103.556 71.2509C103.556 68.9817 101.716 67.1421 99.4456 67.1421C97.1753 67.1421 95.335 68.9817 95.335 71.2509C95.335 73.5202 97.1753 75.3597 99.4456 75.3597Z" fill="white"/>
<path d="M97.6869 60.5792C99.653 59.4445 100.327 56.9317 99.1914 54.9665C98.0563 53.0014 95.5424 52.3281 93.5764 53.4627C91.6104 54.5973 90.9368 57.1102 92.0719 59.0753C93.207 61.0405 95.7209 61.7138 97.6869 60.5792Z" fill="white"/>
<path d="M88.7803 48.6797C89.9154 46.7146 89.2418 44.2017 87.2758 43.0671C85.3098 41.9325 82.7959 42.6058 81.6608 44.5709C80.5257 46.5361 81.1992 49.0489 83.1652 50.1836C85.1312 51.3182 87.6452 50.6449 88.7803 48.6797Z" fill="white"/>
<path d="M71.0002 46.9261C73.2704 46.9261 75.1108 45.0866 75.1108 42.8173C75.1108 40.5481 73.2704 38.7085 71.0002 38.7085C68.73 38.7085 66.8896 40.5481 66.8896 42.8173C66.8896 45.0866 68.73 46.9261 71.0002 46.9261Z" fill="white"/>
<path d="M58.8325 50.1749C60.7985 49.0402 61.472 46.5274 60.3369 44.5622C59.2018 42.597 56.6879 41.9238 54.7219 43.0584C52.7559 44.193 52.0823 46.7059 53.2174 48.671C54.3525 50.6362 56.8665 51.3095 58.8325 50.1749Z" fill="white"/>
<path d="M49.9248 59.0867C51.0599 57.1216 50.3864 54.6087 48.4204 53.4741C46.4544 52.3395 43.9404 53.0127 42.8053 54.9779C41.6702 56.9431 42.3438 59.4559 44.3098 60.5905C46.2758 61.7252 48.7897 61.0519 49.9248 59.0867Z" fill="white"/>
<path d="M42.5666 75.3597C44.8369 75.3597 46.6772 73.5202 46.6772 71.2509C46.6772 68.9817 44.8369 67.1421 42.5666 67.1421C40.2964 67.1421 38.4561 68.9817 38.4561 71.2509C38.4561 73.5202 40.2964 75.3597 42.5666 75.3597Z" fill="white"/>
<path d="M48.4233 89.0125C50.3893 87.8779 51.0629 85.365 49.9278 83.3999C48.7926 81.4347 46.2787 80.7614 44.3127 81.896C42.3467 83.0307 41.6731 85.5435 42.8082 87.5087C43.9433 89.4738 46.4573 90.1471 48.4233 89.0125Z" fill="white"/>
<path d="M60.3369 97.9261C61.4721 95.9609 60.7985 93.448 58.8325 92.3134C56.8665 91.1788 54.3525 91.8521 53.2174 93.8173C52.0823 95.7824 52.7559 98.2953 54.7219 99.4299C56.6879 100.565 59.2018 99.8912 60.3369 97.9261Z" fill="white"/>
<path d="M71.0002 103.781C73.2704 103.781 75.1108 101.942 75.1108 99.6723C75.1108 97.4031 73.2704 95.5635 71.0002 95.5635C68.73 95.5635 66.8896 97.4031 66.8896 99.6723C66.8896 101.942 68.73 103.781 71.0002 103.781Z" fill="white"/>
<path d="M85.1153 79.4031C86.2504 77.438 85.5768 74.9251 83.6108 73.7905C81.6448 72.6559 79.1308 73.3291 77.9957 75.2943C76.8606 77.2595 77.5342 79.7723 79.5002 80.907C81.4662 82.0416 83.9802 81.3683 85.1153 79.4031Z" fill="white"/>
<path d="M83.604 68.7034C85.57 67.5688 86.2435 65.0559 85.1084 63.0908C83.9733 61.1256 81.4594 60.4523 79.4934 61.5869C77.5274 62.7216 76.8538 65.2344 77.9889 67.1996C79.124 69.1647 81.6379 69.838 83.604 68.7034Z" fill="white"/>
<path d="M71.0002 63.1669C73.2704 63.1669 75.1108 61.3273 75.1108 59.058C75.1108 56.7888 73.2704 54.9492 71.0002 54.9492C68.73 54.9492 66.8896 56.7888 66.8896 59.058C66.8896 61.3273 68.73 63.1669 71.0002 63.1669Z" fill="white"/>
<path d="M63.9961 67.2124C65.1312 65.2473 64.4576 62.7344 62.4916 61.5998C60.5256 60.4652 58.0117 61.1385 56.8766 63.1036C55.7415 65.0688 56.415 67.5817 58.3811 68.7163C60.3471 69.8509 62.861 69.1776 63.9961 67.2124Z" fill="white"/>
<path d="M62.4965 80.8946C64.4625 79.76 65.1361 77.2471 64.001 75.2819C62.8659 73.3168 60.352 72.6435 58.3859 73.7781C56.4199 74.9127 55.7464 77.4256 56.8815 79.3908C58.0166 81.3559 60.5305 82.0292 62.4965 80.8946Z" fill="white"/>
<path d="M71.0002 87.5402C73.2704 87.5402 75.1108 85.7006 75.1108 83.4313C75.1108 81.1621 73.2704 79.3225 71.0002 79.3225C68.73 79.3225 66.8896 81.1621 66.8896 83.4313C66.8896 85.7006 68.73 87.5402 71.0002 87.5402Z" fill="white"/>
<path d="M71.0002 75.3597C73.2704 75.3597 75.1108 73.5202 75.1108 71.2509C75.1108 68.9817 73.2704 67.1421 71.0002 67.1421C68.73 67.1421 66.8896 68.9817 66.8896 71.2509C66.8896 73.5202 68.73 75.3597 71.0002 75.3597Z" fill="white"/>
<path d="M86.5507 136.885C88.7596 136.361 90.1259 134.147 89.6024 131.939C89.0789 129.731 86.8638 128.366 84.6549 128.889C82.446 129.412 81.0797 131.626 81.6032 133.834C82.1267 136.042 84.3418 137.408 86.5507 136.885Z" fill="white"/>
<path d="M101.282 131.528C103.311 130.509 104.129 128.04 103.11 126.012C102.091 123.984 99.6208 123.166 97.5922 124.185C95.5635 125.203 94.7449 127.672 95.7638 129.7C96.7827 131.728 99.2532 132.546 101.282 131.528Z" fill="white"/>
<path d="M114.383 122.908C116.122 121.449 116.349 118.858 114.89 117.119C113.431 115.381 110.838 115.155 109.099 116.613C107.36 118.072 107.133 120.664 108.592 122.402C110.052 124.14 112.645 124.367 114.383 122.908Z" fill="white"/>
<path d="M125.15 111.552C126.505 109.732 126.128 107.158 124.307 105.802C122.486 104.447 119.911 104.824 118.555 106.644C117.2 108.464 117.577 111.039 119.398 112.394C121.219 113.749 123.794 113.372 125.15 111.552Z" fill="white"/>
<path d="M132.983 97.9796C133.882 95.896 132.921 93.4782 130.836 92.5794C128.752 91.6805 126.333 92.641 125.434 94.7246C124.535 96.8082 125.495 99.226 127.58 100.125C129.665 101.024 132.083 100.063 132.983 97.9796Z" fill="white"/>
<path d="M137.464 82.9552C137.858 80.7204 136.365 78.5895 134.13 78.1955C131.894 77.8016 129.762 79.2939 129.368 81.5286C128.974 83.7634 130.467 85.8943 132.702 86.2882C134.938 86.6822 137.07 85.1899 137.464 82.9552Z" fill="white"/>
<path d="M134.525 71.6549C136.791 71.523 138.522 69.5796 138.39 67.3142C138.258 65.0488 136.313 63.3193 134.047 63.4513C131.781 63.5832 130.05 65.5266 130.182 67.792C130.314 70.0574 132.259 71.7869 134.525 71.6549Z" fill="white"/>
<path d="M132.905 57.0176C135.08 56.3668 136.315 54.0769 135.664 51.9029C135.013 49.729 132.722 48.4943 130.547 49.1451C128.372 49.7959 127.137 52.0858 127.788 54.2597C128.439 56.4337 130.73 57.6684 132.905 57.0176Z" fill="white"/>
<path d="M127.943 43.1138C129.909 41.9792 130.582 39.4663 129.447 37.5012C128.312 35.536 125.798 34.8627 123.832 35.9973C121.866 37.132 121.193 39.6448 122.328 41.61C123.463 43.5751 125.977 44.2484 127.943 43.1138Z" fill="white"/>
<path d="M119.928 30.7755C121.58 29.2183 121.655 26.6179 120.098 24.9672C118.54 23.3166 115.938 23.2408 114.287 24.798C112.636 26.3551 112.56 28.9555 114.118 30.6062C115.675 32.2568 118.277 32.3326 119.928 30.7755Z" fill="white"/>
<path d="M109.268 20.5666C110.516 18.6706 109.989 16.1228 108.093 14.8758C106.196 13.6289 103.647 14.155 102.399 16.051C101.152 17.9469 101.678 20.4947 103.575 21.7417C105.472 22.9886 108.021 22.4625 109.268 20.5666Z" fill="white"/>
<path d="M96.5453 13.1064C97.3217 10.974 96.2217 8.61617 94.0884 7.84009C91.9551 7.06401 89.5963 8.16352 88.8199 10.2959C88.0435 12.4283 89.1435 14.7861 91.2768 15.5622C93.4101 16.3383 95.7689 15.2388 96.5453 13.1064Z" fill="white"/>
<path d="M82.4443 8.80533C82.7078 6.55152 81.0936 4.51087 78.8389 4.24741C76.5841 3.98395 74.5426 5.59745 74.279 7.85126C74.0154 10.1051 75.6296 12.1457 77.8844 12.4092C80.1392 12.6726 82.1807 11.0591 82.4443 8.80533Z" fill="white"/>
<path d="M64.1133 12.391C66.3681 12.1276 67.9823 10.0869 67.7187 7.8331C67.4551 5.57929 65.4136 3.96581 63.1588 4.22927C60.904 4.49272 59.2898 6.53336 59.5534 8.78717C59.817 11.041 61.8585 12.6545 64.1133 12.391Z" fill="white"/>
<path d="M50.733 15.5737C52.8663 14.7977 53.9663 12.4399 53.1899 10.3075C52.4134 8.17506 50.0546 7.07554 47.9213 7.85162C45.788 8.6277 44.688 10.9855 45.4644 13.1179C46.2408 15.2503 48.5996 16.3498 50.733 15.5737Z" fill="white"/>
<path d="M38.4304 21.7477C40.3272 20.5007 40.8536 17.9529 39.6061 16.057C38.3586 14.161 35.8097 13.6349 33.9129 14.8819C32.0161 16.1288 31.4898 18.6766 32.7373 20.5726C33.9848 22.4685 36.5337 22.9946 38.4304 21.7477Z" fill="white"/>
<path d="M27.8857 30.5752C29.4436 28.9246 29.3677 26.3241 27.7164 24.767C26.065 23.2098 23.4635 23.2856 21.9057 24.9363C20.3478 26.5869 20.4236 29.1874 22.075 30.7445C23.7264 32.3017 26.3279 32.2259 27.8857 30.5752Z" fill="white"/>
<path d="M19.6553 41.6255C20.7904 39.6604 20.1168 37.1475 18.1508 36.0129C16.1848 34.8783 13.6709 35.5516 12.5358 37.5167C11.4007 39.4819 12.0742 41.9947 14.0402 43.1294C16.0062 44.264 18.5202 43.5907 19.6553 41.6255Z" fill="white"/>
<path d="M14.2218 54.2516C14.8729 52.0777 13.6376 49.7878 11.4628 49.137C9.28791 48.4862 6.99701 49.7209 6.34591 51.8948C5.69481 54.0687 6.93007 56.3586 9.10494 57.0095C11.2798 57.6603 13.5707 56.4255 14.2218 54.2516Z" fill="white"/>
<path d="M11.8193 67.8005C11.9513 65.5352 10.221 63.5917 7.95467 63.4598C5.68832 63.3279 3.74406 65.0573 3.61206 67.3227C3.48006 69.5881 5.2103 71.5315 7.47665 71.6635C9.74301 71.7954 11.6873 70.0659 11.8193 67.8005Z" fill="white"/>
<path d="M9.27707 86.3052C11.5128 85.9113 13.0057 83.7803 12.6116 81.5456C12.2175 79.3108 10.0856 77.8185 7.84987 78.2125C5.61416 78.6064 4.12125 80.7374 4.51536 82.9722C4.90947 85.2069 7.04136 86.6992 9.27707 86.3052Z" fill="white"/>
<path d="M14.4263 100.108C16.5108 99.2095 17.4716 96.7917 16.5724 94.7081C15.6732 92.6245 13.2544 91.6641 11.1699 92.5629C9.08534 93.4618 8.12448 95.8795 9.02371 97.9631C9.92294 100.047 12.3418 101.007 14.4263 100.108Z" fill="white"/>
<path d="M22.6257 112.36C24.4467 111.005 24.8238 108.431 23.468 106.611C22.1122 104.79 19.537 104.413 17.716 105.769C15.8951 107.124 15.518 109.698 16.8738 111.518C18.2296 113.338 20.8048 113.715 22.6257 112.36Z" fill="white"/>
<path d="M33.3958 122.432C34.8551 120.694 34.6283 118.102 32.8893 116.644C31.1504 115.185 28.5576 115.412 27.0983 117.15C25.639 118.888 25.8658 121.48 27.6048 122.939C29.3438 124.397 31.9365 124.171 33.3958 122.432Z" fill="white"/>
<path d="M46.2167 129.716C47.2355 127.689 46.4169 125.219 44.3883 124.201C42.3596 123.182 39.8891 124.001 38.8702 126.028C37.8513 128.056 38.67 130.526 40.6986 131.544C42.7273 132.562 45.1978 131.744 46.2167 129.716Z" fill="white"/>
<path d="M60.366 133.853C60.8895 131.645 59.5232 129.431 57.3143 128.907C55.1054 128.384 52.8904 129.75 52.3668 131.958C51.8433 134.166 53.2096 136.38 55.4185 136.903C57.6274 137.426 59.8425 136.061 60.366 133.853Z" fill="white"/>
<path d="M71.0002 138.718C73.2704 138.718 75.1108 136.879 75.1108 134.609C75.1108 132.34 73.2704 130.5 71.0002 130.5C68.73 130.5 66.8896 132.34 66.8896 134.609C66.8896 136.879 68.73 138.718 71.0002 138.718Z" fill="white"/>
<path d="M76.6065 21.1912C76.0713 20.4618 75.7795 20.7779 75.7187 20.79C75.4998 20.8386 75.2079 21.1547 75.3538 21.568C75.4511 21.8355 75.8646 22.1394 76.0957 22.7107C76.2781 23.1483 76.2295 23.7318 76.0106 23.8899C75.6335 24.1573 74.6606 23.7562 74.5025 23.6832C73.5904 23.2577 73.6147 22.8444 72.654 22.7107C72.1675 22.6378 71.2797 22.6864 70.9635 23.2699C70.7081 23.744 70.927 24.4004 71.2797 24.7165C72.131 25.4823 75.1836 25.0326 75.3781 25.0204C75.439 25.0082 76.0592 24.9961 76.1443 25.2635C76.2295 25.531 76.2173 25.5188 75.8646 25.847C75.7552 25.9564 75.6335 26.0051 75.5241 26.0658C75.1836 26.236 74.8795 26.2482 74.7579 26.2603C74.7579 26.2603 74.4174 26.2847 73.4566 26.4913C72.5932 26.6737 71.4865 27.4274 71.45 28.3391C71.4257 28.8983 71.8027 29.5547 72.2526 29.6276C72.3743 29.6519 72.9094 29.81 74.0039 28.7402C74.5877 28.1689 74.8066 27.4395 75.4754 27.1356C75.6457 27.0627 75.9984 26.7952 76.3632 27.1599C76.6916 27.4881 76.2416 28.9226 76.12 29.4696C75.9376 30.2962 75.7916 31.0256 76.12 31.7185C76.1686 31.8158 76.5092 32.5208 77.0078 32.5208C77.4943 32.533 77.9321 31.8887 78.0537 31.3174C78.1996 30.588 77.8591 30.2476 77.4334 28.8618C77.1781 28.023 76.9956 27.1599 77.2389 27.014C77.5429 26.8317 77.7861 27.1356 78.3091 27.7799C78.8928 28.5092 79.5009 29.6398 79.9995 30.1139C80.1333 30.2354 80.4738 30.5637 80.8873 30.515C81.3373 30.4664 81.7386 29.9923 81.7751 29.5547C81.8237 28.801 80.8022 28.1567 80.0847 27.7069C79.4523 27.3058 79.2333 27.3179 78.5523 26.8195C78.0294 26.4427 77.5186 25.9564 77.6037 25.5796C77.6888 25.2149 78.2726 25.142 78.3091 25.142C78.9658 25.0447 79.2455 25.4337 80.4009 25.8592C80.9481 26.0658 81.5319 26.2117 82.1643 26.2603C82.8696 26.3211 83.3561 26.3576 83.6966 26.0172C84.0493 25.6647 84.1101 24.9961 83.8547 24.5706C83.502 23.975 82.6021 23.9507 81.921 23.9263C81.0576 23.902 80.8508 24.1208 79.586 24.1695C78.3577 24.2181 78.1875 24.0236 78.1388 23.9263C77.9686 23.6103 78.3091 23.0754 78.5401 22.7229C78.978 22.0421 79.4036 21.8355 79.4401 21.4586C79.5009 20.8508 78.9171 20.5104 78.5401 20.7171C78.2726 20.8508 78.0658 21.2155 77.8226 21.8476C77.5672 22.4919 77.5672 22.7837 77.4213 22.808C76.6429 22.9538 77.2267 22.0421 76.6065 21.1912Z" fill="#22BC2E"/>
<path d="M83.4071 24.9126C83.425 24.5573 82.9882 24.2464 82.4315 24.2183C81.8747 24.1902 81.4088 24.4555 81.3909 24.8109C81.3729 25.1663 81.8097 25.4771 82.3665 25.5052C82.9232 25.5333 83.3891 25.268 83.4071 24.9126Z" fill="#22BC2E"/>
<path d="M73.4577 24.0646C73.5292 23.716 73.1445 23.3427 72.5984 23.2307C72.0523 23.1188 71.5516 23.3106 71.4801 23.6592C71.4086 24.0077 71.7933 24.381 72.3394 24.493C72.8855 24.6049 73.3862 24.4131 73.4577 24.0646Z" fill="#22BC2E"/>
<path d="M73.2652 28.7259C73.7464 28.3713 73.9361 27.8122 73.6889 27.4772C73.4418 27.1422 72.8514 27.158 72.3702 27.5127C71.8891 27.8673 71.6994 28.4264 71.9465 28.7614C72.1937 29.0965 72.7841 29.0806 73.2652 28.7259Z" fill="#22BC2E"/>
<path d="M76.9958 31.743C77.2577 31.743 77.4701 31.4436 77.4701 31.0744C77.4701 30.7051 77.2577 30.4058 76.9958 30.4058C76.7338 30.4058 76.5215 30.7051 76.5215 31.0744C76.5215 31.4436 76.7338 31.743 76.9958 31.743Z" fill="#22BC2E"/>
<path d="M81.1489 29.9268C81.3788 29.7412 81.3258 29.2944 81.0305 28.9287C80.7352 28.563 80.3094 28.417 80.0794 28.6025C79.8495 28.7881 79.9025 29.2349 80.1978 29.6006C80.4931 29.9663 80.9189 30.1123 81.1489 29.9268Z" fill="#22BC2E"/>
<path d="M121.568 66.765C122.236 66.1451 121.884 65.8898 121.859 65.8412C121.786 65.6223 121.446 65.367 121.032 65.5737C120.777 65.6953 120.522 66.1451 119.987 66.449C119.573 66.6799 118.989 66.7042 118.807 66.5097C118.491 66.1694 118.783 65.1604 118.831 64.9902C119.147 64.042 119.549 64.0177 119.573 63.0452C119.585 62.559 119.439 61.6837 118.819 61.4406C118.32 61.2461 117.7 61.5378 117.421 61.9268C116.764 62.8629 117.566 65.829 117.615 66.0356C117.627 66.0964 117.725 66.7042 117.469 66.8258C117.214 66.9352 117.226 66.923 116.861 66.6191C116.739 66.5219 116.666 66.4125 116.606 66.3152C116.399 65.9992 116.338 65.6953 116.314 65.5737C116.314 65.5737 116.241 65.2455 115.937 64.3094C115.657 63.4828 114.769 62.4617 113.857 62.5346C113.298 62.5833 112.702 63.0209 112.678 63.4828C112.678 63.6044 112.58 64.1636 113.76 65.1118C114.392 65.6223 115.146 65.756 115.535 66.376C115.633 66.534 115.937 66.8501 115.621 67.2634C115.341 67.6281 113.857 67.3485 113.298 67.2877C112.459 67.2026 111.717 67.1419 111.06 67.5552C110.975 67.616 110.318 68.0293 110.367 68.5277C110.415 69.0018 111.097 69.3786 111.692 69.4272C112.434 69.488 112.726 69.099 114.052 68.5155C114.854 68.163 115.694 67.8712 115.864 68.1022C116.083 68.3818 115.803 68.6492 115.231 69.2449C114.587 69.9135 113.529 70.6429 113.115 71.2021C113.006 71.3479 112.726 71.7248 112.823 72.1259C112.933 72.5636 113.444 72.9161 113.881 72.8918C114.636 72.8553 115.158 71.7612 115.511 70.9954C115.827 70.3146 115.803 70.108 116.204 69.3786C116.521 68.8194 116.934 68.2481 117.323 68.2967C117.7 68.3453 117.834 68.9167 117.846 68.941C118.029 69.5853 117.664 69.9013 117.372 71.1048C117.238 71.664 117.153 72.2597 117.189 72.9039C117.214 73.609 117.238 74.0952 117.615 74.387C118.016 74.6909 118.673 74.6788 119.074 74.3748C119.634 73.9494 119.549 73.0498 119.488 72.3812C119.403 71.5181 119.172 71.3479 118.965 70.0958C118.77 68.8802 118.941 68.6979 119.038 68.6371C119.33 68.4304 119.914 68.71 120.278 68.8924C121.008 69.2449 121.264 69.6461 121.641 69.6339C122.249 69.6217 122.516 69.0018 122.273 68.6492C122.103 68.4061 121.726 68.2359 121.069 68.0657C120.4 67.8956 120.108 67.932 120.06 67.7862C119.816 67.0203 120.789 67.4822 121.568 66.765Z" fill="#22BC2E"/>
<path d="M118.675 73.9651C119.03 73.9406 119.286 73.4701 119.248 72.9142C119.21 72.3583 118.891 71.9275 118.536 71.952C118.18 71.9765 117.924 72.447 117.962 73.0029C118 73.5588 118.319 73.9896 118.675 73.9651Z" fill="#22BC2E"/>
<path d="M119.083 63.0331C119.129 62.4778 118.879 62.0037 118.524 61.9742C118.17 61.9447 117.845 62.371 117.798 62.9263C117.752 63.4817 118.002 63.9558 118.357 63.9853C118.712 64.0147 119.037 63.5884 119.083 63.0331Z" fill="#22BC2E"/>
<path d="M114.992 64.6081C115.296 64.3229 115.21 63.7388 114.8 63.3035C114.391 62.8682 113.813 62.7466 113.509 63.0317C113.206 63.3169 113.292 63.901 113.701 64.3363C114.111 64.7716 114.689 64.8932 114.992 64.6081Z" fill="#22BC2E"/>
<path d="M111.872 68.7932C112.239 68.7492 112.511 68.5028 112.479 68.2429C112.448 67.9829 112.126 67.8078 111.759 67.8518C111.392 67.8957 111.12 68.1422 111.151 68.4021C111.182 68.6621 111.505 68.8372 111.872 68.7932Z" fill="#22BC2E"/>
<path d="M114.427 72.1018C114.755 71.7652 114.849 71.3251 114.638 71.119C114.426 70.9129 113.989 71.0187 113.66 71.3553C113.332 71.6919 113.238 72.1319 113.45 72.3381C113.661 72.5442 114.099 72.4384 114.427 72.1018Z" fill="#22BC2E"/>
<path d="M84.2926 120.569C85.0466 121.079 85.2169 120.678 85.2655 120.654C85.4601 120.532 85.6303 120.143 85.3385 119.791C85.156 119.572 84.6696 119.426 84.2561 118.964C83.9399 118.612 83.7818 118.04 83.9399 117.834C84.2074 117.457 85.2533 117.505 85.4236 117.518C86.4208 117.615 86.5303 118.004 87.491 117.809C87.9653 117.712 88.7923 117.372 88.8896 116.715C88.9626 116.193 88.5491 115.646 88.0991 115.463C87.0411 115.038 84.3169 116.472 84.1345 116.557C84.0737 116.582 83.5021 116.813 83.3318 116.594C83.1616 116.375 83.1859 116.375 83.4048 115.949C83.4778 115.804 83.5629 115.718 83.648 115.633C83.9156 115.366 84.1953 115.244 84.3047 115.184C84.3047 115.184 84.6088 115.038 85.4601 114.527C86.2141 114.065 87.0046 112.983 86.7249 112.108C86.5546 111.573 85.983 111.087 85.5331 111.172C85.4114 111.196 84.852 111.233 84.1831 112.594C83.8304 113.324 83.8669 114.089 83.344 114.6C83.2102 114.722 82.967 115.098 82.5048 114.88C82.0913 114.685 82.0305 113.178 81.9576 112.619C81.8481 111.78 81.7508 111.038 81.2036 110.503C81.1306 110.43 80.5712 109.883 80.0969 110.041C79.6469 110.199 79.4401 110.941 79.5253 111.525C79.6347 112.254 80.0725 112.461 80.936 113.615C81.4711 114.32 81.9332 115.062 81.7508 115.293C81.5319 115.56 81.2036 115.366 80.486 114.928C79.6834 114.442 78.7348 113.579 78.1145 113.299C77.9443 113.226 77.5186 113.032 77.1416 113.214C76.7403 113.409 76.5092 113.992 76.6308 114.418C76.8376 115.147 78.0172 115.402 78.8442 115.585C79.5739 115.743 79.7685 115.67 80.5833 115.901C81.2036 116.083 81.8481 116.363 81.8968 116.752C81.9332 117.129 81.4103 117.384 81.386 117.408C80.8022 117.724 80.4131 117.445 79.1726 117.432C78.5888 117.42 77.9929 117.481 77.3727 117.651C76.6916 117.834 76.2173 117.967 76.0106 118.393C75.7917 118.843 75.9619 119.487 76.3511 119.803C76.8862 120.253 77.7497 119.961 78.3821 119.754C79.2091 119.487 79.3185 119.207 80.4982 118.745C81.6414 118.283 81.8603 118.405 81.9454 118.49C82.213 118.733 82.067 119.353 81.9697 119.754C81.7873 120.544 81.459 120.885 81.5441 121.25C81.69 121.833 82.3589 121.967 82.6508 121.639C82.8575 121.42 82.9305 121.019 82.9548 120.338C82.9791 119.645 82.8819 119.377 83.0035 119.292C83.6602 118.916 83.417 119.973 84.2926 120.569Z" fill="#22BC2E"/>
<path d="M77.7966 119.68C78.3302 119.519 78.6792 119.112 78.5761 118.772C78.473 118.431 77.9569 118.286 77.4232 118.447C76.8896 118.608 76.5406 119.015 76.6437 119.356C76.7468 119.697 77.2629 119.842 77.7966 119.68Z" fill="#22BC2E"/>
<path d="M87.3407 117.303C87.8925 117.224 88.2991 116.874 88.2487 116.522C88.1984 116.17 87.7102 115.948 87.1584 116.027C86.6065 116.106 86.2 116.455 86.2503 116.807C86.3007 117.16 86.7888 117.381 87.3407 117.303Z" fill="#22BC2E"/>
<path d="M86.1767 113.179C86.5099 112.683 86.4997 112.093 86.154 111.861C85.8082 111.629 85.2578 111.843 84.9246 112.339C84.5914 112.835 84.6016 113.425 84.9473 113.657C85.2931 113.889 85.8435 113.675 86.1767 113.179Z" fill="#22BC2E"/>
<path d="M80.7845 112.019C81.0311 111.931 81.13 111.578 81.0053 111.23C80.8807 110.883 80.5798 110.672 80.3332 110.761C80.0866 110.849 79.9878 111.202 80.1124 111.55C80.237 111.898 80.538 112.108 80.7845 112.019Z" fill="#22BC2E"/>
<path d="M78.5195 114.767C78.6733 114.515 78.4726 114.112 78.0711 113.867C77.6696 113.623 77.2195 113.629 77.0656 113.881C76.9118 114.133 77.1126 114.536 77.514 114.781C77.9155 115.025 78.3657 115.019 78.5195 114.767Z" fill="#22BC2E"/>
<path d="M24.6764 92.4027C24.2386 93.205 24.6642 93.3265 24.7007 93.3752C24.8467 93.5454 25.248 93.6791 25.5642 93.363C25.7588 93.1685 25.8561 92.6579 26.2817 92.196C26.5979 91.8435 27.1452 91.6368 27.3763 91.7584C27.7776 91.9893 27.8384 93.0348 27.8384 93.205C27.8505 94.2139 27.4735 94.3598 27.7654 95.2837C27.9114 95.7456 28.337 96.5358 29.0059 96.5601C29.541 96.5844 30.0396 96.1103 30.1734 95.6484C30.4896 94.5422 28.7748 92.0015 28.6775 91.8192C28.641 91.7705 28.3613 91.2235 28.5681 91.029C28.7748 90.8345 28.7627 90.8588 29.2126 91.029C29.3586 91.0898 29.4559 91.1627 29.5532 91.2357C29.845 91.4666 30.0031 91.7341 30.0639 91.8435C30.0639 91.8435 30.2342 92.1352 30.8301 92.9254C31.3652 93.6183 32.5206 94.299 33.3597 93.9344C33.8705 93.7155 34.2962 93.0956 34.1745 92.6579C34.1381 92.5364 34.0529 91.9893 32.6179 91.4666C31.8517 91.187 31.0977 91.3086 30.5382 90.8345C30.4045 90.7129 30.0031 90.5063 30.1734 90.02C30.3193 89.5824 31.8152 89.3758 32.3625 89.242C33.1895 89.0475 33.907 88.8652 34.3934 88.2695C34.4664 88.1844 34.9407 87.5766 34.734 87.1268C34.5272 86.6892 33.761 86.5555 33.1894 86.7014C32.4719 86.8837 32.3138 87.3456 31.2436 88.3181C30.599 88.9138 29.9058 89.4487 29.6626 89.3028C29.3707 89.1083 29.541 88.7558 29.8937 88.0142C30.295 87.1633 31.049 86.1422 31.2679 85.4857C31.3287 85.3156 31.4747 84.8658 31.2436 84.5132C31.0004 84.1364 30.4045 83.9662 29.991 84.1364C29.2856 84.416 29.1518 85.6195 29.0545 86.4582C28.9694 87.1998 29.0667 87.3943 28.9208 88.2209C28.7991 88.853 28.5924 89.5338 28.2032 89.6067C27.8384 89.6797 27.5222 89.1934 27.4979 89.1691C27.1209 88.6221 27.3641 88.1966 27.2425 86.9688C27.1938 86.3975 27.0722 85.8018 26.8411 85.2061C26.5858 84.5497 26.4033 84.0878 25.9655 83.9297C25.4912 83.7595 24.871 83.9905 24.5913 84.4038C24.2021 84.9873 24.5669 85.8018 24.8467 86.4218C25.1993 87.2119 25.4791 87.297 26.075 88.4154C26.6466 89.4973 26.5493 89.7283 26.4885 89.8255C26.2817 90.1173 25.6372 90.0322 25.2237 89.9836C24.421 89.8742 24.044 89.5824 23.6913 89.7161C23.1197 89.9228 23.0711 90.5914 23.4116 90.8467C23.6548 91.029 24.0562 91.0655 24.7372 91.0168C25.4304 90.9682 25.6858 90.8467 25.7831 90.9682C26.2574 91.6125 25.1872 91.4788 24.6764 92.4027Z" fill="#22BC2E"/>
<path d="M25.8654 86.5295C26.1938 86.3921 26.2854 85.864 26.0701 85.35C25.8548 84.836 25.4141 84.5307 25.0858 84.6682C24.7574 84.8056 24.6657 85.3337 24.881 85.8477C25.0963 86.3617 25.5371 86.6669 25.8654 86.5295Z" fill="#22BC2E"/>
<path d="M29.1026 95.9497C29.448 95.8635 29.6185 95.3554 29.4835 94.8148C29.3484 94.2741 28.959 93.9057 28.6136 93.9919C28.2683 94.0781 28.0977 94.5862 28.2328 95.1269C28.3678 95.6675 28.7572 96.0359 29.1026 95.9497Z" fill="#22BC2E"/>
<path d="M33.5419 93.3511C33.7373 92.9835 33.4678 92.4582 32.9399 92.1778C32.412 91.8974 31.8257 91.9681 31.6302 92.3356C31.4348 92.7032 31.7043 93.2285 32.2322 93.509C32.7601 93.7894 33.3465 93.7187 33.5419 93.3511Z" fill="#22BC2E"/>
<path d="M33.6274 88.228C33.9606 88.0684 34.1389 87.7476 34.0256 87.5115C33.9124 87.2753 33.5506 87.2133 33.2175 87.3729C32.8843 87.5325 32.706 87.8533 32.8193 88.0894C32.9325 88.3255 33.2943 88.3876 33.6274 88.228Z" fill="#22BC2E"/>
<path d="M30.7084 85.5279C30.9107 85.1036 30.8583 84.6567 30.5915 84.5296C30.3247 84.4025 29.9445 84.6434 29.7422 85.0677C29.5399 85.492 29.5923 85.939 29.8591 86.066C30.1259 86.1931 30.5061 85.9522 30.7084 85.5279Z" fill="#22BC2E"/>
<path d="M44.1235 28.5215C44.16 29.1293 43.8682 29.336 43.9654 29.9681C44.0019 30.1869 44.0627 30.5638 44.2816 30.6489C44.5249 30.7461 44.8411 30.4665 45.7289 29.5183C46.8599 28.3027 46.7869 27.8894 47.2612 27.5247C47.699 27.1965 48.7936 26.7345 49.3895 27.0628C50.0097 27.4031 50.0097 28.3148 49.6692 28.947C49.3165 29.6034 48.4773 29.8465 47.1761 30.2355C46.4342 30.4543 45.814 30.5516 45.291 31.1229C45.2059 31.2202 45.0235 31.4998 45.1329 31.7307C45.2302 31.9252 45.4978 32.0104 46.1788 31.9374C48.0882 31.7186 48.5017 31.208 49.3895 31.3174C50.2651 31.4269 51.1164 31.7794 51.1164 32.5817C51.1164 33.0436 50.557 33.7122 49.4259 33.6271C48.5138 33.5664 48.2949 32.9464 46.9693 32.7397C46.8356 32.7154 45.8018 32.6425 45.6072 32.8978C45.4127 33.153 46.0207 33.7365 46.3734 33.9797C47.2126 34.5632 47.7233 34.6239 48.4287 35.1224C48.9152 35.4627 49.5354 35.949 49.3165 36.6662C49.1827 37.116 48.6841 37.505 48.1855 37.505C47.2855 37.505 46.6045 36.1799 46.3734 35.7423C45.9964 35.0008 45.9599 34.4781 45.3275 33.8095C45.1451 33.615 44.8289 33.2868 44.61 33.3718C44.4641 33.4326 44.3911 33.6515 44.3668 34.782C44.3424 36.0827 44.4276 36.2772 44.2816 36.7878C44.1722 37.1646 43.9776 37.8575 43.4425 38.0277C42.8709 38.21 42.0804 37.7481 41.9101 37.1889C41.7885 36.7756 41.8372 36.2529 42.5182 35.1588C42.7858 34.7334 43.2722 34.4173 43.6006 33.8095C44.0992 32.8978 44.16 32.606 44.0384 32.3993C43.9168 32.1927 43.6006 32.1076 43.3574 32.1198C43.1385 32.1319 42.9195 32.2292 41.5696 34.1255C41.0953 34.782 40.6818 35.0737 40.2683 35.2075C39.9035 35.329 39.3806 35.3047 39.0644 34.9643C38.6022 34.4659 38.9427 33.6514 38.9792 33.5542C39.2468 32.9464 39.8184 32.6789 40.1102 32.5452C40.5724 32.3386 40.6697 32.4358 41.5575 32.1805C42.6885 31.8645 42.7736 31.6213 42.7979 31.5363C42.8831 31.2202 42.6155 30.9163 42.5669 30.8677C42.1899 30.4787 41.6426 30.7461 41.071 30.3571C40.9372 30.272 40.5602 29.7858 40.6332 29.4575C40.6818 29.2266 40.998 29.0077 41.2777 29.0564C41.7764 29.1415 41.7156 29.3481 42.3236 29.8952C42.7736 30.3085 43.0776 30.5759 43.2479 30.503C43.479 30.3936 43.3938 29.6642 43.2479 29.1779C43.0655 28.5701 42.8223 28.4243 42.8831 28.0474C42.9439 27.6949 43.2601 27.3423 43.5276 27.3667C43.8438 27.4274 44.087 28.0353 44.1235 28.5215Z" fill="#22BC2E"/>
<path d="M48.6443 28.9338C49.1445 28.6451 49.3921 28.1377 49.1974 27.8005C49.0026 27.4633 48.4392 27.4239 47.9389 27.7126C47.4387 28.0013 47.1911 28.5087 47.3859 28.8459C47.5807 29.1831 48.1441 29.2225 48.6443 28.9338Z" fill="#22BC2E"/>
<path d="M50.3798 32.632C50.4216 32.2448 50.0549 31.8878 49.5607 31.8345C49.0666 31.7812 48.6321 32.0518 48.5903 32.4389C48.5485 32.8261 48.9152 33.1831 49.4094 33.2364C49.9035 33.2897 50.338 33.0191 50.3798 32.632Z" fill="#22BC2E"/>
<path d="M43.7034 36.6185C43.8713 36.2303 43.7875 35.8205 43.5162 35.7033C43.2449 35.5861 42.8889 35.8058 42.721 36.194C42.5531 36.5823 42.6369 36.992 42.9082 37.1092C43.1794 37.2264 43.5355 37.0067 43.7034 36.6185Z" fill="#22BC2E"/>
<path d="M40.6717 34.4359C41.1323 34.0874 41.315 33.5532 41.0799 33.2427C40.8447 32.9323 40.2808 32.9631 39.8202 33.3116C39.3597 33.6601 39.177 34.1943 39.4121 34.5048C39.6472 34.8152 40.2112 34.7844 40.6717 34.4359Z" fill="#22BC2E"/>
<path d="M48.5596 36.6066C48.8066 36.3598 48.7604 35.9134 48.4564 35.6095C48.1525 35.3057 47.7058 35.2595 47.4589 35.5064C47.2119 35.7533 47.2581 36.1997 47.5621 36.5035C47.866 36.8073 48.3126 36.8535 48.5596 36.6066Z" fill="#22BC2E"/>
<path d="M22.9259 55.8853C23.2665 56.3837 23.1084 56.7241 23.5097 57.2225C23.6556 57.3927 23.8867 57.6966 24.1299 57.648C24.3853 57.6115 24.5313 57.2104 24.8231 55.9461C25.2001 54.3293 24.9204 54.0011 25.1515 53.4662C25.3582 52.9678 26.0758 52.0196 26.769 52.0075C27.4743 51.9953 27.9365 52.7733 27.9608 53.5027C27.9851 54.2442 27.377 54.8763 26.4406 55.861C25.9055 56.4202 25.419 56.8214 25.2488 57.575C25.2245 57.7088 25.2123 58.037 25.4069 58.1829C25.5893 58.3044 25.8569 58.2436 26.4163 57.8303C27.9608 56.6876 28.0581 56.0312 28.8851 55.6787C29.6999 55.3383 30.612 55.2167 31.0133 55.9096C31.2444 56.3108 31.0863 57.1617 30.0769 57.6601C29.2499 58.0613 28.7635 57.6358 27.5108 58.1221C27.3892 58.1707 26.4528 58.6205 26.4041 58.9487C26.3676 59.2648 27.1825 59.4714 27.6081 59.5079C28.6297 59.593 29.104 59.3863 29.9553 59.4714C30.539 59.5322 31.3174 59.6295 31.4998 60.371C31.6093 60.8329 31.366 61.4164 30.9525 61.6595C30.1742 62.1093 28.9215 61.2948 28.5081 61.0274C27.8149 60.5776 27.5108 60.14 26.6352 59.8847C26.3798 59.8118 25.9298 59.6781 25.7839 59.8604C25.6866 59.982 25.7352 60.2129 26.2825 61.1976C26.9027 62.3281 27.0852 62.4619 27.2189 62.9724C27.3162 63.3614 27.4987 64.0543 27.1095 64.4676C26.696 64.9174 25.7961 64.9053 25.3704 64.5041C25.0542 64.2124 24.8353 63.7261 24.8718 62.4497C24.8839 61.9513 25.1515 61.4286 25.1393 60.7478C25.115 59.7024 25.0177 59.4228 24.8231 59.3134C24.6042 59.1918 24.3002 59.2769 24.0934 59.4106C23.911 59.5322 23.7772 59.7267 23.5462 62.0485C23.4732 62.8509 23.2543 63.3249 22.9624 63.641C22.707 63.9206 22.2449 64.1759 21.7949 64.03C21.1504 63.8355 21.0287 62.9603 21.0166 62.8509C20.9436 62.1944 21.3085 61.6717 21.4909 61.4164C21.7828 61.0031 21.9165 61.0396 22.5611 60.3831C23.3759 59.5444 23.3394 59.2891 23.3151 59.204C23.23 58.8758 22.853 58.7664 22.78 58.742C22.257 58.584 21.9165 59.0946 21.2233 59.0459C21.0652 59.0338 20.4936 58.8028 20.3842 58.4868C20.3112 58.2679 20.4815 57.9154 20.7369 57.8182C21.2112 57.6358 21.2598 57.8546 22.0625 58.0248C22.6584 58.1585 23.0597 58.2436 23.1692 58.0856C23.3151 57.8789 22.8773 57.2833 22.5003 56.9429C22.0381 56.5053 21.7584 56.5053 21.6246 56.1527C21.503 55.8124 21.6003 55.3504 21.8436 55.241C22.1354 55.083 22.6584 55.4842 22.9259 55.8853Z" fill="#22BC2E"/>
<path d="M27.0523 53.9955C27.3411 53.4955 27.3017 52.9323 26.9644 52.7376C26.627 52.5429 26.1194 52.7904 25.8306 53.2905C25.5417 53.7905 25.5811 54.3536 25.9185 54.5483C26.2558 54.743 26.7634 54.4955 27.0523 53.9955Z" fill="#22BC2E"/>
<path d="M29.8534 57.3347C30.308 57.1339 30.5489 56.6823 30.3914 56.3262C30.234 55.97 29.7378 55.844 29.2831 56.0448C28.8285 56.2457 28.5876 56.6972 28.7451 57.0534C28.9025 57.4096 29.3987 57.5355 29.8534 57.3347Z" fill="#22BC2E"/>
<path d="M26.1643 63.9266C26.4578 63.8925 26.6562 63.5243 26.6074 63.1042C26.5586 62.684 26.2811 62.3711 25.9876 62.4051C25.694 62.4392 25.4956 62.8074 25.5444 63.2275C25.5932 63.6476 25.8707 63.9606 26.1643 63.9266Z" fill="#22BC2E"/>
<path d="M22.9046 62.7387C23.1292 62.2067 23.0202 61.6527 22.6613 61.5013C22.3023 61.35 21.8293 61.6585 21.6048 62.1905C21.3803 62.7225 21.4892 63.2765 21.8482 63.4279C22.2071 63.5792 22.6801 63.2707 22.9046 62.7387Z" fill="#22BC2E"/>
<path d="M30.8128 60.6837C30.9031 60.3465 30.6398 59.983 30.2246 59.8718C29.8094 59.7606 29.3996 59.9438 29.3092 60.281C29.2188 60.6182 29.4821 60.9817 29.8973 61.0929C30.3125 61.2041 30.7224 61.0209 30.8128 60.6837Z" fill="#22BC2E"/>
<path d="M46.6774 115.536C47.2368 115.305 47.5287 115.524 48.1003 115.22C48.2949 115.11 48.6354 114.94 48.6476 114.697C48.6597 114.442 48.2949 114.223 47.1152 113.688C45.6072 113.007 45.2302 113.214 44.7437 112.886C44.2937 112.582 43.5033 111.695 43.6249 111.014C43.7465 110.309 44.6099 110.017 45.3275 110.139C46.0572 110.26 46.5679 110.977 47.3463 112.084C47.7963 112.716 48.0881 113.275 48.7935 113.591C48.9151 113.64 49.2435 113.725 49.4137 113.554C49.5718 113.396 49.5597 113.129 49.2678 112.497C48.453 110.759 47.8206 110.54 47.6503 109.652C47.4679 108.789 47.5287 107.865 48.2949 107.61C48.7327 107.464 49.5354 107.78 49.8272 108.874C50.0583 109.762 49.5475 110.163 49.7786 111.476C49.8029 111.609 50.0583 112.606 50.3745 112.716C50.6785 112.813 51.0434 112.059 51.1528 111.646C51.4326 110.661 51.3353 110.151 51.5785 109.336C51.7488 108.765 52.0041 108.036 52.7582 107.999C53.2324 107.987 53.7676 108.327 53.9135 108.789C54.2054 109.64 53.1595 110.71 52.819 111.075C52.2352 111.67 51.7488 111.877 51.3231 112.679C51.2015 112.922 50.9826 113.324 51.1407 113.506C51.238 113.627 51.469 113.627 52.5514 113.287C53.7919 112.898 53.95 112.752 54.4851 112.716C54.8864 112.691 55.6039 112.655 55.9323 113.117C56.285 113.603 56.1026 114.491 55.6283 114.831C55.2756 115.086 54.7648 115.196 53.5122 114.916C53.0257 114.807 52.5636 114.442 51.8947 114.32C50.861 114.138 50.5691 114.174 50.4231 114.357C50.265 114.539 50.2894 114.867 50.3745 115.098C50.4596 115.305 50.6177 115.475 52.8554 116.144C53.6216 116.375 54.0473 116.679 54.3027 117.031C54.5337 117.335 54.6797 117.846 54.4608 118.247C54.1446 118.842 53.2568 118.782 53.1595 118.77C52.5028 118.709 52.0649 118.259 51.846 118.028C51.5055 117.663 51.5663 117.53 51.0434 116.776C50.3745 115.816 50.1191 115.803 50.034 115.803C49.7056 115.828 49.511 116.168 49.4745 116.241C49.2192 116.727 49.657 117.153 49.4624 117.821C49.4259 117.967 49.0854 118.49 48.7449 118.526C48.5138 118.551 48.2098 118.32 48.1611 118.052C48.076 117.554 48.2949 117.542 48.6232 116.788C48.8665 116.229 49.0246 115.852 48.903 115.718C48.7205 115.536 48.0638 115.852 47.6503 116.144C47.1395 116.508 47.0666 116.788 46.7017 116.849C46.349 116.91 45.9112 116.715 45.8504 116.46C45.7288 116.144 46.2274 115.718 46.6774 115.536Z" fill="#22BC2E"/>
<path d="M45.936 112.335C46.1929 112.042 46.0492 111.496 45.615 111.116C45.1808 110.735 44.6205 110.663 44.3636 110.956C44.1067 111.249 44.2504 111.795 44.6846 112.176C45.1188 112.556 45.6791 112.628 45.936 112.335Z" fill="#22BC2E"/>
<path d="M48.9566 110.053C49.3368 109.968 49.5573 109.506 49.449 109.021C49.3407 108.537 48.9446 108.212 48.5644 108.297C48.1842 108.382 47.9638 108.844 48.0721 109.329C48.1804 109.814 48.5764 110.138 48.9566 110.053Z" fill="#22BC2E"/>
<path d="M55.1946 113.926C55.2185 113.631 54.8959 113.365 54.4742 113.331C54.0524 113.296 53.6912 113.507 53.6673 113.802C53.6434 114.096 53.9659 114.363 54.3877 114.397C54.8094 114.431 55.1707 114.22 55.1946 113.926Z" fill="#22BC2E"/>
<path d="M53.8695 118.071C54.0881 117.749 53.8777 117.225 53.3996 116.901C52.9214 116.577 52.3566 116.576 52.138 116.898C51.9194 117.221 52.1298 117.745 52.608 118.069C53.0861 118.393 53.651 118.394 53.8695 118.071Z" fill="#22BC2E"/>
<path d="M53.1319 109.692C53.3221 109.307 53.2223 108.869 52.9091 108.715C52.5959 108.561 52.1878 108.748 51.9977 109.133C51.8075 109.518 51.9072 109.956 52.2204 110.11C52.5337 110.265 52.9417 110.078 53.1319 109.692Z" fill="#22BC2E"/>
<path d="M110.853 100.207C110.61 99.6477 110.829 99.3559 110.513 98.7967C110.403 98.6022 110.221 98.2619 109.977 98.2619C109.722 98.2619 109.503 98.6266 108.992 99.8057C108.336 101.325 108.555 101.702 108.226 102.188C107.934 102.638 107.059 103.453 106.378 103.343C105.672 103.234 105.368 102.371 105.478 101.666C105.587 100.924 106.292 100.414 107.387 99.6112C108.019 99.1493 108.567 98.8454 108.871 98.1403C108.919 98.0188 108.992 97.6905 108.822 97.5203C108.664 97.3623 108.384 97.3745 107.776 97.6784C106.061 98.5293 105.843 99.1493 104.955 99.3438C104.091 99.5383 103.167 99.4897 102.899 98.736C102.741 98.2983 103.045 97.4839 104.14 97.18C105.028 96.9368 105.429 97.4353 106.742 97.18C106.876 97.1557 107.873 96.8761 107.971 96.5722C108.068 96.2683 107.302 95.9157 106.888 95.8063C105.903 95.5389 105.393 95.6483 104.578 95.4173C104.006 95.2593 103.264 95.0162 103.228 94.2625C103.203 93.7884 103.544 93.2535 104.006 93.0833C104.857 92.7794 105.94 93.8005 106.305 94.1409C106.913 94.7122 107.132 95.1863 107.934 95.5997C108.178 95.7212 108.591 95.9279 108.761 95.7698C108.883 95.6726 108.871 95.4416 108.518 94.3597C108.105 93.1319 107.959 92.9739 107.91 92.439C107.886 92.0379 107.825 91.3328 108.287 90.9803C108.773 90.6156 109.661 90.7858 110.014 91.2599C110.269 91.6124 110.391 92.123 110.135 93.3751C110.038 93.8613 109.673 94.3232 109.564 95.004C109.394 96.0373 109.442 96.329 109.625 96.4749C109.819 96.6329 110.136 96.5965 110.367 96.5114C110.573 96.4263 110.731 96.2561 111.376 94.0193C111.595 93.2413 111.899 92.8159 112.239 92.5606C112.543 92.3296 113.042 92.1716 113.456 92.3782C114.064 92.6943 114.015 93.5696 114.003 93.679C113.954 94.3354 113.504 94.7852 113.285 95.004C112.921 95.3565 112.799 95.2958 112.045 95.8306C111.096 96.5114 111.084 96.7667 111.084 96.8518C111.108 97.18 111.461 97.3745 111.522 97.3988C112.008 97.6419 112.434 97.2043 113.103 97.3745C113.261 97.4109 113.784 97.7392 113.82 98.0795C113.857 98.3105 113.626 98.6266 113.346 98.6752C112.848 98.7724 112.835 98.5415 112.081 98.2376C111.51 98.0066 111.133 97.8486 111.011 97.9823C110.841 98.1646 111.157 98.8211 111.461 99.2344C111.838 99.7449 112.118 99.8057 112.179 100.17C112.239 100.523 112.057 100.961 111.802 101.034C111.485 101.143 111.048 100.645 110.853 100.207Z" fill="#22BC2E"/>
<path d="M107.52 102.252C107.893 101.811 107.955 101.25 107.658 100.998C107.361 100.747 106.817 100.9 106.444 101.34C106.07 101.781 106.009 102.342 106.306 102.594C106.603 102.845 107.147 102.692 107.52 102.252Z" fill="#22BC2E"/>
<path d="M104.611 98.9425C105.094 98.826 105.412 98.4247 105.32 98.0462C105.229 97.6677 104.763 97.4553 104.28 97.5718C103.797 97.6883 103.479 98.0896 103.571 98.4681C103.662 98.8466 104.128 99.059 104.611 98.9425Z" fill="#22BC2E"/>
<path d="M109.58 92.5051C109.607 92.083 109.39 91.7255 109.095 91.7067C108.8 91.6878 108.539 92.0148 108.512 92.4369C108.485 92.859 108.702 93.2164 108.997 93.2353C109.292 93.2541 109.553 92.9272 109.58 92.5051Z" fill="#22BC2E"/>
<path d="M113.266 94.2554C113.581 93.7721 113.573 93.2076 113.247 92.9947C112.921 92.7818 112.4 93.001 112.085 93.4844C111.769 93.9678 111.777 94.5322 112.103 94.7452C112.429 94.9581 112.95 94.7388 113.266 94.2554Z" fill="#22BC2E"/>
<path d="M105.332 94.7581C105.481 94.4425 105.287 94.0378 104.898 93.8544C104.509 93.6709 104.073 93.7781 103.924 94.0937C103.775 94.4094 103.969 94.814 104.358 94.9975C104.747 95.181 105.183 95.0738 105.332 94.7581Z" fill="#22BC2E"/>
<path d="M108.664 37.4929C108.081 37.6509 107.813 37.3956 107.217 37.6144C107.011 37.6874 106.646 37.8211 106.609 38.0642C106.561 38.3195 106.901 38.5869 107.996 39.2677C109.406 40.1429 109.808 39.9849 110.245 40.3861C110.647 40.7507 111.316 41.7354 111.109 42.3918C110.89 43.0726 110.002 43.2428 109.309 43.0361C108.592 42.8173 108.19 42.0393 107.57 40.8358C107.205 40.1429 106.998 39.5594 106.342 39.1583C106.232 39.0853 105.916 38.9759 105.721 39.1218C105.539 39.2555 105.515 39.5351 105.721 40.1794C106.305 42.0028 106.889 42.3189 106.95 43.2063C107.011 44.0937 106.828 44.9933 106.038 45.1513C105.588 45.2364 104.821 44.8109 104.688 43.6926C104.578 42.7808 105.138 42.4526 105.077 41.1154C105.077 40.9817 104.955 39.9484 104.651 39.8025C104.359 39.6567 103.909 40.3739 103.739 40.7629C103.326 41.6989 103.362 42.2217 103.009 42.9997C102.766 43.5345 102.413 44.2396 101.659 44.1667C101.185 44.118 100.711 43.7047 100.614 43.2306C100.443 42.3432 101.611 41.4193 102 41.1154C102.657 40.6049 103.167 40.459 103.69 39.7175C103.849 39.4986 104.104 39.1218 103.982 38.9273C103.897 38.7936 103.666 38.7693 102.559 38.9638C101.282 39.1826 101.1 39.3163 100.577 39.2677C100.176 39.2312 99.4704 39.1826 99.1907 38.6842C98.8988 38.1493 99.2028 37.2984 99.7258 37.0188C100.103 36.8121 100.638 36.7635 101.83 37.2133C102.292 37.3835 102.705 37.8089 103.362 38.0156C104.359 38.3316 104.651 38.3316 104.821 38.1736C105.004 38.0034 105.028 37.6874 104.967 37.4442C104.919 37.2254 104.773 37.0431 102.657 36.0827C101.927 35.7545 101.55 35.3898 101.343 35.013C101.161 34.6848 101.076 34.162 101.343 33.7852C101.745 33.2382 102.608 33.4083 102.705 33.4327C103.35 33.5785 103.727 34.0891 103.909 34.3444C104.201 34.7577 104.128 34.8671 104.542 35.6937C105.077 36.7392 105.32 36.7878 105.417 36.7878C105.746 36.8121 105.989 36.496 106.025 36.4353C106.342 35.9855 105.965 35.5114 106.244 34.8671C106.305 34.7212 106.706 34.2593 107.047 34.2593C107.278 34.2593 107.558 34.5267 107.57 34.8063C107.582 35.3169 107.363 35.2926 106.938 35.9976C106.621 36.5204 106.415 36.8729 106.524 37.0188C106.682 37.2133 107.375 36.9944 107.825 36.7635C108.385 36.4717 108.482 36.2043 108.859 36.1921C109.224 36.18 109.625 36.4231 109.65 36.6905C109.686 37.0066 109.127 37.3591 108.664 37.4929Z" fill="#22BC2E"/>
<path d="M110.35 42.3232C110.643 42.0671 110.573 41.5069 110.193 41.072C109.813 40.6371 109.267 40.4922 108.974 40.7484C108.68 41.0045 108.75 41.5647 109.13 41.9996C109.51 42.4345 110.056 42.5794 110.35 42.3232Z" fill="#22BC2E"/>
<path d="M105.838 44.4113C106.226 44.3776 106.506 43.949 106.463 43.4541C106.42 42.9592 106.07 42.5853 105.682 42.6191C105.294 42.6528 105.014 43.0814 105.057 43.5763C105.101 44.0712 105.45 44.4451 105.838 44.4113Z" fill="#22BC2E"/>
<path d="M101.48 38.2885C101.543 37.9999 101.258 37.6931 100.845 37.6034C100.431 37.5137 100.045 37.675 99.9826 37.9637C99.92 38.2523 100.204 38.5591 100.618 38.6488C101.031 38.7385 101.417 38.5772 101.48 38.2885Z" fill="#22BC2E"/>
<path d="M103.454 35.4122C103.714 35.1216 103.575 34.5744 103.144 34.19C102.713 33.8056 102.153 33.7295 101.893 34.02C101.634 34.3106 101.773 34.8578 102.204 35.2422C102.635 35.6266 103.195 35.7027 103.454 35.4122Z" fill="#22BC2E"/>
<path d="M102.535 43.1108C102.774 42.7541 102.733 42.3071 102.443 42.1126C102.153 41.918 101.724 42.0495 101.485 42.4063C101.245 42.763 101.286 43.21 101.576 43.4045C101.866 43.5991 102.295 43.4676 102.535 43.1108Z" fill="#22BC2E"/>
<path d="M68.865 120.963C70.3741 119.188 70.1578 116.526 68.3818 115.018C66.6058 113.509 63.9427 113.725 62.4336 115.501C60.9245 117.276 61.1409 119.938 62.9168 121.446C64.6928 122.955 67.3559 122.738 68.865 120.963Z" fill="#FD4242"/>
<path d="M68.6515 119.796C69.4865 118.814 69.3668 117.341 68.3842 116.506C67.4015 115.672 65.928 115.791 65.093 116.773C64.258 117.756 64.3777 119.229 65.3603 120.063C66.343 120.898 67.8165 120.778 68.6515 119.796Z" fill="#21262D"/>
<path d="M37.4121 107.976C39.7099 107.585 41.2562 105.407 40.8658 103.11C40.4754 100.814 38.2962 99.268 35.9984 99.6582C33.7006 100.048 32.1544 102.227 32.5448 104.524C32.9351 106.82 35.1143 108.366 37.4121 107.976Z" fill="#FD4242"/>
<path d="M37.9964 106.958C39.2678 106.742 40.1234 105.537 39.9074 104.266C39.6914 102.995 38.4856 102.14 37.2142 102.356C35.9428 102.572 35.0872 103.777 35.3032 105.048C35.5192 106.319 36.725 107.174 37.9964 106.958Z" fill="#21262D"/>
<path d="M27.4314 76.2811C28.6093 74.2708 27.9338 71.6867 25.9227 70.5093C23.9116 69.3319 21.3264 70.007 20.1484 72.0173C18.9705 74.0276 19.646 76.6117 21.6571 77.7891C23.6682 78.9665 26.2535 78.2914 27.4314 76.2811Z" fill="#FD4242"/>
<path d="M25.9687 76.553C26.6204 75.4407 26.2467 74.0108 25.1339 73.3593C24.0211 72.7079 22.5907 73.0814 21.9389 74.1938C21.2871 75.3061 21.6609 76.7359 22.7737 77.3874C23.8864 78.0388 25.3169 77.6653 25.9687 76.553Z" fill="#21262D"/>
<path d="M34.396 47.0993C36.591 46.3161 37.7352 43.9025 36.9516 41.7084C36.1681 39.5143 33.7534 38.3706 31.5584 39.1539C29.3634 39.9371 28.2192 42.3507 29.0028 44.5447C29.7863 46.7388 32.201 47.8825 34.396 47.0993Z" fill="#FD4242"/>
<path d="M33.0924 46.3599C34.307 45.9265 34.9401 44.5911 34.5065 43.3771C34.0729 42.1631 32.7369 41.5302 31.5224 41.9636C30.3078 42.397 29.6747 43.7324 30.1083 44.9465C30.5418 46.1605 31.8779 46.7933 33.0924 46.3599Z" fill="#21262D"/>
<path d="M63.8983 26.7527C64.7091 24.5686 63.5952 22.141 61.4102 21.3306C59.2252 20.5201 56.7966 21.6336 55.9857 23.8176C55.1749 26.0017 56.2889 28.4292 58.4739 29.2397C60.6589 30.0502 63.0875 28.9367 63.8983 26.7527Z" fill="#FD4242"/>
<path d="M60.963 26.4715C61.4116 25.2631 60.7952 23.9199 59.5862 23.4714C58.3772 23.0229 57.0335 23.6391 56.5848 24.8475C56.1362 26.056 56.7525 27.3992 57.9615 27.8476C59.1705 28.2961 60.5143 27.68 60.963 26.4715Z" fill="#21262D"/>
<path d="M94.1839 32.5864C96.2095 31.4341 96.9171 28.8587 95.7643 26.834C94.6116 24.8093 92.035 24.102 90.0094 25.2542C87.9838 26.4065 87.2763 28.9819 88.429 31.0066C89.5818 33.0313 92.1583 33.7386 94.1839 32.5864Z" fill="#FD4242"/>
<path d="M92.1087 30.4785C93.2295 29.8409 93.621 28.4159 92.9831 27.2956C92.3453 26.1753 90.9197 25.784 89.7989 26.4215C88.6781 27.0591 88.2866 28.4841 88.9244 29.6044C89.5623 30.7247 90.9879 31.1161 92.1087 30.4785Z" fill="#21262D"/>
<path d="M118.536 53.143C118.955 50.8514 117.436 48.654 115.143 48.2351C112.851 47.8163 110.652 49.3345 110.233 51.6262C109.814 53.9179 111.333 56.1152 113.626 56.5341C115.919 56.9529 118.117 55.4347 118.536 53.143Z" fill="#FD4242"/>
<path d="M116.114 51.7164C116.346 50.4484 115.506 49.2326 114.237 49.0008C112.969 48.769 111.752 49.6091 111.52 50.8771C111.289 52.1451 112.129 53.361 113.398 53.5927C114.666 53.8245 115.882 52.9844 116.114 51.7164Z" fill="#21262D"/>
<path d="M119.045 87.9079C120.84 86.4215 121.089 83.7624 119.602 81.9686C118.115 80.1747 115.455 79.9255 113.661 81.4118C111.866 82.8981 111.617 85.5572 113.104 87.3511C114.59 89.1449 117.251 89.3942 119.045 87.9079Z" fill="#FD4242"/>
<path d="M118.118 85.2481C119.111 84.4257 119.249 82.9544 118.426 81.9618C117.604 80.9692 116.132 80.8313 115.139 81.6537C114.146 82.4761 114.008 83.9474 114.831 84.94C115.653 85.9326 117.125 86.0705 118.118 85.2481Z" fill="#21262D"/>
<path d="M101.358 110.693C101.372 108.363 99.4948 106.463 97.1641 106.449C94.8335 106.434 92.9323 108.311 92.9178 110.641C92.9033 112.97 94.781 114.871 97.1117 114.885C99.4423 114.9 101.343 113.023 101.358 110.693Z" fill="#FD4242"/>
<path d="M100.445 109.928C100.453 108.639 99.4144 107.588 98.1248 107.58C96.8352 107.572 95.7833 108.61 95.7753 109.899C95.7672 111.188 96.8062 112.24 98.0957 112.248C99.3853 112.256 100.437 111.217 100.445 109.928Z" fill="#21262D"/>
<path d="M85.5506 96.4281C85.8647 96.2468 85.9724 95.8454 85.791 95.5314C85.6097 95.2175 85.208 95.1099 84.8939 95.2912C84.5798 95.4724 84.4722 95.8739 84.6536 96.1879C84.8349 96.5018 85.2365 96.6094 85.5506 96.4281Z" fill="#002873"/>
<path d="M96.2011 85.7933C96.3825 85.4793 96.2749 85.0779 95.9608 84.8966C95.6467 84.7153 95.2451 84.8229 95.0637 85.1369C94.8824 85.4508 94.99 85.8523 95.3041 86.0335C95.6182 86.2148 96.0198 86.1073 96.2011 85.7933Z" fill="#002873"/>
<path d="M99.4458 71.9071C99.8085 71.9071 100.102 71.6132 100.102 71.2507C100.102 70.8881 99.8085 70.5942 99.4458 70.5942C99.0831 70.5942 98.7891 70.8881 98.7891 71.2507C98.7891 71.6132 99.0831 71.9071 99.4458 71.9071Z" fill="#002873"/>
<path d="M95.9598 57.5914C96.2739 57.4102 96.3815 57.0087 96.2002 56.6948C96.0188 56.3808 95.6172 56.2732 95.3031 56.4545C94.989 56.6358 94.8814 57.0372 95.0627 57.3512C95.2441 57.6652 95.6457 57.7727 95.9598 57.5914Z" fill="#002873"/>
<path d="M85.79 46.9542C85.9714 46.6402 85.8637 46.2387 85.5497 46.0575C85.2356 45.8762 84.8339 45.9838 84.6526 46.2977C84.4712 46.6117 84.5788 47.0132 84.8929 47.1944C85.207 47.3757 85.6087 47.2681 85.79 46.9542Z" fill="#002873"/>
<path d="M70.9995 43.4738C71.3622 43.4738 71.6562 43.1799 71.6562 42.8173C71.6562 42.4548 71.3622 42.1609 70.9995 42.1609C70.6368 42.1609 70.3428 42.4548 70.3428 42.8173C70.3428 43.1799 70.6368 43.4738 70.9995 43.4738Z" fill="#002873"/>
<path d="M57.1053 47.1845C57.4194 47.0032 57.527 46.6017 57.3457 46.2878C57.1643 45.9738 56.7627 45.8662 56.4486 46.0475C56.1345 46.2288 56.0269 46.6302 56.2082 46.9442C56.3896 47.2582 56.7912 47.3657 57.1053 47.1845Z" fill="#002873"/>
<path d="M46.9336 57.3611C47.1149 57.0472 47.0073 56.6457 46.6932 56.4645C46.3791 56.2832 45.9775 56.3908 45.7961 56.7047C45.6148 57.0187 45.7224 57.4201 46.0365 57.6014C46.3506 57.7827 46.7522 57.6751 46.9336 57.3611Z" fill="#002873"/>
<path d="M42.5669 71.9071C42.9296 71.9071 43.2236 71.6132 43.2236 71.2507C43.2236 70.8881 42.9296 70.5942 42.5669 70.5942C42.2042 70.5942 41.9102 70.8881 41.9102 71.2507C41.9102 71.6132 42.2042 71.9071 42.5669 71.9071Z" fill="#002873"/>
<path d="M46.6971 86.0221C47.0112 85.8408 47.1188 85.4394 46.9375 85.1254C46.7561 84.8114 46.3545 84.7039 46.0404 84.8852C45.7263 85.0664 45.6187 85.4679 45.8 85.7818C45.9814 86.0958 46.383 86.2034 46.6971 86.0221Z" fill="#002873"/>
<path d="M57.3457 96.1986C57.527 95.8846 57.4194 95.4831 57.1053 95.3019C56.7912 95.1206 56.3896 95.2282 56.2082 95.5421C56.0269 95.8561 56.1345 96.2575 56.4486 96.4388C56.7627 96.6201 57.1643 96.5125 57.3457 96.1986Z" fill="#002873"/>
<path d="M70.9995 100.329C71.3622 100.329 71.6562 100.035 71.6562 99.6721C71.6562 99.3095 71.3622 99.0156 70.9995 99.0156C70.6368 99.0156 70.3428 99.3095 70.3428 99.6721C70.3428 100.035 70.6368 100.329 70.9995 100.329Z" fill="#002873"/>
<path d="M82.125 77.6776C82.3063 77.3636 82.1987 76.9621 81.8846 76.7809C81.5705 76.5996 81.1689 76.7072 80.9875 77.0211C80.8062 77.3351 80.9138 77.7365 81.2279 77.9178C81.542 78.0991 81.9436 77.9915 82.125 77.6776Z" fill="#002873"/>
<path d="M81.8768 65.713C82.1909 65.5318 82.2985 65.1303 82.1172 64.8163C81.9358 64.5024 81.5342 64.3948 81.2201 64.5761C80.906 64.7573 80.7984 65.1588 80.9797 65.4728C81.1611 65.7867 81.5627 65.8943 81.8768 65.713Z" fill="#002873"/>
<path d="M70.9995 59.7145C71.3622 59.7145 71.6562 59.4206 71.6562 59.0581C71.6562 58.6955 71.3622 58.4016 70.9995 58.4016C70.6368 58.4016 70.3428 58.6955 70.3428 59.0581C70.3428 59.4206 70.6368 59.7145 70.9995 59.7145Z" fill="#002873"/>
<path d="M61.0049 65.4871C61.1862 65.1732 61.0786 64.7717 60.7645 64.5904C60.4504 64.4092 60.0488 64.5167 59.8674 64.8307C59.6861 65.1447 59.7937 65.5461 60.1078 65.7274C60.4219 65.9087 60.8235 65.8011 61.0049 65.4871Z" fill="#002873"/>
<path d="M60.7694 77.904C61.0835 77.7227 61.1911 77.3212 61.0097 77.0073C60.8284 76.6933 60.4268 76.5857 60.1127 76.767C59.7986 76.9483 59.691 77.3497 59.8723 77.6637C60.0537 77.9777 60.4553 78.0852 60.7694 77.904Z" fill="#002873"/>
<path d="M70.9995 84.0878C71.3622 84.0878 71.6562 83.7939 71.6562 83.4313C71.6562 83.0688 71.3622 82.7749 70.9995 82.7749C70.6368 82.7749 70.3428 83.0688 70.3428 83.4313C70.3428 83.7939 70.6368 84.0878 70.9995 84.0878Z" fill="#002873"/>
<path d="M70.9995 71.9071C71.3622 71.9071 71.6562 71.6132 71.6562 71.2507C71.6562 70.8881 71.3622 70.5942 70.9995 70.5942C70.6368 70.5942 70.3428 70.8881 70.3428 71.2507C70.3428 71.6132 70.6368 71.9071 70.9995 71.9071Z" fill="#002873"/>
<path d="M85.7554 133.524C86.1083 133.44 86.3265 133.086 86.2429 132.733C86.1592 132.381 85.8054 132.162 85.4525 132.246C85.0996 132.33 84.8813 132.683 84.9649 133.036C85.0486 133.389 85.4024 133.607 85.7554 133.524Z" fill="#002873"/>
<path d="M99.731 128.444C100.055 128.281 100.186 127.886 100.023 127.562C99.8603 127.238 99.4656 127.108 99.1415 127.27C98.8174 127.433 98.6866 127.828 98.8494 128.152C99.0122 128.475 99.4069 128.606 99.731 128.444Z" fill="#002873"/>
<path d="M112.164 120.263C112.442 120.03 112.478 119.616 112.245 119.339C112.011 119.061 111.597 119.025 111.319 119.258C111.042 119.491 111.005 119.905 111.239 120.183C111.472 120.46 111.886 120.496 112.164 120.263Z" fill="#002873"/>
<path d="M122.379 109.489C122.596 109.198 122.536 108.787 122.245 108.571C121.954 108.354 121.542 108.414 121.326 108.705C121.109 108.996 121.169 109.407 121.46 109.624C121.751 109.84 122.163 109.78 122.379 109.489Z" fill="#002873"/>
<path d="M129.811 96.6119C129.955 96.279 129.801 95.8927 129.468 95.7491C129.135 95.6055 128.749 95.759 128.605 96.0918C128.461 96.4247 128.615 96.811 128.948 96.9546C129.281 97.0982 129.667 96.9448 129.811 96.6119Z" fill="#002873"/>
<path d="M134.064 82.3564C134.127 81.9993 133.888 81.6589 133.531 81.5959C133.174 81.533 132.833 81.7714 132.77 82.1285C132.707 82.4855 132.946 82.8259 133.303 82.8889C133.66 82.9518 134.001 82.7134 134.064 82.3564Z" fill="#002873"/>
<path d="M134.324 68.2085C134.686 68.1874 134.962 67.8769 134.941 67.515C134.92 67.1531 134.609 66.8768 134.247 66.8979C133.885 66.9189 133.609 67.2294 133.63 67.5914C133.651 67.9533 133.962 68.2296 134.324 68.2085Z" fill="#002873"/>
<path d="M131.915 53.7096C132.262 53.6056 132.46 53.2398 132.356 52.8925C132.252 52.5452 131.886 52.3479 131.538 52.4519C131.191 52.5559 130.994 52.9217 131.098 53.269C131.202 53.6163 131.568 53.8136 131.915 53.7096Z" fill="#002873"/>
<path d="M126.216 40.1237C126.53 39.9424 126.637 39.541 126.456 39.227C126.275 38.913 125.873 38.8055 125.559 38.9867C125.245 39.168 125.137 39.5695 125.319 39.8834C125.5 40.1974 125.902 40.305 126.216 40.1237Z" fill="#002873"/>
<path d="M117.558 28.2636C117.822 28.0148 117.834 27.5993 117.585 27.3356C117.336 27.0719 116.92 27.0598 116.656 27.3086C116.393 27.5574 116.38 27.9728 116.629 28.2365C116.878 28.5002 117.294 28.5124 117.558 28.2636Z" fill="#002873"/>
<path d="M106.382 18.6681C106.581 18.3652 106.497 17.9582 106.194 17.7589C105.891 17.5597 105.484 17.6438 105.285 17.9467C105.085 18.2496 105.169 18.6566 105.473 18.8558C105.776 19.055 106.183 18.971 106.382 18.6681Z" fill="#002873"/>
<path d="M93.2997 11.9264C93.4237 11.5857 93.248 11.209 92.9071 11.085C92.5663 10.961 92.1895 11.1367 92.0654 11.4774C91.9414 11.8181 92.1171 12.1948 92.4579 12.3187C92.7988 12.4427 93.1756 12.2671 93.2997 11.9264Z" fill="#002873"/>
<path d="M79.0136 8.40426C79.0557 8.04418 78.7978 7.71816 78.4376 7.67607C78.0773 7.63397 77.7512 7.89176 77.7091 8.25183C77.6669 8.61191 77.9248 8.93793 78.2851 8.98002C78.6453 9.02211 78.9715 8.76433 79.0136 8.40426Z" fill="#002873"/>
<path d="M63.712 8.96285C64.0722 8.92076 64.3301 8.59474 64.288 8.23466C64.2459 7.87458 63.9197 7.6168 63.5595 7.65889C63.1993 7.70099 62.9414 8.02701 62.9835 8.38709C63.0256 8.74716 63.3517 9.00494 63.712 8.96285Z" fill="#002873"/>
<path d="M49.5517 12.3307C49.8925 12.2068 50.0682 11.8301 49.9442 11.4894C49.8202 11.1487 49.4433 10.973 49.1025 11.097C48.7616 11.221 48.5859 11.5977 48.71 11.9384C48.834 12.2791 49.2108 12.4547 49.5517 12.3307Z" fill="#002873"/>
<path d="M36.5321 18.8644C36.8352 18.6652 36.9193 18.2581 36.72 17.9552C36.5207 17.6523 36.1134 17.5683 35.8104 17.7675C35.5074 17.9667 35.4233 18.3737 35.6226 18.6766C35.8219 18.9795 36.2291 19.0636 36.5321 18.8644Z" fill="#002873"/>
<path d="M25.3738 28.2051C25.6227 27.9414 25.6106 27.526 25.3468 27.2772C25.0829 27.0284 24.6673 27.0405 24.4184 27.3042C24.1695 27.568 24.1816 27.9834 24.4455 28.2322C24.7093 28.481 25.1249 28.4689 25.3738 28.2051Z" fill="#002873"/>
<path d="M16.665 39.899C16.8464 39.5851 16.7388 39.1836 16.4247 39.0023C16.1106 38.821 15.7089 38.9286 15.5276 39.2426C15.3462 39.5565 15.4538 39.958 15.7679 40.1393C16.082 40.3205 16.4837 40.213 16.665 39.899Z" fill="#002873"/>
<path d="M10.9134 53.2623C11.0174 52.915 10.8201 52.5492 10.4726 52.4452C10.1252 52.3412 9.75917 52.5385 9.65515 52.8858C9.55112 53.2331 9.74847 53.5989 10.0959 53.7029C10.4434 53.8069 10.8094 53.6096 10.9134 53.2623Z" fill="#002873"/>
<path d="M8.37186 67.6C8.39295 67.238 8.11652 66.9276 7.75444 66.9065C7.39236 66.8854 7.08174 67.1617 7.06065 67.5236C7.03956 67.8856 7.31599 68.196 7.67807 68.2171C8.04015 68.2382 8.35077 67.9619 8.37186 67.6Z" fill="#002873"/>
<path d="M8.67749 82.9048C9.03467 82.8418 9.27318 82.5014 9.21021 82.1444C9.14725 81.7873 8.80666 81.5489 8.44948 81.6119C8.09229 81.6748 7.85378 82.0153 7.91674 82.3723C7.97971 82.7293 8.3203 82.9677 8.67749 82.9048Z" fill="#002873"/>
<path d="M13.0578 96.9389C13.3909 96.7953 13.5444 96.409 13.4007 96.0761C13.257 95.7432 12.8706 95.5898 12.5376 95.7334C12.2045 95.877 12.051 96.2633 12.1947 96.5961C12.3384 96.929 12.7248 97.0825 13.0578 96.9389Z" fill="#002873"/>
<path d="M20.5621 109.592C20.853 109.375 20.9133 108.964 20.6967 108.673C20.4801 108.383 20.0687 108.322 19.7777 108.539C19.4868 108.755 19.4266 109.167 19.6432 109.457C19.8598 109.748 20.2712 109.808 20.5621 109.592Z" fill="#002873"/>
<path d="M30.7495 120.213C30.9827 119.935 30.9464 119.521 30.6686 119.288C30.3908 119.055 29.9766 119.092 29.7434 119.369C29.5103 119.647 29.5465 120.061 29.8243 120.294C30.1022 120.527 30.5164 120.491 30.7495 120.213Z" fill="#002873"/>
<path d="M43.1295 128.165C43.2923 127.842 43.1615 127.447 42.8374 127.284C42.5133 127.122 42.1186 127.252 41.9559 127.576C41.7931 127.9 41.9239 128.295 42.248 128.457C42.5721 128.62 42.9668 128.489 43.1295 128.165Z" fill="#002873"/>
<path d="M57.0056 133.056C57.0892 132.703 56.8709 132.349 56.518 132.266C56.1651 132.182 55.8113 132.4 55.7276 132.753C55.644 133.106 55.8622 133.459 56.2151 133.543C56.5681 133.627 56.922 133.408 57.0056 133.056Z" fill="#002873"/>
<path d="M70.9995 135.266C71.3622 135.266 71.6562 134.972 71.6562 134.609C71.6562 134.247 71.3622 133.953 70.9995 133.953C70.6368 133.953 70.3428 134.247 70.3428 134.609C70.3428 134.972 70.6368 135.266 70.9995 135.266Z" fill="#002873"/>
</g>
<defs>
<clipPath id="clip0_751_17750">
<rect y="0.606201" width="142" height="141.698" rx="70.849" fill="white"/>
</clipPath>
</defs>
</svg>
