<svg width="22" height="21" viewBox="0 0 22 21" fill="none" xmlns="http://www.w3.org/2000/svg">
<path d="M20.9998 7.362C21.0032 8.90075 20.4104 10.381 19.3458 11.492C16.9048 14.023 14.5368 16.662 12.0058 19.1C11.4248 19.65 10.5038 19.63 9.94875 19.055L2.65375 11.493C0.44875 9.207 0.44875 5.517 2.65375 3.232C3.17489 2.685 3.80169 2.24952 4.49614 1.95197C5.19059 1.65442 5.93824 1.501 6.69375 1.501C7.44926 1.501 8.19691 1.65442 8.89136 1.95197C9.58581 2.24952 10.2126 2.685 10.7338 3.232L10.9998 3.506L11.2648 3.232C11.7865 2.68574 12.4134 2.2507 13.1077 1.95304C13.802 1.65539 14.5493 1.50128 15.3048 1.5C16.8248 1.5 18.2778 2.124 19.3448 3.232C20.4097 4.34284 21.0029 5.82311 20.9998 7.362Z" stroke="#002873" stroke-width="1.5" stroke-linejoin="round"/>
</svg>
