<svg width="24" height="25" viewBox="0 0 24 25" fill="none" xmlns="http://www.w3.org/2000/svg">
<rect x="0.5" y="1" width="23" height="23" rx="11.5" fill="white"/>
<rect x="0.5" y="1" width="23" height="23" rx="11.5" stroke="#D2D8DF"/>
<path fill-rule="evenodd" clip-rule="evenodd" d="M7 12.5C7 12.3674 7.04789 12.2402 7.13313 12.1464C7.21838 12.0527 7.33399 12 7.45455 12H16.5455C16.666 12 16.7816 12.0527 16.8669 12.1464C16.9521 12.2402 17 12.3674 17 12.5C17 12.6326 16.9521 12.7598 16.8669 12.8536C16.7816 12.9473 16.666 13 16.5455 13H7.45455C7.33399 13 7.21838 12.9473 7.13313 12.8536C7.04789 12.7598 7 12.6326 7 12.5Z" fill="#002873"/>
</svg>
