<svg width="22" height="24" viewBox="0 0 22 24" fill="none" xmlns="http://www.w3.org/2000/svg">
<path d="M20.6166 6.25681L11.4221 11.7775M3.24143 18.3598L9.94977 22.3825C10.3944 22.6497 10.9034 22.7908 11.4221 22.7908C11.9408 22.7908 12.4498 22.6497 12.8944 22.3825L19.6028 18.3598C20.0298 18.1043 20.3844 17.7415 20.6294 17.3086C20.8686 16.877 20.9969 16.3916 21.0004 15.897V7.65681C21.0023 7.15835 20.8744 6.66799 20.6294 6.23393C20.3843 5.79987 20.0305 5.43705 19.6028 5.18114L12.8944 1.60531C12.4472 1.34571 11.9392 1.20898 11.4221 1.20898C10.905 1.20898 10.397 1.34571 9.94977 1.60531L3.24143 5.18114C2.81377 5.43686 2.46002 5.79948 2.21497 6.23334C1.96991 6.6672 1.84199 7.15736 1.84377 7.65564V15.8981C1.84727 16.3916 1.9756 16.877 2.21477 17.3086C2.45977 17.7415 2.81443 18.1043 3.24143 18.3598Z" stroke="#002873" stroke-width="1.75" stroke-linecap="round" stroke-linejoin="round"/>
<path d="M2.22656 6.2569L11.4211 11.7776V22.7909M16.5311 13.0889V8.70807L6.8314 3.2749" stroke="#002873" stroke-width="1.75" stroke-linecap="round" stroke-linejoin="round"/>
</svg>
