<svg width="26" height="26" viewBox="0 0 26 26" fill="none" xmlns="http://www.w3.org/2000/svg">
<g clip-path="url(#clip0_1188_15968)">
<path d="M13.1641 16.684V14.3319C13.1641 11.3079 15.6121 8.8479 18.6481 8.8479H21.0001" stroke="#002873" stroke-width="1.8" stroke-linecap="round" stroke-linejoin="round"/>
<path d="M5.34375 8.86011H7.69577C10.7197 8.86011 13.1797 11.308 13.1797 14.344V15.1242V19.3" stroke="#002873" stroke-width="1.8" stroke-linecap="round" stroke-linejoin="round"/>
<path d="M7.1678 6.69971L5.00781 8.85971L7.1678 11.0197" stroke="#002873" stroke-width="1.8" stroke-linecap="round" stroke-linejoin="round"/>
<path d="M18.832 6.69971L20.992 8.85971L18.832 11.0197" stroke="#002873" stroke-width="1.8" stroke-linecap="round" stroke-linejoin="round"/>
<path d="M9.4 25H16.6C22.6 25 25 22.6 25 16.6V9.4C25 3.4 22.6 1 16.6 1H9.4C3.4 1 1 3.4 1 9.4V16.6C1 22.6 3.4 25 9.4 25Z" stroke="#002873" stroke-width="1.8" stroke-linecap="round" stroke-linejoin="round"/>
</g>
<defs>
<clipPath id="clip0_1188_15968">
<rect width="26" height="26" fill="white"/>
</clipPath>
</defs>
</svg>
