<svg width="30" height="30" viewBox="0 0 30 30" fill="none" xmlns="http://www.w3.org/2000/svg">
<path d="M14.2653 14.5926C14.1728 14.5793 14.0539 14.5793 13.9483 14.5926C11.6231 14.5132 9.77344 12.6078 9.77344 10.2658C9.77344 7.87094 11.7023 5.9259 14.1068 5.9259C16.498 5.9259 18.4401 7.87094 18.4401 10.2658C18.4269 12.6078 16.5905 14.5132 14.2653 14.5926Z" stroke="#002873" stroke-width="1.8" stroke-linecap="round" stroke-linejoin="round"/>
<path d="M22.2962 23.6524C20.1345 25.8042 17.2685 27.1111 14.111 27.1111C10.9535 27.1111 8.08745 25.8042 5.92578 23.6524C6.04722 22.4115 6.77588 21.1969 8.07531 20.2464C11.4028 17.8438 16.8434 17.8438 20.1466 20.2464C21.4461 21.1969 22.1747 22.4115 22.2962 23.6524Z" stroke="#002873" stroke-width="1.8" stroke-linecap="round" stroke-linejoin="round"/>
<path d="M14.1094 27.1111C21.289 27.1111 27.1094 21.2907 27.1094 14.1111C27.1094 6.93138 21.289 1.11108 14.1094 1.11108C6.92967 1.11108 1.10938 6.93138 1.10938 14.1111C1.10938 21.2907 6.92967 27.1111 14.1094 27.1111Z" stroke="#002873" stroke-width="1.8" stroke-linecap="round" stroke-linejoin="round"/>
</svg>
