<svg width="27" height="22" viewBox="0 0 27 22" fill="none" xmlns="http://www.w3.org/2000/svg">
<path d="M13.5 5.09375C13.5 4.86997 13.4111 4.65536 13.2529 4.49713C13.0946 4.3389 12.88 4.25 12.6563 4.25C12.4325 4.25 12.2179 4.3389 12.0596 4.49713C11.9014 4.65536 11.8125 4.86997 11.8125 5.09375V16.9062C11.8125 17.13 11.9014 17.3446 12.0596 17.5029C12.2179 17.6611 12.4325 17.75 12.6563 17.75C12.88 17.75 13.0946 17.6611 13.2529 17.5029C13.4111 17.3446 13.5 17.13 13.5 16.9062V5.09375ZM19.4063 6.57537C21.9071 4.17912 27.4978 8.92438 19.4063 14.375C11.3147 8.92438 16.9054 4.17744 19.4063 6.57537ZM4.21875 5.9375C3.99497 5.9375 3.78036 6.02639 3.62213 6.18463C3.4639 6.34286 3.375 6.55747 3.375 6.78125C3.375 7.00503 3.4639 7.21964 3.62213 7.37787C3.78036 7.5361 3.99497 7.625 4.21875 7.625H9.28125C9.50503 7.625 9.71964 7.5361 9.87787 7.37787C10.0361 7.21964 10.125 7.00503 10.125 6.78125C10.125 6.55747 10.0361 6.34286 9.87787 6.18463C9.71964 6.02639 9.50503 5.9375 9.28125 5.9375H4.21875ZM4.21875 9.3125C3.99497 9.3125 3.78036 9.40139 3.62213 9.55963C3.4639 9.71786 3.375 9.93247 3.375 10.1562C3.375 10.38 3.4639 10.5946 3.62213 10.7529C3.78036 10.9111 3.99497 11 4.21875 11H9.28125C9.50503 11 9.71964 10.9111 9.87787 10.7529C10.0361 10.5946 10.125 10.38 10.125 10.1562C10.125 9.93247 10.0361 9.71786 9.87787 9.55963C9.71964 9.40139 9.50503 9.3125 9.28125 9.3125H4.21875ZM4.21875 12.6875C3.99497 12.6875 3.78036 12.7764 3.62213 12.9346C3.4639 13.0929 3.375 13.3075 3.375 13.5312C3.375 13.755 3.4639 13.9696 3.62213 14.1279C3.78036 14.2861 3.99497 14.375 4.21875 14.375H9.28125C9.50503 14.375 9.71964 14.2861 9.87787 14.1279C10.0361 13.9696 10.125 13.755 10.125 13.5312C10.125 13.3075 10.0361 13.0929 9.87787 12.9346C9.71964 12.7764 9.50503 12.6875 9.28125 12.6875H4.21875Z" fill="#002873"/>
<path fill-rule="evenodd" clip-rule="evenodd" d="M0 4.25C0 3.35489 0.355579 2.49645 0.988515 1.86351C1.62145 1.23058 2.47989 0.875 3.375 0.875H23.625C24.5201 0.875 25.3785 1.23058 26.0115 1.86351C26.6444 2.49645 27 3.35489 27 4.25V17.75C27 18.6451 26.6444 19.5035 26.0115 20.1365C25.3785 20.7694 24.5201 21.125 23.625 21.125H3.375C2.47989 21.125 1.62145 20.7694 0.988515 20.1365C0.355579 19.5035 0 18.6451 0 17.75V4.25ZM3.375 2.5625C2.92745 2.5625 2.49822 2.74029 2.18176 3.05676C1.86529 3.37322 1.6875 3.80245 1.6875 4.25V17.75C1.6875 18.1976 1.86529 18.6268 2.18176 18.9432C2.49822 19.2597 2.92745 19.4375 3.375 19.4375H23.625C24.0726 19.4375 24.5018 19.2597 24.8182 18.9432C25.1347 18.6268 25.3125 18.1976 25.3125 17.75V4.25C25.3125 3.80245 25.1347 3.37322 24.8182 3.05676C24.5018 2.74029 24.0726 2.5625 23.625 2.5625H3.375Z" fill="#002873"/>
</svg>
