<svg width="28" height="28" viewBox="0 0 28 28" fill="none" xmlns="http://www.w3.org/2000/svg">
<path fill-rule="evenodd" clip-rule="evenodd" d="M10.0752 1.8747C10.4896 2.12333 10.6239 2.66081 10.3753 3.07519L5.92042 10.5H22.0796L17.6247 3.07519C17.3761 2.66081 17.5104 2.12333 17.9248 1.8747C18.3392 1.62607 18.8767 1.76044 19.1253 2.17483L24.1204 10.5H26.25C27.2165 10.5 28 11.2835 28 12.25V14C28 14.9665 27.2165 15.75 26.25 15.75V23.6254C26.25 26.0418 24.2911 28 21.875 28H6.125C3.70889 28 1.75 26.0418 1.75 23.6254V15.75C0.783502 15.75 0 14.9665 0 14V12.25C0 11.2835 0.783502 10.5 1.75 10.5H3.87958L8.87469 2.17483C9.12332 1.76044 9.6608 1.62607 10.0752 1.8747ZM3.5 15.75V23.6254C3.5 25.075 4.67512 26.25 6.125 26.25H21.875C23.3249 26.25 24.5 25.075 24.5 23.6254V15.75H3.5ZM1.75 12.25V14H26.25V12.25H1.75ZM7 17.5C7.48325 17.5 7.875 17.8918 7.875 18.375V23.625C7.875 24.1083 7.48325 24.5 7 24.5C6.51675 24.5 6.125 24.1083 6.125 23.625V18.375C6.125 17.8918 6.51675 17.5 7 17.5ZM10.5 17.5C10.9832 17.5 11.375 17.8918 11.375 18.375V23.625C11.375 24.1083 10.9832 24.5 10.5 24.5C10.0168 24.5 9.625 24.1083 9.625 23.625V18.375C9.625 17.8918 10.0168 17.5 10.5 17.5ZM14 17.5C14.4832 17.5 14.875 17.8918 14.875 18.375V23.625C14.875 24.1083 14.4832 24.5 14 24.5C13.5168 24.5 13.125 24.1083 13.125 23.625V18.375C13.125 17.8918 13.5168 17.5 14 17.5ZM17.5 17.5C17.9832 17.5 18.375 17.8918 18.375 18.375V23.625C18.375 24.1083 17.9832 24.5 17.5 24.5C17.0168 24.5 16.625 24.1083 16.625 23.625V18.375C16.625 17.8918 17.0168 17.5 17.5 17.5ZM21 17.5C21.4832 17.5 21.875 17.8918 21.875 18.375V23.625C21.875 24.1083 21.4832 24.5 21 24.5C20.5168 24.5 20.125 24.1083 20.125 23.625V18.375C20.125 17.8918 20.5168 17.5 21 17.5Z" fill="#002873"/>
</svg>
