<svg width="74" height="74" viewBox="0 0 74 74" fill="none" xmlns="http://www.w3.org/2000/svg">
<rect width="74" height="74" rx="37" fill="#EAF1FF"/>
<g clip-path="url(#clip0_1010_35911)">
<path d="M33.7461 29.7263C33.9773 29.9549 33.9773 30.2979 33.775 30.4979L24.1216 40.0439C23.9193 40.244 23.5436 40.244 23.3413 40.0153C23.1101 39.7867 23.1101 39.4437 23.3124 39.2436L32.9658 29.6977C33.1681 29.4976 33.5149 29.4976 33.7461 29.7263Z" fill="#002873"/>
<path d="M35.2222 32.613C35.4534 32.8416 35.4534 33.1846 35.2511 33.3847L27.9966 40.6156C27.7943 40.8156 27.4186 40.8156 27.2163 40.587C26.9851 40.3584 26.9851 40.0154 27.1874 39.8153L34.4419 32.5844C34.6442 32.3843 35.0199 32.3843 35.2222 32.613Z" fill="#002873"/>
<path d="M43.952 31.584H42.9404C42.0444 31.584 41.293 32.2985 41.293 33.2131V39.1293C41.293 40.0153 42.0155 40.7584 42.9404 40.7584H43.952V31.584Z" fill="#002873"/>
<path d="M56.0604 23.9814H17.9382C17.5046 23.9814 17.1289 24.353 17.1289 24.7817V47.5891C17.1289 48.0464 17.5046 48.3894 17.9382 48.3894H21.551C21.551 49.2754 22.2735 49.9899 23.1695 49.9899H50.8002C51.6961 49.9899 52.4187 49.2754 52.4187 48.3894H56.0315C56.4939 48.3894 56.8407 48.0178 56.8407 47.5891V24.7817C56.8696 24.353 56.4939 23.9814 56.0604 23.9814ZM44.9041 44.6167C44.9041 45.074 44.5283 45.417 44.0948 45.417H20.2793C19.8168 45.417 19.47 45.0454 19.47 44.6167V27.4969C19.47 27.0396 19.8457 26.6966 20.2793 26.6966H44.0659C44.5283 26.6966 44.8752 27.0682 44.8752 27.4969V44.6167H44.9041ZM53.7193 37.5859H48.2856C47.9966 37.5859 47.7365 37.3286 47.7365 37.0143C47.7365 36.6999 47.9677 36.4426 48.2856 36.4426H53.7193C54.0083 36.4426 54.2684 36.6999 54.2684 37.0143C54.2684 37.3286 54.0372 37.5859 53.7193 37.5859ZM53.7193 34.985H48.2856C47.9966 34.985 47.7365 34.7278 47.7365 34.4134C47.7365 34.099 47.9677 33.8418 48.2856 33.8418H53.7193C54.0083 33.8418 54.2684 34.099 54.2684 34.4134C54.2684 34.7278 54.0372 34.985 53.7193 34.985ZM54.991 30.898C54.991 31.3553 54.6153 31.6982 54.1817 31.6982H47.881C47.4186 31.6982 47.0717 31.3267 47.0717 30.898V27.7827C47.0717 27.3254 47.4475 26.9824 47.881 26.9824H54.1817C54.6442 26.9824 54.991 27.354 54.991 27.7827V30.898Z" fill="#002873"/>
</g>
<defs>
<clipPath id="clip0_1010_35911">
<rect width="39.7407" height="26.037" fill="white" transform="translate(17.1289 23.9814)"/>
</clipPath>
</defs>
</svg>
