<svg width="74" height="74" viewBox="0 0 74 74" fill="none" xmlns="http://www.w3.org/2000/svg">
<rect width="74" height="74" rx="37" fill="#EAF1FF"/>
<g clip-path="url(#clip0_1010_35918)">
<path d="M47.049 36.6191C47.049 36.7504 46.942 36.8555 46.8081 36.8555H27.1589C27.025 36.8555 26.918 36.7504 26.918 36.6191V36.2251C26.918 36.0938 27.025 35.9888 27.1589 35.9888H46.8349C46.9687 35.9888 47.0758 36.0938 47.0758 36.2251V36.6191H47.049Z" fill="#002873"/>
<path d="M47.049 43.0534C47.049 43.1847 46.942 43.2898 46.8081 43.2898H27.1589C27.025 43.2898 26.918 43.1847 26.918 43.0534V42.6595C26.918 42.5281 27.025 42.4231 27.1589 42.4231H46.8349C46.9687 42.4231 47.0758 42.5281 47.0758 42.6595V43.0534H47.049Z" fill="#002873"/>
<path d="M29.7019 28.9502C31.1743 28.9502 32.4057 30.027 32.5931 31.3926C32.6199 31.2613 32.6199 31.1038 32.6199 30.9724C32.6199 29.3704 31.3081 28.0835 29.6752 28.0835C28.0422 28.0835 26.7305 29.3704 26.7305 30.9724C26.7305 31.13 26.7572 31.2613 26.7572 31.3926C26.9982 30.0007 28.2296 28.9502 29.7019 28.9502Z" fill="#002873"/>
<path d="M29.7025 30.1846C28.0695 30.1846 26.7578 31.4715 26.7578 33.0735C26.7578 34.6756 28.0695 35.9624 29.7025 35.9624C31.3355 35.9624 32.6472 34.6756 32.6472 33.0735C32.6472 31.4715 31.3355 30.1846 29.7025 30.1846ZM29.7025 35.017C28.6049 35.017 27.6948 34.124 27.6948 33.0472C27.6948 31.9705 28.6049 31.0775 29.7025 31.0775C30.8001 31.0775 31.7103 31.9705 31.7103 33.0472C31.7103 34.1503 30.8001 35.017 29.7025 35.017Z" fill="#002873"/>
<path d="M36.9832 28.9502C38.4555 28.9502 39.687 30.027 39.8744 31.3926C39.9011 31.2613 39.9011 31.1038 39.9011 30.9724C39.9011 29.3704 38.5894 28.0835 36.9564 28.0835C35.3235 28.0835 34.0117 29.3704 34.0117 30.9724C34.0117 31.13 34.0385 31.2613 34.0385 31.3926C34.3062 30.0007 35.5108 28.9502 36.9832 28.9502Z" fill="#002873"/>
<path d="M36.9838 30.1846C35.3508 30.1846 34.0391 31.4715 34.0391 33.0735C34.0391 34.6756 35.3508 35.9624 36.9838 35.9624C38.6167 35.9624 39.9285 34.6756 39.9285 33.0735C39.9285 31.4715 38.6167 30.1846 36.9838 30.1846ZM36.9838 35.017C35.8862 35.017 34.976 34.124 34.976 33.0472C34.976 31.9705 35.8862 31.0775 36.9838 31.0775C38.0813 31.0775 38.9915 31.9705 38.9915 33.0472C39.0183 34.1503 38.1081 35.017 36.9838 35.017Z" fill="#002873"/>
<path d="M44.2918 28.9502C45.7641 28.9502 46.9956 30.027 47.1829 31.3926C47.2097 31.2613 47.2097 31.1038 47.2097 30.9724C47.2097 29.3704 45.898 28.0835 44.265 28.0835C42.632 28.0835 41.3203 29.3704 41.3203 30.9724C41.3203 31.13 41.3471 31.2613 41.3471 31.3926C41.588 30.0007 42.8194 28.9502 44.2918 28.9502Z" fill="#002873"/>
<path d="M44.2924 30.1846C42.6594 30.1846 41.3477 31.4715 41.3477 33.0735C41.3477 34.6756 42.6594 35.9624 44.2924 35.9624C45.9253 35.9624 47.2371 34.6756 47.2371 33.0735C47.2371 31.4715 45.9253 30.1846 44.2924 30.1846ZM44.2924 35.017C43.1948 35.017 42.2846 34.124 42.2846 33.0472C42.2846 31.9705 43.1948 31.0775 44.2924 31.0775C45.3899 31.0775 46.3001 31.9705 46.3001 33.0472C46.3001 34.1503 45.3899 35.017 44.2924 35.017Z" fill="#002873"/>
<path d="M39.4727 40.0596C39.4727 41.6354 40.7844 42.896 42.3906 42.896C43.9968 42.896 45.3085 41.6354 45.3085 40.0596H39.4727Z" fill="#002873"/>
<path d="M30.3991 40.8737C31.1219 40.6373 32.032 39.2979 31.4966 37.6433H28.8732C28.2842 39.3504 29.2212 40.6373 29.944 40.8737V41.8191L29.0338 42.4495H31.336L30.4258 41.8191V40.8737H30.3991Z" fill="#002873"/>
<path d="M36.6895 40.8737C37.2517 40.0595 37.5729 39.2979 37.0375 37.6433H35.9132C35.3242 39.3504 35.5919 40.007 36.2344 40.8737V41.8191L35.3242 42.4495H37.5997L36.6895 41.8191V40.8737Z" fill="#002873"/>
<path d="M49.1117 19.1279H47.7732C47.4252 18.3662 46.6221 17.8147 45.7119 17.8147H28.3114C27.4012 17.8147 26.5981 18.3662 26.2501 19.1279H24.9116C23.6266 19.1279 22.6094 20.1258 22.6094 21.3602V24.9057H51.3872V21.3602C51.3872 20.1258 50.3699 19.1279 49.1117 19.1279ZM32.7017 22.2532C32.7017 22.3845 32.5946 22.4633 32.4607 22.4633H28.7933C28.6594 22.4633 28.5523 22.3582 28.5523 22.2532V21.8067C28.5523 21.6754 28.6594 21.5966 28.7933 21.5966H32.4875C32.6214 21.5966 32.7284 21.7016 32.7284 21.8067V22.2532H32.7017ZM33.4512 20.7299C33.4512 20.8612 33.3442 20.94 33.2103 20.94H28.0169C27.8831 20.94 27.776 20.835 27.776 20.7299V20.2572C27.776 20.1258 27.8831 20.0471 28.0169 20.0471H33.2371C33.3709 20.0471 33.478 20.1521 33.478 20.2572V20.7299H33.4512ZM39.6887 22.437L38.2966 20.0471H41.8035L40.465 22.437H39.6887ZM41.5358 22.437L42.8743 20.0471H43.6506L45.0427 22.437H41.5358Z" fill="#002873"/>
<path d="M22.6094 52.3507C22.6094 53.585 23.6266 54.583 24.8848 54.583H25.3667V55.0032C25.3667 55.6598 25.9021 56.1851 26.5713 56.1851H27.08C27.7492 56.1851 28.2846 55.6598 28.2846 55.0032V54.583H45.7119V55.0032C45.7119 55.6598 46.2473 56.1851 46.9166 56.1851H47.4252C48.0944 56.1851 48.6298 55.6598 48.6298 55.0032V54.583H49.1117C50.3699 54.583 51.3872 53.585 51.3872 52.3507V25.6411H22.6094V52.3507ZM25.1525 27.8735C25.1525 27.7422 25.2596 27.6371 25.3935 27.6371H48.6298C48.7637 27.6371 48.8708 27.7422 48.8708 27.8735V44.4717C48.8708 44.6031 48.7637 44.7081 48.6298 44.7081H25.3935C25.2596 44.7081 25.1525 44.6031 25.1525 44.4717V27.8735ZM24.4297 45.995C24.4297 45.8637 24.5368 45.7586 24.6707 45.7586H49.3259C49.4597 45.7586 49.5668 45.8637 49.5668 45.995V46.8617C49.5668 46.993 49.4597 47.0981 49.3259 47.0981H24.6707C24.5368 47.0981 24.4297 46.993 24.4297 46.8617V45.995Z" fill="#002873"/>
</g>
<defs>
<clipPath id="clip0_1010_35918">
<rect width="28.7778" height="38.3704" fill="white" transform="translate(22.6094 17.8147)"/>
</clipPath>
</defs>
</svg>
