<svg width="72" height="70" viewBox="0 0 72 70" fill="none" xmlns="http://www.w3.org/2000/svg">
<ellipse cx="35.9932" cy="35" rx="35.9932" ry="35" fill="#EAF1FF"/>
<path d="M52.4212 52.1612C52.4212 47.4196 52.0207 45.0065 47.0079 43.0685C42.0117 41.1389 40.4161 39.5134 40.4161 36.03C40.4161 33.9421 41.9411 34.6219 42.6094 30.7922C42.8918 29.2047 44.238 30.7669 44.4969 27.1421C44.4969 25.6981 43.7602 25.3392 43.7602 25.3392C43.7602 25.3392 44.1344 23.2006 44.2803 21.5539C44.431 19.8291 43.3437 16.1494 38.8652 15.0199C38.0838 14.3 37.5543 13.1579 39.9642 12.0137C34.6926 11.7941 33.4665 14.2684 30.6589 16.0882C28.2702 17.6842 27.6253 20.2112 27.7407 21.556C27.8936 23.2027 28.2655 25.3413 28.2655 25.3413C28.2655 25.3413 27.5265 25.7002 27.5265 27.1442C27.7854 30.7711 29.1362 29.2068 29.4163 30.7944C30.0846 34.624 31.612 33.9442 31.612 36.0321C31.612 39.5155 31.1131 40.6977 26.1145 42.6273C21.0994 44.5632 19.5391 47.6666 19.5649 52.1612C19.572 53.506 19.5391 54 19.5391 54H52.4471C52.4471 54 52.4212 53.506 52.4212 52.1612Z" fill="#002873"/>
</svg>
