<svg width="74" height="74" viewBox="0 0 74 74" fill="none" xmlns="http://www.w3.org/2000/svg">
<rect width="74" height="74" rx="37" fill="#EAF1FF"/>
<path d="M19 36.9963H37M31.6 22.5993V51.3934M20.8 31.5974L26.2 36.9963L20.8 42.3952M37 26.1985L31.6 31.5974L26.2 26.1985M26.2 47.7941L31.6 42.3952L34.3 45.0946M51.4 22.5993V41.5674C52.7726 42.3597 53.8454 43.5827 54.4519 45.0467C55.0585 46.5107 55.1649 48.1339 54.7547 49.6646C54.3444 51.1952 53.4405 52.5478 52.1831 53.5125C50.9256 54.4771 49.385 55 47.8 55C46.215 55 44.6744 54.4771 43.4169 53.5125C42.1595 52.5478 41.2556 51.1952 40.8453 49.6646C40.4351 48.1339 40.5415 46.5107 41.1481 45.0467C41.7546 43.5827 42.8274 42.3597 44.2 41.5674V22.5993C44.2 21.6447 44.5793 20.7292 45.2544 20.0542C45.9295 19.3792 46.8452 19 47.8 19C48.7548 19 49.6704 19.3792 50.3456 20.0542C51.0207 20.7292 51.4 21.6447 51.4 22.5993Z" stroke="#002873" stroke-width="3" stroke-linecap="round" stroke-linejoin="round"/>
</svg>
