<svg width="74" height="74" viewBox="0 0 74 74" fill="none" xmlns="http://www.w3.org/2000/svg">
<rect width="74" height="74" rx="37" fill="#EAF1FF"/>
<g clip-path="url(#clip0_1010_35941)">
<path d="M39.8958 21.2407H34.1263C33.528 21.2407 33.0365 22.1449 32.9297 22.8177H41.0924C40.9856 22.1449 40.4941 21.2407 39.8958 21.2407Z" fill="#002873"/>
<path d="M29.19 21.6821H25.1086C24.6813 21.6821 24.318 22.355 24.2539 22.8176H30.0234C29.9807 22.3339 29.6174 21.6821 29.19 21.6821Z" fill="#002873"/>
<path d="M49.7482 22.7755C49.7482 22.376 49.4063 21.6821 49.0003 21.6821H45.4745C45.0685 21.6821 44.7266 22.376 44.7266 22.7755V22.8176H49.7482V22.7755Z" fill="#002873"/>
<path d="M51.5427 23.4275H50.8589H23.3149H22.4602C21.7764 23.4275 21.2422 23.9531 21.2422 24.605V49.2479C21.2422 49.8997 21.7764 50.4464 22.4602 50.4464H25.2808V51.5818C25.2808 52.2336 25.815 52.7803 26.4988 52.7803H27.0117C27.6741 52.7803 28.2297 52.2546 28.2297 51.5818V50.4464H45.5382V51.5818C45.5382 52.2336 46.0724 52.7803 46.7562 52.7803H47.269C47.9314 52.7803 48.487 52.2546 48.487 51.5818V50.4464H51.5854C52.2479 50.4464 52.8034 49.9207 52.8034 49.2479V24.605C52.7607 23.9531 52.2265 23.4275 51.5427 23.4275ZM45.6877 26.3712V27.3384C45.3458 27.4646 45.0894 27.801 45.0894 28.1794C45.0894 28.6841 45.4954 29.0836 46.0083 29.0836C46.5211 29.0836 46.9271 28.6841 46.9271 28.1794C46.9271 27.801 46.6707 27.4646 46.3288 27.3384V26.3712C47.2049 26.5184 47.8673 27.2753 47.8673 28.1794C47.8673 29.1887 47.034 30.0087 46.0083 30.0087C44.9826 30.0087 44.1492 29.1887 44.1492 28.1794C44.1492 27.2753 44.8116 26.5394 45.6877 26.3712ZM36.6061 25.9507V27.1281C36.1788 27.2963 35.8796 27.6958 35.8796 28.1584C35.8796 28.7682 36.3924 29.2728 37.0121 29.2728C37.6318 29.2728 38.1447 28.7682 38.1447 28.1584C38.1447 27.6748 37.8455 27.2753 37.4181 27.1281V25.9507C38.4866 26.1399 39.3199 27.0651 39.3199 28.1794C39.3199 29.42 38.2942 30.4503 37.0121 30.4503C35.73 30.4503 34.7043 29.441 34.7043 28.1794C34.7043 27.0651 35.5163 26.1399 36.6061 25.9507ZM27.6527 26.3712V27.3384C27.3108 27.4646 27.0544 27.801 27.0544 28.1794C27.0544 28.6841 27.4604 29.0836 27.9733 29.0836C28.4861 29.0836 28.8921 28.6841 28.8921 28.1794C28.8921 27.801 28.6357 27.4646 28.2938 27.3384V26.3712C29.1699 26.5184 29.8323 27.2753 29.8323 28.1794C29.8323 29.1887 28.9989 30.0087 27.9733 30.0087C26.9476 30.0087 26.1142 29.1887 26.1142 28.1794C26.1142 27.2753 26.7766 26.5394 27.6527 26.3712ZM49.4486 46.4093C49.4486 47.0611 48.9144 47.6078 48.2306 47.6078H25.7723C25.1099 47.6078 24.5543 47.0821 24.5543 46.4093V36.8003C24.5543 36.1484 25.0885 35.6018 25.7723 35.6018H48.252C48.9144 35.6018 49.47 36.1274 49.47 36.8003V46.4093H49.4486ZM50.1751 33.6253H23.8278C23.4004 33.6253 23.0585 33.3519 23.0585 32.9945C23.0585 32.637 23.4004 32.3637 23.8278 32.3637H50.1751C50.6025 32.3637 50.9444 32.637 50.9444 32.9945C50.9444 33.3309 50.6025 33.6253 50.1751 33.6253Z" fill="#002873"/>
</g>
<defs>
<clipPath id="clip0_1010_35941">
<rect width="31.5185" height="31.5185" fill="white" transform="translate(21.2422 21.2407)"/>
</clipPath>
</defs>
</svg>
