<svg width="24" height="25" viewBox="0 0 24 25" fill="none" xmlns="http://www.w3.org/2000/svg">
<rect x="0.5" y="1" width="23" height="23" rx="11.5" fill="white"/>
<rect x="0.5" y="1" width="23" height="23" rx="11.5" stroke="#D2D8DF"/>
<path fill-rule="evenodd" clip-rule="evenodd" d="M12 7.5C12.1206 7.5 12.2362 7.54789 12.3214 7.63313C12.4067 7.71838 12.4545 7.83399 12.4545 7.95455V12.0455H16.5455C16.666 12.0455 16.7816 12.0933 16.8669 12.1786C16.9521 12.2638 17 12.3794 17 12.5C17 12.6206 16.9521 12.7362 16.8669 12.8214C16.7816 12.9067 16.666 12.9545 16.5455 12.9545H12.4545V17.0455C12.4545 17.166 12.4067 17.2816 12.3214 17.3669C12.2362 17.4521 12.1206 17.5 12 17.5C11.8794 17.5 11.7638 17.4521 11.6786 17.3669C11.5933 17.2816 11.5455 17.166 11.5455 17.0455V12.9545H7.45455C7.33399 12.9545 7.21838 12.9067 7.13313 12.8214C7.04789 12.7362 7 12.6206 7 12.5C7 12.3794 7.04789 12.2638 7.13313 12.1786C7.21838 12.0933 7.33399 12.0455 7.45455 12.0455H11.5455V7.95455C11.5455 7.83399 11.5933 7.71838 11.6786 7.63313C11.7638 7.54789 11.8794 7.5 12 7.5Z" fill="#002873"/>
</svg>
