<svg width="33" height="34" viewBox="0 0 33 34" fill="none" xmlns="http://www.w3.org/2000/svg">
<path d="M31.9194 17C31.9224 19.0242 31.5257 21.029 30.752 22.8995C29.9784 24.77 28.843 26.4694 27.4111 27.9C25.9787 29.3326 24.2781 30.4689 22.4064 31.2438C20.5347 32.0188 18.5286 32.4174 16.5028 32.4167C14.3224 32.4221 12.166 31.9618 10.1778 31.0667L3.73277 32.02C3.41277 32.0723 3.08485 32.0456 2.7775 31.9424C2.47014 31.8391 2.19265 31.6624 1.96911 31.4275C1.74558 31.1926 1.58276 30.9067 1.49481 30.5947C1.40686 30.2826 1.39643 29.9537 1.46444 29.6367L2.35944 23.0984C1.51017 21.178 1.07624 19.0998 1.0861 17C1.08333 14.9759 1.48014 12.9711 2.25378 11.1007C3.02742 9.2302 4.16267 7.53085 5.59444 6.10004C7.02675 4.6674 8.72738 3.53111 10.5991 2.75611C12.4708 1.98111 14.4769 1.5826 16.5028 1.58338C20.5938 1.58365 24.5173 3.20822 27.4111 6.10004C28.8423 7.53128 29.9771 9.23072 30.7507 11.1011C31.5243 12.9714 31.9215 14.976 31.9194 17Z" stroke="white" stroke-width="1.8" stroke-linecap="round" stroke-linejoin="round"/>
<path d="M15.9883 10.0267V23.0184M9.5 16.5367H22.5067" stroke="white" stroke-width="1.8" stroke-miterlimit="10" stroke-linecap="round"/>
</svg>
