<svg width="16" height="18" viewBox="0 0 16 18" fill="none" xmlns="http://www.w3.org/2000/svg">
<path d="M14.5 7.74985C14.6812 7.74986 14.8563 7.8155 14.9929 7.93462C15.1295 8.05375 15.2184 8.2183 15.243 8.39785L15.25 8.49985V15.4999C15.2501 16.07 15.0337 16.6189 14.6446 17.0356C14.2556 17.4523 13.7228 17.7058 13.154 17.7449L13 17.7499H3C2.42987 17.7499 1.88098 17.5336 1.46425 17.1445C1.04751 16.7554 0.794022 16.2226 0.755 15.6539L0.75 15.4999V8.49985C0.750058 8.30983 0.822245 8.12691 0.951973 7.98806C1.0817 7.84921 1.2593 7.76478 1.44888 7.75183C1.63846 7.73888 1.82589 7.79837 1.9733 7.91829C2.12071 8.0382 2.2171 8.2096 2.243 8.39785L2.25 8.49985V15.4999C2.25 15.8799 2.532 16.1939 2.898 16.2429L3 16.2499H13C13.1812 16.2498 13.3563 16.1842 13.4929 16.0651C13.6295 15.946 13.7184 15.7814 13.743 15.6019L13.75 15.4999V8.49985C13.75 8.30094 13.829 8.11018 13.9697 7.96952C14.1103 7.82887 14.3011 7.74985 14.5 7.74985ZM3.468 4.46585L7.466 0.469855C7.59299 0.342837 7.76134 0.265609 7.94045 0.252212C8.11956 0.238816 8.29753 0.290141 8.442 0.396855L8.526 0.468855L12.53 4.46585C12.6645 4.59951 12.7434 4.77917 12.7508 4.96867C12.7582 5.15817 12.6936 5.34344 12.5699 5.48717C12.4462 5.63091 12.2726 5.72245 12.0841 5.74335C11.8956 5.76426 11.7062 5.71299 11.554 5.59985L11.47 5.52685L8.75 2.81285V12.5049C8.74999 12.6861 8.68436 12.8612 8.56523 12.9978C8.44611 13.1344 8.28155 13.2232 8.102 13.2479L8 13.2549C7.81876 13.2548 7.64366 13.1892 7.50707 13.0701C7.37048 12.951 7.28165 12.7864 7.257 12.6069L7.25 12.5049V2.80585L4.529 5.52685C4.40183 5.65398 4.23321 5.73119 4.05388 5.74441C3.87455 5.75762 3.69643 5.70597 3.552 5.59885L3.468 5.52685C3.34087 5.39968 3.26366 5.23107 3.25045 5.05173C3.23723 4.8724 3.28889 4.69429 3.396 4.54985L3.468 4.46585Z" fill="#002873"/>
</svg>
