<svg width="49" height="49" viewBox="0 0 49 49" fill="none" xmlns="http://www.w3.org/2000/svg">
<g clip-path="url(#clip0_1471_181369)">
<path d="M24.6472 0.458252C18.2802 0.458252 12.1682 2.98969 7.66966 7.49127C3.16644 11.9946 0.636013 18.1021 0.634766 24.4707C0.634766 30.8366 3.16733 36.9485 7.66966 41.4501C12.1682 45.9517 18.2802 48.4832 24.6472 48.4832C31.0143 48.4832 37.1262 45.9517 41.6248 41.4501C46.1271 36.9485 48.6597 30.8366 48.6597 24.4707C48.6597 18.1048 46.1271 11.9929 41.6248 7.49127C37.1262 2.98969 31.0143 0.458252 24.6472 0.458252Z" fill="url(#paint0_linear_1471_181369)"/>
<path d="M11.5052 24.217C18.5064 21.1674 23.1738 19.1567 25.5075 18.1854C32.1785 15.4115 33.5629 14.9298 34.4671 14.9135C34.666 14.9103 35.1087 14.9594 35.3976 15.193C35.6378 15.39 35.7053 15.6564 35.7391 15.8434C35.7691 16.0302 35.8103 16.4561 35.7766 16.7885C35.4164 20.5855 33.8518 29.7995 33.0564 34.0523C32.7225 35.8518 32.0584 36.4551 31.4168 36.514C30.0211 36.6423 28.963 35.5925 27.6123 34.7074C25.5 33.3218 24.3069 32.4596 22.2546 31.1078C19.8833 29.5455 21.4216 28.6867 22.7723 27.2834C23.125 26.9161 29.2707 21.3276 29.387 20.8207C29.402 20.7573 29.417 20.5209 29.2745 20.3964C29.1356 20.2714 28.9293 20.3142 28.7792 20.348C28.5653 20.396 25.1923 22.6277 18.6489 27.0426C17.6922 27.7007 16.8255 28.0215 16.0451 28.0046C15.1897 27.9862 13.5388 27.5198 12.3119 27.1214C10.8111 26.6325 9.61426 26.374 9.71932 25.5437C9.77184 25.1114 10.3684 24.6691 11.5052 24.217Z" fill="white"/>
</g>
<defs>
<linearGradient id="paint0_linear_1471_181369" x1="2401.88" y1="0.458252" x2="2401.88" y2="4802.95" gradientUnits="userSpaceOnUse">
<stop stop-color="#2AABEE"/>
<stop offset="1" stop-color="#229ED9"/>
</linearGradient>
<clipPath id="clip0_1471_181369">
<rect width="48.0249" height="48.0249" fill="white" transform="translate(0.634766 0.458252)"/>
</clipPath>
</defs>
</svg>
