<svg width="22" height="22" viewBox="0 0 22 22" fill="none" xmlns="http://www.w3.org/2000/svg">
<g clip-path="url(#clip0_441_6493)">
<path d="M11 0C8.08328 0 5.28344 1.15964 3.22266 3.2218C1.15975 5.28477 0.000571433 8.08256 0 11C0 13.9162 1.16016 16.716 3.22266 18.7782C5.28344 20.8404 8.08328 22 11 22C13.9167 22 16.7166 20.8404 18.7773 18.7782C20.8398 16.716 22 13.9162 22 11C22 8.0838 20.8398 5.28395 18.7773 3.2218C16.7166 1.15964 13.9167 0 11 0Z" fill="url(#paint0_linear_441_6493)"/>
<path d="M4.97927 10.884C8.18646 9.48703 10.3246 8.56596 11.3936 8.12097C14.4496 6.8503 15.0838 6.62961 15.498 6.62214C15.5891 6.62067 15.7919 6.64319 15.9243 6.75018C16.0343 6.84042 16.0652 6.96245 16.0807 7.04813C16.0944 7.13372 16.1133 7.3288 16.0979 7.48108C15.9329 9.22046 15.2161 13.4414 14.8518 15.3896C14.6988 16.2139 14.3946 16.4903 14.1007 16.5172C13.4613 16.576 12.9766 16.0951 12.3579 15.6897C11.3902 15.0549 10.8436 14.66 9.90349 14.0407C8.81724 13.325 9.52193 12.9316 10.1407 12.2888C10.3022 12.1205 13.1176 9.56042 13.1708 9.32822C13.1777 9.29917 13.1846 9.19089 13.1193 9.13383C13.0557 9.0766 12.9611 9.09619 12.8924 9.11166C12.7944 9.13366 11.2493 10.156 8.25177 12.1784C7.81349 12.4799 7.41646 12.6268 7.05896 12.6191C6.66708 12.6107 5.91083 12.397 5.3488 12.2145C4.6613 11.9906 4.11302 11.8721 4.16115 11.4918C4.18521 11.2938 4.45849 11.0911 4.97927 10.884Z" fill="white"/>
</g>
<defs>
<linearGradient id="paint0_linear_441_6493" x1="1100" y1="0" x2="1100" y2="2200" gradientUnits="userSpaceOnUse">
<stop stop-color="#2AABEE"/>
<stop offset="1" stop-color="#229ED9"/>
</linearGradient>
<clipPath id="clip0_441_6493">
<rect width="22" height="22" fill="white"/>
</clipPath>
</defs>
</svg>
