<svg width="46" height="46" viewBox="0 0 46 46" fill="none" xmlns="http://www.w3.org/2000/svg">
<rect width="46" height="46" rx="23" fill="#EAF1FF"/>
<path d="M23.7048 15.9981H22.2956C22.1667 15.9981 22.0612 16.1035 22.0612 16.2324V24.2979C22.0612 24.374 22.0964 24.4443 22.1579 24.4883L27.0007 28.0244C27.1061 28.1006 27.2526 28.0801 27.3288 27.9746L28.1667 26.832C28.2458 26.7236 28.2223 26.5772 28.1169 26.5039L23.9391 23.4834V16.2324C23.9391 16.1035 23.8337 15.9981 23.7048 15.9981ZM30.1442 18.2012L34.738 19.3232C34.8844 19.3584 35.028 19.2471 35.028 19.0977L35.0514 14.3662C35.0514 14.1699 34.8258 14.0586 34.6735 14.1816L30.0563 17.7881C30.0214 17.8151 29.9949 17.8514 29.9797 17.8928C29.9645 17.9342 29.9613 17.9791 29.9705 18.0222C29.9797 18.0654 30.0008 18.1051 30.0316 18.1367C30.0623 18.1684 30.1013 18.1907 30.1442 18.2012ZM35.0573 27.0225L33.3962 26.4512C33.3382 26.4313 33.2749 26.4349 33.2196 26.4612C33.1643 26.4875 33.1214 26.5344 33.1003 26.5918C33.0446 26.7412 32.986 26.8877 32.9245 27.0342C32.403 28.2676 31.6559 29.3779 30.7008 30.3301C29.7564 31.2775 28.6371 32.0326 27.4049 32.5537C26.1286 33.0933 24.7565 33.3703 23.3708 33.3682C21.9704 33.3682 20.6139 33.0957 19.3366 32.5537C18.1045 32.0326 16.9852 31.2775 16.0407 30.3301C15.0885 29.3779 14.3415 28.2676 13.8171 27.0342C13.2804 25.7571 13.0054 24.3853 13.0085 23C13.0085 21.5996 13.2809 20.2402 13.8229 18.9629C14.3444 17.7295 15.0915 16.6191 16.0465 15.667C16.991 14.7196 18.1103 13.9644 19.3424 13.4434C20.6139 12.9014 21.9733 12.6289 23.3737 12.6289C24.7741 12.6289 26.1305 12.9014 27.4079 13.4434C28.64 13.9644 29.7593 14.7196 30.7038 15.667C31.0026 15.9688 31.2839 16.2822 31.5417 16.6133L33.2936 15.2422C30.988 12.2949 27.3991 10.3994 23.3678 10.4023C16.3483 10.4053 10.7116 16.1064 10.7819 23.1289C10.8522 30.0283 16.4626 35.5977 23.3737 35.5977C28.8083 35.5977 33.4372 32.1523 35.2008 27.3272C35.2448 27.2041 35.1803 27.0664 35.0573 27.0225Z" fill="#002873"/>
</svg>
