<svg width="25" height="26" viewBox="0 0 25 26" fill="none" xmlns="http://www.w3.org/2000/svg">
<g clip-path="url(#clip0_441_6489)">
<path d="M0.533203 12.849C0.532617 14.9659 1.08574 17.0329 2.1375 18.8547L0.432617 25.0795L6.80292 23.4092C8.56486 24.3684 10.539 24.871 12.5451 24.8711H12.5504C19.1729 24.8711 24.5638 19.4822 24.5667 12.8585C24.5679 9.64881 23.3191 6.63065 21.0502 4.35995C18.7816 2.08945 15.7645 0.838379 12.5499 0.836914C5.92655 0.836914 0.536035 6.22558 0.533301 12.849" fill="url(#paint0_linear_441_6489)"/>
<path d="M0.104492 12.8453C0.103808 15.0384 0.676756 17.1793 1.76601 19.0664L0 25.5143L6.59872 23.7841C8.41688 24.7754 10.4639 25.2981 12.5469 25.2989H12.5523C19.4125 25.2989 24.997 19.7161 25 12.8552C25.0011 9.53026 23.7074 6.4036 21.3574 4.05156C19.0071 1.6998 15.8821 0.403711 12.5523 0.402344C5.691 0.402344 0.107226 5.98436 0.104492 12.8453ZM4.03427 18.7414L3.78788 18.3503C2.75214 16.7034 2.20546 14.8003 2.20625 12.8461C2.20839 7.14344 6.8494 2.5039 12.5562 2.5039C15.3199 2.50507 17.9172 3.58242 19.8707 5.5371C21.8241 7.49198 22.899 10.0906 22.8983 12.8545C22.8958 18.5571 18.2547 23.1972 12.5523 23.1972H12.5482C10.6915 23.1962 8.87049 22.6976 7.28241 21.7553L6.90448 21.5312L2.98867 22.5579L4.03427 18.7414Z" fill="url(#paint1_linear_441_6489)"/>
<path d="M9.4414 7.64327C9.20839 7.1254 8.96318 7.11495 8.7416 7.10587C8.56015 7.09806 8.35273 7.09864 8.1455 7.09864C7.93808 7.09864 7.60107 7.17667 7.31621 7.4877C7.03105 7.79903 6.22754 8.55137 6.22754 10.0815C6.22754 11.6118 7.34209 13.0906 7.49746 13.2983C7.65302 13.5057 9.64911 16.7463 12.8104 17.993C15.4378 19.029 15.9724 18.8229 16.5427 18.771C17.113 18.7192 18.3829 18.0188 18.642 17.2926C18.9012 16.5664 18.9012 15.9439 18.8235 15.8139C18.7458 15.6843 18.5384 15.6064 18.2273 15.451C17.9162 15.2954 16.3871 14.543 16.102 14.4392C15.8169 14.3354 15.6096 14.2837 15.4021 14.5951C15.1947 14.906 14.5991 15.6064 14.4176 15.8139C14.2362 16.0218 14.0547 16.0476 13.7437 15.8921C13.4325 15.736 12.4308 15.408 11.2425 14.3485C10.3179 13.5241 9.69365 12.5061 9.5122 12.1946C9.33076 11.8837 9.49277 11.7151 9.64872 11.5602C9.78847 11.4208 9.95986 11.197 10.1155 11.0154C10.2706 10.8338 10.3224 10.7042 10.4261 10.4968C10.5299 10.2892 10.4779 10.1075 10.4003 9.95196C10.3224 9.79639 9.71796 8.25821 9.4414 7.64327Z" fill="white"/>
</g>
<defs>
<linearGradient id="paint0_linear_441_6489" x1="1207.13" y1="2425.1" x2="1207.13" y2="0.836914" gradientUnits="userSpaceOnUse">
<stop stop-color="#1FAF38"/>
<stop offset="1" stop-color="#60D669"/>
</linearGradient>
<linearGradient id="paint1_linear_441_6489" x1="1250" y1="2511.6" x2="1250" y2="0.402344" gradientUnits="userSpaceOnUse">
<stop stop-color="#F9F9F9"/>
<stop offset="1" stop-color="white"/>
</linearGradient>
<clipPath id="clip0_441_6489">
<rect width="25" height="25.1953" fill="white" transform="translate(0 0.402344)"/>
</clipPath>
</defs>
</svg>
