<svg width="55" height="56" viewBox="0 0 55 56" fill="none" xmlns="http://www.w3.org/2000/svg">
<g clip-path="url(#clip0_1471_181364)">
<path d="M1.35629 28.1417C1.35501 32.7628 2.56246 37.2749 4.85839 41.252L1.13672 54.8404L15.0428 51.1942C18.889 53.288 23.1984 54.3852 27.5776 54.3854H27.5892C42.0458 54.3854 53.8139 42.6216 53.8201 28.1624C53.8229 21.1558 51.0968 14.5674 46.1438 9.61054C41.1916 4.65415 34.6055 1.92312 27.5881 1.91992C13.1297 1.91992 1.36247 13.6831 1.35651 28.1417" fill="url(#paint0_linear_1471_181364)"/>
<path d="M0.417554 28.133C0.416062 32.9204 1.66678 37.5939 4.04457 41.7133L0.189453 55.7889L14.5941 52.012C18.5631 54.176 23.0317 55.3169 27.5788 55.3186H27.5905C42.5659 55.3186 54.7567 43.1316 54.7631 28.1548C54.7657 20.8965 51.9415 14.0711 46.8115 8.93675C41.681 3.80299 34.8593 0.973688 27.5905 0.970703C12.6126 0.970703 0.423523 13.156 0.417554 28.133ZM8.99606 41.0039L8.45821 40.1501C6.19724 36.5551 5.00387 32.4006 5.00558 28.1347C5.01027 15.6862 15.1414 5.5583 27.5991 5.5583C33.632 5.56086 39.3017 7.91264 43.5661 12.1796C47.8303 16.447 50.1768 22.1197 50.1753 28.1531C50.1697 40.6016 40.0384 50.7308 27.5905 50.7308H27.5816C23.5284 50.7286 19.5533 49.6402 16.0866 47.5832L15.2616 47.094L6.71356 49.3351L8.99606 41.0039Z" fill="url(#paint1_linear_1471_181364)"/>
<path d="M20.7969 16.7775C20.2883 15.6471 19.753 15.6242 19.2693 15.6044C18.8732 15.5874 18.4204 15.5886 17.9681 15.5886C17.5153 15.5886 16.7796 15.759 16.1578 16.4379C15.5353 17.1176 13.7812 18.7599 13.7812 22.1002C13.7812 25.4407 16.2143 28.6688 16.5534 29.1223C16.893 29.5748 21.2504 36.649 28.1514 39.3704C33.8867 41.632 35.0539 41.1822 36.2986 41.0688C37.5436 40.9558 40.3158 39.4269 40.8813 37.8415C41.4473 36.2563 41.4473 34.8975 41.2776 34.6135C41.1079 34.3306 40.6551 34.1607 39.9762 33.8214C39.297 33.4818 35.959 31.8392 35.3368 31.6126C34.7143 31.3862 34.2617 31.2732 33.8089 31.9531C33.3561 32.6318 32.056 34.1607 31.6597 34.6135C31.2638 35.0674 30.8675 35.1239 30.1887 34.7843C29.5093 34.4436 27.3228 33.7276 24.7286 31.4148C22.7102 29.6151 21.3476 27.3928 20.9515 26.7129C20.5554 26.0342 20.9091 25.6662 21.2495 25.3279C21.5546 25.0237 21.9287 24.5351 22.2685 24.1388C22.607 23.7423 22.72 23.4594 22.9464 23.0066C23.173 22.5534 23.0596 22.1569 22.8901 21.8173C22.72 21.4777 21.4007 18.1199 20.7969 16.7775Z" fill="white"/>
</g>
<defs>
<linearGradient id="paint0_linear_1471_181364" x1="2635.31" y1="5293.96" x2="2635.31" y2="1.91992" gradientUnits="userSpaceOnUse">
<stop stop-color="#1FAF38"/>
<stop offset="1" stop-color="#60D669"/>
</linearGradient>
<linearGradient id="paint1_linear_1471_181364" x1="2728.87" y1="5482.79" x2="2728.87" y2="0.970703" gradientUnits="userSpaceOnUse">
<stop stop-color="#F9F9F9"/>
<stop offset="1" stop-color="white"/>
</linearGradient>
<clipPath id="clip0_1471_181364">
<rect width="54.5737" height="55" fill="white" transform="translate(0.189453 0.970703)"/>
</clipPath>
</defs>
</svg>
