<svg width="45" height="45" viewBox="0 0 45 45" fill="none" xmlns="http://www.w3.org/2000/svg">
<path d="M3.58738 3.69724C0.531251 6.78248 0.53125 11.7159 0.53125 21.5974V23.3438C0.53125 33.2107 0.531251 38.1442 3.58738 41.244C6.67262 44.3001 11.6061 44.3001 21.4876 44.3001H23.2339C33.1009 44.3001 38.0343 44.3001 41.1341 41.244C44.1902 38.1587 44.1902 33.2253 44.1902 23.3438V21.5974C44.1902 11.7305 44.1902 6.79703 41.1341 3.69724C38.0489 0.641114 33.1154 0.641113 23.2339 0.641113H21.4876C11.6206 0.641113 6.68717 0.641114 3.58738 3.69724ZM7.89507 13.928H12.9013C13.0614 22.2523 16.7287 25.7741 19.6393 26.5018V13.928H24.34V21.1026C27.2069 20.797 30.2339 17.5226 31.2526 13.9134H35.9387C35.5567 15.7818 34.7935 17.5512 33.6968 19.1112C32.6 20.6712 31.1933 21.9882 29.5645 22.98C31.3822 23.8844 32.9875 25.164 34.2744 26.7343C35.5613 28.3047 36.5006 30.1301 37.0302 32.0901H31.8639C30.7578 28.6411 27.9928 25.9633 24.34 25.5995V32.0901H23.7578C13.8036 32.0901 8.12792 25.2793 7.89507 13.928Z" fill="#0077FF"/>
</svg>
